<?xml version="1.0" encoding="utf-8" standalone="no"?>
<!DOCTYPE svg PUBLIC "-//W3C//DTD SVG 1.1//EN"
  "http://www.w3.org/Graphics/SVG/1.1/DTD/svg11.dtd">
<svg xmlns:xlink="http://www.w3.org/1999/xlink" width="468pt" height="216pt" viewBox="0 0 468 216" xmlns="http://www.w3.org/2000/svg" version="1.1">
 <metadata>
  <rdf:RDF xmlns:dc="http://purl.org/dc/elements/1.1/" xmlns:cc="http://creativecommons.org/ns#" xmlns:rdf="http://www.w3.org/1999/02/22-rdf-syntax-ns#">
   <cc:Work>
    <dc:type rdf:resource="http://purl.org/dc/dcmitype/StillImage"/>
    <dc:date>2023-06-29T08:45:03.589904</dc:date>
    <dc:format>image/svg+xml</dc:format>
    <dc:creator>
     <cc:Agent>
      <dc:title>Matplotlib v3.7.1, https://matplotlib.org/</dc:title>
     </cc:Agent>
    </dc:creator>
   </cc:Work>
  </rdf:RDF>
 </metadata>
 <defs>
  <style type="text/css">*{stroke-linejoin: round; stroke-linecap: butt}</style>
 </defs>
 <g id="figure_1">
  <g id="patch_1">
   <path d="M 0 216 
L 468 216 
L 468 0 
L 0 0 
z
" style="fill: #ffffff"/>
  </g>
  <g id="axes_1">
   <g id="patch_2">
    <path d="M 56.495 188.12 
L 457.2 188.12 
L 457.2 10.8 
L 56.495 10.8 
z
" style="fill: #ffffff"/>
   </g>
   <g id="matplotlib.axis_1">
    <g id="xtick_1">
     <g id="line2d_1">
      <path d="M 74.708864 188.12 
L 74.708864 10.8 
" clip-path="url(#p2aeba0090c)" style="fill: none; stroke: #b0b0b0; stroke-width: 0.8; stroke-linecap: square"/>
     </g>
     <g id="line2d_2">
      <defs>
       <path id="mac16317b86" d="M 0 0 
L 0 3.5 
" style="stroke: #000000; stroke-width: 0.8"/>
      </defs>
      <g>
       <use xlink:href="#mac16317b86" x="74.708864" y="188.12" style="stroke: #000000; stroke-width: 0.8"/>
      </g>
     </g>
     <g id="text_1">
      <!-- $\Gamma$ -->
      <g transform="translate(71.908864 202.718437) scale(0.1 -0.1)">
       <defs>
        <path id="DejaVuSans-393" d="M 628 0 
L 628 4666 
L 3531 4666 
L 3531 4134 
L 1259 4134 
L 1259 0 
L 628 0 
z
" transform="scale(0.015625)"/>
       </defs>
       <use xlink:href="#DejaVuSans-393" transform="translate(0 0.09375)"/>
      </g>
     </g>
    </g>
    <g id="xtick_2">
     <g id="line2d_3">
      <path d="M 225.59745 188.12 
L 225.59745 10.8 
" clip-path="url(#p2aeba0090c)" style="fill: none; stroke: #b0b0b0; stroke-width: 0.8; stroke-linecap: square"/>
     </g>
     <g id="line2d_4">
      <g>
       <use xlink:href="#mac16317b86" x="225.59745" y="188.12" style="stroke: #000000; stroke-width: 0.8"/>
      </g>
     </g>
     <g id="text_2">
      <!-- $X$ -->
      <g transform="translate(222.14745 202.718437) scale(0.1 -0.1)">
       <defs>
        <path id="DejaVuSans-Oblique-58" d="M 878 4666 
L 1516 4666 
L 2316 2981 
L 3763 4666 
L 4500 4666 
L 2578 2438 
L 3738 0 
L 3103 0 
L 2163 1966 
L 459 0 
L -275 0 
L 1906 2509 
L 878 4666 
z
" transform="scale(0.015625)"/>
       </defs>
       <use xlink:href="#DejaVuSans-Oblique-58" transform="translate(0 0.09375)"/>
      </g>
     </g>
    </g>
    <g id="xtick_3">
     <g id="line2d_5">
      <path d="M 332.291793 188.12 
L 332.291793 10.8 
" clip-path="url(#p2aeba0090c)" style="fill: none; stroke: #b0b0b0; stroke-width: 0.8; stroke-linecap: square"/>
     </g>
     <g id="line2d_6">
      <g>
       <use xlink:href="#mac16317b86" x="332.291793" y="188.12" style="stroke: #000000; stroke-width: 0.8"/>
      </g>
     </g>
     <g id="text_3">
      <!-- $M$ -->
      <g transform="translate(327.941793 202.718437) scale(0.1 -0.1)">
       <defs>
        <path id="DejaVuSans-Oblique-4d" d="M 1081 4666 
L 2028 4666 
L 2572 1522 
L 4378 4666 
L 5350 4666 
L 4441 0 
L 3828 0 
L 4622 4091 
L 2791 897 
L 2175 897 
L 1581 4103 
L 788 0 
L 172 0 
L 1081 4666 
z
" transform="scale(0.015625)"/>
       </defs>
       <use xlink:href="#DejaVuSans-Oblique-4d" transform="translate(0 0.09375)"/>
      </g>
     </g>
    </g>
    <g id="xtick_4">
     <g id="line2d_7">
      <path d="M 438.986136 188.12 
L 438.986136 10.8 
" clip-path="url(#p2aeba0090c)" style="fill: none; stroke: #b0b0b0; stroke-width: 0.8; stroke-linecap: square"/>
     </g>
     <g id="line2d_8">
      <g>
       <use xlink:href="#mac16317b86" x="438.986136" y="188.12" style="stroke: #000000; stroke-width: 0.8"/>
      </g>
     </g>
     <g id="text_4">
      <!-- $\Gamma$ -->
      <g transform="translate(436.186136 202.718437) scale(0.1 -0.1)">
       <use xlink:href="#DejaVuSans-393" transform="translate(0 0.09375)"/>
      </g>
     </g>
    </g>
   </g>
   <g id="matplotlib.axis_2">
    <g id="ytick_1">
     <g id="line2d_9">
      <path d="M 56.495 166.591832 
L 457.2 166.591832 
" clip-path="url(#p2aeba0090c)" style="fill: none; stroke: #b0b0b0; stroke-width: 0.8; stroke-linecap: square"/>
     </g>
     <g id="line2d_10">
      <defs>
       <path id="m580e0c3f31" d="M 0 0 
L -3.5 0 
" style="stroke: #000000; stroke-width: 0.8"/>
      </defs>
      <g>
       <use xlink:href="#m580e0c3f31" x="56.495" y="166.591832" style="stroke: #000000; stroke-width: 0.8"/>
      </g>
     </g>
     <g id="text_5">
      <!-- −2.5 -->
      <g transform="translate(25.212188 170.391051) scale(0.1 -0.1)">
       <defs>
        <path id="DejaVuSans-2212" d="M 678 2272 
L 4684 2272 
L 4684 1741 
L 678 1741 
L 678 2272 
z
" transform="scale(0.015625)"/>
        <path id="DejaVuSans-32" d="M 1228 531 
L 3431 531 
L 3431 0 
L 469 0 
L 469 531 
Q 828 903 1448 1529 
Q 2069 2156 2228 2338 
Q 2531 2678 2651 2914 
Q 2772 3150 2772 3378 
Q 2772 3750 2511 3984 
Q 2250 4219 1831 4219 
Q 1534 4219 1204 4116 
Q 875 4013 500 3803 
L 500 4441 
Q 881 4594 1212 4672 
Q 1544 4750 1819 4750 
Q 2544 4750 2975 4387 
Q 3406 4025 3406 3419 
Q 3406 3131 3298 2873 
Q 3191 2616 2906 2266 
Q 2828 2175 2409 1742 
Q 1991 1309 1228 531 
z
" transform="scale(0.015625)"/>
        <path id="DejaVuSans-2e" d="M 684 794 
L 1344 794 
L 1344 0 
L 684 0 
L 684 794 
z
" transform="scale(0.015625)"/>
        <path id="DejaVuSans-35" d="M 691 4666 
L 3169 4666 
L 3169 4134 
L 1269 4134 
L 1269 2991 
Q 1406 3038 1543 3061 
Q 1681 3084 1819 3084 
Q 2600 3084 3056 2656 
Q 3513 2228 3513 1497 
Q 3513 744 3044 326 
Q 2575 -91 1722 -91 
Q 1428 -91 1123 -41 
Q 819 9 494 109 
L 494 744 
Q 775 591 1075 516 
Q 1375 441 1709 441 
Q 2250 441 2565 725 
Q 2881 1009 2881 1497 
Q 2881 1984 2565 2268 
Q 2250 2553 1709 2553 
Q 1456 2553 1204 2497 
Q 953 2441 691 2322 
L 691 4666 
z
" transform="scale(0.015625)"/>
       </defs>
       <use xlink:href="#DejaVuSans-2212"/>
       <use xlink:href="#DejaVuSans-32" x="83.789062"/>
       <use xlink:href="#DejaVuSans-2e" x="147.412109"/>
       <use xlink:href="#DejaVuSans-35" x="179.199219"/>
      </g>
     </g>
    </g>
    <g id="ytick_2">
     <g id="line2d_11">
      <path d="M 56.495 143.573178 
L 457.2 143.573178 
" clip-path="url(#p2aeba0090c)" style="fill: none; stroke: #b0b0b0; stroke-width: 0.8; stroke-linecap: square"/>
     </g>
     <g id="line2d_12">
      <g>
       <use xlink:href="#m580e0c3f31" x="56.495" y="143.573178" style="stroke: #000000; stroke-width: 0.8"/>
      </g>
     </g>
     <g id="text_6">
      <!-- −2.0 -->
      <g transform="translate(25.212188 147.372397) scale(0.1 -0.1)">
       <defs>
        <path id="DejaVuSans-30" d="M 2034 4250 
Q 1547 4250 1301 3770 
Q 1056 3291 1056 2328 
Q 1056 1369 1301 889 
Q 1547 409 2034 409 
Q 2525 409 2770 889 
Q 3016 1369 3016 2328 
Q 3016 3291 2770 3770 
Q 2525 4250 2034 4250 
z
M 2034 4750 
Q 2819 4750 3233 4129 
Q 3647 3509 3647 2328 
Q 3647 1150 3233 529 
Q 2819 -91 2034 -91 
Q 1250 -91 836 529 
Q 422 1150 422 2328 
Q 422 3509 836 4129 
Q 1250 4750 2034 4750 
z
" transform="scale(0.015625)"/>
       </defs>
       <use xlink:href="#DejaVuSans-2212"/>
       <use xlink:href="#DejaVuSans-32" x="83.789062"/>
       <use xlink:href="#DejaVuSans-2e" x="147.412109"/>
       <use xlink:href="#DejaVuSans-30" x="179.199219"/>
      </g>
     </g>
    </g>
    <g id="ytick_3">
     <g id="line2d_13">
      <path d="M 56.495 120.554524 
L 457.2 120.554524 
" clip-path="url(#p2aeba0090c)" style="fill: none; stroke: #b0b0b0; stroke-width: 0.8; stroke-linecap: square"/>
     </g>
     <g id="line2d_14">
      <g>
       <use xlink:href="#m580e0c3f31" x="56.495" y="120.554524" style="stroke: #000000; stroke-width: 0.8"/>
      </g>
     </g>
     <g id="text_7">
      <!-- −1.5 -->
      <g transform="translate(25.212188 124.353743) scale(0.1 -0.1)">
       <defs>
        <path id="DejaVuSans-31" d="M 794 531 
L 1825 531 
L 1825 4091 
L 703 3866 
L 703 4441 
L 1819 4666 
L 2450 4666 
L 2450 531 
L 3481 531 
L 3481 0 
L 794 0 
L 794 531 
z
" transform="scale(0.015625)"/>
       </defs>
       <use xlink:href="#DejaVuSans-2212"/>
       <use xlink:href="#DejaVuSans-31" x="83.789062"/>
       <use xlink:href="#DejaVuSans-2e" x="147.412109"/>
       <use xlink:href="#DejaVuSans-35" x="179.199219"/>
      </g>
     </g>
    </g>
    <g id="ytick_4">
     <g id="line2d_15">
      <path d="M 56.495 97.535871 
L 457.2 97.535871 
" clip-path="url(#p2aeba0090c)" style="fill: none; stroke: #b0b0b0; stroke-width: 0.8; stroke-linecap: square"/>
     </g>
     <g id="line2d_16">
      <g>
       <use xlink:href="#m580e0c3f31" x="56.495" y="97.535871" style="stroke: #000000; stroke-width: 0.8"/>
      </g>
     </g>
     <g id="text_8">
      <!-- −1.0 -->
      <g transform="translate(25.212188 101.33509) scale(0.1 -0.1)">
       <use xlink:href="#DejaVuSans-2212"/>
       <use xlink:href="#DejaVuSans-31" x="83.789062"/>
       <use xlink:href="#DejaVuSans-2e" x="147.412109"/>
       <use xlink:href="#DejaVuSans-30" x="179.199219"/>
      </g>
     </g>
    </g>
    <g id="ytick_5">
     <g id="line2d_17">
      <path d="M 56.495 74.517217 
L 457.2 74.517217 
" clip-path="url(#p2aeba0090c)" style="fill: none; stroke: #b0b0b0; stroke-width: 0.8; stroke-linecap: square"/>
     </g>
     <g id="line2d_18">
      <g>
       <use xlink:href="#m580e0c3f31" x="56.495" y="74.517217" style="stroke: #000000; stroke-width: 0.8"/>
      </g>
     </g>
     <g id="text_9">
      <!-- −0.5 -->
      <g transform="translate(25.212188 78.316436) scale(0.1 -0.1)">
       <use xlink:href="#DejaVuSans-2212"/>
       <use xlink:href="#DejaVuSans-30" x="83.789062"/>
       <use xlink:href="#DejaVuSans-2e" x="147.412109"/>
       <use xlink:href="#DejaVuSans-35" x="179.199219"/>
      </g>
     </g>
    </g>
    <g id="ytick_6">
     <g id="line2d_19">
      <path d="M 56.495 51.498564 
L 457.2 51.498564 
" clip-path="url(#p2aeba0090c)" style="fill: none; stroke: #b0b0b0; stroke-width: 0.8; stroke-linecap: square"/>
     </g>
     <g id="line2d_20">
      <g>
       <use xlink:href="#m580e0c3f31" x="56.495" y="51.498564" style="stroke: #000000; stroke-width: 0.8"/>
      </g>
     </g>
     <g id="text_10">
      <!-- 0.0 -->
      <g transform="translate(33.591875 55.297782) scale(0.1 -0.1)">
       <use xlink:href="#DejaVuSans-30"/>
       <use xlink:href="#DejaVuSans-2e" x="63.623047"/>
       <use xlink:href="#DejaVuSans-30" x="95.410156"/>
      </g>
     </g>
    </g>
    <g id="ytick_7">
     <g id="line2d_21">
      <path d="M 56.495 28.47991 
L 457.2 28.47991 
" clip-path="url(#p2aeba0090c)" style="fill: none; stroke: #b0b0b0; stroke-width: 0.8; stroke-linecap: square"/>
     </g>
     <g id="line2d_22">
      <g>
       <use xlink:href="#m580e0c3f31" x="56.495" y="28.47991" style="stroke: #000000; stroke-width: 0.8"/>
      </g>
     </g>
     <g id="text_11">
      <!-- 0.5 -->
      <g transform="translate(33.591875 32.279129) scale(0.1 -0.1)">
       <use xlink:href="#DejaVuSans-30"/>
       <use xlink:href="#DejaVuSans-2e" x="63.623047"/>
       <use xlink:href="#DejaVuSans-35" x="95.410156"/>
      </g>
     </g>
    </g>
    <g id="text_12">
     <!-- $\epsilon(\mathbf{k})$ -->
     <g transform="translate(19.1325 109.41) rotate(-90) scale(0.1 -0.1)">
      <defs>
       <path id="DejaVuSans-Oblique-3b5" d="M 1263 1888 
Q 925 1963 778 2166 
Q 669 2309 669 2503 
Q 669 3034 1175 3344 
Q 1575 3588 2188 3588 
Q 2425 3588 2684 3550 
Q 2944 3513 3234 3438 
L 3134 2916 
Q 2847 3006 2606 3047 
Q 2359 3088 2138 3088 
Q 1766 3088 1522 2944 
Q 1228 2772 1228 2522 
Q 1228 2356 1381 2241 
Q 1563 2103 1925 2103 
L 2409 2103 
L 2319 1628 
L 1856 1628 
Q 1425 1628 1172 1469 
Q 828 1253 828 916 
Q 828 703 1013 563 
Q 1244 388 1716 388 
Q 2006 388 2284 444 
Q 2563 503 2806 619 
L 2700 84 
Q 2403 -3 2131 -47 
Q 1859 -91 1609 -91 
Q 866 -91 516 194 
Q 250 413 250 781 
Q 250 1278 600 1584 
Q 859 1813 1263 1888 
z
" transform="scale(0.015625)"/>
       <path id="DejaVuSans-28" d="M 1984 4856 
Q 1566 4138 1362 3434 
Q 1159 2731 1159 2009 
Q 1159 1288 1364 580 
Q 1569 -128 1984 -844 
L 1484 -844 
Q 1016 -109 783 600 
Q 550 1309 550 2009 
Q 550 2706 781 3412 
Q 1013 4119 1484 4856 
L 1984 4856 
z
" transform="scale(0.015625)"/>
       <path id="DejaVuSans-Bold-6b" d="M 538 4863 
L 1656 4863 
L 1656 2216 
L 2944 3500 
L 4244 3500 
L 2534 1894 
L 4378 0 
L 3022 0 
L 1656 1459 
L 1656 0 
L 538 0 
L 538 4863 
z
" transform="scale(0.015625)"/>
       <path id="DejaVuSans-29" d="M 513 4856 
L 1013 4856 
Q 1481 4119 1714 3412 
Q 1947 2706 1947 2009 
Q 1947 1309 1714 600 
Q 1481 -109 1013 -844 
L 513 -844 
Q 928 -128 1133 580 
Q 1338 1288 1338 2009 
Q 1338 2731 1133 3434 
Q 928 4138 513 4856 
z
" transform="scale(0.015625)"/>
      </defs>
      <use xlink:href="#DejaVuSans-Oblique-3b5" transform="translate(0 0.015625)"/>
      <use xlink:href="#DejaVuSans-28" transform="translate(54.052734 0.015625)"/>
      <use xlink:href="#DejaVuSans-Bold-6b" transform="translate(93.066406 0.015625)"/>
      <use xlink:href="#DejaVuSans-29" transform="translate(159.570312 0.015625)"/>
     </g>
    </g>
   </g>
   <g id="line2d_23">
    <path d="M 74.708864 180.06 
L 79.576237 178.290643 
L 84.443611 173.369596 
L 89.310985 166.282881 
L 94.178359 158.191739 
L 99.045732 149.997523 
L 103.913106 142.116173 
L 108.78048 134.535184 
L 113.647854 127.054049 
L 118.515228 119.526161 
L 123.382601 111.965165 
L 128.249975 104.499191 
L 133.117349 97.25744 
L 137.984723 90.291926 
L 142.852096 83.580204 
L 147.71947 77.081795 
L 152.586844 72.515594 
L 157.454218 68.183942 
L 162.321591 63.822426 
L 167.188965 59.51401 
L 172.056339 55.331149 
L 176.923713 51.336729 
L 181.791087 47.585518 
L 186.65846 44.125015 
L 191.525834 40.995478 
L 196.393208 38.229631 
L 201.260582 35.852846 
L 206.127955 33.884159 
L 210.995329 32.337854 
L 215.862703 31.224884 
L 220.730077 30.553509 
L 225.59745 30.32909 
L 225.59745 30.32909 
L 229.039203 30.454128 
L 232.480956 30.858542 
L 235.922709 31.613501 
L 239.364462 32.777373 
L 242.806215 34.351246 
L 246.247968 36.295505 
L 249.689721 38.56029 
L 253.131474 41.096819 
L 256.573227 43.85854 
L 260.01498 46.80047 
L 263.456733 49.878807 
L 266.898486 53.050914 
L 270.340239 56.275531 
L 273.781992 59.513096 
L 277.223745 62.726117 
L 280.665498 65.87955 
L 284.107251 68.941165 
L 287.549004 71.881869 
L 290.990757 74.675947 
L 294.43251 77.301202 
L 297.874263 79.738975 
L 301.316016 81.974029 
L 304.757769 83.994308 
L 308.199522 85.790596 
L 311.641275 87.356106 
L 315.083028 88.686039 
L 318.524781 89.777145 
L 321.966534 90.627327 
L 325.408287 91.235306 
L 328.85004 91.60035 
L 332.291793 91.722096 
L 332.291793 91.722096 
L 335.733546 92.123644 
L 339.175299 92.518048 
L 342.617052 92.904649 
L 346.058805 93.282449 
L 349.500558 93.650167 
L 352.942311 94.006333 
L 356.384064 94.3494 
L 359.825817 94.677855 
L 363.26757 94.990307 
L 366.709323 95.28554 
L 370.151076 95.562539 
L 373.592829 95.820481 
L 377.034582 96.058715 
L 380.476335 96.276747 
L 383.918088 96.479414 
L 387.359841 102.074208 
L 390.801594 107.615691 
L 394.243347 113.080923 
L 397.6851 118.503304 
L 401.126853 123.964816 
L 404.568606 129.573575 
L 408.010359 135.430081 
L 411.452112 141.58878 
L 414.893865 148.023388 
L 418.335618 154.60438 
L 421.777371 161.095111 
L 425.219124 167.169411 
L 428.660877 172.449065 
L 432.10263 176.55524 
L 435.544383 179.164663 
L 438.986136 180.06 
" clip-path="url(#p2aeba0090c)" style="fill: none; stroke: #000000; stroke-width: 1.5; stroke-linecap: square"/>
   </g>
   <g id="line2d_24">
    <path d="M 74.708864 180.06 
L 79.576237 178.290643 
L 84.443611 173.369596 
L 89.310985 166.282881 
L 94.178359 158.191739 
L 99.045732 149.997523 
L 103.913106 142.116173 
L 108.78048 134.535184 
L 113.647854 127.054049 
L 118.515228 119.526161 
L 123.382601 111.965165 
L 128.249975 104.499191 
L 133.117349 97.25744 
L 137.984723 90.291926 
L 142.852096 83.580204 
L 147.71947 77.081795 
L 152.586844 72.515594 
L 157.454218 68.183942 
L 162.321591 63.822426 
L 167.188965 59.51401 
L 172.056339 55.331149 
L 176.923713 51.336729 
L 181.791087 47.585518 
L 186.65846 44.125015 
L 191.525834 40.995478 
L 196.393208 38.229631 
L 201.260582 35.852846 
L 206.127955 33.884159 
L 210.995329 32.337854 
L 215.862703 31.224884 
L 220.730077 30.553509 
L 225.59745 30.32909 
L 225.59745 30.32909 
L 229.039203 30.454128 
L 232.480956 30.858542 
L 235.922709 31.613501 
L 239.364462 32.777373 
L 242.806215 34.351246 
L 246.247968 36.295505 
L 249.689721 38.56029 
L 253.131474 41.096819 
L 256.573227 43.85854 
L 260.01498 46.80047 
L 263.456733 49.878807 
L 266.898486 53.050914 
L 270.340239 56.275531 
L 273.781992 59.513096 
L 277.223745 62.726117 
L 280.665498 65.87955 
L 284.107251 68.941165 
L 287.549004 71.881869 
L 290.990757 74.675947 
L 294.43251 77.301202 
L 297.874263 79.738975 
L 301.316016 81.974029 
L 304.757769 83.994308 
L 308.199522 85.790596 
L 311.641275 87.356106 
L 315.083028 88.686039 
L 318.524781 89.777145 
L 321.966534 90.627327 
L 325.408287 91.235306 
L 328.85004 91.60035 
L 332.291793 91.722096 
L 332.291793 91.722096 
L 335.733546 92.123644 
L 339.175299 92.518048 
L 342.617052 92.904649 
L 346.058805 93.282449 
L 349.500558 93.650167 
L 352.942311 94.006333 
L 356.384064 94.3494 
L 359.825817 94.677855 
L 363.26757 94.990307 
L 366.709323 95.28554 
L 370.151076 95.562539 
L 373.592829 95.820481 
L 377.034582 96.058715 
L 380.476335 96.276747 
L 383.918088 96.479414 
L 387.359841 102.074208 
L 390.801594 107.615691 
L 394.243347 113.080923 
L 397.6851 118.503304 
L 401.126853 123.964816 
L 404.568606 129.573575 
L 408.010359 135.430081 
L 411.452112 141.58878 
L 414.893865 148.023388 
L 418.335618 154.60438 
L 421.777371 161.095111 
L 425.219124 167.169411 
L 428.660877 172.449065 
L 432.10263 176.55524 
L 435.544383 179.164663 
L 438.986136 180.06 
" clip-path="url(#p2aeba0090c)" style="fill: none; stroke: #000000; stroke-width: 1.5; stroke-linecap: square"/>
   </g>
   <g id="line2d_25">
    <path d="M 74.708864 97.46861 
L 79.576237 97.487535 
L 84.443611 97.536122 
L 89.310985 97.589217 
L 94.178359 97.603563 
L 99.045732 97.517709 
L 103.913106 97.254598 
L 108.78048 96.727678 
L 113.647854 95.85008 
L 118.515228 94.545355 
L 123.382601 92.757702 
L 128.249975 90.459799 
L 133.117349 87.656883 
L 137.984723 84.386484 
L 142.852096 80.713984 
L 147.71947 76.72492 
L 152.586844 70.789043 
L 157.454218 64.912974 
L 162.321591 60.890794 
L 167.188965 56.883167 
L 172.056339 52.941563 
L 176.923713 49.117155 
L 181.791087 45.461891 
L 186.65846 42.028044 
L 191.525834 38.866295 
L 196.393208 36.023379 
L 201.260582 33.540555 
L 206.127955 31.453449 
L 210.995329 29.792789 
L 215.862703 28.584847 
L 220.730077 27.850693 
L 225.59745 27.604326 
L 225.59745 27.604326 
L 229.039203 27.711651 
L 232.480956 28.00019 
L 235.922709 28.386546 
L 239.364462 28.792499 
L 242.806215 29.190253 
L 246.247968 29.586792 
L 249.689721 29.994487 
L 253.131474 30.420852 
L 256.573227 30.868458 
L 260.01498 31.336568 
L 263.456733 31.822412 
L 266.898486 33.033736 
L 270.340239 34.69489 
L 273.781992 36.299063 
L 277.223745 37.828442 
L 280.665498 39.269047 
L 284.107251 40.610549 
L 287.549004 41.845971 
L 290.990757 42.971326 
L 294.43251 43.985218 
L 297.874263 44.888423 
L 301.316016 45.683476 
L 304.757769 46.374258 
L 308.199522 46.965598 
L 311.641275 47.462885 
L 315.083028 47.8717 
L 318.524781 48.197462 
L 321.966534 48.445109 
L 325.408287 48.618807 
L 328.85004 48.721714 
L 332.291793 48.755799 
L 332.291793 48.755799 
L 335.733546 49.019303 
L 339.175299 49.788353 
L 342.617052 51.028732 
L 346.058805 52.699198 
L 349.500558 54.76343 
L 352.942311 57.200273 
L 356.384064 60.008817 
L 359.825817 63.206246 
L 363.26757 66.818485 
L 366.709323 70.865918 
L 370.151076 75.348162 
L 373.592829 80.232562 
L 377.034582 85.450461 
L 380.476335 90.903478 
L 383.918088 96.474183 
L 387.359841 96.651014 
L 390.801594 96.807122 
L 394.243347 96.942865 
L 397.6851 97.058859 
L 401.126853 97.156062 
L 404.568606 97.23578 
L 408.010359 97.29963 
L 411.452112 97.349476 
L 414.893865 97.387323 
L 418.335618 97.415216 
L 421.777371 97.435117 
L 425.219124 97.448815 
L 428.660877 97.457849 
L 432.10263 97.463494 
L 435.544383 97.466977 
L 438.986136 97.46861 
" clip-path="url(#p2aeba0090c)" style="fill: none; stroke: #000000; stroke-width: 1.5; stroke-linecap: square"/>
   </g>
   <g id="line2d_26">
    <path d="M 74.708864 97.46861 
L 79.576237 97.487535 
L 84.443611 97.536122 
L 89.310985 97.589217 
L 94.178359 97.603563 
L 99.045732 97.517709 
L 103.913106 97.254598 
L 108.78048 96.727678 
L 113.647854 95.85008 
L 118.515228 94.545355 
L 123.382601 92.757702 
L 128.249975 90.459799 
L 133.117349 87.656883 
L 137.984723 84.386484 
L 142.852096 80.713984 
L 147.71947 76.72492 
L 152.586844 70.789043 
L 157.454218 64.912974 
L 162.321591 60.890794 
L 167.188965 56.883167 
L 172.056339 52.941563 
L 176.923713 49.117155 
L 181.791087 45.461891 
L 186.65846 42.028044 
L 191.525834 38.866295 
L 196.393208 36.023379 
L 201.260582 33.540555 
L 206.127955 31.453449 
L 210.995329 29.792789 
L 215.862703 28.584847 
L 220.730077 27.850693 
L 225.59745 27.604326 
L 225.59745 27.604326 
L 229.039203 27.711651 
L 232.480956 28.00019 
L 235.922709 28.386546 
L 239.364462 28.792499 
L 242.806215 29.190253 
L 246.247968 29.586792 
L 249.689721 29.994487 
L 253.131474 30.420852 
L 256.573227 30.868458 
L 260.01498 31.336568 
L 263.456733 31.822412 
L 266.898486 33.033736 
L 270.340239 34.69489 
L 273.781992 36.299063 
L 277.223745 37.828442 
L 280.665498 39.269047 
L 284.107251 40.610549 
L 287.549004 41.845971 
L 290.990757 42.971326 
L 294.43251 43.985218 
L 297.874263 44.888423 
L 301.316016 45.683476 
L 304.757769 46.374258 
L 308.199522 46.965598 
L 311.641275 47.462885 
L 315.083028 47.8717 
L 318.524781 48.197462 
L 321.966534 48.445109 
L 325.408287 48.618807 
L 328.85004 48.721714 
L 332.291793 48.755799 
L 332.291793 48.755799 
L 335.733546 49.019303 
L 339.175299 49.788353 
L 342.617052 51.028732 
L 346.058805 52.699198 
L 349.500558 54.76343 
L 352.942311 57.200273 
L 356.384064 60.008817 
L 359.825817 63.206246 
L 363.26757 66.818485 
L 366.709323 70.865918 
L 370.151076 75.348162 
L 373.592829 80.232562 
L 377.034582 85.450461 
L 380.476335 90.903478 
L 383.918088 96.474183 
L 387.359841 96.651014 
L 390.801594 96.807122 
L 394.243347 96.942865 
L 397.6851 97.058859 
L 401.126853 97.156062 
L 404.568606 97.23578 
L 408.010359 97.29963 
L 411.452112 97.349476 
L 414.893865 97.387323 
L 418.335618 97.415216 
L 421.777371 97.435117 
L 425.219124 97.448815 
L 428.660877 97.457849 
L 432.10263 97.463494 
L 435.544383 97.466977 
L 438.986136 97.46861 
" clip-path="url(#p2aeba0090c)" style="fill: none; stroke: #000000; stroke-width: 1.5; stroke-linecap: square"/>
   </g>
   <g id="line2d_27">
    <path d="M 74.708864 97.46594 
L 79.576237 97.438261 
L 84.443611 97.344685 
L 89.310985 97.15477 
L 94.178359 96.821748 
L 99.045732 96.288488 
L 103.913106 95.495284 
L 108.78048 94.388139 
L 113.647854 92.925793 
L 118.515228 91.084063 
L 123.382601 88.857031 
L 128.249975 86.255786 
L 133.117349 83.305955 
L 137.984723 80.045069 
L 142.852096 76.520069 
L 147.71947 72.78467 
L 152.586844 68.896305 
L 157.454218 64.735074 
L 162.321591 58.96623 
L 167.188965 53.512692 
L 172.056339 48.382848 
L 176.923713 43.579699 
L 181.791087 39.119175 
L 186.65846 35.033576 
L 191.525834 31.360393 
L 196.393208 28.129216 
L 201.260582 25.357788 
L 206.127955 23.057593 
L 210.995329 21.24136 
L 215.862703 19.925617 
L 220.730077 19.12757 
L 225.59745 18.86 
L 225.59745 18.86 
L 229.039203 18.994275 
L 232.480956 19.393313 
L 235.922709 20.045961 
L 239.364462 20.934281 
L 242.806215 22.034479 
L 246.247968 23.31809 
L 249.689721 24.753336 
L 253.131474 26.306546 
L 256.573227 27.943553 
L 260.01498 29.630971 
L 263.456733 31.337288 
L 266.898486 32.321999 
L 270.340239 32.830639 
L 273.781992 33.343266 
L 277.223745 33.85471 
L 280.665498 34.359886 
L 284.107251 34.853947 
L 287.549004 35.332395 
L 290.990757 35.791149 
L 294.43251 36.226566 
L 297.874263 36.635421 
L 301.316016 37.014856 
L 304.757769 37.362313 
L 308.199522 37.675462 
L 311.641275 37.952148 
L 315.083028 38.190357 
L 318.524781 38.388228 
L 321.966534 38.54409 
L 325.408287 38.656524 
L 328.85004 38.72444 
L 332.291793 38.74715 
L 332.291793 38.74715 
L 335.733546 39.048647 
L 339.175299 39.799846 
L 342.617052 40.989491 
L 346.058805 42.599353 
L 349.500558 44.605281 
L 352.942311 46.978229 
L 356.384064 49.684958 
L 359.825817 52.68817 
L 363.26757 55.946032 
L 366.709323 59.411276 
L 370.151076 63.030211 
L 373.592829 66.74216 
L 377.034582 70.479784 
L 380.476335 74.170645 
L 383.918088 77.740118 
L 387.359841 81.11547 
L 390.801594 84.230636 
L 394.243347 87.031031 
L 397.6851 89.47766 
L 401.126853 91.549864 
L 404.568606 93.246252 
L 408.010359 94.58368 
L 411.452112 95.594457 
L 414.893865 96.322228 
L 418.335618 96.817176 
L 421.777371 97.131204 
L 425.219124 97.313666 
L 428.660877 97.40802 
L 432.10263 97.449502 
L 435.544383 97.463533 
L 438.986136 97.46594 
" clip-path="url(#p2aeba0090c)" style="fill: none; stroke: #000000; stroke-width: 1.5; stroke-linecap: square"/>
   </g>
   <g id="line2d_28">
    <path d="M 74.708864 97.46594 
L 79.576237 97.438261 
L 84.443611 97.344685 
L 89.310985 97.15477 
L 94.178359 96.821748 
L 99.045732 96.288488 
L 103.913106 95.495284 
L 108.78048 94.388139 
L 113.647854 92.925793 
L 118.515228 91.084063 
L 123.382601 88.857031 
L 128.249975 86.255786 
L 133.117349 83.305955 
L 137.984723 80.045069 
L 142.852096 76.520069 
L 147.71947 72.78467 
L 152.586844 68.896305 
L 157.454218 64.735074 
L 162.321591 58.96623 
L 167.188965 53.512692 
L 172.056339 48.382848 
L 176.923713 43.579699 
L 181.791087 39.119175 
L 186.65846 35.033576 
L 191.525834 31.360393 
L 196.393208 28.129216 
L 201.260582 25.357788 
L 206.127955 23.057593 
L 210.995329 21.24136 
L 215.862703 19.925617 
L 220.730077 19.12757 
L 225.59745 18.86 
L 225.59745 18.86 
L 229.039203 18.994275 
L 232.480956 19.393313 
L 235.922709 20.045961 
L 239.364462 20.934281 
L 242.806215 22.034479 
L 246.247968 23.31809 
L 249.689721 24.753336 
L 253.131474 26.306546 
L 256.573227 27.943553 
L 260.01498 29.630971 
L 263.456733 31.337288 
L 266.898486 32.321999 
L 270.340239 32.830639 
L 273.781992 33.343266 
L 277.223745 33.85471 
L 280.665498 34.359886 
L 284.107251 34.853947 
L 287.549004 35.332395 
L 290.990757 35.791149 
L 294.43251 36.226566 
L 297.874263 36.635421 
L 301.316016 37.014856 
L 304.757769 37.362313 
L 308.199522 37.675462 
L 311.641275 37.952148 
L 315.083028 38.190357 
L 318.524781 38.388228 
L 321.966534 38.54409 
L 325.408287 38.656524 
L 328.85004 38.72444 
L 332.291793 38.74715 
L 332.291793 38.74715 
L 335.733546 39.048647 
L 339.175299 39.799846 
L 342.617052 40.989491 
L 346.058805 42.599353 
L 349.500558 44.605281 
L 352.942311 46.978229 
L 356.384064 49.684958 
L 359.825817 52.68817 
L 363.26757 55.946032 
L 366.709323 59.411276 
L 370.151076 63.030211 
L 373.592829 66.74216 
L 377.034582 70.479784 
L 380.476335 74.170645 
L 383.918088 77.740118 
L 387.359841 81.11547 
L 390.801594 84.230636 
L 394.243347 87.031031 
L 397.6851 89.47766 
L 401.126853 91.549864 
L 404.568606 93.246252 
L 408.010359 94.58368 
L 411.452112 95.594457 
L 414.893865 96.322228 
L 418.335618 96.817176 
L 421.777371 97.131204 
L 425.219124 97.313666 
L 428.660877 97.40802 
L 432.10263 97.449502 
L 435.544383 97.463533 
L 438.986136 97.46594 
" clip-path="url(#p2aeba0090c)" style="fill: none; stroke: #000000; stroke-width: 1.5; stroke-linecap: square"/>
   </g>
   <g id="patch_3">
    <path d="M 56.495 188.12 
L 56.495 10.8 
" style="fill: none; stroke: #000000; stroke-width: 0.8; stroke-linejoin: miter; stroke-linecap: square"/>
   </g>
   <g id="patch_4">
    <path d="M 457.2 188.12 
L 457.2 10.8 
" style="fill: none; stroke: #000000; stroke-width: 0.8; stroke-linejoin: miter; stroke-linecap: square"/>
   </g>
   <g id="patch_5">
    <path d="M 56.495 188.12 
L 457.2 188.12 
" style="fill: none; stroke: #000000; stroke-width: 0.8; stroke-linejoin: miter; stroke-linecap: square"/>
   </g>
   <g id="patch_6">
    <path d="M 56.495 10.8 
L 457.2 10.8 
" style="fill: none; stroke: #000000; stroke-width: 0.8; stroke-linejoin: miter; stroke-linecap: square"/>
   </g>
  </g>
 </g>
 <defs>
  <clipPath id="p2aeba0090c">
   <rect x="56.495" y="10.8" width="400.705" height="177.32"/>
  </clipPath>
 </defs>
</svg>
