<?xml version="1.0" encoding="utf-8" standalone="no"?>
<!DOCTYPE svg PUBLIC "-//W3C//DTD SVG 1.1//EN"
  "http://www.w3.org/Graphics/SVG/1.1/DTD/svg11.dtd">
<svg xmlns:xlink="http://www.w3.org/1999/xlink" width="468pt" height="432pt" viewBox="0 0 468 432" xmlns="http://www.w3.org/2000/svg" version="1.1">
 <metadata>
  <rdf:RDF xmlns:dc="http://purl.org/dc/elements/1.1/" xmlns:cc="http://creativecommons.org/ns#" xmlns:rdf="http://www.w3.org/1999/02/22-rdf-syntax-ns#">
   <cc:Work>
    <dc:type rdf:resource="http://purl.org/dc/dcmitype/StillImage"/>
    <dc:date>2023-07-19T17:54:21.614302</dc:date>
    <dc:format>image/svg+xml</dc:format>
    <dc:creator>
     <cc:Agent>
      <dc:title>Matplotlib v3.7.1, https://matplotlib.org/</dc:title>
     </cc:Agent>
    </dc:creator>
   </cc:Work>
  </rdf:RDF>
 </metadata>
 <defs>
  <style type="text/css">*{stroke-linejoin: round; stroke-linecap: butt}</style>
 </defs>
 <g id="figure_1">
  <g id="patch_1">
   <path d="M 0 432 
L 468 432 
L 468 0 
L 0 0 
z
" style="fill: #ffffff"/>
  </g>
  <g id="axes_1">
   <g id="patch_2">
    <path d="M 46.955 404.12 
L 454.0725 404.12 
L 454.0725 10.8 
L 46.955 10.8 
z
" style="fill: #ffffff"/>
   </g>
   <g id="matplotlib.axis_1">
    <g id="xtick_1">
     <g id="line2d_1">
      <path d="M 46.955 404.12 
L 46.955 10.8 
" clip-path="url(#p832e270a33)" style="fill: none; stroke: #b0b0b0; stroke-width: 0.8; stroke-linecap: square"/>
     </g>
     <g id="line2d_2">
      <defs>
       <path id="m5870dacb03" d="M 0 0 
L 0 3.5 
" style="stroke: #000000; stroke-width: 0.8"/>
      </defs>
      <g>
       <use xlink:href="#m5870dacb03" x="46.955" y="404.12" style="stroke: #000000; stroke-width: 0.8"/>
      </g>
     </g>
     <g id="text_1">
      <!-- $\Gamma$ -->
      <g transform="translate(44.155 418.718437) scale(0.1 -0.1)">
       <defs>
        <path id="DejaVuSans-393" d="M 628 0 
L 628 4666 
L 3531 4666 
L 3531 4134 
L 1259 4134 
L 1259 0 
L 628 0 
z
" transform="scale(0.015625)"/>
       </defs>
       <use xlink:href="#DejaVuSans-393" transform="translate(0 0.09375)"/>
      </g>
     </g>
    </g>
    <g id="xtick_2">
     <g id="line2d_3">
      <path d="M 166.196955 404.12 
L 166.196955 10.8 
" clip-path="url(#p832e270a33)" style="fill: none; stroke: #b0b0b0; stroke-width: 0.8; stroke-linecap: square"/>
     </g>
     <g id="line2d_4">
      <g>
       <use xlink:href="#m5870dacb03" x="166.196955" y="404.12" style="stroke: #000000; stroke-width: 0.8"/>
      </g>
     </g>
     <g id="text_2">
      <!-- $X$ -->
      <g transform="translate(162.746955 418.718437) scale(0.1 -0.1)">
       <defs>
        <path id="DejaVuSans-Oblique-58" d="M 878 4666 
L 1516 4666 
L 2316 2981 
L 3763 4666 
L 4500 4666 
L 2578 2438 
L 3738 0 
L 3103 0 
L 2163 1966 
L 459 0 
L -275 0 
L 1906 2509 
L 878 4666 
z
" transform="scale(0.015625)"/>
       </defs>
       <use xlink:href="#DejaVuSans-Oblique-58" transform="translate(0 0.09375)"/>
      </g>
     </g>
    </g>
    <g id="xtick_3">
     <g id="line2d_5">
      <path d="M 285.43891 404.12 
L 285.43891 10.8 
" clip-path="url(#p832e270a33)" style="fill: none; stroke: #b0b0b0; stroke-width: 0.8; stroke-linecap: square"/>
     </g>
     <g id="line2d_6">
      <g>
       <use xlink:href="#m5870dacb03" x="285.43891" y="404.12" style="stroke: #000000; stroke-width: 0.8"/>
      </g>
     </g>
     <g id="text_3">
      <!-- $M$ -->
      <g transform="translate(281.08891 418.718437) scale(0.1 -0.1)">
       <defs>
        <path id="DejaVuSans-Oblique-4d" d="M 1081 4666 
L 2028 4666 
L 2572 1522 
L 4378 4666 
L 5350 4666 
L 4441 0 
L 3828 0 
L 4622 4091 
L 2791 897 
L 2175 897 
L 1581 4103 
L 788 0 
L 172 0 
L 1081 4666 
z
" transform="scale(0.015625)"/>
       </defs>
       <use xlink:href="#DejaVuSans-Oblique-4d" transform="translate(0 0.09375)"/>
      </g>
     </g>
    </g>
    <g id="xtick_4">
     <g id="line2d_7">
      <path d="M 454.0725 404.12 
L 454.0725 10.8 
" clip-path="url(#p832e270a33)" style="fill: none; stroke: #b0b0b0; stroke-width: 0.8; stroke-linecap: square"/>
     </g>
     <g id="line2d_8">
      <g>
       <use xlink:href="#m5870dacb03" x="454.0725" y="404.12" style="stroke: #000000; stroke-width: 0.8"/>
      </g>
     </g>
     <g id="text_4">
      <!-- $\Gamma$ -->
      <g transform="translate(451.2725 418.718437) scale(0.1 -0.1)">
       <use xlink:href="#DejaVuSans-393" transform="translate(0 0.09375)"/>
      </g>
     </g>
    </g>
   </g>
   <g id="matplotlib.axis_2">
    <g id="ytick_1">
     <g id="line2d_9">
      <path d="M 46.955 379.5375 
L 454.0725 379.5375 
" clip-path="url(#p832e270a33)" style="fill: none; stroke: #b0b0b0; stroke-width: 0.8; stroke-linecap: square"/>
     </g>
     <g id="line2d_10">
      <defs>
       <path id="m8e2f98ad3c" d="M 0 0 
L -3.5 0 
" style="stroke: #000000; stroke-width: 0.8"/>
      </defs>
      <g>
       <use xlink:href="#m8e2f98ad3c" x="46.955" y="379.5375" style="stroke: #000000; stroke-width: 0.8"/>
      </g>
     </g>
     <g id="text_5">
      <!-- −8 -->
      <g transform="translate(25.212813 383.336719) scale(0.1 -0.1)">
       <defs>
        <path id="DejaVuSans-2212" d="M 678 2272 
L 4684 2272 
L 4684 1741 
L 678 1741 
L 678 2272 
z
" transform="scale(0.015625)"/>
        <path id="DejaVuSans-38" d="M 2034 2216 
Q 1584 2216 1326 1975 
Q 1069 1734 1069 1313 
Q 1069 891 1326 650 
Q 1584 409 2034 409 
Q 2484 409 2743 651 
Q 3003 894 3003 1313 
Q 3003 1734 2745 1975 
Q 2488 2216 2034 2216 
z
M 1403 2484 
Q 997 2584 770 2862 
Q 544 3141 544 3541 
Q 544 4100 942 4425 
Q 1341 4750 2034 4750 
Q 2731 4750 3128 4425 
Q 3525 4100 3525 3541 
Q 3525 3141 3298 2862 
Q 3072 2584 2669 2484 
Q 3125 2378 3379 2068 
Q 3634 1759 3634 1313 
Q 3634 634 3220 271 
Q 2806 -91 2034 -91 
Q 1263 -91 848 271 
Q 434 634 434 1313 
Q 434 1759 690 2068 
Q 947 2378 1403 2484 
z
M 1172 3481 
Q 1172 3119 1398 2916 
Q 1625 2713 2034 2713 
Q 2441 2713 2670 2916 
Q 2900 3119 2900 3481 
Q 2900 3844 2670 4047 
Q 2441 4250 2034 4250 
Q 1625 4250 1398 4047 
Q 1172 3844 1172 3481 
z
" transform="scale(0.015625)"/>
       </defs>
       <use xlink:href="#DejaVuSans-2212"/>
       <use xlink:href="#DejaVuSans-38" x="83.789062"/>
      </g>
     </g>
    </g>
    <g id="ytick_2">
     <g id="line2d_11">
      <path d="M 46.955 330.3725 
L 454.0725 330.3725 
" clip-path="url(#p832e270a33)" style="fill: none; stroke: #b0b0b0; stroke-width: 0.8; stroke-linecap: square"/>
     </g>
     <g id="line2d_12">
      <g>
       <use xlink:href="#m8e2f98ad3c" x="46.955" y="330.3725" style="stroke: #000000; stroke-width: 0.8"/>
      </g>
     </g>
     <g id="text_6">
      <!-- −6 -->
      <g transform="translate(25.212813 334.171719) scale(0.1 -0.1)">
       <defs>
        <path id="DejaVuSans-36" d="M 2113 2584 
Q 1688 2584 1439 2293 
Q 1191 2003 1191 1497 
Q 1191 994 1439 701 
Q 1688 409 2113 409 
Q 2538 409 2786 701 
Q 3034 994 3034 1497 
Q 3034 2003 2786 2293 
Q 2538 2584 2113 2584 
z
M 3366 4563 
L 3366 3988 
Q 3128 4100 2886 4159 
Q 2644 4219 2406 4219 
Q 1781 4219 1451 3797 
Q 1122 3375 1075 2522 
Q 1259 2794 1537 2939 
Q 1816 3084 2150 3084 
Q 2853 3084 3261 2657 
Q 3669 2231 3669 1497 
Q 3669 778 3244 343 
Q 2819 -91 2113 -91 
Q 1303 -91 875 529 
Q 447 1150 447 2328 
Q 447 3434 972 4092 
Q 1497 4750 2381 4750 
Q 2619 4750 2861 4703 
Q 3103 4656 3366 4563 
z
" transform="scale(0.015625)"/>
       </defs>
       <use xlink:href="#DejaVuSans-2212"/>
       <use xlink:href="#DejaVuSans-36" x="83.789062"/>
      </g>
     </g>
    </g>
    <g id="ytick_3">
     <g id="line2d_13">
      <path d="M 46.955 281.2075 
L 454.0725 281.2075 
" clip-path="url(#p832e270a33)" style="fill: none; stroke: #b0b0b0; stroke-width: 0.8; stroke-linecap: square"/>
     </g>
     <g id="line2d_14">
      <g>
       <use xlink:href="#m8e2f98ad3c" x="46.955" y="281.2075" style="stroke: #000000; stroke-width: 0.8"/>
      </g>
     </g>
     <g id="text_7">
      <!-- −4 -->
      <g transform="translate(25.212813 285.006719) scale(0.1 -0.1)">
       <defs>
        <path id="DejaVuSans-34" d="M 2419 4116 
L 825 1625 
L 2419 1625 
L 2419 4116 
z
M 2253 4666 
L 3047 4666 
L 3047 1625 
L 3713 1625 
L 3713 1100 
L 3047 1100 
L 3047 0 
L 2419 0 
L 2419 1100 
L 313 1100 
L 313 1709 
L 2253 4666 
z
" transform="scale(0.015625)"/>
       </defs>
       <use xlink:href="#DejaVuSans-2212"/>
       <use xlink:href="#DejaVuSans-34" x="83.789062"/>
      </g>
     </g>
    </g>
    <g id="ytick_4">
     <g id="line2d_15">
      <path d="M 46.955 232.0425 
L 454.0725 232.0425 
" clip-path="url(#p832e270a33)" style="fill: none; stroke: #b0b0b0; stroke-width: 0.8; stroke-linecap: square"/>
     </g>
     <g id="line2d_16">
      <g>
       <use xlink:href="#m8e2f98ad3c" x="46.955" y="232.0425" style="stroke: #000000; stroke-width: 0.8"/>
      </g>
     </g>
     <g id="text_8">
      <!-- −2 -->
      <g transform="translate(25.212813 235.841719) scale(0.1 -0.1)">
       <defs>
        <path id="DejaVuSans-32" d="M 1228 531 
L 3431 531 
L 3431 0 
L 469 0 
L 469 531 
Q 828 903 1448 1529 
Q 2069 2156 2228 2338 
Q 2531 2678 2651 2914 
Q 2772 3150 2772 3378 
Q 2772 3750 2511 3984 
Q 2250 4219 1831 4219 
Q 1534 4219 1204 4116 
Q 875 4013 500 3803 
L 500 4441 
Q 881 4594 1212 4672 
Q 1544 4750 1819 4750 
Q 2544 4750 2975 4387 
Q 3406 4025 3406 3419 
Q 3406 3131 3298 2873 
Q 3191 2616 2906 2266 
Q 2828 2175 2409 1742 
Q 1991 1309 1228 531 
z
" transform="scale(0.015625)"/>
       </defs>
       <use xlink:href="#DejaVuSans-2212"/>
       <use xlink:href="#DejaVuSans-32" x="83.789062"/>
      </g>
     </g>
    </g>
    <g id="ytick_5">
     <g id="line2d_17">
      <path d="M 46.955 182.8775 
L 454.0725 182.8775 
" clip-path="url(#p832e270a33)" style="fill: none; stroke: #b0b0b0; stroke-width: 0.8; stroke-linecap: square"/>
     </g>
     <g id="line2d_18">
      <g>
       <use xlink:href="#m8e2f98ad3c" x="46.955" y="182.8775" style="stroke: #000000; stroke-width: 0.8"/>
      </g>
     </g>
     <g id="text_9">
      <!-- 0 -->
      <g transform="translate(33.5925 186.676719) scale(0.1 -0.1)">
       <defs>
        <path id="DejaVuSans-30" d="M 2034 4250 
Q 1547 4250 1301 3770 
Q 1056 3291 1056 2328 
Q 1056 1369 1301 889 
Q 1547 409 2034 409 
Q 2525 409 2770 889 
Q 3016 1369 3016 2328 
Q 3016 3291 2770 3770 
Q 2525 4250 2034 4250 
z
M 2034 4750 
Q 2819 4750 3233 4129 
Q 3647 3509 3647 2328 
Q 3647 1150 3233 529 
Q 2819 -91 2034 -91 
Q 1250 -91 836 529 
Q 422 1150 422 2328 
Q 422 3509 836 4129 
Q 1250 4750 2034 4750 
z
" transform="scale(0.015625)"/>
       </defs>
       <use xlink:href="#DejaVuSans-30"/>
      </g>
     </g>
    </g>
    <g id="ytick_6">
     <g id="line2d_19">
      <path d="M 46.955 133.7125 
L 454.0725 133.7125 
" clip-path="url(#p832e270a33)" style="fill: none; stroke: #b0b0b0; stroke-width: 0.8; stroke-linecap: square"/>
     </g>
     <g id="line2d_20">
      <g>
       <use xlink:href="#m8e2f98ad3c" x="46.955" y="133.7125" style="stroke: #000000; stroke-width: 0.8"/>
      </g>
     </g>
     <g id="text_10">
      <!-- 2 -->
      <g transform="translate(33.5925 137.511719) scale(0.1 -0.1)">
       <use xlink:href="#DejaVuSans-32"/>
      </g>
     </g>
    </g>
    <g id="ytick_7">
     <g id="line2d_21">
      <path d="M 46.955 84.5475 
L 454.0725 84.5475 
" clip-path="url(#p832e270a33)" style="fill: none; stroke: #b0b0b0; stroke-width: 0.8; stroke-linecap: square"/>
     </g>
     <g id="line2d_22">
      <g>
       <use xlink:href="#m8e2f98ad3c" x="46.955" y="84.5475" style="stroke: #000000; stroke-width: 0.8"/>
      </g>
     </g>
     <g id="text_11">
      <!-- 4 -->
      <g transform="translate(33.5925 88.346719) scale(0.1 -0.1)">
       <use xlink:href="#DejaVuSans-34"/>
      </g>
     </g>
    </g>
    <g id="ytick_8">
     <g id="line2d_23">
      <path d="M 46.955 35.3825 
L 454.0725 35.3825 
" clip-path="url(#p832e270a33)" style="fill: none; stroke: #b0b0b0; stroke-width: 0.8; stroke-linecap: square"/>
     </g>
     <g id="line2d_24">
      <g>
       <use xlink:href="#m8e2f98ad3c" x="46.955" y="35.3825" style="stroke: #000000; stroke-width: 0.8"/>
      </g>
     </g>
     <g id="text_12">
      <!-- 6 -->
      <g transform="translate(33.5925 39.181719) scale(0.1 -0.1)">
       <use xlink:href="#DejaVuSans-36"/>
      </g>
     </g>
    </g>
    <g id="text_13">
     <!-- $\epsilon(\mathbf{k})$ -->
     <g transform="translate(19.133125 217.41) rotate(-90) scale(0.1 -0.1)">
      <defs>
       <path id="DejaVuSans-Oblique-3b5" d="M 1263 1888 
Q 925 1963 778 2166 
Q 669 2309 669 2503 
Q 669 3034 1175 3344 
Q 1575 3588 2188 3588 
Q 2425 3588 2684 3550 
Q 2944 3513 3234 3438 
L 3134 2916 
Q 2847 3006 2606 3047 
Q 2359 3088 2138 3088 
Q 1766 3088 1522 2944 
Q 1228 2772 1228 2522 
Q 1228 2356 1381 2241 
Q 1563 2103 1925 2103 
L 2409 2103 
L 2319 1628 
L 1856 1628 
Q 1425 1628 1172 1469 
Q 828 1253 828 916 
Q 828 703 1013 563 
Q 1244 388 1716 388 
Q 2006 388 2284 444 
Q 2563 503 2806 619 
L 2700 84 
Q 2403 -3 2131 -47 
Q 1859 -91 1609 -91 
Q 866 -91 516 194 
Q 250 413 250 781 
Q 250 1278 600 1584 
Q 859 1813 1263 1888 
z
" transform="scale(0.015625)"/>
       <path id="DejaVuSans-28" d="M 1984 4856 
Q 1566 4138 1362 3434 
Q 1159 2731 1159 2009 
Q 1159 1288 1364 580 
Q 1569 -128 1984 -844 
L 1484 -844 
Q 1016 -109 783 600 
Q 550 1309 550 2009 
Q 550 2706 781 3412 
Q 1013 4119 1484 4856 
L 1984 4856 
z
" transform="scale(0.015625)"/>
       <path id="DejaVuSans-Bold-6b" d="M 538 4863 
L 1656 4863 
L 1656 2216 
L 2944 3500 
L 4244 3500 
L 2534 1894 
L 4378 0 
L 3022 0 
L 1656 1459 
L 1656 0 
L 538 0 
L 538 4863 
z
" transform="scale(0.015625)"/>
       <path id="DejaVuSans-29" d="M 513 4856 
L 1013 4856 
Q 1481 4119 1714 3412 
Q 1947 2706 1947 2009 
Q 1947 1309 1714 600 
Q 1481 -109 1013 -844 
L 513 -844 
Q 928 -128 1133 580 
Q 1338 1288 1338 2009 
Q 1338 2731 1133 3434 
Q 928 4138 513 4856 
z
" transform="scale(0.015625)"/>
      </defs>
      <use xlink:href="#DejaVuSans-Oblique-3b5" transform="translate(0 0.015625)"/>
      <use xlink:href="#DejaVuSans-28" transform="translate(54.052734 0.015625)"/>
      <use xlink:href="#DejaVuSans-Bold-6b" transform="translate(93.066406 0.015625)"/>
      <use xlink:href="#DejaVuSans-29" transform="translate(159.570312 0.015625)"/>
     </g>
    </g>
   </g>
   <g id="line2d_25">
    <path d="M 0 0 
" clip-path="url(#p832e270a33)" style="fill: none; stroke: #008000; stroke-opacity: 0.5; stroke-width: 1.5; stroke-linecap: square"/>
   </g>
   <g id="line2d_26">
    <path d="M 0 0 
" clip-path="url(#p832e270a33)" style="fill: none; stroke: #008000; stroke-opacity: 0.5; stroke-width: 1.5; stroke-linecap: square"/>
   </g>
   <g id="line2d_27">
    <path d="M 0 0 
" clip-path="url(#p832e270a33)" style="fill: none; stroke: #008000; stroke-opacity: 0.5; stroke-width: 1.5; stroke-linecap: square"/>
   </g>
   <g id="line2d_28">
    <path d="M 0 0 
" clip-path="url(#p832e270a33)" style="fill: none; stroke: #008000; stroke-opacity: 0.5; stroke-width: 1.5; stroke-linecap: square"/>
   </g>
   <g id="line2d_29">
    <path d="M 0 0 
" clip-path="url(#p832e270a33)" style="fill: none; stroke: #008000; stroke-opacity: 0.5; stroke-width: 1.5; stroke-linecap: square"/>
   </g>
   <g id="line2d_30">
    <path d="M 0 0 
" clip-path="url(#p832e270a33)" style="fill: none; stroke: #008000; stroke-opacity: 0.5; stroke-width: 1.5; stroke-linecap: square"/>
   </g>
   <g id="line2d_31">
    <path d="M 0 0 
" clip-path="url(#p832e270a33)" style="fill: none; stroke: #008000; stroke-opacity: 0.5; stroke-width: 1.5; stroke-linecap: square"/>
   </g>
   <g id="line2d_32">
    <path d="M 0 0 
" clip-path="url(#p832e270a33)" style="fill: none; stroke: #008000; stroke-opacity: 0.5; stroke-width: 1.5; stroke-linecap: square"/>
   </g>
   <g id="line2d_33">
    <path d="M 0 0 
" clip-path="url(#p832e270a33)" style="fill: none; stroke: #008000; stroke-opacity: 0.5; stroke-width: 1.5; stroke-linecap: square"/>
   </g>
   <g id="line2d_34">
    <path d="M 0 0 
" clip-path="url(#p832e270a33)" style="fill: none; stroke: #008000; stroke-opacity: 0.5; stroke-width: 1.5; stroke-linecap: square"/>
   </g>
   <g id="line2d_35">
    <path d="M 0 0 
" clip-path="url(#p832e270a33)" style="fill: none; stroke: #008000; stroke-opacity: 0.5; stroke-width: 1.5; stroke-linecap: square"/>
   </g>
   <g id="line2d_36">
    <path d="M 0 0 
" clip-path="url(#p832e270a33)" style="fill: none; stroke: #008000; stroke-opacity: 0.5; stroke-width: 1.5; stroke-linecap: square"/>
   </g>
   <g id="line2d_37">
    <path d="M 0 0 
" clip-path="url(#p832e270a33)" style="fill: none; stroke: #008000; stroke-opacity: 0.5; stroke-width: 1.5; stroke-linecap: square"/>
   </g>
   <g id="line2d_38">
    <path d="M 0 0 
" clip-path="url(#p832e270a33)" style="fill: none; stroke: #008000; stroke-opacity: 0.5; stroke-width: 1.5; stroke-linecap: square"/>
   </g>
   <g id="line2d_39">
    <path d="M 0 0 
" clip-path="url(#p832e270a33)" style="fill: none; stroke: #008000; stroke-opacity: 0.5; stroke-width: 1.5; stroke-linecap: square"/>
   </g>
   <g id="line2d_40">
    <path d="M 0 0 
" clip-path="url(#p832e270a33)" style="fill: none; stroke: #008000; stroke-opacity: 0.5; stroke-width: 1.5; stroke-linecap: square"/>
   </g>
   <g id="line2d_41">
    <path d="M 46.955 312.414984 
L 49.762615 312.513314 
L 52.57023 312.803387 
L 55.377845 313.287663 
L 58.877385 314.170174 
L 61.685 315.096934 
L 64.492615 316.225271 
L 67.30023 317.550268 
L 70.799769 319.484911 
L 74.312615 321.714543 
L 77.812154 324.224417 
L 81.324999 326.98749 
L 84.837845 329.971805 
L 90.439769 335.116922 
L 96.054999 340.574237 
L 106.580229 351.112755 
L 112.182153 356.638901 
L 119.207844 363.222095 
L 123.412614 366.926677 
L 128.322614 370.950833 
L 132.527383 374.112142 
L 136.732153 376.973545 
L 140.950229 379.508001 
L 144.449768 381.354147 
L 147.962613 382.944635 
L 151.462153 384.272089 
L 154.974998 385.324221 
L 158.487844 386.096111 
L 161.282153 386.506639 
L 164.089768 386.735256 
L 167.602613 386.784421 
L 211.087382 386.892584 
L 234.932151 387.162991 
L 246.867842 387.516979 
L 255.982612 388.038128 
L 262.289766 388.59861 
L 273.520227 389.884274 
L 279.122151 390.398049 
L 284.032151 390.611916 
L 288.423207 390.572584 
L 293.373126 390.257928 
L 298.336351 389.658115 
L 302.301608 388.97718 
L 307.264833 387.875884 
L 312.228058 386.499264 
L 317.177977 384.859611 
L 322.141201 382.964301 
L 327.104426 380.818248 
L 332.067651 378.436204 
L 338.015537 375.282269 
L 342.978762 372.425783 
L 349.924616 368.101721 
L 356.857163 363.445796 
L 363.803016 358.50963 
L 370.74887 353.359596 
L 379.677352 346.547785 
L 395.551688 334.534317 
L 398.532284 332.462013 
L 407.44746 327.599594 
L 415.391281 323.511524 
L 421.339167 320.689453 
L 427.287053 318.157456 
L 432.250278 316.328518 
L 436.215536 315.079727 
L 440.194099 314.04972 
L 444.159357 313.258164 
L 448.124614 312.722265 
L 452.089871 312.449399 
L 454.0725 312.414984 
L 454.0725 312.414984 
" clip-path="url(#p832e270a33)" style="fill: none; stroke: #008000; stroke-opacity: 0.5; stroke-width: 1.5; stroke-linecap: square"/>
   </g>
   <g id="line2d_42">
    <path d="M 46.955 312.414984 
L 55.377845 312.540355 
L 63.787385 312.918925 
L 71.505 313.496614 
L 79.222615 314.298003 
L 84.132615 314.924857 
L 84.837845 315.114142 
L 101.670229 323.366488 
L 107.272153 325.955025 
L 114.297844 328.963923 
L 119.899768 331.15914 
L 125.514999 333.14049 
L 131.130229 334.888305 
L 136.040229 336.21576 
L 140.950229 337.349014 
L 145.860229 338.278232 
L 150.770229 339.000958 
L 155.680229 339.509815 
L 160.590228 339.802347 
L 165.500228 339.876095 
L 174.614998 339.706475 
L 181.627383 339.327905 
L 189.344998 338.681385 
L 197.767843 337.749708 
L 198.459767 337.661211 
L 199.164997 337.818539 
L 213.894997 344.691806 
L 223.009767 348.575841 
L 227.919767 350.591606 
L 228.624997 350.972635 
L 230.022151 352.155053 
L 240.547382 362.354332 
L 244.752151 366.019583 
L 248.970227 369.36772 
L 252.469766 371.88251 
L 255.982612 374.126892 
L 259.482151 376.073826 
L 262.994996 377.713479 
L 266.507842 379.038475 
L 269.302151 379.881655 
L 272.814996 380.687961 
L 276.327842 381.2509 
L 279.827381 381.607347 
L 284.032151 381.801548 
L 288.423207 381.7573 
L 292.388465 381.5041 
L 296.353722 381.051782 
L 301.316947 380.208602 
L 306.266866 379.065516 
L 310.245429 377.947012 
L 315.195348 376.304901 
L 320.158573 374.412049 
L 325.121798 372.293037 
L 331.069684 369.495549 
L 337.01757 366.479276 
L 344.961391 362.228962 
L 386.623206 339.118953 
L 398.532284 332.393181 
L 403.482203 328.971297 
L 409.443395 325.183134 
L 413.408652 322.892045 
L 417.37391 320.817282 
L 421.339167 318.976053 
L 425.304425 317.37819 
L 429.282988 316.021236 
L 433.248246 314.905191 
L 437.213503 314.012846 
L 441.17876 313.334369 
L 445.144018 312.850094 
L 449.122581 312.547729 
L 454.0725 312.414984 
L 454.0725 312.414984 
" clip-path="url(#p832e270a33)" style="fill: none; stroke: #008000; stroke-opacity: 0.5; stroke-width: 1.5; stroke-linecap: square"/>
   </g>
   <g id="line2d_43">
    <path d="M 46.955 304.182304 
L 50.467845 304.280635 
L 53.967385 304.580541 
L 57.48023 305.084482 
L 60.979769 305.794916 
L 64.492615 306.711844 
L 67.992154 307.825431 
L 72.21023 309.391336 
L 77.812154 311.790588 
L 84.837845 315.023187 
L 93.247384 316.318685 
L 102.362154 317.953421 
L 133.937844 323.897469 
L 141.642153 324.998765 
L 149.359768 325.837029 
L 156.372153 326.34097 
L 162.692613 326.569587 
L 169.704998 326.798204 
L 172.512613 327.22594 
L 175.320228 327.870002 
L 178.819767 328.927049 
L 182.332613 330.205339 
L 186.537383 331.94578 
L 192.857843 334.814558 
L 198.459767 337.481759 
L 199.164997 337.575173 
L 211.792612 335.839648 
L 214.600228 335.431579 
L 215.292152 336.001892 
L 226.522612 348.290684 
L 228.624997 350.340865 
L 230.022151 351.142254 
L 233.534997 352.459876 
L 239.842151 354.527265 
L 246.162612 356.334078 
L 251.777842 357.72299 
L 257.379766 358.902949 
L 262.994996 359.8715 
L 269.302151 360.704847 
L 274.917381 361.218621 
L 280.532611 361.516069 
L 286.427272 361.597192 
L 292.388465 361.447238 
L 298.336351 361.073584 
L 304.284237 360.468855 
L 310.245429 359.625675 
L 316.193315 358.531754 
L 322.141201 357.167425 
L 327.104426 355.810471 
L 332.067651 354.232275 
L 337.01757 352.420544 
L 341.980795 350.350698 
L 346.944019 348.007986 
L 351.907244 345.380116 
L 356.857163 342.474465 
L 361.820388 339.310697 
L 366.783613 335.918312 
L 374.714127 330.146341 
L 383.64261 323.612313 
L 389.603802 321.965285 
L 397.534317 319.49966 
L 406.462799 316.441597 
L 426.302392 309.462626 
L 432.250278 307.636146 
L 437.213503 306.328357 
L 442.176728 305.286059 
L 446.141985 304.681329 
L 450.107243 304.307675 
L 454.0725 304.182304 
L 454.0725 304.182304 
" clip-path="url(#p832e270a33)" style="fill: none; stroke: #008000; stroke-opacity: 0.5; stroke-width: 1.5; stroke-linecap: square"/>
   </g>
   <g id="line2d_44">
    <path d="M 46.955 304.032351 
L 57.48023 304.140514 
L 68.697384 304.521543 
L 79.927845 305.138564 
L 113.592614 307.183828 
L 124.117844 307.525525 
L 133.232614 307.621396 
L 142.347383 307.51815 
L 152.167383 307.178911 
L 161.987383 306.625805 
L 168.307844 306.306233 
L 174.614998 306.040741 
L 178.127843 305.964536 
L 180.230228 306.087448 
L 182.332613 306.46356 
L 183.729767 306.901129 
L 185.140228 307.496026 
L 187.242613 308.656319 
L 189.344998 310.072271 
L 192.152613 312.252739 
L 194.960228 314.686407 
L 199.164997 318.681063 
L 203.369767 322.978084 
L 208.984997 329.010629 
L 214.600228 335.220169 
L 215.292152 335.328332 
L 236.342612 332.358766 
L 246.867842 331.134558 
L 255.277381 330.362667 
L 263.700227 329.821852 
L 270.712611 329.590777 
L 278.430227 329.558819 
L 330.085022 329.816935 
L 339.998166 329.610442 
L 347.941987 329.224497 
L 354.874534 328.673849 
L 360.835726 328.015038 
L 366.783613 327.162026 
L 373.729466 325.90586 
L 380.67532 324.362079 
L 382.657948 323.867971 
L 383.64261 323.425486 
L 391.586431 317.626474 
L 395.551688 314.951898 
L 399.516945 312.537896 
L 403.482203 310.463133 
L 406.462799 309.165177 
L 409.443395 308.088464 
L 412.410685 307.215785 
L 416.375942 306.32344 
L 420.354506 305.669546 
L 425.304425 305.089399 
L 431.265617 304.627248 
L 439.196132 304.260968 
L 448.124614 304.066767 
L 454.0725 304.032351 
L 454.0725 304.032351 
" clip-path="url(#p832e270a33)" style="fill: none; stroke: #008000; stroke-opacity: 0.5; stroke-width: 1.5; stroke-linecap: square"/>
   </g>
   <g id="line2d_45">
    <path d="M 46.955 281.34762 
L 49.057385 281.497573 
L 51.15977 281.905643 
L 53.967385 282.72424 
L 58.877385 284.462223 
L 65.197845 286.623025 
L 69.402615 287.834942 
L 74.312615 288.978028 
L 79.222615 289.855624 
L 84.837845 290.598015 
L 90.439769 291.136372 
L 98.157384 291.652604 
L 108.682614 292.100006 
L 110.784999 292.176212 
L 117.092153 293.646245 
L 123.412614 294.858162 
L 129.719768 295.846379 
L 137.437383 296.78543 
L 144.449768 297.422117 
L 152.872613 297.93835 
L 161.282153 298.213674 
L 168.999768 298.410333 
L 171.807383 298.825778 
L 174.614998 299.48213 
L 178.819767 300.753046 
L 181.627383 301.551977 
L 183.729767 301.960047 
L 185.832152 302.154248 
L 188.639767 302.161623 
L 191.447382 302.132124 
L 203.369767 307.923761 
L 211.792612 311.748798 
L 220.202152 315.266554 
L 227.227843 317.933755 
L 233.534997 320.10439 
L 239.842151 322.048866 
L 246.162612 323.752433 
L 252.469766 325.2028 
L 258.084996 326.269681 
L 263.700227 327.112861 
L 268.610227 327.648759 
L 273.520227 327.992914 
L 279.827381 328.189574 
L 288.423207 328.211698 
L 296.353722 328.010122 
L 304.284237 327.57747 
L 311.23009 327.012072 
L 319.173911 326.146768 
L 327.104426 325.052847 
L 335.034941 323.732767 
L 342.978762 322.181611 
L 350.909277 320.404296 
L 358.853098 318.395906 
L 366.783613 316.161357 
L 375.712095 313.373701 
L 384.640577 310.300889 
L 393.569059 306.942919 
L 403.482203 302.889265 
L 411.426024 299.413299 
L 422.337135 294.339472 
L 444.159357 283.928783 
L 447.126646 282.761114 
L 450.107243 281.856478 
L 452.089871 281.480366 
L 454.0725 281.34762 
L 454.0725 281.34762 
" clip-path="url(#p832e270a33)" style="fill: none; stroke: #008000; stroke-opacity: 0.5; stroke-width: 1.5; stroke-linecap: square"/>
   </g>
   <g id="line2d_46">
    <path d="M 46.955 272.040686 
L 55.377845 272.173431 
L 63.082154 272.517586 
L 65.889769 272.697039 
L 75.017845 277.866738 
L 79.927845 280.447901 
L 84.837845 282.847153 
L 89.747845 285.047286 
L 94.657845 287.043385 
L 99.567845 288.830533 
L 104.477845 290.416105 
L 109.387844 291.809932 
L 110.784999 292.166379 
L 126.220229 292.495784 
L 144.449768 292.579364 
L 157.782613 292.429411 
L 167.602613 292.304041 
L 169.704998 292.62853 
L 171.807383 293.181636 
L 174.614998 294.17231 
L 178.127843 295.657094 
L 184.434998 298.6537 
L 191.447382 302.016586 
L 201.267382 301.227488 
L 213.189767 300.374475 
L 230.022151 299.487047 
L 251.072612 298.715157 
L 265.097381 298.380834 
L 281.237842 298.201382 
L 296.353722 298.257922 
L 310.245429 298.49883 
L 359.837759 299.519004 
L 369.764209 299.413299 
L 377.694723 299.130601 
L 383.64261 298.729906 
L 388.605834 298.208757 
L 392.571092 297.606486 
L 396.536349 296.780514 
L 399.516945 295.966833 
L 402.497542 294.956492 
L 405.464831 293.729826 
L 408.445428 292.286833 
L 411.426024 290.642264 
L 415.391281 288.191388 
L 421.339167 284.127901 
L 428.285021 279.10078 
L 439.196132 271.222088 
L 440.194099 271.185215 
L 446.141985 271.750612 
L 451.10521 271.998896 
L 454.0725 272.040686 
L 454.0725 272.040686 
" clip-path="url(#p832e270a33)" style="fill: none; stroke: #008000; stroke-opacity: 0.5; stroke-width: 1.5; stroke-linecap: square"/>
   </g>
   <g id="line2d_47">
    <path d="M 46.955 272.040686 
L 48.352154 271.962022 
L 50.467845 271.55641 
L 52.57023 270.873017 
L 55.377845 269.666016 
L 58.172154 268.250064 
L 61.685 270.23633 
L 65.889769 272.69458 
L 73.607384 273.306685 
L 83.427384 274.329317 
L 86.234999 275.091374 
L 92.542154 276.674487 
L 98.157384 277.847072 
L 105.169769 279.056531 
L 112.887384 280.14062 
L 122.707384 281.261582 
L 133.232614 282.252256 
L 147.962613 283.380593 
L 159.884998 284.103319 
L 166.897383 284.403225 
L 170.410228 284.206565 
L 173.909768 283.729665 
L 177.422613 282.989731 
L 180.922152 281.999056 
L 184.434998 280.784681 
L 187.947843 279.371187 
L 192.857843 277.109597 
L 199.164997 273.845041 
L 206.177382 269.946257 
L 214.600228 265.23625 
L 220.907382 263.456477 
L 228.624997 261.546417 
L 236.342612 259.872348 
L 246.162612 258.023744 
L 255.982612 256.452922 
L 264.392151 255.34671 
L 272.109766 254.582194 
L 279.122151 254.154459 
L 284.737381 254.024171 
L 302.301608 254.12496 
L 315.195348 254.417491 
L 325.121798 254.86981 
L 334.05028 255.508955 
L 342.978762 256.531587 
L 348.926648 257.087151 
L 351.907244 258.090117 
L 362.818355 261.853698 
L 370.74887 264.410278 
L 377.694723 266.430959 
L 384.640577 268.166484 
L 389.603802 269.189116 
L 394.553721 269.99788 
L 399.516945 270.558361 
L 403.482203 270.811561 
L 408.445428 270.860726 
L 412.410685 270.681273 
L 416.375942 270.30762 
L 420.354506 269.756972 
L 425.304425 268.965415 
L 435.230874 270.541153 
L 439.196132 271.067219 
L 440.194099 270.541153 
L 442.176728 269.213698 
L 443.161389 268.945749 
L 447.126646 270.592777 
L 450.107243 271.524453 
L 452.089871 271.90794 
L 454.0725 272.040686 
L 454.0725 272.040686 
" clip-path="url(#p832e270a33)" style="fill: none; stroke: #008000; stroke-opacity: 0.5; stroke-width: 1.5; stroke-linecap: square"/>
   </g>
   <g id="line2d_48">
    <path d="M 46.955 264.21116 
L 48.352154 264.297198 
L 49.762615 264.54794 
L 51.865 265.189543 
L 53.967385 266.067138 
L 56.775 267.470799 
L 58.172154 268.235315 
L 60.979769 266.721033 
L 61.685 266.814446 
L 66.595 268.48114 
L 82.03023 273.859791 
L 84.132615 274.410439 
L 93.952614 275.64448 
L 132.527383 280.782223 
L 142.347383 281.745857 
L 150.770229 282.353045 
L 158.487844 282.709491 
L 166.192152 282.859444 
L 168.307844 282.719324 
L 170.410228 282.328462 
L 173.217843 281.507407 
L 177.422613 279.897253 
L 183.729767 277.148929 
L 194.254998 272.556918 
L 201.267382 269.754513 
L 208.279767 267.242182 
L 214.600228 265.187085 
L 220.202152 262.124105 
L 225.817382 259.274994 
L 230.022151 257.382141 
L 233.534997 256.04977 
L 237.047842 254.99518 
L 240.547382 254.183958 
L 245.457382 253.306363 
L 251.777842 252.431225 
L 258.790227 251.679001 
L 265.802612 251.111145 
L 274.212151 250.663744 
L 281.929766 250.467084 
L 289.407869 250.494124 
L 295.355755 250.739949 
L 301.316947 251.179976 
L 308.262801 251.907618 
L 318.175944 253.227699 
L 336.032908 255.68349 
L 344.961391 256.610251 
L 355.872502 257.999162 
L 371.746837 260.287793 
L 398.532284 264.405361 
L 415.391281 267.24464 
L 424.319763 268.795796 
L 425.304425 268.854794 
L 432.250278 267.352803 
L 437.213503 266.263798 
L 438.21147 266.573538 
L 442.176728 268.490973 
L 443.161389 268.574553 
L 446.141985 266.789864 
L 448.124614 265.767232 
L 450.107243 264.946176 
L 452.089871 264.402903 
L 454.0725 264.21116 
L 454.0725 264.21116 
" clip-path="url(#p832e270a33)" style="fill: none; stroke: #008000; stroke-opacity: 0.5; stroke-width: 1.5; stroke-linecap: square"/>
   </g>
   <g id="line2d_49">
    <path d="M 46.955 264.21116 
L 49.762615 264.316864 
L 52.57023 264.626604 
L 56.069769 265.27804 
L 59.582615 266.180218 
L 60.979769 266.595662 
L 61.685 266.327713 
L 77.12023 257.736129 
L 81.324999 255.653991 
L 86.234999 253.468607 
L 91.144999 251.563463 
L 96.054999 249.945935 
L 100.964999 248.601272 
L 102.362154 248.262034 
L 103.067384 248.298907 
L 112.887384 251.922368 
L 121.310229 254.746897 
L 126.912153 256.445548 
L 133.937844 258.326109 
L 139.539768 259.621607 
L 145.154998 260.717986 
L 150.770229 261.602956 
L 156.372153 262.274059 
L 161.987383 262.719002 
L 166.897383 262.905829 
L 173.217843 262.765709 
L 179.524998 262.401888 
L 186.537383 261.760284 
L 194.254998 260.801567 
L 202.677843 259.51836 
L 214.600228 257.423931 
L 227.227843 254.943557 
L 232.829767 253.596436 
L 237.047842 252.342729 
L 253.174997 247.180404 
L 258.084996 245.934071 
L 262.289766 245.031893 
L 266.507842 245.228553 
L 277.019766 245.648914 
L 284.737381 245.769368 
L 301.316947 245.663663 
L 311.23009 245.624331 
L 317.177977 247.000951 
L 323.139169 248.591439 
L 331.069684 250.980858 
L 339.013505 253.598894 
L 348.926648 257.001112 
L 353.889873 257.217438 
L 358.853098 257.246937 
L 363.803016 257.072402 
L 368.766241 256.674165 
L 373.729466 256.042395 
L 378.692691 255.174633 
L 383.64261 254.06842 
L 388.605834 252.73359 
L 393.569059 251.184893 
L 398.532284 249.44691 
L 399.516945 249.355955 
L 404.48017 250.983316 
L 409.443395 252.84667 
L 415.391281 255.359001 
L 422.337135 258.596517 
L 433.248246 264.071039 
L 437.213503 266.076971 
L 438.21147 266.057305 
L 443.161389 265.140378 
L 447.126646 264.599563 
L 451.10521 264.284907 
L 454.0725 264.21116 
L 454.0725 264.21116 
" clip-path="url(#p832e270a33)" style="fill: none; stroke: #008000; stroke-opacity: 0.5; stroke-width: 1.5; stroke-linecap: square"/>
   </g>
   <g id="line2d_50">
    <path d="M 46.955 251.583129 
L 48.352154 251.484799 
L 49.762615 251.204559 
L 51.865 250.481833 
L 53.967385 249.473951 
L 56.775 247.829382 
L 60.287845 245.467003 
L 65.889769 241.295353 
L 71.505 236.944251 
L 72.21023 236.632053 
L 79.927845 239.345961 
L 93.247384 244.478787 
L 102.362154 248.030958 
L 103.067384 248.099789 
L 107.977384 247.089448 
L 113.592614 246.165146 
L 119.899768 245.35884 
L 126.912153 244.687738 
L 134.629768 244.173964 
L 138.142614 244.102675 
L 146.552153 245.026976 
L 154.974998 245.715286 
L 162.692613 246.128273 
L 168.999768 246.265934 
L 176.012152 246.48226 
L 194.960228 247.168112 
L 201.972613 247.07224 
L 208.279767 246.764959 
L 215.292152 246.194645 
L 223.009767 245.319508 
L 230.727382 244.255086 
L 235.637382 243.576609 
L 251.072612 244.380457 
L 262.289766 245.009769 
L 272.109766 243.524986 
L 277.019766 243.080042 
L 282.634996 242.819468 
L 287.42524 242.804719 
L 292.388465 243.001378 
L 297.338383 243.411906 
L 302.301608 244.028927 
L 307.264833 244.842608 
L 311.23009 245.491586 
L 328.102394 245.054017 
L 353.889873 244.382915 
L 362.818355 244.377999 
L 369.764209 244.574658 
L 376.696756 245.031893 
L 382.657948 245.695621 
L 387.607867 246.48226 
L 392.571092 247.502434 
L 397.534317 248.775808 
L 398.532284 249.060965 
L 399.516945 249.080631 
L 405.464831 246.760043 
L 415.391281 242.632641 
L 422.337135 239.815487 
L 425.304425 238.760897 
L 427.287053 238.261873 
L 428.285021 238.183209 
L 429.282988 238.315954 
L 430.267649 238.682233 
L 432.250278 239.820403 
L 436.215536 242.531853 
L 443.161389 247.22711 
L 446.141985 249.006883 
L 448.124614 250.027057 
L 450.107243 250.848113 
L 452.089871 251.391386 
L 454.0725 251.583129 
L 454.0725 251.583129 
" clip-path="url(#p832e270a33)" style="fill: none; stroke: #008000; stroke-opacity: 0.5; stroke-width: 1.5; stroke-linecap: square"/>
   </g>
   <g id="line2d_51">
    <path d="M 46.955 235.021899 
L 58.877385 234.913736 
L 65.889769 234.761325 
L 67.30023 235.093188 
L 71.505 236.400977 
L 72.21023 236.415727 
L 73.607384 235.42751 
L 75.017845 234.690035 
L 75.709769 234.493375 
L 78.517384 234.468793 
L 82.722154 234.985025 
L 91.144999 236.329688 
L 105.169769 238.834645 
L 122.002153 241.77717 
L 133.232614 243.465988 
L 138.142614 244.021552 
L 144.449768 243.906014 
L 150.064998 244.033843 
L 155.680229 244.412414 
L 161.987383 245.085974 
L 166.897383 245.629248 
L 174.614998 245.469462 
L 182.332613 245.051559 
L 190.050228 244.434538 
L 204.074997 243.288994 
L 210.382152 243.04071 
L 216.702612 242.99892 
L 226.522612 243.21033 
L 235.637382 243.50532 
L 261.597842 239.618827 
L 268.610227 238.866602 
L 275.622611 238.350369 
L 281.929766 238.109461 
L 289.407869 238.075045 
L 344.961391 237.964424 
L 359.837759 237.639935 
L 372.731499 237.160576 
L 385.625238 236.484558 
L 401.499574 235.400469 
L 415.391281 234.414711 
L 426.302392 234.579414 
L 428.285021 235.538132 
L 429.282988 235.783957 
L 430.267649 235.801164 
L 432.250278 235.449635 
L 435.230874 234.778532 
L 450.107243 235.009608 
L 454.0725 235.021899 
L 454.0725 235.021899 
" clip-path="url(#p832e270a33)" style="fill: none; stroke: #008000; stroke-opacity: 0.5; stroke-width: 1.5; stroke-linecap: square"/>
   </g>
   <g id="line2d_52">
    <path d="M 46.955 231.732761 
L 50.467845 231.848298 
L 53.967385 232.18262 
L 58.172154 232.851264 
L 62.39023 233.768192 
L 66.595 234.741658 
L 89.042614 234.30409 
L 96.054999 234.449127 
L 102.362154 234.783449 
L 108.682614 235.304598 
L 115.694999 236.066655 
L 125.514999 237.337571 
L 142.347383 239.461499 
L 148.667844 239.953148 
L 153.577844 240.110477 
L 159.179768 240.046562 
L 164.794998 239.783529 
L 167.602613 239.692574 
L 194.254998 239.584411 
L 200.562152 239.272213 
L 205.472152 238.819895 
L 210.382152 238.163543 
L 216.702612 237.067163 
L 225.112152 235.348846 
L 242.649766 231.722927 
L 251.072612 230.243061 
L 259.482151 229.033602 
L 267.199766 228.200255 
L 274.212151 227.686481 
L 281.237842 227.416073 
L 287.42524 227.389033 
L 292.388465 227.583235 
L 297.338383 227.981471 
L 303.299576 228.69928 
L 310.245429 229.775993 
L 336.032908 234.10743 
L 341.980795 234.790824 
L 347.941987 235.282474 
L 353.889873 235.584838 
L 360.835726 235.720042 
L 368.766241 235.646295 
L 379.677352 235.297223 
L 402.497542 234.498292 
L 412.410685 234.404878 
L 414.393314 234.363088 
L 424.319763 233.507617 
L 425.304425 233.859147 
L 426.302392 234.508125 
L 428.285021 234.621204 
L 434.232907 234.756408 
L 435.230874 234.660536 
L 440.194099 233.399454 
L 444.159357 232.602981 
L 448.124614 232.052333 
L 452.089871 231.769634 
L 454.0725 231.732761 
L 454.0725 231.732761 
" clip-path="url(#p832e270a33)" style="fill: none; stroke: #008000; stroke-opacity: 0.5; stroke-width: 1.5; stroke-linecap: square"/>
   </g>
   <g id="line2d_53">
    <path d="M 46.955 231.732761 
L 53.967385 231.86059 
L 60.979769 232.234243 
L 68.697384 232.873389 
L 72.902154 233.173295 
L 74.312615 233.094631 
L 75.017845 232.929928 
L 76.415 232.244077 
L 78.517384 230.729794 
L 82.722154 227.330035 
L 104.477845 209.56672 
L 107.272153 207.393627 
L 108.682614 207.27809 
L 122.707384 206.830688 
L 143.052614 205.94326 
L 176.717383 204.210194 
L 181.627383 203.642338 
L 187.242613 202.732785 
L 192.152613 201.71507 
L 197.062613 200.495778 
L 201.972613 199.084742 
L 207.587843 197.245971 
L 214.600228 194.647601 
L 222.317843 191.476459 
L 234.240227 186.188763 
L 244.752151 181.518088 
L 251.777842 178.624728 
L 256.687842 176.79579 
L 260.892612 175.397045 
L 265.802612 174.015509 
L 270.007381 173.081374 
L 274.212151 172.407813 
L 278.430227 171.994827 
L 282.634996 171.798167 
L 287.42524 171.778501 
L 292.388465 171.957953 
L 298.336351 172.439771 
L 303.299576 173.056791 
L 308.262801 173.865555 
L 314.210687 175.082389 
L 320.158573 176.559798 
L 325.121798 177.973291 
L 332.067651 180.215215 
L 339.998166 183.103659 
L 346.944019 185.861816 
L 354.874534 189.192744 
L 373.729466 197.186973 
L 379.677352 201.02676 
L 386.623206 205.70481 
L 396.536349 212.676407 
L 405.464831 219.185853 
L 420.354506 230.28731 
L 424.319763 233.175753 
L 425.304425 233.421578 
L 440.194099 232.236702 
L 447.126646 231.867964 
L 454.0725 231.732761 
L 454.0725 231.732761 
" clip-path="url(#p832e270a33)" style="fill: none; stroke: #008000; stroke-opacity: 0.5; stroke-width: 1.5; stroke-linecap: square"/>
   </g>
   <g id="line2d_54">
    <path d="M 46.955 207.801697 
L 85.529769 207.691076 
L 104.477845 207.383794 
L 107.272153 207.314963 
L 108.682614 206.324289 
L 115.694999 201.174255 
L 122.002153 196.884609 
L 126.912153 193.816712 
L 131.822153 191.019224 
L 136.732153 188.521642 
L 140.950229 186.643539 
L 144.449768 185.276752 
L 148.667844 183.887841 
L 152.167383 182.946331 
L 156.372153 182.088402 
L 159.884998 181.606585 
L 163.397844 181.338636 
L 166.897383 181.277179 
L 175.320228 181.176391 
L 184.434998 180.85436 
L 192.857843 180.340586 
L 201.267382 179.585903 
L 208.984997 178.659143 
L 216.702612 177.498849 
L 224.420227 176.102563 
L 233.534997 174.187586 
L 239.842151 172.815883 
L 260.187381 171.505635 
L 282.634996 170.350258 
L 288.423207 170.360091 
L 293.373126 170.598541 
L 298.336351 171.053317 
L 303.299576 171.717045 
L 309.247462 172.774092 
L 315.195348 174.099089 
L 321.15654 175.664995 
L 328.102394 177.761882 
L 336.032908 180.453665 
L 345.946052 184.145957 
L 357.85513 188.83384 
L 364.800984 191.673119 
L 374.714127 197.58521 
L 381.659981 200.220454 
L 387.607867 202.221469 
L 392.571092 203.664462 
L 397.534317 204.881296 
L 402.497542 205.864596 
L 407.44746 206.619279 
L 412.410685 207.167468 
L 418.371877 207.587829 
L 425.304425 207.831196 
L 434.232907 207.897569 
L 454.0725 207.801697 
L 454.0725 207.801697 
" clip-path="url(#p832e270a33)" style="fill: none; stroke: #008000; stroke-opacity: 0.5; stroke-width: 1.5; stroke-linecap: square"/>
   </g>
   <g id="line2d_55">
    <path d="M 46.955 207.801697 
L 64.492615 207.691076 
L 70.799769 207.447709 
L 76.415 207.005224 
L 81.324999 206.368537 
L 85.529769 205.596647 
L 89.747845 204.583848 
L 93.952614 203.325224 
L 98.157384 201.823233 
L 102.362154 200.099999 
L 107.272153 197.855617 
L 113.592614 194.716432 
L 133.232614 184.809685 
L 138.847844 182.378475 
L 143.052614 180.77078 
L 147.257383 179.376952 
L 151.462153 178.226491 
L 155.680229 177.334146 
L 159.179768 176.798248 
L 162.692613 176.461468 
L 166.192152 176.323805 
L 177.422613 176.223017 
L 190.742152 175.844447 
L 203.369767 175.256925 
L 220.202152 174.209711 
L 239.842151 172.737219 
L 257.379766 168.67619 
L 265.097381 167.174199 
L 270.712611 166.308895 
L 275.622611 165.750872 
L 280.532611 165.406717 
L 285.442611 165.29118 
L 290.405836 165.409176 
L 295.355755 165.760705 
L 300.31898 166.343311 
L 305.282204 167.152075 
L 310.245429 168.182082 
L 316.193315 169.70128 
L 322.141201 171.515469 
L 327.104426 173.24116 
L 332.067651 175.148762 
L 339.013505 178.108495 
L 345.946052 181.385342 
L 351.907244 184.423739 
L 359.837759 188.784675 
L 364.800984 191.58708 
L 373.729466 195.02863 
L 381.659981 197.890033 
L 388.605834 200.168831 
L 395.551688 202.177221 
L 400.514913 203.421095 
L 405.464831 204.490434 
L 411.426024 205.542565 
L 417.37391 206.348871 
L 424.319763 207.007682 
L 431.265617 207.41821 
L 440.194099 207.688617 
L 451.10521 207.79678 
L 454.0725 207.801697 
L 454.0725 207.801697 
" clip-path="url(#p832e270a33)" style="fill: none; stroke: #008000; stroke-opacity: 0.5; stroke-width: 1.5; stroke-linecap: square"/>
   </g>
   <g id="line2d_56">
    <path d="M 46.955 175.274133 
L 49.057385 175.178261 
L 51.15977 174.895562 
L 53.262154 174.430953 
L 56.069769 173.553358 
L 58.877385 172.417646 
L 62.39023 170.709163 
L 67.30023 167.980505 
L 74.312615 163.95635 
L 78.517384 161.758674 
L 82.03023 160.143604 
L 85.529769 158.747318 
L 89.747845 157.35349 
L 93.952614 156.225154 
L 98.862614 155.177939 
L 104.477845 154.241346 
L 110.784999 153.427665 
L 118.502614 152.663149 
L 129.027844 151.893717 
L 141.642153 151.242281 
L 155.680229 150.762922 
L 169.704998 150.261439 
L 171.807383 149.828787 
L 173.909768 149.20685 
L 176.717383 148.093263 
L 179.524998 146.682227 
L 182.332613 145.008159 
L 185.140228 143.105473 
L 189.344998 139.914665 
L 193.549767 136.433783 
L 202.677843 128.535426 
L 207.587843 124.417857 
L 211.087382 121.647409 
L 215.292152 118.579513 
L 219.510227 115.826273 
L 223.009767 113.785926 
L 226.522612 111.971737 
L 230.727382 110.078885 
L 234.932151 108.461356 
L 239.842151 106.883159 
L 244.752151 105.580287 
L 249.662151 104.506032 
L 255.982612 103.399819 
L 262.289766 102.549265 
L 268.610227 101.917494 
L 275.622611 101.452885 
L 281.929766 101.241476 
L 288.423207 101.246392 
L 293.373126 101.457802 
L 299.334318 101.942077 
L 306.266866 102.78034 
L 313.212719 103.857054 
L 320.158573 105.135344 
L 327.104426 106.600461 
L 334.05028 108.247488 
L 341.980795 110.349292 
L 348.926648 112.377348 
L 356.857163 114.904429 
L 365.785645 117.987075 
L 374.714127 121.28113 
L 387.607867 126.291043 
L 399.516945 130.983843 
L 400.514913 131.94256 
L 406.462799 139.167357 
L 412.410685 146.124204 
L 418.371877 152.712314 
L 422.337135 156.8348 
L 426.302392 160.689335 
L 429.282988 163.373744 
L 432.250278 165.854119 
L 435.230874 168.103418 
L 438.21147 170.0946 
L 441.17876 171.800625 
L 444.159357 173.191995 
L 447.126646 174.244126 
L 449.122581 174.745609 
L 451.10521 175.082389 
L 453.087839 175.252008 
L 454.0725 175.274133 
L 454.0725 175.274133 
" clip-path="url(#p832e270a33)" style="fill: none; stroke: #008000; stroke-opacity: 0.5; stroke-width: 1.5; stroke-linecap: square"/>
   </g>
   <g id="line2d_57">
    <path d="M 46.955 144.457511 
L 51.15977 144.354264 
L 55.377845 144.03715 
L 59.582615 143.484044 
L 63.082154 142.820316 
L 66.595 141.937804 
L 70.107845 140.804551 
L 73.607384 139.388599 
L 76.415 138.036562 
L 79.222615 136.485406 
L 82.03023 134.742507 
L 86.234999 131.799982 
L 90.439769 128.5428 
L 95.349769 124.481771 
L 116.400229 106.841369 
L 120.604999 103.635811 
L 126.220229 99.646072 
L 130.424999 96.890373 
L 135.334999 93.950306 
L 139.539768 91.681342 
L 143.757844 89.653285 
L 147.257383 88.156211 
L 151.462153 86.597681 
L 155.680229 85.304641 
L 159.179768 84.436879 
L 163.397844 83.650239 
L 166.192152 83.28396 
L 171.102152 83.180713 
L 176.012152 82.863599 
L 180.922152 82.320325 
L 185.140228 81.661514 
L 190.050228 80.643799 
L 194.254998 79.527753 
L 197.767843 78.411708 
L 201.972613 76.823679 
L 205.472152 75.287272 
L 209.690228 73.185468 
L 217.407843 69.060525 
L 218.804997 68.563958 
L 220.202152 68.355007 
L 221.612612 68.441046 
L 223.714997 68.917947 
L 226.522612 69.827499 
L 232.829767 72.165295 
L 244.060227 76.290238 
L 250.367381 78.387125 
L 256.687842 80.245563 
L 261.597842 81.496812 
L 266.507842 82.551401 
L 270.712611 83.286418 
L 275.622611 83.925563 
L 280.532611 84.316425 
L 285.442611 84.446712 
L 289.407869 84.338549 
L 293.373126 84.011602 
L 297.338383 83.478161 
L 301.316947 82.748061 
L 306.266866 81.580392 
L 310.245429 80.461889 
L 315.195348 78.849277 
L 320.158573 77.022797 
L 326.106459 74.591588 
L 333.052312 71.5114 
L 345.946052 65.732055 
L 347.941987 67.779777 
L 354.874534 75.54293 
L 360.835726 82.49732 
L 370.74887 94.557494 
L 379.677352 105.740073 
L 399.516945 130.72081 
L 400.514913 131.372246 
L 410.428056 135.118619 
L 418.371877 137.876776 
L 424.319763 139.730296 
L 429.282988 141.094625 
L 434.232907 142.259835 
L 439.196132 143.201345 
L 444.159357 143.892113 
L 448.124614 144.253476 
L 453.087839 144.452594 
L 454.0725 144.457511 
L 454.0725 144.457511 
" clip-path="url(#p832e270a33)" style="fill: none; stroke: #008000; stroke-opacity: 0.5; stroke-width: 1.5; stroke-linecap: square"/>
   </g>
   <g id="line2d_58">
    <path d="M 46.955 103.461276 
L 49.762615 103.362945 
L 52.57023 103.072872 
L 56.069769 102.438643 
L 58.877385 101.720835 
L 62.39023 100.565457 
L 65.889769 99.137214 
L 69.402615 97.448396 
L 72.902154 95.516212 
L 76.415 93.362785 
L 79.927845 91.010239 
L 84.837845 87.509691 
L 91.85023 84.608956 
L 100.259769 80.732296 
L 107.977384 76.897426 
L 116.400229 72.529116 
L 128.322614 66.297452 
L 136.732153 62.103678 
L 143.052614 59.202942 
L 148.667844 56.87498 
L 152.872613 55.313991 
L 153.577844 55.073082 
L 154.974998 55.114873 
L 159.179768 55.628647 
L 164.089768 56.444786 
L 166.192152 56.857772 
L 174.614998 56.95856 
L 181.627383 57.260925 
L 187.242613 57.732909 
L 192.152613 58.37697 
L 196.357382 59.129195 
L 201.267382 60.250157 
L 206.177382 61.607111 
L 216.702612 64.694673 
L 218.099767 64.86675 
L 219.510227 64.778254 
L 220.907382 64.355435 
L 222.317843 63.65975 
L 224.420227 62.315087 
L 227.919767 59.714259 
L 229.330227 58.612963 
L 244.752151 59.124278 
L 252.469766 59.050531 
L 260.892612 58.74325 
L 284.737381 57.688661 
L 296.353722 57.782074 
L 308.262801 58.118854 
L 318.175944 58.635087 
L 326.106459 59.249649 
L 333.052312 59.972375 
L 339.998166 60.911426 
L 340.996133 61.063838 
L 341.980795 61.486657 
L 345.946052 65.641099 
L 347.941987 64.93804 
L 351.907244 63.529463 
L 352.891905 63.36476 
L 358.853098 64.864292 
L 364.800984 66.612108 
L 370.74887 68.608207 
L 376.696756 70.830465 
L 383.64261 73.662369 
L 392.571092 77.548862 
L 410.428056 85.314474 
L 411.426024 85.717627 
L 425.304425 94.346085 
L 430.267649 96.998536 
L 434.232907 98.866806 
L 438.21147 100.459752 
L 441.17876 101.455344 
L 444.159357 102.26165 
L 447.126646 102.868837 
L 450.107243 103.267074 
L 453.087839 103.448984 
L 454.0725 103.461276 
L 454.0725 103.461276 
" clip-path="url(#p832e270a33)" style="fill: none; stroke: #008000; stroke-opacity: 0.5; stroke-width: 1.5; stroke-linecap: square"/>
   </g>
   <g id="line2d_59">
    <path d="M 46.955 95.447381 
L 51.865 95.302344 
L 56.069769 94.950814 
L 60.287845 94.39525 
L 65.197845 93.49553 
L 70.107845 92.337694 
L 75.017845 90.941408 
L 80.619769 89.078055 
L 84.132615 87.780099 
L 84.837845 87.433486 
L 91.85023 81.909798 
L 103.067384 72.78969 
L 108.682614 68.512335 
L 112.887384 65.58456 
L 117.092153 62.968982 
L 120.604999 61.054005 
L 124.117844 59.394686 
L 126.912153 58.254058 
L 130.424999 57.064265 
L 133.937844 56.13013 
L 137.437383 55.44182 
L 140.950229 54.987044 
L 144.449768 54.748593 
L 147.962613 54.701887 
L 152.167383 54.876423 
L 153.577844 54.984586 
L 154.974998 54.603557 
L 159.884998 53.140898 
L 164.089768 52.125641 
L 166.192152 51.70528 
L 171.102152 51.810985 
L 176.012152 52.110891 
L 182.332613 52.742662 
L 190.742152 53.870998 
L 216.702612 57.477251 
L 224.420227 58.229475 
L 229.330227 58.595755 
L 234.240227 54.625681 
L 241.957842 48.315353 
L 246.162612 45.006549 
L 251.777842 40.886522 
L 255.277381 38.52906 
L 257.379766 37.206521 
L 258.084996 37.039361 
L 262.994996 39.229661 
L 267.199766 40.857023 
L 271.417842 42.221351 
L 274.917381 43.128446 
L 278.430227 43.799548 
L 281.237842 44.153536 
L 284.032151 44.332988 
L 287.42524 44.313322 
L 290.405836 44.087163 
L 293.373126 43.671719 
L 296.353722 43.071906 
L 300.31898 42.002567 
L 304.284237 40.65053 
L 308.262801 39.050209 
L 312.228058 37.240937 
L 313.212719 37.420389 
L 317.177977 40.001552 
L 321.15654 42.840831 
L 326.106459 46.737157 
L 330.085022 50.114792 
L 335.034941 54.637972 
L 339.998166 59.47335 
L 340.996133 60.473858 
L 341.980795 61.223624 
L 347.941987 62.300338 
L 352.891905 63.22464 
L 355.872502 62.452749 
L 358.853098 61.929142 
L 361.820388 61.690692 
L 364.800984 61.754606 
L 367.768274 62.123343 
L 370.74887 62.77478 
L 373.729466 63.684332 
L 376.696756 64.812669 
L 379.677352 66.127833 
L 383.64261 68.116557 
L 387.607867 70.321607 
L 392.571092 73.301006 
L 398.532284 77.106377 
L 411.426024 85.680753 
L 414.393314 86.900045 
L 420.354506 89.102637 
L 425.304425 90.74229 
L 430.267649 92.172991 
L 435.230874 93.367701 
L 439.196132 94.139592 
L 444.159357 94.862317 
L 448.124614 95.235971 
L 452.089871 95.422798 
L 454.0725 95.447381 
L 454.0725 95.447381 
" clip-path="url(#p832e270a33)" style="fill: none; stroke: #008000; stroke-opacity: 0.5; stroke-width: 1.5; stroke-linecap: square"/>
   </g>
   <g id="line2d_60">
    <path d="M 46.955 73.54929 
L 50.467845 73.460793 
L 54.672615 73.119096 
L 58.877385 72.524199 
L 63.082154 71.676103 
L 67.30023 70.58464 
L 72.21023 69.006444 
L 77.12023 67.113591 
L 82.03023 64.913457 
L 86.94023 62.413417 
L 91.85023 59.618387 
L 96.76023 56.520992 
L 101.670229 53.113857 
L 107.272153 48.838961 
L 112.182153 44.792681 
L 119.899768 38.138198 
L 124.809768 34.079628 
L 128.322614 31.508298 
L 131.130229 29.760482 
L 133.232614 28.666561 
L 135.334999 27.774216 
L 137.437383 27.078531 
L 140.244998 26.439387 
L 143.052614 26.08294 
L 145.860229 25.95757 
L 149.359768 26.058358 
L 152.872613 26.387763 
L 156.372153 26.906454 
L 160.590228 27.75455 
L 164.794998 28.823889 
L 166.192152 29.227042 
L 173.909768 29.362246 
L 191.447382 29.81948 
L 195.652152 29.632653 
L 199.870228 29.217209 
L 204.074997 28.55594 
L 208.279767 27.651304 
L 213.189767 26.343515 
L 225.817382 22.845425 
L 228.624997 22.3464 
L 231.432612 22.036661 
L 232.137842 21.987496 
L 237.739766 25.559333 
L 245.457382 30.279173 
L 251.777842 33.838719 
L 255.982612 36.019187 
L 257.379766 36.705039 
L 258.084996 36.781244 
L 262.289766 34.416408 
L 265.802612 32.700549 
L 269.302151 31.232974 
L 272.814996 30.023515 
L 276.327842 29.08938 
L 279.122151 28.548565 
L 281.929766 28.199494 
L 284.737381 28.04954 
L 287.42524 28.098705 
L 290.405836 28.391237 
L 293.373126 28.919761 
L 296.353722 29.669527 
L 299.334318 30.623328 
L 303.299576 32.189233 
L 307.264833 34.064878 
L 310.245429 35.662741 
L 312.228058 36.818118 
L 313.212719 36.761578 
L 319.173911 33.723181 
L 330.085022 27.934003 
L 336.032908 29.20246 
L 348.926648 32.144985 
L 352.891905 32.801338 
L 355.872502 33.113535 
L 358.853098 33.233989 
L 361.820388 33.143034 
L 364.800984 32.848044 
L 368.766241 32.208899 
L 370.74887 31.835245 
L 371.746837 32.314604 
L 381.659981 40.318666 
L 390.588463 47.199308 
L 397.534317 52.199388 
L 403.482203 56.179295 
L 409.443395 59.827338 
L 414.393314 62.590411 
L 419.356539 65.07816 
L 424.319763 67.273377 
L 428.285021 68.807325 
L 432.250278 70.137239 
L 436.215536 71.255742 
L 440.194099 72.15792 
L 444.159357 72.838855 
L 448.124614 73.293631 
L 452.089871 73.522249 
L 454.0725 73.54929 
L 454.0725 73.54929 
" clip-path="url(#p832e270a33)" style="fill: none; stroke: #008000; stroke-opacity: 0.5; stroke-width: 1.5; stroke-linecap: square"/>
   </g>
   <g id="line2d_61">
    <path d="M 46.955 51.417665 
L 51.15977 51.319335 
L 55.377845 51.024345 
L 60.287845 50.429448 
L 65.197845 49.571519 
L 70.107845 48.455473 
L 75.017845 47.088687 
L 80.619769 45.227791 
L 85.529769 43.354605 
L 90.439769 41.262634 
L 95.349769 38.971545 
L 100.964999 36.132266 
L 106.580229 33.088953 
L 115.694999 27.793882 
L 119.207844 25.672413 
L 121.310229 25.345465 
L 131.130229 23.909847 
L 140.950229 22.238237 
L 150.770229 20.328177 
L 161.987383 17.865011 
L 166.192152 16.869419 
L 170.410228 16.736674 
L 174.614998 16.34827 
L 178.819767 15.726333 
L 183.037843 14.907736 
L 188.639767 13.575364 
L 194.960228 11.844756 
L 198.459767 10.817208 
L 200.562152 10.903246 
L 209.690228 11.343273 
L 215.292152 11.60139 
L 218.804997 13.523741 
L 223.009767 16.080321 
L 229.330227 20.136434 
L 232.137842 21.957997 
L 237.739766 21.970288 
L 241.957842 22.275111 
L 248.970227 23.078959 
L 262.289766 24.681738 
L 270.007381 25.350382 
L 277.019766 25.728952 
L 284.032151 25.883822 
L 295.355755 25.814991 
L 307.264833 25.753535 
L 313.212719 25.923154 
L 318.175944 26.255018 
L 323.139169 26.800749 
L 328.102394 27.567723 
L 330.085022 27.929086 
L 335.034941 25.480669 
L 339.998166 23.310034 
L 343.963423 21.849834 
L 347.941987 20.679707 
L 350.909277 20.013521 
L 353.889873 19.536621 
L 354.874534 19.418625 
L 355.872502 19.875859 
L 360.835726 23.570609 
L 368.766241 29.893228 
L 370.74887 31.50584 
L 371.746837 31.650877 
L 375.712095 31.041231 
L 378.692691 30.856862 
L 380.67532 30.923235 
L 382.657948 31.15431 
L 385.625238 31.778705 
L 388.605834 32.668592 
L 392.571092 34.131251 
L 398.532284 36.611625 
L 410.428056 41.66087 
L 417.37391 44.33053 
L 423.321796 46.348753 
L 428.285021 47.808954 
L 433.248246 49.038079 
L 437.213503 49.849301 
L 442.176728 50.631025 
L 447.126646 51.149715 
L 452.089871 51.397999 
L 454.0725 51.417665 
L 454.0725 51.417665 
" clip-path="url(#p832e270a33)" style="fill: none; stroke: #008000; stroke-opacity: 0.5; stroke-width: 1.5; stroke-linecap: square"/>
   </g>
   <g id="line2d_62">
    <path d="M 46.955 32.417851 
L 51.15977 32.521097 
L 60.979769 32.848044 
L 65.889769 32.759547 
L 70.799769 32.447349 
L 75.709769 31.908993 
L 80.619769 31.156768 
L 86.234999 30.053014 
L 91.85023 28.725559 
L 93.952614 28.20441 
L 104.477845 27.292399 
L 115.694999 26.065733 
L 119.207844 25.625706 
L 121.310229 24.389206 
L 128.322614 20.173307 
L 132.527383 17.877302 
L 136.732153 15.878745 
L 140.244998 14.443127 
L 145.860229 13.277916 
L 150.770229 12.478985 
L 155.680229 11.908671 
L 160.590228 11.596473 
L 164.794998 11.549766 
L 168.999768 11.542391 
L 173.909768 11.296567 
L 178.819767 10.824582 
L 184.434998 10.030568 
L 186.537383 9.67658 
L 187.947843 9.782284 
L 194.960228 10.495177 
L 198.459767 10.763126 
L 200.562152 10.197729 
L 204.074997 9.256219 
L 206.177382 8.934188 
L 207.587843 8.948938 
L 208.984997 9.162806 
L 211.087382 9.762619 
L 213.189767 10.600882 
L 215.292152 11.461269 
L 219.510227 11.380147 
L 223.009767 11.107281 
L 225.817382 10.691837 
L 228.624997 10.067442 
L 232.137842 9.010394 
L 234.932151 8.152465 
L 236.342612 7.931222 
L 237.739766 7.982845 
L 239.842151 8.408123 
L 244.060227 9.627415 
L 253.880227 12.547816 
L 260.187381 14.221884 
L 266.507842 15.652586 
L 271.417842 16.554763 
L 275.622611 17.154576 
L 279.827381 17.565104 
L 284.032151 17.759306 
L 288.423207 17.712599 
L 292.388465 17.454483 
L 297.338383 16.898918 
L 303.299576 15.99674 
L 313.212719 14.180094 
L 323.139169 12.358531 
L 328.102394 11.665304 
L 332.067651 11.362939 
L 335.034941 11.362939 
L 338.015537 11.625972 
L 340.996133 12.206119 
L 343.963423 13.137796 
L 346.944019 14.413628 
L 349.924616 15.999199 
L 352.891905 17.83797 
L 354.874534 19.177716 
L 355.872502 19.325211 
L 358.853098 19.165425 
L 361.820388 19.187549 
L 364.800984 19.376834 
L 368.766241 19.861109 
L 372.731499 20.564169 
L 377.694723 21.665465 
L 384.640577 23.455071 
L 400.514913 27.675886 
L 407.44746 29.293415 
L 414.393314 30.66266 
L 420.354506 31.601712 
L 425.304425 32.201525 
L 431.265617 32.680883 
L 437.213503 32.88246 
L 443.161389 32.813629 
L 454.0725 32.417851 
L 454.0725 32.417851 
" clip-path="url(#p832e270a33)" style="fill: none; stroke: #008000; stroke-opacity: 0.5; stroke-width: 1.5; stroke-linecap: square"/>
   </g>
   <g id="line2d_63">
    <path d="M 46.955 29.915352 
L 58.877385 29.812106 
L 72.902154 29.411411 
L 83.427384 28.905011 
L 93.247384 28.258492 
L 94.657845 27.988084 
L 103.067384 25.5495 
L 114.297844 21.992412 
L 125.514999 18.440241 
L 133.232614 16.205692 
L 140.950229 14.108805 
L 145.860229 12.230702 
L 150.770229 10.556633 
L 154.974998 9.334883 
L 159.179768 8.349125 
L 163.397844 7.63869 
L 166.192152 7.328951 
L 169.704998 7.449405 
L 173.909768 7.857475 
L 180.922152 8.838316 
L 186.537383 9.610207 
L 187.947843 9.428297 
L 197.062613 7.835351 
L 200.562152 7.444489 
L 204.780228 7.245371 
L 206.882613 7.046252 
L 208.984997 6.579185 
L 211.792612 5.679465 
L 215.997382 4.079144 
L 222.317843 1.554522 
L 229.330227 4.076686 
L 232.829767 5.173066 
L 234.932151 5.610634 
L 236.342612 5.632759 
L 237.739766 5.33531 
L 239.150227 4.792037 
L 241.957842 3.361335 
L 249.636093 -1 
M 330.834312 -1 
L 336.032908 0.694134 
L 341.980795 2.909018 
L 346.944019 4.964115 
L 348.926648 6.12195 
L 355.872502 10.232144 
L 360.835726 12.936219 
L 365.785645 15.416594 
L 370.74887 17.656059 
L 375.712095 19.6497 
L 380.67532 21.402432 
L 385.625238 22.924089 
L 390.588463 24.22942 
L 396.536349 25.542125 
L 403.482203 26.766334 
L 410.428056 27.717677 
L 417.37391 28.447777 
L 425.304425 29.059881 
L 434.232907 29.526948 
L 444.159357 29.821938 
L 454.0725 29.915352 
L 454.0725 29.915352 
" clip-path="url(#p832e270a33)" style="fill: none; stroke: #008000; stroke-opacity: 0.5; stroke-width: 1.5; stroke-linecap: square"/>
   </g>
   <g id="line2d_64">
    <path d="M 46.955 29.915352 
L 49.762615 29.782606 
L 52.57023 29.411411 
L 56.069769 28.705893 
L 60.287845 27.597222 
L 65.197845 26.019026 
L 70.107845 24.17288 
L 75.709769 21.766253 
L 80.619769 19.413708 
L 85.529769 16.844837 
L 90.439769 14.069473 
L 96.054999 10.652505 
L 98.157384 9.310301 
L 98.862614 8.641657 
L 99.567845 8.395831 
L 100.259769 7.931222 
L 100.964999 7.220788 
L 103.067384 6.43169 
L 109.387844 4.103727 
L 110.079769 4.179933 
L 114.297844 5.767962 
L 117.092153 6.62835 
L 119.899768 7.289619 
L 122.707384 7.697689 
L 124.809768 7.796018 
L 126.912153 7.678022 
L 129.027844 7.299452 
L 131.130229 6.623433 
L 133.232614 5.625384 
L 135.334999 4.31022 
L 137.437383 2.700066 
L 139.539768 0.839171 
L 141.423915 -1 
M 164.679086 -1 
L 166.192152 -0.59153 
L 169.704998 -0.707068 
L 172.994051 -1 
M 215.497316 -1 
L 221.612612 1.293947 
L 222.317843 1.382444 
L 227.430686 -1 
M 337.839915 -1 
L 346.944019 4.890367 
L 348.926648 5.829419 
L 355.872502 8.995644 
L 364.800984 13.06159 
L 368.766241 14.669286 
L 371.746837 15.677168 
L 374.714127 16.422018 
L 376.696756 16.719466 
L 378.692691 16.830087 
L 380.67532 16.74159 
L 382.657948 16.458892 
L 385.625238 15.723875 
L 389.603802 14.374296 
L 394.553721 12.584689 
L 397.534317 11.721844 
L 398.532284 11.906213 
L 408.445428 15.57638 
L 418.371877 19.497289 
L 428.285021 23.410822 
L 435.230874 25.915779 
L 440.194099 27.476768 
L 444.159357 28.533816 
L 448.124614 29.362246 
L 451.10521 29.767857 
L 454.0725 29.915352 
L 454.0725 29.915352 
" clip-path="url(#p832e270a33)" style="fill: none; stroke: #008000; stroke-opacity: 0.5; stroke-width: 1.5; stroke-linecap: square"/>
   </g>
   <g id="line2d_65">
    <path d="M 46.955 251.584211 
L 48.832826 251.469615 
L 50.710652 251.128192 
L 52.588478 250.566939 
L 54.466304 249.797215 
L 56.34413 248.834296 
L 59.160869 247.069116 
L 61.977609 244.984746 
L 65.733261 241.847785 
L 71.366739 236.753623 
L 78.878043 230.000679 
L 84.511521 225.290905 
L 91.083912 220.162552 
L 107.984347 207.297216 
L 124.884782 206.747079 
L 144.601955 205.867019 
L 177.463911 204.136522 
L 182.158477 203.567007 
L 186.853042 202.804256 
L 192.48652 201.638504 
L 198.119998 200.207603 
L 203.753476 198.524248 
L 209.386954 196.606872 
L 215.959346 194.108714 
L 223.47065 190.977599 
L 233.798693 186.386392 
L 246.004563 180.984841 
L 252.576954 178.313247 
L 258.210432 176.269395 
L 262.904997 174.798254 
L 267.599562 173.588022 
L 271.355215 172.839191 
L 275.110867 172.302023 
L 278.866519 171.966592 
L 283.561084 171.778824 
L 288.094557 171.792036 
L 293.405851 172.023564 
L 298.717145 172.485147 
L 304.02844 173.173342 
L 309.339734 174.082176 
L 314.651028 175.203047 
L 319.962322 176.525247 
L 326.60144 178.442681 
L 333.240558 180.630044 
L 339.879675 183.05707 
L 347.846617 186.229634 
L 358.469205 190.741465 
L 374.403087 197.634704 
L 382.370029 202.823931 
L 390.33697 208.297646 
L 398.303911 214.075474 
L 423.532559 232.874412 
L 430.171676 238.147085 
L 438.138617 244.513153 
L 440.794265 246.444207 
L 443.449912 248.164862 
L 446.105559 249.60047 
L 448.761206 250.682482 
L 451.416853 251.355675 
L 452.744676 251.52688 
L 454.0725 251.584211 
L 454.0725 251.584211 
" clip-path="url(#p832e270a33)" style="fill: none; stroke-dasharray: 5.55,2.4; stroke-dashoffset: 0; stroke: #0000ff; stroke-opacity: 0.5; stroke-width: 1.5"/>
   </g>
   <g id="line2d_66">
    <path d="M 46.955 251.584211 
L 48.832826 251.469615 
L 50.710652 251.128192 
L 52.588478 250.566939 
L 54.466304 249.797215 
L 56.34413 248.834296 
L 59.160869 247.069116 
L 61.977609 244.984746 
L 65.733261 241.847785 
L 71.366739 236.753623 
L 78.878043 230.000679 
L 84.511521 225.290905 
L 91.083912 220.162552 
L 107.984347 207.297216 
L 124.884782 206.747079 
L 144.601955 205.867019 
L 177.463911 204.136522 
L 182.158477 203.567007 
L 186.853042 202.804256 
L 192.48652 201.638504 
L 198.119998 200.207603 
L 203.753476 198.524248 
L 209.386954 196.606872 
L 215.959346 194.108714 
L 223.47065 190.977599 
L 233.798693 186.386392 
L 246.004563 180.984841 
L 252.576954 178.313247 
L 258.210432 176.269395 
L 262.904997 174.798254 
L 267.599562 173.588022 
L 271.355215 172.839191 
L 275.110867 172.302023 
L 278.866519 171.966592 
L 283.561084 171.778824 
L 288.094557 171.792036 
L 293.405851 172.023564 
L 298.717145 172.485147 
L 304.02844 173.173342 
L 309.339734 174.082176 
L 314.651028 175.203047 
L 319.962322 176.525247 
L 326.60144 178.442681 
L 333.240558 180.630044 
L 339.879675 183.05707 
L 347.846617 186.229634 
L 358.469205 190.741465 
L 374.403087 197.634704 
L 382.370029 202.823931 
L 390.33697 208.297646 
L 398.303911 214.075474 
L 423.532559 232.874412 
L 430.171676 238.147085 
L 438.138617 244.513153 
L 440.794265 246.444207 
L 443.449912 248.164862 
L 446.105559 249.60047 
L 448.761206 250.682482 
L 451.416853 251.355675 
L 452.744676 251.52688 
L 454.0725 251.584211 
L 454.0725 251.584211 
" clip-path="url(#p832e270a33)" style="fill: none; stroke-dasharray: 5.55,2.4; stroke-dashoffset: 0; stroke: #0000ff; stroke-opacity: 0.5; stroke-width: 1.5"/>
   </g>
   <g id="line2d_67">
    <path d="M 46.955 207.802588 
L 84.511521 207.699563 
L 102.350869 207.431463 
L 107.984347 207.223049 
L 117.373477 200.044554 
L 122.068043 196.720753 
L 126.762608 193.693242 
L 130.51826 191.516045 
L 134.273912 189.562179 
L 138.029564 187.824037 
L 141.785216 186.289003 
L 146.479781 184.640423 
L 150.235433 183.535412 
L 153.991086 182.6296 
L 157.746738 181.93987 
L 161.50239 181.486471 
L 165.258042 181.287435 
L 179.341737 181.062467 
L 187.791955 180.676842 
L 196.242172 180.06743 
L 203.753476 179.313507 
L 211.264781 178.341897 
L 218.776085 177.144902 
L 226.287389 175.73009 
L 234.737606 173.915578 
L 239.432171 172.869612 
L 259.149345 171.574746 
L 280.744345 170.408553 
L 285.43891 170.324397 
L 285.43891 170.324397 
L 290.750204 170.449888 
L 296.061498 170.824237 
L 301.372793 171.441184 
L 306.684087 172.290675 
L 311.995381 173.35937 
L 317.306675 174.631236 
L 323.945793 176.478903 
L 330.58491 178.576141 
L 338.551852 181.3614 
L 347.846617 184.87861 
L 363.780499 191.193094 
L 366.436146 192.684518 
L 374.403087 197.470231 
L 381.042205 200.00256 
L 386.353499 201.821207 
L 391.664793 203.413462 
L 396.976088 204.752281 
L 402.287382 205.825748 
L 407.598676 206.638908 
L 412.90997 207.213047 
L 418.221264 207.582464 
L 424.860382 207.821155 
L 434.155147 207.893383 
L 454.0725 207.802588 
L 454.0725 207.802588 
" clip-path="url(#p832e270a33)" style="fill: none; stroke-dasharray: 5.55,2.4; stroke-dashoffset: 0; stroke: #0000ff; stroke-opacity: 0.5; stroke-width: 1.5"/>
   </g>
   <g id="line2d_68">
    <path d="M 46.955 207.802588 
L 84.511521 207.699563 
L 102.350869 207.431463 
L 107.984347 207.223049 
L 117.373477 200.044554 
L 122.068043 196.720753 
L 126.762608 193.693242 
L 130.51826 191.516045 
L 134.273912 189.562179 
L 138.029564 187.824037 
L 141.785216 186.289003 
L 146.479781 184.640423 
L 150.235433 183.535412 
L 153.991086 182.6296 
L 157.746738 181.93987 
L 161.50239 181.486471 
L 165.258042 181.287435 
L 179.341737 181.062467 
L 187.791955 180.676842 
L 196.242172 180.06743 
L 203.753476 179.313507 
L 211.264781 178.341897 
L 218.776085 177.144902 
L 226.287389 175.73009 
L 234.737606 173.915578 
L 239.432171 172.869612 
L 259.149345 171.574746 
L 280.744345 170.408553 
L 285.43891 170.324397 
L 285.43891 170.324397 
L 290.750204 170.449888 
L 296.061498 170.824237 
L 301.372793 171.441184 
L 306.684087 172.290675 
L 311.995381 173.35937 
L 317.306675 174.631236 
L 323.945793 176.478903 
L 330.58491 178.576141 
L 338.551852 181.3614 
L 347.846617 184.87861 
L 363.780499 191.193094 
L 366.436146 192.684518 
L 374.403087 197.470231 
L 381.042205 200.00256 
L 386.353499 201.821207 
L 391.664793 203.413462 
L 396.976088 204.752281 
L 402.287382 205.825748 
L 407.598676 206.638908 
L 412.90997 207.213047 
L 418.221264 207.582464 
L 424.860382 207.821155 
L 434.155147 207.893383 
L 454.0725 207.802588 
L 454.0725 207.802588 
" clip-path="url(#p832e270a33)" style="fill: none; stroke-dasharray: 5.55,2.4; stroke-dashoffset: 0; stroke: #0000ff; stroke-opacity: 0.5; stroke-width: 1.5"/>
   </g>
   <g id="line2d_69">
    <path d="M 46.955 207.802478 
L 63.855435 207.711139 
L 70.427826 207.469062 
L 76.061304 207.03349 
L 80.755869 206.443006 
L 85.450434 205.59735 
L 89.206086 204.714563 
L 92.961739 203.63859 
L 96.717391 202.369591 
L 101.411956 200.527165 
L 106.106521 198.43645 
L 111.739999 195.679582 
L 123.006956 189.820401 
L 130.51826 186.055383 
L 136.151738 183.486851 
L 140.846303 181.581728 
L 145.540868 179.932353 
L 149.29652 178.818694 
L 153.052173 177.902837 
L 156.807825 177.195852 
L 160.563477 176.706228 
L 164.319129 176.439679 
L 169.013694 176.384479 
L 180.28065 176.228121 
L 192.48652 175.833609 
L 205.631302 175.179253 
L 221.592824 174.150228 
L 239.432171 172.833571 
L 259.149345 168.306757 
L 265.721736 167.066472 
L 271.355215 166.223498 
L 276.988693 165.633011 
L 281.683258 165.358681 
L 286.766734 165.298893 
L 292.078028 165.502533 
L 297.389322 165.974959 
L 302.700616 166.710088 
L 308.01191 167.699905 
L 313.323204 168.936356 
L 318.634499 170.412435 
L 323.945793 172.121024 
L 329.257087 174.051977 
L 334.568381 176.190316 
L 341.207499 179.128339 
L 347.846617 182.337199 
L 354.485734 185.808085 
L 361.124852 189.535289 
L 363.780499 191.092864 
L 366.436146 192.238483 
L 375.730911 195.782377 
L 383.697852 198.589106 
L 390.33697 200.694733 
L 396.976088 202.540608 
L 402.287382 203.808458 
L 407.598676 204.880516 
L 412.90997 205.755469 
L 418.221264 206.440317 
L 424.860382 207.053215 
L 431.4995 207.43959 
L 439.466441 207.684642 
L 451.416853 207.799444 
L 454.0725 207.802478 
L 454.0725 207.802478 
" clip-path="url(#p832e270a33)" style="fill: none; stroke-dasharray: 5.55,2.4; stroke-dashoffset: 0; stroke: #0000ff; stroke-opacity: 0.5; stroke-width: 1.5"/>
   </g>
   <g id="line2d_70">
    <path d="M 46.955 207.802478 
L 63.855435 207.711139 
L 70.427826 207.469062 
L 76.061304 207.03349 
L 80.755869 206.443006 
L 85.450434 205.59735 
L 89.206086 204.714563 
L 92.961739 203.63859 
L 96.717391 202.369591 
L 101.411956 200.527165 
L 106.106521 198.43645 
L 111.739999 195.679582 
L 123.006956 189.820401 
L 130.51826 186.055383 
L 136.151738 183.486851 
L 140.846303 181.581728 
L 145.540868 179.932353 
L 149.29652 178.818694 
L 153.052173 177.902837 
L 156.807825 177.195852 
L 160.563477 176.706228 
L 164.319129 176.439679 
L 169.013694 176.384479 
L 180.28065 176.228121 
L 192.48652 175.833609 
L 205.631302 175.179253 
L 221.592824 174.150228 
L 239.432171 172.833571 
L 259.149345 168.306757 
L 265.721736 167.066472 
L 271.355215 166.223498 
L 276.988693 165.633011 
L 281.683258 165.358681 
L 286.766734 165.298893 
L 292.078028 165.502533 
L 297.389322 165.974959 
L 302.700616 166.710088 
L 308.01191 167.699905 
L 313.323204 168.936356 
L 318.634499 170.412435 
L 323.945793 172.121024 
L 329.257087 174.051977 
L 334.568381 176.190316 
L 341.207499 179.128339 
L 347.846617 182.337199 
L 354.485734 185.808085 
L 361.124852 189.535289 
L 363.780499 191.092864 
L 366.436146 192.238483 
L 375.730911 195.782377 
L 383.697852 198.589106 
L 390.33697 200.694733 
L 396.976088 202.540608 
L 402.287382 203.808458 
L 407.598676 204.880516 
L 412.90997 205.755469 
L 418.221264 206.440317 
L 424.860382 207.053215 
L 431.4995 207.43959 
L 439.466441 207.684642 
L 451.416853 207.799444 
L 454.0725 207.802478 
L 454.0725 207.802478 
" clip-path="url(#p832e270a33)" style="fill: none; stroke-dasharray: 5.55,2.4; stroke-dashoffset: 0; stroke: #0000ff; stroke-opacity: 0.5; stroke-width: 1.5"/>
   </g>
   <g id="line2d_71"/>
   <g id="line2d_72"/>
   <g id="patch_3">
    <path d="M 46.955 404.12 
L 46.955 10.8 
" style="fill: none; stroke: #000000; stroke-width: 0.8; stroke-linejoin: miter; stroke-linecap: square"/>
   </g>
   <g id="patch_4">
    <path d="M 454.0725 404.12 
L 454.0725 10.8 
" style="fill: none; stroke: #000000; stroke-width: 0.8; stroke-linejoin: miter; stroke-linecap: square"/>
   </g>
   <g id="patch_5">
    <path d="M 46.955 404.12 
L 454.0725 404.12 
" style="fill: none; stroke: #000000; stroke-width: 0.8; stroke-linejoin: miter; stroke-linecap: square"/>
   </g>
   <g id="patch_6">
    <path d="M 46.955 10.8 
L 454.0725 10.8 
" style="fill: none; stroke: #000000; stroke-width: 0.8; stroke-linejoin: miter; stroke-linecap: square"/>
   </g>
   <g id="legend_1">
    <g id="patch_7">
     <path d="M 319.16 399.12 
L 447.0725 399.12 
Q 449.0725 399.12 449.0725 397.12 
L 449.0725 367.741875 
Q 449.0725 365.741875 447.0725 365.741875 
L 319.16 365.741875 
Q 317.16 365.741875 317.16 367.741875 
L 317.16 397.12 
Q 317.16 399.12 319.16 399.12 
z
" style="fill: #ffffff; opacity: 0.8; stroke: #cccccc; stroke-linejoin: miter"/>
    </g>
    <g id="line2d_73">
     <path d="M 321.16 373.840312 
L 331.16 373.840312 
L 341.16 373.840312 
" style="fill: none; stroke: #008000; stroke-opacity: 0.5; stroke-width: 1.5; stroke-linecap: square"/>
    </g>
    <g id="text_14">
     <!-- DFT QE@PAW+PBE -->
     <g transform="translate(349.16 377.340312) scale(0.1 -0.1)">
      <defs>
       <path id="DejaVuSans-44" d="M 1259 4147 
L 1259 519 
L 2022 519 
Q 2988 519 3436 956 
Q 3884 1394 3884 2338 
Q 3884 3275 3436 3711 
Q 2988 4147 2022 4147 
L 1259 4147 
z
M 628 4666 
L 1925 4666 
Q 3281 4666 3915 4102 
Q 4550 3538 4550 2338 
Q 4550 1131 3912 565 
Q 3275 0 1925 0 
L 628 0 
L 628 4666 
z
" transform="scale(0.015625)"/>
       <path id="DejaVuSans-46" d="M 628 4666 
L 3309 4666 
L 3309 4134 
L 1259 4134 
L 1259 2759 
L 3109 2759 
L 3109 2228 
L 1259 2228 
L 1259 0 
L 628 0 
L 628 4666 
z
" transform="scale(0.015625)"/>
       <path id="DejaVuSans-54" d="M -19 4666 
L 3928 4666 
L 3928 4134 
L 2272 4134 
L 2272 0 
L 1638 0 
L 1638 4134 
L -19 4134 
L -19 4666 
z
" transform="scale(0.015625)"/>
       <path id="DejaVuSans-20" transform="scale(0.015625)"/>
       <path id="DejaVuSans-51" d="M 2522 4238 
Q 1834 4238 1429 3725 
Q 1025 3213 1025 2328 
Q 1025 1447 1429 934 
Q 1834 422 2522 422 
Q 3209 422 3611 934 
Q 4013 1447 4013 2328 
Q 4013 3213 3611 3725 
Q 3209 4238 2522 4238 
z
M 3406 84 
L 4238 -825 
L 3475 -825 
L 2784 -78 
Q 2681 -84 2626 -87 
Q 2572 -91 2522 -91 
Q 1538 -91 948 567 
Q 359 1225 359 2328 
Q 359 3434 948 4092 
Q 1538 4750 2522 4750 
Q 3503 4750 4090 4092 
Q 4678 3434 4678 2328 
Q 4678 1516 4351 937 
Q 4025 359 3406 84 
z
" transform="scale(0.015625)"/>
       <path id="DejaVuSans-45" d="M 628 4666 
L 3578 4666 
L 3578 4134 
L 1259 4134 
L 1259 2753 
L 3481 2753 
L 3481 2222 
L 1259 2222 
L 1259 531 
L 3634 531 
L 3634 0 
L 628 0 
L 628 4666 
z
" transform="scale(0.015625)"/>
       <path id="DejaVuSans-40" d="M 2381 1678 
Q 2381 1231 2603 976 
Q 2825 722 3213 722 
Q 3597 722 3817 978 
Q 4038 1234 4038 1678 
Q 4038 2116 3813 2373 
Q 3588 2631 3206 2631 
Q 2828 2631 2604 2375 
Q 2381 2119 2381 1678 
z
M 4084 744 
Q 3897 503 3655 389 
Q 3413 275 3091 275 
Q 2553 275 2217 664 
Q 1881 1053 1881 1678 
Q 1881 2303 2218 2693 
Q 2556 3084 3091 3084 
Q 3413 3084 3656 2967 
Q 3900 2850 4084 2613 
L 4084 3022 
L 4531 3022 
L 4531 722 
Q 4988 791 5245 1139 
Q 5503 1488 5503 2041 
Q 5503 2375 5404 2669 
Q 5306 2963 5106 3213 
Q 4781 3622 4314 3839 
Q 3847 4056 3297 4056 
Q 2913 4056 2559 3954 
Q 2206 3853 1906 3653 
Q 1416 3334 1139 2817 
Q 863 2300 863 1697 
Q 863 1200 1042 765 
Q 1222 331 1563 0 
Q 1891 -325 2322 -495 
Q 2753 -666 3244 -666 
Q 3647 -666 4036 -530 
Q 4425 -394 4750 -141 
L 5031 -488 
Q 4641 -791 4180 -952 
Q 3719 -1113 3244 -1113 
Q 2666 -1113 2153 -908 
Q 1641 -703 1241 -313 
Q 841 78 631 592 
Q 422 1106 422 1697 
Q 422 2266 634 2781 
Q 847 3297 1241 3688 
Q 1644 4084 2172 4295 
Q 2700 4506 3291 4506 
Q 3953 4506 4520 4234 
Q 5088 3963 5472 3463 
Q 5706 3156 5829 2797 
Q 5953 2438 5953 2053 
Q 5953 1231 5456 756 
Q 4959 281 4084 263 
L 4084 744 
z
" transform="scale(0.015625)"/>
       <path id="DejaVuSans-50" d="M 1259 4147 
L 1259 2394 
L 2053 2394 
Q 2494 2394 2734 2622 
Q 2975 2850 2975 3272 
Q 2975 3691 2734 3919 
Q 2494 4147 2053 4147 
L 1259 4147 
z
M 628 4666 
L 2053 4666 
Q 2838 4666 3239 4311 
Q 3641 3956 3641 3272 
Q 3641 2581 3239 2228 
Q 2838 1875 2053 1875 
L 1259 1875 
L 1259 0 
L 628 0 
L 628 4666 
z
" transform="scale(0.015625)"/>
       <path id="DejaVuSans-41" d="M 2188 4044 
L 1331 1722 
L 3047 1722 
L 2188 4044 
z
M 1831 4666 
L 2547 4666 
L 4325 0 
L 3669 0 
L 3244 1197 
L 1141 1197 
L 716 0 
L 50 0 
L 1831 4666 
z
" transform="scale(0.015625)"/>
       <path id="DejaVuSans-57" d="M 213 4666 
L 850 4666 
L 1831 722 
L 2809 4666 
L 3519 4666 
L 4500 722 
L 5478 4666 
L 6119 4666 
L 4947 0 
L 4153 0 
L 3169 4050 
L 2175 0 
L 1381 0 
L 213 4666 
z
" transform="scale(0.015625)"/>
       <path id="DejaVuSans-2b" d="M 2944 4013 
L 2944 2272 
L 4684 2272 
L 4684 1741 
L 2944 1741 
L 2944 0 
L 2419 0 
L 2419 1741 
L 678 1741 
L 678 2272 
L 2419 2272 
L 2419 4013 
L 2944 4013 
z
" transform="scale(0.015625)"/>
       <path id="DejaVuSans-42" d="M 1259 2228 
L 1259 519 
L 2272 519 
Q 2781 519 3026 730 
Q 3272 941 3272 1375 
Q 3272 1813 3026 2020 
Q 2781 2228 2272 2228 
L 1259 2228 
z
M 1259 4147 
L 1259 2741 
L 2194 2741 
Q 2656 2741 2882 2914 
Q 3109 3088 3109 3444 
Q 3109 3797 2882 3972 
Q 2656 4147 2194 4147 
L 1259 4147 
z
M 628 4666 
L 2241 4666 
Q 2963 4666 3353 4366 
Q 3744 4066 3744 3513 
Q 3744 3084 3544 2831 
Q 3344 2578 2956 2516 
Q 3422 2416 3680 2098 
Q 3938 1781 3938 1306 
Q 3938 681 3513 340 
Q 3088 0 2303 0 
L 628 0 
L 628 4666 
z
" transform="scale(0.015625)"/>
      </defs>
      <use xlink:href="#DejaVuSans-44"/>
      <use xlink:href="#DejaVuSans-46" x="77.001953"/>
      <use xlink:href="#DejaVuSans-54" x="132.771484"/>
      <use xlink:href="#DejaVuSans-20" x="193.855469"/>
      <use xlink:href="#DejaVuSans-51" x="225.642578"/>
      <use xlink:href="#DejaVuSans-45" x="304.353516"/>
      <use xlink:href="#DejaVuSans-40" x="367.537109"/>
      <use xlink:href="#DejaVuSans-50" x="467.537109"/>
      <use xlink:href="#DejaVuSans-41" x="521.464844"/>
      <use xlink:href="#DejaVuSans-57" x="584.373047"/>
      <use xlink:href="#DejaVuSans-2b" x="683.25"/>
      <use xlink:href="#DejaVuSans-50" x="767.039062"/>
      <use xlink:href="#DejaVuSans-42" x="827.341797"/>
      <use xlink:href="#DejaVuSans-45" x="895.945312"/>
     </g>
    </g>
    <g id="line2d_74">
     <path d="M 321.16 388.52 
L 331.16 388.52 
L 341.16 388.52 
" style="fill: none; stroke-dasharray: 5.55,2.4; stroke-dashoffset: 0; stroke: #0000ff; stroke-opacity: 0.5; stroke-width: 1.5"/>
    </g>
    <g id="text_15">
     <!-- Wannier Ru $4d$, $t_{2g}$ -->
     <g transform="translate(349.16 392.02) scale(0.1 -0.1)">
      <defs>
       <path id="DejaVuSans-61" d="M 2194 1759 
Q 1497 1759 1228 1600 
Q 959 1441 959 1056 
Q 959 750 1161 570 
Q 1363 391 1709 391 
Q 2188 391 2477 730 
Q 2766 1069 2766 1631 
L 2766 1759 
L 2194 1759 
z
M 3341 1997 
L 3341 0 
L 2766 0 
L 2766 531 
Q 2569 213 2275 61 
Q 1981 -91 1556 -91 
Q 1019 -91 701 211 
Q 384 513 384 1019 
Q 384 1609 779 1909 
Q 1175 2209 1959 2209 
L 2766 2209 
L 2766 2266 
Q 2766 2663 2505 2880 
Q 2244 3097 1772 3097 
Q 1472 3097 1187 3025 
Q 903 2953 641 2809 
L 641 3341 
Q 956 3463 1253 3523 
Q 1550 3584 1831 3584 
Q 2591 3584 2966 3190 
Q 3341 2797 3341 1997 
z
" transform="scale(0.015625)"/>
       <path id="DejaVuSans-6e" d="M 3513 2113 
L 3513 0 
L 2938 0 
L 2938 2094 
Q 2938 2591 2744 2837 
Q 2550 3084 2163 3084 
Q 1697 3084 1428 2787 
Q 1159 2491 1159 1978 
L 1159 0 
L 581 0 
L 581 3500 
L 1159 3500 
L 1159 2956 
Q 1366 3272 1645 3428 
Q 1925 3584 2291 3584 
Q 2894 3584 3203 3211 
Q 3513 2838 3513 2113 
z
" transform="scale(0.015625)"/>
       <path id="DejaVuSans-69" d="M 603 3500 
L 1178 3500 
L 1178 0 
L 603 0 
L 603 3500 
z
M 603 4863 
L 1178 4863 
L 1178 4134 
L 603 4134 
L 603 4863 
z
" transform="scale(0.015625)"/>
       <path id="DejaVuSans-65" d="M 3597 1894 
L 3597 1613 
L 953 1613 
Q 991 1019 1311 708 
Q 1631 397 2203 397 
Q 2534 397 2845 478 
Q 3156 559 3463 722 
L 3463 178 
Q 3153 47 2828 -22 
Q 2503 -91 2169 -91 
Q 1331 -91 842 396 
Q 353 884 353 1716 
Q 353 2575 817 3079 
Q 1281 3584 2069 3584 
Q 2775 3584 3186 3129 
Q 3597 2675 3597 1894 
z
M 3022 2063 
Q 3016 2534 2758 2815 
Q 2500 3097 2075 3097 
Q 1594 3097 1305 2825 
Q 1016 2553 972 2059 
L 3022 2063 
z
" transform="scale(0.015625)"/>
       <path id="DejaVuSans-72" d="M 2631 2963 
Q 2534 3019 2420 3045 
Q 2306 3072 2169 3072 
Q 1681 3072 1420 2755 
Q 1159 2438 1159 1844 
L 1159 0 
L 581 0 
L 581 3500 
L 1159 3500 
L 1159 2956 
Q 1341 3275 1631 3429 
Q 1922 3584 2338 3584 
Q 2397 3584 2469 3576 
Q 2541 3569 2628 3553 
L 2631 2963 
z
" transform="scale(0.015625)"/>
       <path id="DejaVuSans-52" d="M 2841 2188 
Q 3044 2119 3236 1894 
Q 3428 1669 3622 1275 
L 4263 0 
L 3584 0 
L 2988 1197 
Q 2756 1666 2539 1819 
Q 2322 1972 1947 1972 
L 1259 1972 
L 1259 0 
L 628 0 
L 628 4666 
L 2053 4666 
Q 2853 4666 3247 4331 
Q 3641 3997 3641 3322 
Q 3641 2881 3436 2590 
Q 3231 2300 2841 2188 
z
M 1259 4147 
L 1259 2491 
L 2053 2491 
Q 2509 2491 2742 2702 
Q 2975 2913 2975 3322 
Q 2975 3731 2742 3939 
Q 2509 4147 2053 4147 
L 1259 4147 
z
" transform="scale(0.015625)"/>
       <path id="DejaVuSans-75" d="M 544 1381 
L 544 3500 
L 1119 3500 
L 1119 1403 
Q 1119 906 1312 657 
Q 1506 409 1894 409 
Q 2359 409 2629 706 
Q 2900 1003 2900 1516 
L 2900 3500 
L 3475 3500 
L 3475 0 
L 2900 0 
L 2900 538 
Q 2691 219 2414 64 
Q 2138 -91 1772 -91 
Q 1169 -91 856 284 
Q 544 659 544 1381 
z
M 1991 3584 
L 1991 3584 
z
" transform="scale(0.015625)"/>
       <path id="DejaVuSans-Oblique-64" d="M 2675 525 
Q 2444 222 2128 65 
Q 1813 -91 1428 -91 
Q 903 -91 598 267 
Q 294 625 294 1247 
Q 294 1766 478 2236 
Q 663 2706 1013 3078 
Q 1244 3325 1534 3454 
Q 1825 3584 2144 3584 
Q 2481 3584 2739 3421 
Q 2997 3259 3138 2956 
L 3513 4863 
L 4091 4863 
L 3144 0 
L 2566 0 
L 2675 525 
z
M 891 1350 
Q 891 897 1095 644 
Q 1300 391 1663 391 
Q 1931 391 2161 520 
Q 2391 650 2566 903 
Q 2750 1166 2856 1509 
Q 2963 1853 2963 2188 
Q 2963 2622 2758 2865 
Q 2553 3109 2194 3109 
Q 1922 3109 1687 2981 
Q 1453 2853 1288 2613 
Q 1106 2353 998 2009 
Q 891 1666 891 1350 
z
" transform="scale(0.015625)"/>
       <path id="DejaVuSans-2c" d="M 750 794 
L 1409 794 
L 1409 256 
L 897 -744 
L 494 -744 
L 750 256 
L 750 794 
z
" transform="scale(0.015625)"/>
       <path id="DejaVuSans-Oblique-74" d="M 2706 3500 
L 2619 3053 
L 1472 3053 
L 1100 1153 
Q 1081 1047 1072 975 
Q 1063 903 1063 863 
Q 1063 663 1183 572 
Q 1303 481 1569 481 
L 2150 481 
L 2053 0 
L 1503 0 
Q 991 0 739 200 
Q 488 400 488 806 
Q 488 878 497 964 
Q 506 1050 525 1153 
L 897 3053 
L 409 3053 
L 500 3500 
L 978 3500 
L 1172 4494 
L 1747 4494 
L 1556 3500 
L 2706 3500 
z
" transform="scale(0.015625)"/>
       <path id="DejaVuSans-Oblique-67" d="M 3816 3500 
L 3219 434 
Q 3047 -456 2561 -893 
Q 2075 -1331 1253 -1331 
Q 950 -1331 690 -1286 
Q 431 -1241 206 -1147 
L 313 -588 
Q 525 -725 762 -790 
Q 1000 -856 1269 -856 
Q 1816 -856 2167 -557 
Q 2519 -259 2631 300 
L 2681 563 
Q 2441 288 2122 144 
Q 1803 0 1434 0 
Q 903 0 598 351 
Q 294 703 294 1319 
Q 294 1803 478 2267 
Q 663 2731 997 3091 
Q 1219 3328 1514 3456 
Q 1809 3584 2131 3584 
Q 2484 3584 2746 3420 
Q 3009 3256 3138 2956 
L 3238 3500 
L 3816 3500 
z
M 2950 2216 
Q 2950 2641 2750 2872 
Q 2550 3103 2181 3103 
Q 1953 3103 1747 3012 
Q 1541 2922 1394 2759 
Q 1156 2491 1023 2127 
Q 891 1763 891 1375 
Q 891 944 1092 712 
Q 1294 481 1672 481 
Q 2219 481 2584 976 
Q 2950 1472 2950 2216 
z
" transform="scale(0.015625)"/>
      </defs>
      <use xlink:href="#DejaVuSans-57" transform="translate(0 0.015625)"/>
      <use xlink:href="#DejaVuSans-61" transform="translate(98.876953 0.015625)"/>
      <use xlink:href="#DejaVuSans-6e" transform="translate(160.15625 0.015625)"/>
      <use xlink:href="#DejaVuSans-6e" transform="translate(223.535156 0.015625)"/>
      <use xlink:href="#DejaVuSans-69" transform="translate(286.914062 0.015625)"/>
      <use xlink:href="#DejaVuSans-65" transform="translate(314.697266 0.015625)"/>
      <use xlink:href="#DejaVuSans-72" transform="translate(376.220703 0.015625)"/>
      <use xlink:href="#DejaVuSans-20" transform="translate(417.333984 0.015625)"/>
      <use xlink:href="#DejaVuSans-52" transform="translate(449.121094 0.015625)"/>
      <use xlink:href="#DejaVuSans-75" transform="translate(518.603516 0.015625)"/>
      <use xlink:href="#DejaVuSans-20" transform="translate(581.982422 0.015625)"/>
      <use xlink:href="#DejaVuSans-34" transform="translate(613.769531 0.015625)"/>
      <use xlink:href="#DejaVuSans-Oblique-64" transform="translate(677.392578 0.015625)"/>
      <use xlink:href="#DejaVuSans-2c" transform="translate(740.869141 0.015625)"/>
      <use xlink:href="#DejaVuSans-20" transform="translate(772.65625 0.015625)"/>
      <use xlink:href="#DejaVuSans-Oblique-74" transform="translate(804.443359 0.015625)"/>
      <use xlink:href="#DejaVuSans-32" transform="translate(843.652344 -16.390625) scale(0.7)"/>
      <use xlink:href="#DejaVuSans-Oblique-67" transform="translate(888.188477 -16.390625) scale(0.7)"/>
     </g>
    </g>
   </g>
  </g>
 </g>
 <defs>
  <clipPath id="p832e270a33">
   <rect x="46.955" y="10.8" width="407.1175" height="393.32"/>
  </clipPath>
 </defs>
</svg>
