<?xml version="1.0" encoding="utf-8" standalone="no"?>
<!DOCTYPE svg PUBLIC "-//W3C//DTD SVG 1.1//EN"
  "http://www.w3.org/Graphics/SVG/1.1/DTD/svg11.dtd">
<svg xmlns:xlink="http://www.w3.org/1999/xlink" width="468pt" height="404.64pt" viewBox="0 0 468 404.64" xmlns="http://www.w3.org/2000/svg" version="1.1">
 <metadata>
  <rdf:RDF xmlns:dc="http://purl.org/dc/elements/1.1/" xmlns:cc="http://creativecommons.org/ns#" xmlns:rdf="http://www.w3.org/1999/02/22-rdf-syntax-ns#">
   <cc:Work>
    <dc:type rdf:resource="http://purl.org/dc/dcmitype/StillImage"/>
    <dc:date>2023-06-29T09:21:31.987215</dc:date>
    <dc:format>image/svg+xml</dc:format>
    <dc:creator>
     <cc:Agent>
      <dc:title>Matplotlib v3.7.1, https://matplotlib.org/</dc:title>
     </cc:Agent>
    </dc:creator>
   </cc:Work>
  </rdf:RDF>
 </metadata>
 <defs>
  <style type="text/css">*{stroke-linejoin: round; stroke-linecap: butt}</style>
 </defs>
 <g id="figure_1">
  <g id="patch_1">
   <path d="M 0 404.64 
L 468 404.64 
L 468 0 
L 0 0 
z
" style="fill: #ffffff"/>
  </g>
  <g id="axes_1">
   <g id="patch_2">
    <path d="M 37.44 223.9008 
L 458.64 223.9008 
L 458.64 8.0928 
L 37.44 8.0928 
z
" style="fill: #ffffff"/>
   </g>
   <g id="matplotlib.axis_1">
    <g id="xtick_1">
     <g id="line2d_1">
      <path d="M 37.44 223.9008 
L 37.44 8.0928 
" clip-path="url(#pec89fb3542)" style="fill: none; stroke: #b0b0b0; stroke-width: 0.8; stroke-linecap: square"/>
     </g>
     <g id="line2d_2">
      <defs>
       <path id="m09ff8c859f" d="M 0 0 
L 0 3.5 
" style="stroke: #000000; stroke-width: 0.8"/>
      </defs>
      <g>
       <use xlink:href="#m09ff8c859f" x="37.44" y="223.9008" style="stroke: #000000; stroke-width: 0.8"/>
      </g>
     </g>
     <g id="text_1">
      <!-- $\Gamma$ -->
      <g transform="translate(34.64 238.499237) scale(0.1 -0.1)">
       <defs>
        <path id="DejaVuSans-393" d="M 628 0 
L 628 4666 
L 3531 4666 
L 3531 4134 
L 1259 4134 
L 1259 0 
L 628 0 
z
" transform="scale(0.015625)"/>
       </defs>
       <use xlink:href="#DejaVuSans-393" transform="translate(0 0.09375)"/>
      </g>
     </g>
    </g>
    <g id="xtick_2">
     <g id="line2d_3">
      <path d="M 211.906752 223.9008 
L 211.906752 8.0928 
" clip-path="url(#pec89fb3542)" style="fill: none; stroke: #b0b0b0; stroke-width: 0.8; stroke-linecap: square"/>
     </g>
     <g id="line2d_4">
      <g>
       <use xlink:href="#m09ff8c859f" x="211.906752" y="223.9008" style="stroke: #000000; stroke-width: 0.8"/>
      </g>
     </g>
     <g id="text_2">
      <!-- $X$ -->
      <g transform="translate(208.456752 238.499237) scale(0.1 -0.1)">
       <defs>
        <path id="DejaVuSans-Oblique-58" d="M 878 4666 
L 1516 4666 
L 2316 2981 
L 3763 4666 
L 4500 4666 
L 2578 2438 
L 3738 0 
L 3103 0 
L 2163 1966 
L 459 0 
L -275 0 
L 1906 2509 
L 878 4666 
z
" transform="scale(0.015625)"/>
       </defs>
       <use xlink:href="#DejaVuSans-Oblique-58" transform="translate(0 0.09375)"/>
      </g>
     </g>
    </g>
    <g id="xtick_3">
     <g id="line2d_5">
      <path d="M 335.273376 223.9008 
L 335.273376 8.0928 
" clip-path="url(#pec89fb3542)" style="fill: none; stroke: #b0b0b0; stroke-width: 0.8; stroke-linecap: square"/>
     </g>
     <g id="line2d_6">
      <g>
       <use xlink:href="#m09ff8c859f" x="335.273376" y="223.9008" style="stroke: #000000; stroke-width: 0.8"/>
      </g>
     </g>
     <g id="text_3">
      <!-- $M$ -->
      <g transform="translate(330.923376 238.499237) scale(0.1 -0.1)">
       <defs>
        <path id="DejaVuSans-Oblique-4d" d="M 1081 4666 
L 2028 4666 
L 2572 1522 
L 4378 4666 
L 5350 4666 
L 4441 0 
L 3828 0 
L 4622 4091 
L 2791 897 
L 2175 897 
L 1581 4103 
L 788 0 
L 172 0 
L 1081 4666 
z
" transform="scale(0.015625)"/>
       </defs>
       <use xlink:href="#DejaVuSans-Oblique-4d" transform="translate(0 0.09375)"/>
      </g>
     </g>
    </g>
    <g id="xtick_4">
     <g id="line2d_7">
      <path d="M 458.64 223.9008 
L 458.64 8.0928 
" clip-path="url(#pec89fb3542)" style="fill: none; stroke: #b0b0b0; stroke-width: 0.8; stroke-linecap: square"/>
     </g>
     <g id="line2d_8">
      <g>
       <use xlink:href="#m09ff8c859f" x="458.64" y="223.9008" style="stroke: #000000; stroke-width: 0.8"/>
      </g>
     </g>
     <g id="text_4">
      <!-- $\Gamma$ -->
      <g transform="translate(455.84 238.499237) scale(0.1 -0.1)">
       <use xlink:href="#DejaVuSans-393" transform="translate(0 0.09375)"/>
      </g>
     </g>
    </g>
   </g>
   <g id="matplotlib.axis_2">
    <g id="ytick_1">
     <g id="line2d_9">
      <path d="M 37.44 223.9008 
L 458.64 223.9008 
" clip-path="url(#pec89fb3542)" style="fill: none; stroke: #b0b0b0; stroke-width: 0.8; stroke-linecap: square"/>
     </g>
     <g id="line2d_10">
      <defs>
       <path id="m408ec553e5" d="M 0 0 
L -3.5 0 
" style="stroke: #000000; stroke-width: 0.8"/>
      </defs>
      <g>
       <use xlink:href="#m408ec553e5" x="37.44" y="223.9008" style="stroke: #000000; stroke-width: 0.8"/>
      </g>
     </g>
     <g id="text_5">
      <!-- 0 -->
      <g transform="translate(24.0775 227.700019) scale(0.1 -0.1)">
       <defs>
        <path id="DejaVuSans-30" d="M 2034 4250 
Q 1547 4250 1301 3770 
Q 1056 3291 1056 2328 
Q 1056 1369 1301 889 
Q 1547 409 2034 409 
Q 2525 409 2770 889 
Q 3016 1369 3016 2328 
Q 3016 3291 2770 3770 
Q 2525 4250 2034 4250 
z
M 2034 4750 
Q 2819 4750 3233 4129 
Q 3647 3509 3647 2328 
Q 3647 1150 3233 529 
Q 2819 -91 2034 -91 
Q 1250 -91 836 529 
Q 422 1150 422 2328 
Q 422 3509 836 4129 
Q 1250 4750 2034 4750 
z
" transform="scale(0.015625)"/>
       </defs>
       <use xlink:href="#DejaVuSans-30"/>
      </g>
     </g>
    </g>
    <g id="ytick_2">
     <g id="line2d_11">
      <path d="M 37.44 196.9248 
L 458.64 196.9248 
" clip-path="url(#pec89fb3542)" style="fill: none; stroke: #b0b0b0; stroke-width: 0.8; stroke-linecap: square"/>
     </g>
     <g id="line2d_12">
      <g>
       <use xlink:href="#m408ec553e5" x="37.44" y="196.9248" style="stroke: #000000; stroke-width: 0.8"/>
      </g>
     </g>
     <g id="text_6">
      <!-- 2 -->
      <g transform="translate(24.0775 200.724019) scale(0.1 -0.1)">
       <defs>
        <path id="DejaVuSans-32" d="M 1228 531 
L 3431 531 
L 3431 0 
L 469 0 
L 469 531 
Q 828 903 1448 1529 
Q 2069 2156 2228 2338 
Q 2531 2678 2651 2914 
Q 2772 3150 2772 3378 
Q 2772 3750 2511 3984 
Q 2250 4219 1831 4219 
Q 1534 4219 1204 4116 
Q 875 4013 500 3803 
L 500 4441 
Q 881 4594 1212 4672 
Q 1544 4750 1819 4750 
Q 2544 4750 2975 4387 
Q 3406 4025 3406 3419 
Q 3406 3131 3298 2873 
Q 3191 2616 2906 2266 
Q 2828 2175 2409 1742 
Q 1991 1309 1228 531 
z
" transform="scale(0.015625)"/>
       </defs>
       <use xlink:href="#DejaVuSans-32"/>
      </g>
     </g>
    </g>
    <g id="ytick_3">
     <g id="line2d_13">
      <path d="M 37.44 169.9488 
L 458.64 169.9488 
" clip-path="url(#pec89fb3542)" style="fill: none; stroke: #b0b0b0; stroke-width: 0.8; stroke-linecap: square"/>
     </g>
     <g id="line2d_14">
      <g>
       <use xlink:href="#m408ec553e5" x="37.44" y="169.9488" style="stroke: #000000; stroke-width: 0.8"/>
      </g>
     </g>
     <g id="text_7">
      <!-- 4 -->
      <g transform="translate(24.0775 173.748019) scale(0.1 -0.1)">
       <defs>
        <path id="DejaVuSans-34" d="M 2419 4116 
L 825 1625 
L 2419 1625 
L 2419 4116 
z
M 2253 4666 
L 3047 4666 
L 3047 1625 
L 3713 1625 
L 3713 1100 
L 3047 1100 
L 3047 0 
L 2419 0 
L 2419 1100 
L 313 1100 
L 313 1709 
L 2253 4666 
z
" transform="scale(0.015625)"/>
       </defs>
       <use xlink:href="#DejaVuSans-34"/>
      </g>
     </g>
    </g>
    <g id="ytick_4">
     <g id="line2d_15">
      <path d="M 37.44 142.9728 
L 458.64 142.9728 
" clip-path="url(#pec89fb3542)" style="fill: none; stroke: #b0b0b0; stroke-width: 0.8; stroke-linecap: square"/>
     </g>
     <g id="line2d_16">
      <g>
       <use xlink:href="#m408ec553e5" x="37.44" y="142.9728" style="stroke: #000000; stroke-width: 0.8"/>
      </g>
     </g>
     <g id="text_8">
      <!-- 6 -->
      <g transform="translate(24.0775 146.772019) scale(0.1 -0.1)">
       <defs>
        <path id="DejaVuSans-36" d="M 2113 2584 
Q 1688 2584 1439 2293 
Q 1191 2003 1191 1497 
Q 1191 994 1439 701 
Q 1688 409 2113 409 
Q 2538 409 2786 701 
Q 3034 994 3034 1497 
Q 3034 2003 2786 2293 
Q 2538 2584 2113 2584 
z
M 3366 4563 
L 3366 3988 
Q 3128 4100 2886 4159 
Q 2644 4219 2406 4219 
Q 1781 4219 1451 3797 
Q 1122 3375 1075 2522 
Q 1259 2794 1537 2939 
Q 1816 3084 2150 3084 
Q 2853 3084 3261 2657 
Q 3669 2231 3669 1497 
Q 3669 778 3244 343 
Q 2819 -91 2113 -91 
Q 1303 -91 875 529 
Q 447 1150 447 2328 
Q 447 3434 972 4092 
Q 1497 4750 2381 4750 
Q 2619 4750 2861 4703 
Q 3103 4656 3366 4563 
z
" transform="scale(0.015625)"/>
       </defs>
       <use xlink:href="#DejaVuSans-36"/>
      </g>
     </g>
    </g>
    <g id="ytick_5">
     <g id="line2d_17">
      <path d="M 37.44 115.9968 
L 458.64 115.9968 
" clip-path="url(#pec89fb3542)" style="fill: none; stroke: #b0b0b0; stroke-width: 0.8; stroke-linecap: square"/>
     </g>
     <g id="line2d_18">
      <g>
       <use xlink:href="#m408ec553e5" x="37.44" y="115.9968" style="stroke: #000000; stroke-width: 0.8"/>
      </g>
     </g>
     <g id="text_9">
      <!-- 8 -->
      <g transform="translate(24.0775 119.796019) scale(0.1 -0.1)">
       <defs>
        <path id="DejaVuSans-38" d="M 2034 2216 
Q 1584 2216 1326 1975 
Q 1069 1734 1069 1313 
Q 1069 891 1326 650 
Q 1584 409 2034 409 
Q 2484 409 2743 651 
Q 3003 894 3003 1313 
Q 3003 1734 2745 1975 
Q 2488 2216 2034 2216 
z
M 1403 2484 
Q 997 2584 770 2862 
Q 544 3141 544 3541 
Q 544 4100 942 4425 
Q 1341 4750 2034 4750 
Q 2731 4750 3128 4425 
Q 3525 4100 3525 3541 
Q 3525 3141 3298 2862 
Q 3072 2584 2669 2484 
Q 3125 2378 3379 2068 
Q 3634 1759 3634 1313 
Q 3634 634 3220 271 
Q 2806 -91 2034 -91 
Q 1263 -91 848 271 
Q 434 634 434 1313 
Q 434 1759 690 2068 
Q 947 2378 1403 2484 
z
M 1172 3481 
Q 1172 3119 1398 2916 
Q 1625 2713 2034 2713 
Q 2441 2713 2670 2916 
Q 2900 3119 2900 3481 
Q 2900 3844 2670 4047 
Q 2441 4250 2034 4250 
Q 1625 4250 1398 4047 
Q 1172 3844 1172 3481 
z
" transform="scale(0.015625)"/>
       </defs>
       <use xlink:href="#DejaVuSans-38"/>
      </g>
     </g>
    </g>
    <g id="ytick_6">
     <g id="line2d_19">
      <path d="M 37.44 89.0208 
L 458.64 89.0208 
" clip-path="url(#pec89fb3542)" style="fill: none; stroke: #b0b0b0; stroke-width: 0.8; stroke-linecap: square"/>
     </g>
     <g id="line2d_20">
      <g>
       <use xlink:href="#m408ec553e5" x="37.44" y="89.0208" style="stroke: #000000; stroke-width: 0.8"/>
      </g>
     </g>
     <g id="text_10">
      <!-- 10 -->
      <g transform="translate(17.715 92.820019) scale(0.1 -0.1)">
       <defs>
        <path id="DejaVuSans-31" d="M 794 531 
L 1825 531 
L 1825 4091 
L 703 3866 
L 703 4441 
L 1819 4666 
L 2450 4666 
L 2450 531 
L 3481 531 
L 3481 0 
L 794 0 
L 794 531 
z
" transform="scale(0.015625)"/>
       </defs>
       <use xlink:href="#DejaVuSans-31"/>
       <use xlink:href="#DejaVuSans-30" x="63.623047"/>
      </g>
     </g>
    </g>
    <g id="ytick_7">
     <g id="line2d_21">
      <path d="M 37.44 62.0448 
L 458.64 62.0448 
" clip-path="url(#pec89fb3542)" style="fill: none; stroke: #b0b0b0; stroke-width: 0.8; stroke-linecap: square"/>
     </g>
     <g id="line2d_22">
      <g>
       <use xlink:href="#m408ec553e5" x="37.44" y="62.0448" style="stroke: #000000; stroke-width: 0.8"/>
      </g>
     </g>
     <g id="text_11">
      <!-- 12 -->
      <g transform="translate(17.715 65.844019) scale(0.1 -0.1)">
       <use xlink:href="#DejaVuSans-31"/>
       <use xlink:href="#DejaVuSans-32" x="63.623047"/>
      </g>
     </g>
    </g>
    <g id="ytick_8">
     <g id="line2d_23">
      <path d="M 37.44 35.0688 
L 458.64 35.0688 
" clip-path="url(#pec89fb3542)" style="fill: none; stroke: #b0b0b0; stroke-width: 0.8; stroke-linecap: square"/>
     </g>
     <g id="line2d_24">
      <g>
       <use xlink:href="#m408ec553e5" x="37.44" y="35.0688" style="stroke: #000000; stroke-width: 0.8"/>
      </g>
     </g>
     <g id="text_12">
      <!-- 14 -->
      <g transform="translate(17.715 38.868019) scale(0.1 -0.1)">
       <use xlink:href="#DejaVuSans-31"/>
       <use xlink:href="#DejaVuSans-34" x="63.623047"/>
      </g>
     </g>
    </g>
    <g id="ytick_9">
     <g id="line2d_25">
      <path d="M 37.44 8.0928 
L 458.64 8.0928 
" clip-path="url(#pec89fb3542)" style="fill: none; stroke: #b0b0b0; stroke-width: 0.8; stroke-linecap: square"/>
     </g>
     <g id="line2d_26">
      <g>
       <use xlink:href="#m408ec553e5" x="37.44" y="8.0928" style="stroke: #000000; stroke-width: 0.8"/>
      </g>
     </g>
     <g id="text_13">
      <!-- 16 -->
      <g transform="translate(17.715 11.892019) scale(0.1 -0.1)">
       <use xlink:href="#DejaVuSans-31"/>
       <use xlink:href="#DejaVuSans-36" x="63.623047"/>
      </g>
     </g>
    </g>
    <g id="text_14">
     <!-- $\chi_{S_z S_z}(\mathbf{q})$ -->
     <g transform="translate(10.915 133.7968) rotate(-90) scale(0.1 -0.1)">
      <defs>
       <path id="DejaVuSans-Oblique-3c7" d="M 1922 -781 
L 1691 416 
L 394 -1334 
L -284 -1334 
L 1553 1141 
L 1269 2613 
Q 1194 3006 713 3006 
L 559 3006 
L 653 3500 
L 872 3494 
Q 1675 3472 1775 2950 
L 2006 1753 
L 3303 3503 
L 3981 3503 
L 2144 1028 
L 2428 -444 
Q 2503 -838 2984 -838 
L 3138 -838 
L 3044 -1331 
L 2825 -1325 
Q 2022 -1303 1922 -781 
z
" transform="scale(0.015625)"/>
       <path id="DejaVuSans-Oblique-53" d="M 3859 4513 
L 3738 3897 
Q 3422 4066 3111 4152 
Q 2800 4238 2509 4238 
Q 1944 4238 1609 3991 
Q 1275 3744 1275 3334 
Q 1275 3109 1398 2989 
Q 1522 2869 2034 2731 
L 2413 2638 
Q 3053 2472 3303 2217 
Q 3553 1963 3553 1503 
Q 3553 797 2998 353 
Q 2444 -91 1538 -91 
Q 1166 -91 791 -17 
Q 416 56 38 206 
L 166 856 
Q 513 641 861 531 
Q 1209 422 1556 422 
Q 2147 422 2503 684 
Q 2859 947 2859 1369 
Q 2859 1650 2717 1795 
Q 2575 1941 2106 2059 
L 1728 2156 
Q 1081 2325 845 2545 
Q 609 2766 609 3163 
Q 609 3859 1145 4304 
Q 1681 4750 2541 4750 
Q 2875 4750 3203 4690 
Q 3531 4631 3859 4513 
z
" transform="scale(0.015625)"/>
       <path id="DejaVuSans-Oblique-7a" d="M 744 3500 
L 3475 3500 
L 3372 2975 
L 738 459 
L 2913 459 
L 2822 0 
L -19 0 
L 84 525 
L 2719 3041 
L 653 3041 
L 744 3500 
z
" transform="scale(0.015625)"/>
       <path id="DejaVuSans-28" d="M 1984 4856 
Q 1566 4138 1362 3434 
Q 1159 2731 1159 2009 
Q 1159 1288 1364 580 
Q 1569 -128 1984 -844 
L 1484 -844 
Q 1016 -109 783 600 
Q 550 1309 550 2009 
Q 550 2706 781 3412 
Q 1013 4119 1484 4856 
L 1984 4856 
z
" transform="scale(0.015625)"/>
       <path id="DejaVuSans-Bold-71" d="M 2181 2772 
Q 1825 2772 1636 2509 
Q 1447 2247 1447 1747 
Q 1447 1247 1636 984 
Q 1825 722 2181 722 
Q 2541 722 2730 984 
Q 2919 1247 2919 1747 
Q 2919 2247 2730 2509 
Q 2541 2772 2181 2772 
z
M 2919 506 
Q 2688 197 2409 53 
Q 2131 -91 1766 -91 
Q 1119 -91 703 423 
Q 288 938 288 1747 
Q 288 2556 703 3067 
Q 1119 3578 1766 3578 
Q 2131 3578 2409 3434 
Q 2688 3291 2919 2981 
L 2919 3500 
L 4044 3500 
L 4044 -1331 
L 2919 -1331 
L 2919 506 
z
" transform="scale(0.015625)"/>
       <path id="DejaVuSans-29" d="M 513 4856 
L 1013 4856 
Q 1481 4119 1714 3412 
Q 1947 2706 1947 2009 
Q 1947 1309 1714 600 
Q 1481 -109 1013 -844 
L 513 -844 
Q 928 -128 1133 580 
Q 1338 1288 1338 2009 
Q 1338 2731 1133 3434 
Q 928 4138 513 4856 
z
" transform="scale(0.015625)"/>
      </defs>
      <use xlink:href="#DejaVuSans-Oblique-3c7" transform="translate(0 0.125)"/>
      <use xlink:href="#DejaVuSans-Oblique-53" transform="translate(59.179688 -16.28125) scale(0.7)"/>
      <use xlink:href="#DejaVuSans-Oblique-7a" transform="translate(103.613281 -27.765625) scale(0.49)"/>
      <use xlink:href="#DejaVuSans-Oblique-53" transform="translate(131.247559 -16.28125) scale(0.7)"/>
      <use xlink:href="#DejaVuSans-Oblique-7a" transform="translate(175.681152 -27.765625) scale(0.49)"/>
      <use xlink:href="#DejaVuSans-28" transform="translate(206.049805 0.125)"/>
      <use xlink:href="#DejaVuSans-Bold-71" transform="translate(245.063477 0.125)"/>
      <use xlink:href="#DejaVuSans-29" transform="translate(316.645508 0.125)"/>
     </g>
    </g>
   </g>
   <g id="line2d_27"/>
   <g id="line2d_28"/>
   <g id="line2d_29">
    <path d="M 37.44 143.77956 
L 45.588412 143.165204 
L 52.829507 141.695295 
L 60.070601 139.26732 
L 67.294247 135.816739 
L 74.517893 131.232001 
L 81.758987 125.352242 
L 88.982633 118.018754 
L 96.241176 108.928786 
L 103.534615 97.79836 
L 110.985091 84.205617 
L 120.529376 64.308674 
L 125.327692 54.300138 
L 132.132576 42.623905 
L 139.26898 38.591173 
L 146.579868 47.918297 
L 154.239724 70.697245 
L 162.527724 100.342161 
L 168.826603 121.070205 
L 175.963007 139.538784 
L 183.204101 152.908817 
L 190.462644 161.879041 
L 197.756084 167.493291 
L 205.032075 170.506099 
L 212.239876 171.378845 
L 222.344613 169.312611 
L 228.550574 165.265136 
L 232.634418 162.393386 
L 238.445567 155.055822 
L 242.948899 149.069092 
L 247.760679 140.393942 
L 252.128294 132.968313 
L 255.422512 127.757695 
L 257.519955 124.901587 
L 259.518694 122.547825 
L 261.41873 120.645885 
L 263.232401 119.137843 
L 263.651889 118.962476 
L 265.23114 118.561494 
L 266.785715 118.395909 
L 268.327952 118.455654 
L 269.870189 118.737915 
L 271.437101 119.251955 
L 273.041028 120.014727 
L 274.410534 120.894974 
L 276.754735 122.691508 
L 279.1853 124.837873 
L 281.726907 127.384482 
L 285.465289 131.194678 
L 289.191334 134.746491 
L 293.164137 138.845336 
L 294.620008 140.241388 
L 299.160354 143.600414 
L 304.132526 147.561295 
L 304.823448 147.988302 
L 309.474835 150.262521 
L 314.496359 152.969356 
L 315.100916 153.18285 
L 319.6536 154.382333 
L 324.416028 155.869319 
L 325.390721 156.080525 
L 329.918729 156.382129 
L 334.508427 156.910853 
L 335.668189 156.960492 
L 340.220873 156.147166 
L 344.847584 155.093451 
L 345.908643 154.712299 
L 350.819125 151.799725 
L 355.852987 148.559267 
L 366.204482 138.429714 
L 370.350015 133.737066 
L 374.236452 129.667354 
L 377.222223 126.826602 
L 379.677465 124.861729 
L 382.058678 123.236644 
L 384.365865 121.928382 
L 386.599024 120.914257 
L 387.277609 120.76259 
L 389.486092 120.462442 
L 391.682238 120.388314 
L 393.878383 120.536645 
L 396.086866 120.908881 
L 398.134957 121.471151 
L 401.071376 122.519444 
L 404.081823 123.831987 
L 407.190973 125.431868 
L 408.634507 126.104735 
L 412.619647 128.11829 
L 416.82687 130.496025 
L 418.541837 131.385942 
L 423.785443 133.972681 
L 429.238793 136.659643 
L 437.048682 139.824138 
L 438.800663 140.437097 
L 449.398916 142.976061 
L 458.64 143.77956 
L 458.64 143.77956 
" clip-path="url(#pec89fb3542)" style="fill: none; stroke: #1f77b4; stroke-opacity: 0.75; stroke-width: 1.5; stroke-linecap: square"/>
   </g>
   <g id="line2d_30">
    <defs>
     <path id="m551075c619" d="M 0 2 
C 0.530406 2 1.03916 1.789267 1.414214 1.414214 
C 1.789267 1.03916 2 0.530406 2 0 
C 2 -0.530406 1.789267 -1.03916 1.414214 -1.414214 
C 1.03916 -1.789267 0.530406 -2 0 -2 
C -0.530406 -2 -1.03916 -1.789267 -1.414214 -1.414214 
C -1.789267 -1.03916 -2 -0.530406 -2 0 
C -2 0.530406 -1.789267 1.03916 -1.414214 1.414214 
C -1.03916 1.789267 -0.530406 2 0 2 
z
" style="stroke: #1f77b4; stroke-opacity: 0.75"/>
    </defs>
    <g clip-path="url(#pec89fb3542)">
     <use xlink:href="#m551075c619" x="211.906752" y="171.443194" style="fill: #1f77b4; fill-opacity: 0.75; stroke: #1f77b4; stroke-opacity: 0.75"/>
    </g>
   </g>
   <g id="line2d_31">
    <path d="M 37.44 146.210893 
L 45.570964 145.589559 
L 52.812058 144.096013 
L 60.035704 141.631623 
L 67.276798 138.099505 
L 74.500444 133.400409 
L 81.72409 127.364669 
L 88.947736 119.7773 
L 96.206279 110.310271 
L 103.48227 98.657632 
L 110.897849 84.320047 
L 119.49992 65.050484 
L 125.432383 51.465375 
L 132.132576 38.492617 
L 139.26898 33.208722 
L 146.562419 42.183248 
L 154.204827 65.683945 
L 162.492827 96.643706 
L 168.809155 118.317681 
L 175.963007 137.523879 
L 183.204101 151.333012 
L 190.462644 160.566957 
L 197.738635 166.325381 
L 205.032075 169.423089 
L 212.227538 170.320058 
L 222.332275 168.207599 
L 228.464209 164.107146 
L 232.62208 161.117155 
L 238.383878 153.646736 
L 242.936561 147.44046 
L 247.661976 138.688517 
L 251.943226 131.2162 
L 255.188092 125.950937 
L 257.248521 123.068998 
L 259.210246 120.698025 
L 261.073269 118.785817 
L 262.849926 117.272664 
L 263.5902 116.845055 
L 265.132437 116.511473 
L 266.649998 116.410319 
L 268.155221 116.531828 
L 269.672782 116.877311 
L 271.227357 117.462652 
L 272.818946 118.303817 
L 274.26248 119.308234 
L 276.619018 121.272586 
L 279.074259 123.612126 
L 281.640542 126.369223 
L 285.415938 130.490468 
L 289.228348 134.344322 
L 293.324529 138.806919 
L 294.595333 140.075327 
L 299.234382 143.680082 
L 304.391622 147.975883 
L 304.811111 148.193502 
L 309.548863 150.615039 
L 315.594432 153.730831 
L 320.233481 155.033593 
L 325.871899 156.637253 
L 330.461597 156.986272 
L 335.125321 157.564837 
L 335.643513 157.529951 
L 340.245548 156.701182 
L 344.921611 155.632682 
L 345.908643 155.269258 
L 350.905491 152.290044 
L 355.877663 149.075294 
L 366.401888 138.74681 
L 370.387029 134.277105 
L 374.150087 130.385144 
L 377.111182 127.61067 
L 379.517072 125.733336 
L 381.848934 124.191252 
L 384.106769 122.961049 
L 386.302915 122.015065 
L 387.215919 121.790423 
L 389.399727 121.572569 
L 391.571196 121.578571 
L 393.755004 121.807122 
L 395.95115 122.260613 
L 398.097944 122.927465 
L 401.034363 124.081237 
L 404.069485 125.515067 
L 407.203311 127.243702 
L 408.511128 127.887634 
L 412.520944 130.016186 
L 416.777518 132.530911 
L 418.492486 133.463965 
L 423.797781 136.174061 
L 429.152428 138.902724 
L 437.048682 142.179734 
L 438.775987 142.799831 
L 449.37424 145.391604 
L 458.64 146.210893 
L 458.64 146.210893 
" clip-path="url(#pec89fb3542)" style="fill: none; stroke: #ff7f0e; stroke-opacity: 0.75; stroke-width: 1.5; stroke-linecap: square"/>
   </g>
   <g id="line2d_32">
    <defs>
     <path id="mb10dda7044" d="M 0 2 
C 0.530406 2 1.03916 1.789267 1.414214 1.414214 
C 1.789267 1.03916 2 0.530406 2 0 
C 2 -0.530406 1.789267 -1.03916 1.414214 -1.414214 
C 1.03916 -1.789267 0.530406 -2 0 -2 
C -0.530406 -2 -1.03916 -1.789267 -1.414214 -1.414214 
C -1.789267 -1.03916 -2 -0.530406 -2 0 
C -2 0.530406 -1.789267 1.03916 -1.414214 1.414214 
C -1.03916 1.789267 -0.530406 2 0 2 
z
" style="stroke: #ff7f0e; stroke-opacity: 0.75"/>
    </defs>
    <g clip-path="url(#pec89fb3542)">
     <use xlink:href="#mb10dda7044" x="211.906752" y="170.383565" style="fill: #ff7f0e; fill-opacity: 0.75; stroke: #ff7f0e; stroke-opacity: 0.75"/>
    </g>
   </g>
   <g id="line2d_33">
    <path d="M 37.44 148.104649 
L 45.570964 147.487376 
L 52.812058 146.002657 
L 60.035704 143.549835 
L 67.25935 140.038765 
L 74.482996 135.34429 
L 81.706642 129.294142 
L 88.930288 121.656681 
L 96.171382 112.104928 
L 103.447373 100.240693 
L 110.845503 85.548195 
L 118.976467 66.607374 
L 125.606867 50.511267 
L 132.150024 36.653932 
L 139.216634 29.939845 
L 139.286428 30.015863 
L 146.562419 38.097801 
L 154.16993 61.537272 
L 162.614966 93.842369 
L 168.809155 115.731321 
L 175.963007 135.52737 
L 183.186653 149.719744 
L 190.462644 159.23432 
L 197.738635 165.145707 
L 205.014627 168.320436 
L 212.227538 169.242526 
L 222.332275 167.07621 
L 228.377844 162.929121 
L 232.62208 159.798627 
L 238.334526 152.189983 
L 242.936561 145.745074 
L 247.587948 136.896732 
L 251.819847 129.314182 
L 254.978348 124.059603 
L 257.014101 121.137304 
L 258.951151 118.736581 
L 260.789497 116.80337 
L 262.541478 115.276032 
L 263.516172 114.648329 
L 265.021395 114.373307 
L 266.514281 114.325985 
L 268.007166 114.502386 
L 269.51239 114.905945 
L 271.054627 115.553639 
L 272.633877 116.46163 
L 274.114425 117.56095 
L 276.507977 119.698437 
L 279.01257 122.239311 
L 281.628204 125.216009 
L 285.329573 129.485358 
L 289.265361 133.649258 
L 293.521936 138.48377 
L 294.582995 139.559574 
L 299.382436 143.431345 
L 305.242937 148.17878 
L 310.128744 150.780676 
L 315.446377 153.616148 
L 320.159453 154.973413 
L 325.859561 156.634214 
L 330.510948 157.002389 
L 335.2487 157.601221 
L 335.631175 157.54976 
L 340.307238 156.70764 
L 345.069666 155.62277 
L 345.908643 155.298818 
L 351.02887 152.259534 
L 355.914677 149.113396 
L 366.673322 138.645807 
L 370.522746 134.442305 
L 374.150087 130.804129 
L 377.037155 128.192624 
L 379.406031 126.432034 
L 381.70088 124.998926 
L 383.921701 123.869722 
L 386.080833 123.01704 
L 387.166568 122.76557 
L 389.350375 122.639326 
L 391.534183 122.73599 
L 393.730328 123.056429 
L 395.95115 123.606503 
L 398.23366 124.404163 
L 401.231769 125.68851 
L 404.328581 127.259182 
L 414.149546 132.751276 
L 419.46718 135.805758 
L 425.019233 138.725542 
L 428.819305 140.677526 
L 436.888289 144.022542 
L 438.775987 144.710121 
L 449.349564 147.288477 
L 458.64 148.104649 
L 458.64 148.104649 
" clip-path="url(#pec89fb3542)" style="fill: none; stroke: #2ca02c; stroke-opacity: 0.75; stroke-width: 1.5; stroke-linecap: square"/>
   </g>
   <g id="line2d_34">
    <defs>
     <path id="mdc657250ca" d="M 0 2 
C 0.530406 2 1.03916 1.789267 1.414214 1.414214 
C 1.789267 1.03916 2 0.530406 2 0 
C 2 -0.530406 1.789267 -1.03916 1.414214 -1.414214 
C 1.03916 -1.789267 0.530406 -2 0 -2 
C -0.530406 -2 -1.03916 -1.789267 -1.414214 -1.414214 
C -1.789267 -1.03916 -2 -0.530406 -2 0 
C -2 0.530406 -1.789267 1.03916 -1.414214 1.414214 
C -1.03916 1.789267 -0.530406 2 0 2 
z
" style="stroke: #2ca02c; stroke-opacity: 0.75"/>
    </defs>
    <g clip-path="url(#pec89fb3542)">
     <use xlink:href="#mdc657250ca" x="211.906752" y="169.307635" style="fill: #2ca02c; fill-opacity: 0.75; stroke: #2ca02c; stroke-opacity: 0.75"/>
    </g>
   </g>
   <g id="line2d_35">
    <path d="M 37.44 202.215958 
L 48.205675 201.93774 
L 55.324631 201.490776 
L 62.373792 200.812916 
L 69.35316 199.891964 
L 76.332528 198.695999 
L 83.277 197.19881 
L 90.256368 195.339981 
L 97.288081 193.052516 
L 104.459382 190.230835 
L 111.962202 186.72389 
L 123.321124 180.718017 
L 125.973284 179.414195 
L 132.359405 176.709515 
L 139.443464 175.738754 
L 146.754352 178.083466 
L 154.518899 183.845066 
L 163.278006 191.589293 
L 169.08833 196.29872 
L 176.25963 200.875069 
L 183.622864 204.208373 
L 191.073339 206.440293 
L 198.628505 207.818514 
L 206.148774 208.516907 
L 213.251583 208.648169 
L 223.1219 208.056598 
L 232.770135 206.407029 
L 242.751493 203.213038 
L 249.574349 200.180874 
L 255.274457 197.878366 
L 258.519324 196.818495 
L 261.714839 196.007764 
L 263.910985 195.643615 
L 266.995459 195.536339 
L 270.079933 195.651776 
L 273.176745 195.990487 
L 276.224205 196.545621 
L 280.567145 197.542697 
L 295.656392 201.2836 
L 304.305257 202.978646 
L 305.687101 203.152746 
L 318.703582 204.597202 
L 327.833625 205.127886 
L 338.370188 205.201633 
L 346.007346 204.741481 
L 355.458174 203.290764 
L 357.308859 202.874278 
L 368.227897 200.129801 
L 374.77932 198.405474 
L 379.085246 197.465281 
L 383.378833 196.766856 
L 387.178905 196.361606 
L 391.558859 196.277059 
L 395.963487 196.41485 
L 400.540847 196.784766 
L 406.38901 197.469933 
L 428.190072 200.319464 
L 442.847493 201.632377 
L 451.039856 202.049419 
L 458.64 202.215958 
L 458.64 202.215958 
" clip-path="url(#pec89fb3542)" style="fill: none; stroke-dasharray: 5.55,2.4; stroke-dashoffset: 0; stroke: #1f77b4; stroke-opacity: 0.75; stroke-width: 1.5"/>
   </g>
   <g id="line2d_36">
    <defs>
     <path id="m3e9ef9fa13" d="M -2 2 
L 2 2 
L 2 -2 
L -2 -2 
z
" style="stroke: #1f77b4; stroke-opacity: 0.75; stroke-linejoin: miter"/>
    </defs>
    <g clip-path="url(#pec89fb3542)">
     <use xlink:href="#m3e9ef9fa13" x="211.906752" y="208.713422" style="fill: #1f77b4; fill-opacity: 0.75; stroke: #1f77b4; stroke-opacity: 0.75; stroke-linejoin: miter"/>
    </g>
   </g>
   <g id="line2d_37">
    <path d="M 37.44 190.398675 
L 46.774905 190.041681 
L 53.946205 189.356849 
L 61.082609 188.271469 
L 68.184116 186.757009 
L 75.285623 184.760214 
L 82.369682 182.223058 
L 89.471189 179.046063 
L 96.625041 175.09294 
L 103.831238 170.224827 
L 111.246817 164.200484 
L 120.337444 155.685331 
L 125.659212 150.667848 
L 132.219818 145.450043 
L 139.338773 143.349588 
L 146.632213 147.174206 
L 154.309518 157.064812 
L 162.719656 170.15047 
L 168.896397 178.96713 
L 176.067698 186.975006 
L 183.343689 192.736935 
L 190.706922 196.604753 
L 198.122501 199.001128 
L 205.520631 200.254671 
L 212.68404 200.563461 
L 222.690074 199.620395 
L 231.869468 197.0097 
L 232.955203 196.574865 
L 240.666388 192.355551 
L 243.257347 190.777875 
L 248.834076 186.499407 
L 253.929627 182.866215 
L 256.545261 181.235024 
L 259.086867 179.907817 
L 261.566785 178.860322 
L 263.540848 178.241728 
L 265.885048 178.060531 
L 268.216911 178.102738 
L 270.561111 178.36776 
L 272.917649 178.858071 
L 275.126132 179.537531 
L 278.48204 180.798668 
L 281.936651 182.336701 
L 285.87244 184.102009 
L 291.116046 186.369034 
L 295.261579 188.1308 
L 301.985732 190.37343 
L 305.316964 191.420575 
L 312.460606 193.001498 
L 315.656121 193.641935 
L 322.787425 194.520634 
L 326.019954 194.855838 
L 333.126582 195.125875 
L 336.285084 195.183779 
L 343.391712 194.588593 
L 346.27878 194.190777 
L 353.656842 192.30097 
L 356.617937 191.384625 
L 367.216189 186.962067 
L 372.410444 184.58686 
L 376.975465 182.732072 
L 380.343711 181.650385 
L 383.650267 180.820903 
L 386.784093 180.258306 
L 390.14 180.120445 
L 393.508246 180.204823 
L 396.88883 180.511786 
L 400.651888 181.088424 
L 405.167558 181.990594 
L 430.558948 187.573548 
L 440.564982 189.161019 
L 450.114514 190.082351 
L 458.64 190.398675 
L 458.64 190.398675 
" clip-path="url(#pec89fb3542)" style="fill: none; stroke-dasharray: 5.55,2.4; stroke-dashoffset: 0; stroke: #ff7f0e; stroke-opacity: 0.75; stroke-width: 1.5"/>
   </g>
   <g id="line2d_38">
    <defs>
     <path id="m4cc46b752a" d="M -2 2 
L 2 2 
L 2 -2 
L -2 -2 
z
" style="stroke: #ff7f0e; stroke-opacity: 0.75; stroke-linejoin: miter"/>
    </defs>
    <g clip-path="url(#pec89fb3542)">
     <use xlink:href="#m4cc46b752a" x="211.906752" y="200.627933" style="fill: #ff7f0e; fill-opacity: 0.75; stroke: #ff7f0e; stroke-opacity: 0.75; stroke-linejoin: miter"/>
    </g>
   </g>
   <g id="line2d_39">
    <path d="M 37.44 176.906388 
L 46.129313 176.461725 
L 53.335511 175.509751 
L 60.506811 173.970013 
L 67.660664 171.791884 
L 74.814516 168.896268 
L 81.985816 165.168556 
L 89.139669 160.489772 
L 96.345866 154.62212 
L 103.586961 147.349188 
L 110.950194 138.363913 
L 119.203297 126.571538 
L 125.694109 116.957059 
L 132.184921 108.593754 
L 139.303876 104.602562 
L 146.579868 109.611953 
L 154.204827 124.044554 
L 162.702208 143.961463 
L 168.844052 157.251041 
L 175.997904 169.375742 
L 183.256447 178.097758 
L 190.549886 183.924303 
L 197.895671 187.551821 
L 205.241456 189.477048 
L 212.424944 189.998541 
L 222.480329 188.632295 
L 229.907743 185.478921 
L 232.770135 184.105094 
L 239.296882 178.745019 
L 243.072278 175.430472 
L 248.069126 169.615325 
L 252.597134 164.679231 
L 255.484202 161.803624 
L 257.717361 159.914614 
L 259.864155 158.384036 
L 261.936921 157.17388 
L 263.491496 156.487748 
L 265.391532 156.291787 
L 267.291568 156.318839 
L 269.191604 156.567911 
L 271.116316 157.045566 
L 273.065704 157.759476 
L 274.867037 158.646775 
L 277.729429 160.299725 
L 280.690524 162.269031 
L 283.76266 164.582018 
L 284.626312 165.129248 
L 289.141982 168.037719 
L 294.027789 171.453816 
L 294.694036 171.801828 
L 300.468171 174.686637 
L 305.242937 177.042275 
L 311.313182 179.049801 
L 315.495729 180.390714 
L 321.479608 181.474715 
L 325.871899 182.237605 
L 331.818765 182.551355 
L 336.149367 182.749256 
L 342.108571 182.046778 
L 345.908643 181.41713 
L 352.20097 179.101591 
L 356.2478 177.421136 
L 367.031121 170.936138 
L 371.423412 168.026163 
L 375.581283 165.534878 
L 377.987173 164.298425 
L 380.787875 163.116699 
L 383.539226 162.195609 
L 386.228887 161.527467 
L 387.499691 161.379697 
L 390.275717 161.324436 
L 393.064082 161.49101 
L 395.877122 161.882594 
L 398.813541 162.52048 
L 402.5766 163.560957 
L 406.463037 164.868352 
L 409.707904 165.937608 
L 414.852807 167.741321 
L 419.652248 169.410614 
L 426.549132 171.663023 
L 429.029049 172.394256 
L 440.367576 175.069899 
L 449.633336 176.419815 
L 458.64 176.906388 
L 458.64 176.906388 
" clip-path="url(#pec89fb3542)" style="fill: none; stroke-dasharray: 5.55,2.4; stroke-dashoffset: 0; stroke: #2ca02c; stroke-opacity: 0.75; stroke-width: 1.5"/>
   </g>
   <g id="line2d_40">
    <defs>
     <path id="mee55e64e68" d="M -2 2 
L 2 2 
L 2 -2 
L -2 -2 
z
" style="stroke: #2ca02c; stroke-opacity: 0.75; stroke-linejoin: miter"/>
    </defs>
    <g clip-path="url(#pec89fb3542)">
     <use xlink:href="#mee55e64e68" x="211.906752" y="190.063152" style="fill: #2ca02c; fill-opacity: 0.75; stroke: #2ca02c; stroke-opacity: 0.75; stroke-linejoin: miter"/>
    </g>
   </g>
   <g id="patch_3">
    <path d="M 37.44 223.9008 
L 37.44 8.0928 
" style="fill: none; stroke: #000000; stroke-width: 0.8; stroke-linejoin: miter; stroke-linecap: square"/>
   </g>
   <g id="patch_4">
    <path d="M 458.64 223.9008 
L 458.64 8.0928 
" style="fill: none; stroke: #000000; stroke-width: 0.8; stroke-linejoin: miter; stroke-linecap: square"/>
   </g>
   <g id="patch_5">
    <path d="M 37.44 223.9008 
L 458.64 223.9008 
" style="fill: none; stroke: #000000; stroke-width: 0.8; stroke-linejoin: miter; stroke-linecap: square"/>
   </g>
   <g id="patch_6">
    <path d="M 37.44 8.0928 
L 458.64 8.0928 
" style="fill: none; stroke: #000000; stroke-width: 0.8; stroke-linejoin: miter; stroke-linecap: square"/>
   </g>
   <g id="legend_1">
    <g id="patch_7">
     <path d="M 386.928281 65.066237 
L 453.74 65.066237 
Q 455.14 65.066237 455.14 63.666238 
L 455.14 12.9928 
Q 455.14 11.5928 453.74 11.5928 
L 386.928281 11.5928 
Q 385.528281 11.5928 385.528281 12.9928 
L 385.528281 63.666238 
Q 385.528281 65.066237 386.928281 65.066237 
z
" style="fill: #ffffff; opacity: 0.8; stroke: #cccccc; stroke-linejoin: miter"/>
    </g>
    <g id="line2d_41">
     <path d="M 388.328281 17.261706 
L 395.328281 17.261706 
L 402.328281 17.261706 
" style="fill: none; stroke: #808080; stroke-opacity: 0.75; stroke-width: 1.5; stroke-linecap: square"/>
     <defs>
      <path id="mc5092cf2ed" d="M 0 2 
C 0.530406 2 1.03916 1.789267 1.414214 1.414214 
C 1.789267 1.03916 2 0.530406 2 0 
C 2 -0.530406 1.789267 -1.03916 1.414214 -1.414214 
C 1.03916 -1.789267 0.530406 -2 0 -2 
C -0.530406 -2 -1.03916 -1.789267 -1.414214 -1.414214 
C -1.789267 -1.03916 -2 -0.530406 -2 0 
C -2 0.530406 -1.789267 1.03916 -1.414214 1.414214 
C -1.03916 1.789267 -0.530406 2 0 2 
z
" style="stroke: #808080; stroke-opacity: 0.75"/>
     </defs>
     <g>
      <use xlink:href="#mc5092cf2ed" x="395.328281" y="17.261706" style="fill: #808080; fill-opacity: 0.75; stroke: #808080; stroke-opacity: 0.75"/>
     </g>
    </g>
    <g id="text_15">
     <!-- DMFT+DBSE -->
     <g transform="translate(407.928281 19.711706) scale(0.07 -0.07)">
      <defs>
       <path id="DejaVuSans-44" d="M 1259 4147 
L 1259 519 
L 2022 519 
Q 2988 519 3436 956 
Q 3884 1394 3884 2338 
Q 3884 3275 3436 3711 
Q 2988 4147 2022 4147 
L 1259 4147 
z
M 628 4666 
L 1925 4666 
Q 3281 4666 3915 4102 
Q 4550 3538 4550 2338 
Q 4550 1131 3912 565 
Q 3275 0 1925 0 
L 628 0 
L 628 4666 
z
" transform="scale(0.015625)"/>
       <path id="DejaVuSans-4d" d="M 628 4666 
L 1569 4666 
L 2759 1491 
L 3956 4666 
L 4897 4666 
L 4897 0 
L 4281 0 
L 4281 4097 
L 3078 897 
L 2444 897 
L 1241 4097 
L 1241 0 
L 628 0 
L 628 4666 
z
" transform="scale(0.015625)"/>
       <path id="DejaVuSans-46" d="M 628 4666 
L 3309 4666 
L 3309 4134 
L 1259 4134 
L 1259 2759 
L 3109 2759 
L 3109 2228 
L 1259 2228 
L 1259 0 
L 628 0 
L 628 4666 
z
" transform="scale(0.015625)"/>
       <path id="DejaVuSans-54" d="M -19 4666 
L 3928 4666 
L 3928 4134 
L 2272 4134 
L 2272 0 
L 1638 0 
L 1638 4134 
L -19 4134 
L -19 4666 
z
" transform="scale(0.015625)"/>
       <path id="DejaVuSans-2b" d="M 2944 4013 
L 2944 2272 
L 4684 2272 
L 4684 1741 
L 2944 1741 
L 2944 0 
L 2419 0 
L 2419 1741 
L 678 1741 
L 678 2272 
L 2419 2272 
L 2419 4013 
L 2944 4013 
z
" transform="scale(0.015625)"/>
       <path id="DejaVuSans-42" d="M 1259 2228 
L 1259 519 
L 2272 519 
Q 2781 519 3026 730 
Q 3272 941 3272 1375 
Q 3272 1813 3026 2020 
Q 2781 2228 2272 2228 
L 1259 2228 
z
M 1259 4147 
L 1259 2741 
L 2194 2741 
Q 2656 2741 2882 2914 
Q 3109 3088 3109 3444 
Q 3109 3797 2882 3972 
Q 2656 4147 2194 4147 
L 1259 4147 
z
M 628 4666 
L 2241 4666 
Q 2963 4666 3353 4366 
Q 3744 4066 3744 3513 
Q 3744 3084 3544 2831 
Q 3344 2578 2956 2516 
Q 3422 2416 3680 2098 
Q 3938 1781 3938 1306 
Q 3938 681 3513 340 
Q 3088 0 2303 0 
L 628 0 
L 628 4666 
z
" transform="scale(0.015625)"/>
       <path id="DejaVuSans-53" d="M 3425 4513 
L 3425 3897 
Q 3066 4069 2747 4153 
Q 2428 4238 2131 4238 
Q 1616 4238 1336 4038 
Q 1056 3838 1056 3469 
Q 1056 3159 1242 3001 
Q 1428 2844 1947 2747 
L 2328 2669 
Q 3034 2534 3370 2195 
Q 3706 1856 3706 1288 
Q 3706 609 3251 259 
Q 2797 -91 1919 -91 
Q 1588 -91 1214 -16 
Q 841 59 441 206 
L 441 856 
Q 825 641 1194 531 
Q 1563 422 1919 422 
Q 2459 422 2753 634 
Q 3047 847 3047 1241 
Q 3047 1584 2836 1778 
Q 2625 1972 2144 2069 
L 1759 2144 
Q 1053 2284 737 2584 
Q 422 2884 422 3419 
Q 422 4038 858 4394 
Q 1294 4750 2059 4750 
Q 2388 4750 2728 4690 
Q 3069 4631 3425 4513 
z
" transform="scale(0.015625)"/>
       <path id="DejaVuSans-45" d="M 628 4666 
L 3578 4666 
L 3578 4134 
L 1259 4134 
L 1259 2753 
L 3481 2753 
L 3481 2222 
L 1259 2222 
L 1259 531 
L 3634 531 
L 3634 0 
L 628 0 
L 628 4666 
z
" transform="scale(0.015625)"/>
      </defs>
      <use xlink:href="#DejaVuSans-44"/>
      <use xlink:href="#DejaVuSans-4d" x="77.001953"/>
      <use xlink:href="#DejaVuSans-46" x="163.28125"/>
      <use xlink:href="#DejaVuSans-54" x="219.050781"/>
      <use xlink:href="#DejaVuSans-2b" x="280.134766"/>
      <use xlink:href="#DejaVuSans-44" x="363.923828"/>
      <use xlink:href="#DejaVuSans-42" x="440.925781"/>
      <use xlink:href="#DejaVuSans-53" x="507.779297"/>
      <use xlink:href="#DejaVuSans-45" x="571.255859"/>
     </g>
    </g>
    <g id="line2d_42">
     <path d="M 388.328281 27.536394 
L 395.328281 27.536394 
L 402.328281 27.536394 
" style="fill: none; stroke-dasharray: 5.55,2.4; stroke-dashoffset: 0; stroke: #808080; stroke-opacity: 0.75; stroke-width: 1.5"/>
     <defs>
      <path id="m95843bedb6" d="M -2 2 
L 2 2 
L 2 -2 
L -2 -2 
z
" style="stroke: #808080; stroke-opacity: 0.75; stroke-linejoin: miter"/>
     </defs>
     <g>
      <use xlink:href="#m95843bedb6" x="395.328281" y="27.536394" style="fill: #808080; fill-opacity: 0.75; stroke: #808080; stroke-opacity: 0.75; stroke-linejoin: miter"/>
     </g>
    </g>
    <g id="text_16">
     <!-- DMFT+BSE -->
     <g transform="translate(407.928281 29.986394) scale(0.07 -0.07)">
      <use xlink:href="#DejaVuSans-44"/>
      <use xlink:href="#DejaVuSans-4d" x="77.001953"/>
      <use xlink:href="#DejaVuSans-46" x="163.28125"/>
      <use xlink:href="#DejaVuSans-54" x="219.050781"/>
      <use xlink:href="#DejaVuSans-2b" x="280.134766"/>
      <use xlink:href="#DejaVuSans-42" x="363.923828"/>
      <use xlink:href="#DejaVuSans-53" x="430.777344"/>
      <use xlink:href="#DejaVuSans-45" x="494.253906"/>
     </g>
    </g>
    <g id="line2d_43">
     <path d="M 388.328281 37.811081 
L 395.328281 37.811081 
L 402.328281 37.811081 
" style="fill: none; stroke: #1f77b4; stroke-opacity: 0.75; stroke-width: 1.5; stroke-linecap: square"/>
    </g>
    <g id="text_17">
     <!-- $N_\nu = 4$ -->
     <g transform="translate(407.928281 40.261081) scale(0.07 -0.07)">
      <defs>
       <path id="DejaVuSans-Oblique-4e" d="M 1081 4666 
L 1931 4666 
L 3219 666 
L 4000 4666 
L 4616 4666 
L 3706 0 
L 2853 0 
L 1569 4025 
L 788 0 
L 172 0 
L 1081 4666 
z
" transform="scale(0.015625)"/>
       <path id="DejaVuSans-Oblique-3bd" d="M 959 0 
L 572 3500 
L 1191 3500 
L 1522 563 
Q 1972 950 2391 1488 
Q 2706 1891 2788 2241 
Q 2825 2406 2809 2719 
Q 2794 3091 2544 3500 
L 3125 3500 
L 3125 3500 
Q 3288 3222 3353 2834 
Q 3416 2478 3369 2234 
Q 3250 1622 2719 1075 
Q 2025 363 1572 0 
L 959 0 
z
" transform="scale(0.015625)"/>
       <path id="DejaVuSans-3d" d="M 678 2906 
L 4684 2906 
L 4684 2381 
L 678 2381 
L 678 2906 
z
M 678 1631 
L 4684 1631 
L 4684 1100 
L 678 1100 
L 678 1631 
z
" transform="scale(0.015625)"/>
      </defs>
      <use xlink:href="#DejaVuSans-Oblique-4e" transform="translate(0 0.09375)"/>
      <use xlink:href="#DejaVuSans-Oblique-3bd" transform="translate(74.804688 -16.3125) scale(0.7)"/>
      <use xlink:href="#DejaVuSans-3d" transform="translate(136.123047 0.09375)"/>
      <use xlink:href="#DejaVuSans-34" transform="translate(239.394531 0.09375)"/>
     </g>
    </g>
    <g id="line2d_44">
     <path d="M 388.328281 48.085769 
L 395.328281 48.085769 
L 402.328281 48.085769 
" style="fill: none; stroke: #ff7f0e; stroke-opacity: 0.75; stroke-width: 1.5; stroke-linecap: square"/>
    </g>
    <g id="text_18">
     <!-- $N_\nu = 8$ -->
     <g transform="translate(407.928281 50.535769) scale(0.07 -0.07)">
      <use xlink:href="#DejaVuSans-Oblique-4e" transform="translate(0 0.78125)"/>
      <use xlink:href="#DejaVuSans-Oblique-3bd" transform="translate(74.804688 -15.625) scale(0.7)"/>
      <use xlink:href="#DejaVuSans-3d" transform="translate(136.123047 0.78125)"/>
      <use xlink:href="#DejaVuSans-38" transform="translate(239.394531 0.78125)"/>
     </g>
    </g>
    <g id="line2d_45">
     <path d="M 388.328281 58.360456 
L 395.328281 58.360456 
L 402.328281 58.360456 
" style="fill: none; stroke: #2ca02c; stroke-opacity: 0.75; stroke-width: 1.5; stroke-linecap: square"/>
    </g>
    <g id="text_19">
     <!-- $N_\nu = 16$ -->
     <g transform="translate(407.928281 60.810456) scale(0.07 -0.07)">
      <use xlink:href="#DejaVuSans-Oblique-4e" transform="translate(0 0.78125)"/>
      <use xlink:href="#DejaVuSans-Oblique-3bd" transform="translate(74.804688 -15.625) scale(0.7)"/>
      <use xlink:href="#DejaVuSans-3d" transform="translate(136.123047 0.78125)"/>
      <use xlink:href="#DejaVuSans-31" transform="translate(239.394531 0.78125)"/>
      <use xlink:href="#DejaVuSans-36" transform="translate(303.017578 0.78125)"/>
     </g>
    </g>
   </g>
  </g>
  <g id="axes_2">
   <g id="patch_8">
    <path d="M 37.44 364.176 
L 458.64 364.176 
L 458.64 256.272 
L 37.44 256.272 
z
" style="fill: #ffffff"/>
   </g>
   <g id="matplotlib.axis_3">
    <g id="xtick_5">
     <g id="line2d_46">
      <path d="M 45.312897 364.176 
L 45.312897 256.272 
" clip-path="url(#pe008ad942f)" style="fill: none; stroke: #b0b0b0; stroke-width: 0.8; stroke-linecap: square"/>
     </g>
     <g id="line2d_47">
      <g>
       <use xlink:href="#m09ff8c859f" x="45.312897" y="364.176" style="stroke: #000000; stroke-width: 0.8"/>
      </g>
     </g>
     <g id="text_20">
      <!-- 0.00 -->
      <g transform="translate(34.180085 378.774437) scale(0.1 -0.1)">
       <defs>
        <path id="DejaVuSans-2e" d="M 684 794 
L 1344 794 
L 1344 0 
L 684 0 
L 684 794 
z
" transform="scale(0.015625)"/>
       </defs>
       <use xlink:href="#DejaVuSans-30"/>
       <use xlink:href="#DejaVuSans-2e" x="63.623047"/>
       <use xlink:href="#DejaVuSans-30" x="95.410156"/>
       <use xlink:href="#DejaVuSans-30" x="159.033203"/>
      </g>
     </g>
    </g>
    <g id="xtick_6">
     <g id="line2d_48">
      <path d="M 124.041869 364.176 
L 124.041869 256.272 
" clip-path="url(#pe008ad942f)" style="fill: none; stroke: #b0b0b0; stroke-width: 0.8; stroke-linecap: square"/>
     </g>
     <g id="line2d_49">
      <g>
       <use xlink:href="#m09ff8c859f" x="124.041869" y="364.176" style="stroke: #000000; stroke-width: 0.8"/>
      </g>
     </g>
     <g id="text_21">
      <!-- 0.05 -->
      <g transform="translate(112.909057 378.774437) scale(0.1 -0.1)">
       <defs>
        <path id="DejaVuSans-35" d="M 691 4666 
L 3169 4666 
L 3169 4134 
L 1269 4134 
L 1269 2991 
Q 1406 3038 1543 3061 
Q 1681 3084 1819 3084 
Q 2600 3084 3056 2656 
Q 3513 2228 3513 1497 
Q 3513 744 3044 326 
Q 2575 -91 1722 -91 
Q 1428 -91 1123 -41 
Q 819 9 494 109 
L 494 744 
Q 775 591 1075 516 
Q 1375 441 1709 441 
Q 2250 441 2565 725 
Q 2881 1009 2881 1497 
Q 2881 1984 2565 2268 
Q 2250 2553 1709 2553 
Q 1456 2553 1204 2497 
Q 953 2441 691 2322 
L 691 4666 
z
" transform="scale(0.015625)"/>
       </defs>
       <use xlink:href="#DejaVuSans-30"/>
       <use xlink:href="#DejaVuSans-2e" x="63.623047"/>
       <use xlink:href="#DejaVuSans-30" x="95.410156"/>
       <use xlink:href="#DejaVuSans-35" x="159.033203"/>
      </g>
     </g>
    </g>
    <g id="xtick_7">
     <g id="line2d_50">
      <path d="M 202.770841 364.176 
L 202.770841 256.272 
" clip-path="url(#pe008ad942f)" style="fill: none; stroke: #b0b0b0; stroke-width: 0.8; stroke-linecap: square"/>
     </g>
     <g id="line2d_51">
      <g>
       <use xlink:href="#m09ff8c859f" x="202.770841" y="364.176" style="stroke: #000000; stroke-width: 0.8"/>
      </g>
     </g>
     <g id="text_22">
      <!-- 0.10 -->
      <g transform="translate(191.638029 378.774437) scale(0.1 -0.1)">
       <use xlink:href="#DejaVuSans-30"/>
       <use xlink:href="#DejaVuSans-2e" x="63.623047"/>
       <use xlink:href="#DejaVuSans-31" x="95.410156"/>
       <use xlink:href="#DejaVuSans-30" x="159.033203"/>
      </g>
     </g>
    </g>
    <g id="xtick_8">
     <g id="line2d_52">
      <path d="M 281.499813 364.176 
L 281.499813 256.272 
" clip-path="url(#pe008ad942f)" style="fill: none; stroke: #b0b0b0; stroke-width: 0.8; stroke-linecap: square"/>
     </g>
     <g id="line2d_53">
      <g>
       <use xlink:href="#m09ff8c859f" x="281.499813" y="364.176" style="stroke: #000000; stroke-width: 0.8"/>
      </g>
     </g>
     <g id="text_23">
      <!-- 0.15 -->
      <g transform="translate(270.367001 378.774437) scale(0.1 -0.1)">
       <use xlink:href="#DejaVuSans-30"/>
       <use xlink:href="#DejaVuSans-2e" x="63.623047"/>
       <use xlink:href="#DejaVuSans-31" x="95.410156"/>
       <use xlink:href="#DejaVuSans-35" x="159.033203"/>
      </g>
     </g>
    </g>
    <g id="xtick_9">
     <g id="line2d_54">
      <path d="M 360.228785 364.176 
L 360.228785 256.272 
" clip-path="url(#pe008ad942f)" style="fill: none; stroke: #b0b0b0; stroke-width: 0.8; stroke-linecap: square"/>
     </g>
     <g id="line2d_55">
      <g>
       <use xlink:href="#m09ff8c859f" x="360.228785" y="364.176" style="stroke: #000000; stroke-width: 0.8"/>
      </g>
     </g>
     <g id="text_24">
      <!-- 0.20 -->
      <g transform="translate(349.095973 378.774437) scale(0.1 -0.1)">
       <use xlink:href="#DejaVuSans-30"/>
       <use xlink:href="#DejaVuSans-2e" x="63.623047"/>
       <use xlink:href="#DejaVuSans-32" x="95.410156"/>
       <use xlink:href="#DejaVuSans-30" x="159.033203"/>
      </g>
     </g>
    </g>
    <g id="xtick_10">
     <g id="line2d_56">
      <path d="M 438.957757 364.176 
L 438.957757 256.272 
" clip-path="url(#pe008ad942f)" style="fill: none; stroke: #b0b0b0; stroke-width: 0.8; stroke-linecap: square"/>
     </g>
     <g id="line2d_57">
      <g>
       <use xlink:href="#m09ff8c859f" x="438.957757" y="364.176" style="stroke: #000000; stroke-width: 0.8"/>
      </g>
     </g>
     <g id="text_25">
      <!-- 0.25 -->
      <g transform="translate(427.824945 378.774437) scale(0.1 -0.1)">
       <use xlink:href="#DejaVuSans-30"/>
       <use xlink:href="#DejaVuSans-2e" x="63.623047"/>
       <use xlink:href="#DejaVuSans-32" x="95.410156"/>
       <use xlink:href="#DejaVuSans-35" x="159.033203"/>
      </g>
     </g>
    </g>
    <g id="text_26">
     <!-- $N_\nu^{-1}$ -->
     <g transform="translate(238.64 393.854125) scale(0.1 -0.1)">
      <defs>
       <path id="DejaVuSans-2212" d="M 678 2272 
L 4684 2272 
L 4684 1741 
L 678 1741 
L 678 2272 
z
" transform="scale(0.015625)"/>
      </defs>
      <use xlink:href="#DejaVuSans-Oblique-4e" transform="translate(0 0.684375)"/>
      <use xlink:href="#DejaVuSans-2212" transform="translate(81.821458 38.965625) scale(0.7)"/>
      <use xlink:href="#DejaVuSans-31" transform="translate(140.473802 38.965625) scale(0.7)"/>
      <use xlink:href="#DejaVuSans-Oblique-3bd" transform="translate(74.804688 -26.659375) scale(0.7)"/>
     </g>
    </g>
   </g>
   <g id="matplotlib.axis_4">
    <g id="ytick_10">
     <g id="line2d_58">
      <g>
       <use xlink:href="#m408ec553e5" x="37.44" y="364.176" style="stroke: #000000; stroke-width: 0.8"/>
      </g>
     </g>
     <g id="text_27">
      <!-- 0 -->
      <g transform="translate(24.0775 367.975219) scale(0.1 -0.1)">
       <use xlink:href="#DejaVuSans-30"/>
      </g>
     </g>
    </g>
    <g id="ytick_11">
     <g id="line2d_59">
      <g>
       <use xlink:href="#m408ec553e5" x="37.44" y="340.197333" style="stroke: #000000; stroke-width: 0.8"/>
      </g>
     </g>
     <g id="text_28">
      <!-- 1 -->
      <g transform="translate(24.0775 343.996552) scale(0.1 -0.1)">
       <use xlink:href="#DejaVuSans-31"/>
      </g>
     </g>
    </g>
    <g id="ytick_12">
     <g id="line2d_60">
      <g>
       <use xlink:href="#m408ec553e5" x="37.44" y="316.218667" style="stroke: #000000; stroke-width: 0.8"/>
      </g>
     </g>
     <g id="text_29">
      <!-- 2 -->
      <g transform="translate(24.0775 320.017885) scale(0.1 -0.1)">
       <use xlink:href="#DejaVuSans-32"/>
      </g>
     </g>
    </g>
    <g id="ytick_13">
     <g id="line2d_61">
      <g>
       <use xlink:href="#m408ec553e5" x="37.44" y="292.24" style="stroke: #000000; stroke-width: 0.8"/>
      </g>
     </g>
     <g id="text_30">
      <!-- 3 -->
      <g transform="translate(24.0775 296.039219) scale(0.1 -0.1)">
       <defs>
        <path id="DejaVuSans-33" d="M 2597 2516 
Q 3050 2419 3304 2112 
Q 3559 1806 3559 1356 
Q 3559 666 3084 287 
Q 2609 -91 1734 -91 
Q 1441 -91 1130 -33 
Q 819 25 488 141 
L 488 750 
Q 750 597 1062 519 
Q 1375 441 1716 441 
Q 2309 441 2620 675 
Q 2931 909 2931 1356 
Q 2931 1769 2642 2001 
Q 2353 2234 1838 2234 
L 1294 2234 
L 1294 2753 
L 1863 2753 
Q 2328 2753 2575 2939 
Q 2822 3125 2822 3475 
Q 2822 3834 2567 4026 
Q 2313 4219 1838 4219 
Q 1578 4219 1281 4162 
Q 984 4106 628 3988 
L 628 4550 
Q 988 4650 1302 4700 
Q 1616 4750 1894 4750 
Q 2613 4750 3031 4423 
Q 3450 4097 3450 3541 
Q 3450 3153 3228 2886 
Q 3006 2619 2597 2516 
z
" transform="scale(0.015625)"/>
       </defs>
       <use xlink:href="#DejaVuSans-33"/>
      </g>
     </g>
    </g>
    <g id="ytick_14">
     <g id="line2d_62">
      <g>
       <use xlink:href="#m408ec553e5" x="37.44" y="268.261333" style="stroke: #000000; stroke-width: 0.8"/>
      </g>
     </g>
     <g id="text_31">
      <!-- 4 -->
      <g transform="translate(24.0775 272.060552) scale(0.1 -0.1)">
       <use xlink:href="#DejaVuSans-34"/>
      </g>
     </g>
    </g>
    <g id="text_32">
     <!-- $\chi_{S_z S_z}(\mathbf{q}_X)$ -->
     <g transform="translate(17.2775 330.624) rotate(-90) scale(0.1 -0.1)">
      <use xlink:href="#DejaVuSans-Oblique-3c7" transform="translate(0 0.125)"/>
      <use xlink:href="#DejaVuSans-Oblique-53" transform="translate(59.179688 -16.28125) scale(0.7)"/>
      <use xlink:href="#DejaVuSans-Oblique-7a" transform="translate(103.613281 -27.765625) scale(0.49)"/>
      <use xlink:href="#DejaVuSans-Oblique-53" transform="translate(131.247559 -16.28125) scale(0.7)"/>
      <use xlink:href="#DejaVuSans-Oblique-7a" transform="translate(175.681152 -27.765625) scale(0.49)"/>
      <use xlink:href="#DejaVuSans-28" transform="translate(206.049805 0.125)"/>
      <use xlink:href="#DejaVuSans-Bold-71" transform="translate(245.063477 0.125)"/>
      <use xlink:href="#DejaVuSans-Oblique-58" transform="translate(317.602539 -16.28125) scale(0.7)"/>
      <use xlink:href="#DejaVuSans-29" transform="translate(368.291016 0.125)"/>
     </g>
    </g>
   </g>
   <g id="line2d_63">
    <path d="M 45.312897 266.289911 
L 93.142351 266.411265 
L 117.684245 266.710318 
L 138.186872 267.1784 
L 156.526259 267.815511 
L 173.419104 268.621652 
L 189.242765 269.596823 
L 202.770841 270.619669 
L 202.770841 270.619669 
" clip-path="url(#pe008ad942f)" style="fill: none; stroke: #808080; stroke-opacity: 0.75; stroke-linecap: square"/>
   </g>
   <g id="line2d_64">
    <g clip-path="url(#pe008ad942f)">
     <use xlink:href="#mc5092cf2ed" x="307.742804" y="270.013496" style="fill: #808080; fill-opacity: 0.75; stroke: #808080; stroke-opacity: 0.75"/>
    </g>
   </g>
   <g id="line2d_65">
    <g clip-path="url(#pe008ad942f)">
     <use xlink:href="#mc5092cf2ed" x="202.770841" y="268.293006" style="fill: #808080; fill-opacity: 0.75; stroke: #808080; stroke-opacity: 0.75"/>
    </g>
   </g>
   <g id="line2d_66">
    <g clip-path="url(#pe008ad942f)">
     <use xlink:href="#mc5092cf2ed" x="176.52785" y="267.764421" style="fill: #808080; fill-opacity: 0.75; stroke: #808080; stroke-opacity: 0.75"/>
    </g>
   </g>
   <g id="line2d_67">
    <g clip-path="url(#pe008ad942f)">
     <use xlink:href="#mc5092cf2ed" x="157.782857" y="267.389449" style="fill: #808080; fill-opacity: 0.75; stroke: #808080; stroke-opacity: 0.75"/>
    </g>
   </g>
   <g id="line2d_68">
    <g clip-path="url(#pe008ad942f)">
     <use xlink:href="#mc5092cf2ed" x="132.789533" y="266.926465" style="fill: #808080; fill-opacity: 0.75; stroke: #808080; stroke-opacity: 0.75"/>
    </g>
   </g>
   <g id="line2d_69">
    <g clip-path="url(#pe008ad942f)">
     <use xlink:href="#mc5092cf2ed" x="124.041869" y="266.784111" style="fill: #808080; fill-opacity: 0.75; stroke: #808080; stroke-opacity: 0.75"/>
    </g>
   </g>
   <g id="line2d_70">
    <g clip-path="url(#pe008ad942f)">
     <use xlink:href="#mc5092cf2ed" x="116.88469" y="266.678103" style="fill: #808080; fill-opacity: 0.75; stroke: #808080; stroke-opacity: 0.75"/>
    </g>
   </g>
   <g id="line2d_71">
    <g clip-path="url(#pe008ad942f)">
     <use xlink:href="#mc5092cf2ed" x="110.920374" y="266.59695" style="fill: #808080; fill-opacity: 0.75; stroke: #808080; stroke-opacity: 0.75"/>
    </g>
   </g>
   <g id="line2d_72">
    <g clip-path="url(#pe008ad942f)">
     <use xlink:href="#mc5092cf2ed" x="105.873645" y="266.535795" style="fill: #808080; fill-opacity: 0.75; stroke: #808080; stroke-opacity: 0.75"/>
    </g>
   </g>
   <g id="line2d_73">
    <g clip-path="url(#pe008ad942f)">
     <use xlink:href="#mc5092cf2ed" x="101.547877" y="266.488222" style="fill: #808080; fill-opacity: 0.75; stroke: #808080; stroke-opacity: 0.75"/>
    </g>
   </g>
   <g id="line2d_74">
    <g clip-path="url(#pe008ad942f)">
     <use xlink:href="#mc5092cf2ed" x="97.798879" y="266.449659" style="fill: #808080; fill-opacity: 0.75; stroke: #808080; stroke-opacity: 0.75"/>
    </g>
   </g>
   <g id="line2d_75"/>
   <g id="line2d_76">
    <path d="M 45.312897 270.16775 
L 202.770841 327.495277 
L 202.770841 327.495277 
" clip-path="url(#pe008ad942f)" style="fill: none; stroke-dasharray: 3.7,1.6; stroke-dashoffset: 0; stroke: #808080; stroke-opacity: 0.75"/>
   </g>
   <g id="line2d_77">
    <path d="M 45.312897 267.094963 
L 56.188371 272.164029 
L 67.063844 276.987414 
L 77.781702 281.500529 
L 88.49956 285.775032 
L 99.217419 289.810925 
L 109.935277 293.608206 
L 120.495519 297.116271 
L 131.055762 300.392691 
L 141.616004 303.437466 
L 152.176247 306.250596 
L 162.736489 308.832082 
L 173.296731 311.181922 
L 183.699358 313.270206 
L 194.101985 315.133708 
L 202.770841 316.514917 
L 202.770841 316.514917 
" clip-path="url(#pe008ad942f)" style="fill: none; stroke-dasharray: 1,1.65; stroke-dashoffset: 0; stroke: #808080; stroke-opacity: 0.75"/>
   </g>
   <g id="line2d_78">
    <g clip-path="url(#pe008ad942f)">
     <use xlink:href="#m95843bedb6" x="307.742804" y="329.658544" style="fill: #808080; fill-opacity: 0.75; stroke: #808080; stroke-opacity: 0.75; stroke-linejoin: miter"/>
    </g>
   </g>
   <g id="line2d_79">
    <g clip-path="url(#pe008ad942f)">
     <use xlink:href="#m95843bedb6" x="202.770841" y="316.890214" style="fill: #808080; fill-opacity: 0.75; stroke: #808080; stroke-opacity: 0.75; stroke-linejoin: miter"/>
    </g>
   </g>
   <g id="line2d_80">
    <g clip-path="url(#pe008ad942f)">
     <use xlink:href="#m95843bedb6" x="176.52785" y="311.865033" style="fill: #808080; fill-opacity: 0.75; stroke: #808080; stroke-opacity: 0.75; stroke-linejoin: miter"/>
    </g>
   </g>
   <g id="line2d_81">
    <g clip-path="url(#pe008ad942f)">
     <use xlink:href="#m95843bedb6" x="157.782857" y="307.631107" style="fill: #808080; fill-opacity: 0.75; stroke: #808080; stroke-opacity: 0.75; stroke-linejoin: miter"/>
    </g>
   </g>
   <g id="line2d_82">
    <g clip-path="url(#pe008ad942f)">
     <use xlink:href="#m95843bedb6" x="132.789533" y="300.903935" style="fill: #808080; fill-opacity: 0.75; stroke: #808080; stroke-opacity: 0.75; stroke-linejoin: miter"/>
    </g>
   </g>
   <g id="line2d_83">
    <g clip-path="url(#pe008ad942f)">
     <use xlink:href="#m95843bedb6" x="124.041869" y="298.236075" style="fill: #808080; fill-opacity: 0.75; stroke: #808080; stroke-opacity: 0.75; stroke-linejoin: miter"/>
    </g>
   </g>
   <g id="line2d_84">
    <g clip-path="url(#pe008ad942f)">
     <use xlink:href="#m95843bedb6" x="116.88469" y="295.955898" style="fill: #808080; fill-opacity: 0.75; stroke: #808080; stroke-opacity: 0.75; stroke-linejoin: miter"/>
    </g>
   </g>
   <g id="line2d_85">
    <g clip-path="url(#pe008ad942f)">
     <use xlink:href="#m95843bedb6" x="110.920374" y="293.957918" style="fill: #808080; fill-opacity: 0.75; stroke: #808080; stroke-opacity: 0.75; stroke-linejoin: miter"/>
    </g>
   </g>
   <g id="line2d_86">
    <g clip-path="url(#pe008ad942f)">
     <use xlink:href="#m95843bedb6" x="105.873645" y="292.210484" style="fill: #808080; fill-opacity: 0.75; stroke: #808080; stroke-opacity: 0.75; stroke-linejoin: miter"/>
    </g>
   </g>
   <g id="line2d_87">
    <g clip-path="url(#pe008ad942f)">
     <use xlink:href="#m95843bedb6" x="101.547877" y="290.655466" style="fill: #808080; fill-opacity: 0.75; stroke: #808080; stroke-opacity: 0.75; stroke-linejoin: miter"/>
    </g>
   </g>
   <g id="line2d_88">
    <g clip-path="url(#pe008ad942f)">
     <use xlink:href="#m95843bedb6" x="97.798879" y="289.26964" style="fill: #808080; fill-opacity: 0.75; stroke: #808080; stroke-opacity: 0.75; stroke-linejoin: miter"/>
    </g>
   </g>
   <g id="line2d_89"/>
   <g id="patch_9">
    <path d="M 37.44 364.176 
L 37.44 256.272 
" style="fill: none; stroke: #000000; stroke-width: 0.8; stroke-linejoin: miter; stroke-linecap: square"/>
   </g>
   <g id="patch_10">
    <path d="M 458.64 364.176 
L 458.64 256.272 
" style="fill: none; stroke: #000000; stroke-width: 0.8; stroke-linejoin: miter; stroke-linecap: square"/>
   </g>
   <g id="patch_11">
    <path d="M 37.44 364.176 
L 458.64 364.176 
" style="fill: none; stroke: #000000; stroke-width: 0.8; stroke-linejoin: miter; stroke-linecap: square"/>
   </g>
   <g id="patch_12">
    <path d="M 37.44 256.272 
L 458.64 256.272 
" style="fill: none; stroke: #000000; stroke-width: 0.8; stroke-linejoin: miter; stroke-linecap: square"/>
   </g>
   <g id="line2d_90">
    <g clip-path="url(#pe008ad942f)">
     <use xlink:href="#m551075c619" x="438.957757" y="270.918034" style="fill: #1f77b4; fill-opacity: 0.75; stroke: #1f77b4; stroke-opacity: 0.75"/>
    </g>
   </g>
   <g id="line2d_91">
    <g clip-path="url(#pe008ad942f)">
     <use xlink:href="#mb10dda7044" x="242.135327" y="269.034248" style="fill: #ff7f0e; fill-opacity: 0.75; stroke: #ff7f0e; stroke-opacity: 0.75"/>
    </g>
   </g>
   <g id="line2d_92">
    <g clip-path="url(#pe008ad942f)">
     <use xlink:href="#mdc657250ca" x="143.724112" y="267.121485" style="fill: #2ca02c; fill-opacity: 0.75; stroke: #2ca02c; stroke-opacity: 0.75"/>
    </g>
   </g>
   <g id="line2d_93">
    <g clip-path="url(#pe008ad942f)">
     <use xlink:href="#m3e9ef9fa13" x="438.957757" y="337.176216" style="fill: #1f77b4; fill-opacity: 0.75; stroke: #1f77b4; stroke-opacity: 0.75; stroke-linejoin: miter"/>
    </g>
   </g>
   <g id="line2d_94">
    <g clip-path="url(#pe008ad942f)">
     <use xlink:href="#m4cc46b752a" x="242.135327" y="322.802014" style="fill: #ff7f0e; fill-opacity: 0.75; stroke: #ff7f0e; stroke-opacity: 0.75; stroke-linejoin: miter"/>
    </g>
   </g>
   <g id="line2d_95">
    <g clip-path="url(#pe008ad942f)">
     <use xlink:href="#mee55e64e68" x="143.724112" y="304.020182" style="fill: #2ca02c; fill-opacity: 0.75; stroke: #2ca02c; stroke-opacity: 0.75; stroke-linejoin: miter"/>
    </g>
   </g>
  </g>
 </g>
 <defs>
  <clipPath id="pec89fb3542">
   <rect x="37.44" y="8.0928" width="421.2" height="215.808"/>
  </clipPath>
  <clipPath id="pe008ad942f">
   <rect x="37.44" y="256.272" width="421.2" height="107.904"/>
  </clipPath>
 </defs>
</svg>
