<?xml version="1.0" encoding="utf-8" standalone="no"?>
<!DOCTYPE svg PUBLIC "-//W3C//DTD SVG 1.1//EN"
  "http://www.w3.org/Graphics/SVG/1.1/DTD/svg11.dtd">
<svg xmlns:xlink="http://www.w3.org/1999/xlink" width="468pt" height="404.64pt" viewBox="0 0 468 404.64" xmlns="http://www.w3.org/2000/svg" version="1.1">
 <metadata>
  <rdf:RDF xmlns:dc="http://purl.org/dc/elements/1.1/" xmlns:cc="http://creativecommons.org/ns#" xmlns:rdf="http://www.w3.org/1999/02/22-rdf-syntax-ns#">
   <cc:Work>
    <dc:type rdf:resource="http://purl.org/dc/dcmitype/StillImage"/>
    <dc:date>2023-10-30T18:52:11.561439</dc:date>
    <dc:format>image/svg+xml</dc:format>
    <dc:creator>
     <cc:Agent>
      <dc:title>Matplotlib v3.7.1, https://matplotlib.org/</dc:title>
     </cc:Agent>
    </dc:creator>
   </cc:Work>
  </rdf:RDF>
 </metadata>
 <defs>
  <style type="text/css">*{stroke-linejoin: round; stroke-linecap: butt}</style>
 </defs>
 <g id="figure_1">
  <g id="patch_1">
   <path d="M 0 404.64 
L 468 404.64 
L 468 0 
L 0 0 
z
" style="fill: #ffffff"/>
  </g>
  <g id="axes_1">
   <g id="patch_2">
    <path d="M 37.44 223.9008 
L 458.64 223.9008 
L 458.64 8.0928 
L 37.44 8.0928 
z
" style="fill: #ffffff"/>
   </g>
   <g id="matplotlib.axis_1">
    <g id="xtick_1">
     <g id="line2d_1">
      <path d="M 37.44 223.9008 
L 37.44 8.0928 
" clip-path="url(#pa9e9feedf7)" style="fill: none; stroke: #b0b0b0; stroke-width: 0.8; stroke-linecap: square"/>
     </g>
     <g id="line2d_2">
      <defs>
       <path id="m4d3b356e7c" d="M 0 0 
L 0 3.5 
" style="stroke: #000000; stroke-width: 0.8"/>
      </defs>
      <g>
       <use xlink:href="#m4d3b356e7c" x="37.44" y="223.9008" style="stroke: #000000; stroke-width: 0.8"/>
      </g>
     </g>
     <g id="text_1">
      <!-- $\Gamma$ -->
      <g transform="translate(34.64 238.499237) scale(0.1 -0.1)">
       <defs>
        <path id="DejaVuSans-393" d="M 628 0 
L 628 4666 
L 3531 4666 
L 3531 4134 
L 1259 4134 
L 1259 0 
L 628 0 
z
" transform="scale(0.015625)"/>
       </defs>
       <use xlink:href="#DejaVuSans-393" transform="translate(0 0.09375)"/>
      </g>
     </g>
    </g>
    <g id="xtick_2">
     <g id="line2d_3">
      <path d="M 211.906752 223.9008 
L 211.906752 8.0928 
" clip-path="url(#pa9e9feedf7)" style="fill: none; stroke: #b0b0b0; stroke-width: 0.8; stroke-linecap: square"/>
     </g>
     <g id="line2d_4">
      <g>
       <use xlink:href="#m4d3b356e7c" x="211.906752" y="223.9008" style="stroke: #000000; stroke-width: 0.8"/>
      </g>
     </g>
     <g id="text_2">
      <!-- $X$ -->
      <g transform="translate(208.456752 238.499237) scale(0.1 -0.1)">
       <defs>
        <path id="DejaVuSans-Oblique-58" d="M 878 4666 
L 1516 4666 
L 2316 2981 
L 3763 4666 
L 4500 4666 
L 2578 2438 
L 3738 0 
L 3103 0 
L 2163 1966 
L 459 0 
L -275 0 
L 1906 2509 
L 878 4666 
z
" transform="scale(0.015625)"/>
       </defs>
       <use xlink:href="#DejaVuSans-Oblique-58" transform="translate(0 0.09375)"/>
      </g>
     </g>
    </g>
    <g id="xtick_3">
     <g id="line2d_5">
      <path d="M 335.273376 223.9008 
L 335.273376 8.0928 
" clip-path="url(#pa9e9feedf7)" style="fill: none; stroke: #b0b0b0; stroke-width: 0.8; stroke-linecap: square"/>
     </g>
     <g id="line2d_6">
      <g>
       <use xlink:href="#m4d3b356e7c" x="335.273376" y="223.9008" style="stroke: #000000; stroke-width: 0.8"/>
      </g>
     </g>
     <g id="text_3">
      <!-- $M$ -->
      <g transform="translate(330.923376 238.499237) scale(0.1 -0.1)">
       <defs>
        <path id="DejaVuSans-Oblique-4d" d="M 1081 4666 
L 2028 4666 
L 2572 1522 
L 4378 4666 
L 5350 4666 
L 4441 0 
L 3828 0 
L 4622 4091 
L 2791 897 
L 2175 897 
L 1581 4103 
L 788 0 
L 172 0 
L 1081 4666 
z
" transform="scale(0.015625)"/>
       </defs>
       <use xlink:href="#DejaVuSans-Oblique-4d" transform="translate(0 0.09375)"/>
      </g>
     </g>
    </g>
    <g id="xtick_4">
     <g id="line2d_7">
      <path d="M 458.64 223.9008 
L 458.64 8.0928 
" clip-path="url(#pa9e9feedf7)" style="fill: none; stroke: #b0b0b0; stroke-width: 0.8; stroke-linecap: square"/>
     </g>
     <g id="line2d_8">
      <g>
       <use xlink:href="#m4d3b356e7c" x="458.64" y="223.9008" style="stroke: #000000; stroke-width: 0.8"/>
      </g>
     </g>
     <g id="text_4">
      <!-- $\Gamma$ -->
      <g transform="translate(455.84 238.499237) scale(0.1 -0.1)">
       <use xlink:href="#DejaVuSans-393" transform="translate(0 0.09375)"/>
      </g>
     </g>
    </g>
   </g>
   <g id="matplotlib.axis_2">
    <g id="ytick_1">
     <g id="line2d_9">
      <path d="M 37.44 223.9008 
L 458.64 223.9008 
" clip-path="url(#pa9e9feedf7)" style="fill: none; stroke: #b0b0b0; stroke-width: 0.8; stroke-linecap: square"/>
     </g>
     <g id="line2d_10">
      <defs>
       <path id="mf5ba5d5ecf" d="M 0 0 
L -3.5 0 
" style="stroke: #000000; stroke-width: 0.8"/>
      </defs>
      <g>
       <use xlink:href="#mf5ba5d5ecf" x="37.44" y="223.9008" style="stroke: #000000; stroke-width: 0.8"/>
      </g>
     </g>
     <g id="text_5">
      <!-- 0 -->
      <g transform="translate(24.0775 227.700019) scale(0.1 -0.1)">
       <defs>
        <path id="DejaVuSans-30" d="M 2034 4250 
Q 1547 4250 1301 3770 
Q 1056 3291 1056 2328 
Q 1056 1369 1301 889 
Q 1547 409 2034 409 
Q 2525 409 2770 889 
Q 3016 1369 3016 2328 
Q 3016 3291 2770 3770 
Q 2525 4250 2034 4250 
z
M 2034 4750 
Q 2819 4750 3233 4129 
Q 3647 3509 3647 2328 
Q 3647 1150 3233 529 
Q 2819 -91 2034 -91 
Q 1250 -91 836 529 
Q 422 1150 422 2328 
Q 422 3509 836 4129 
Q 1250 4750 2034 4750 
z
" transform="scale(0.015625)"/>
       </defs>
       <use xlink:href="#DejaVuSans-30"/>
      </g>
     </g>
    </g>
    <g id="ytick_2">
     <g id="line2d_11">
      <path d="M 37.44 196.9248 
L 458.64 196.9248 
" clip-path="url(#pa9e9feedf7)" style="fill: none; stroke: #b0b0b0; stroke-width: 0.8; stroke-linecap: square"/>
     </g>
     <g id="line2d_12">
      <g>
       <use xlink:href="#mf5ba5d5ecf" x="37.44" y="196.9248" style="stroke: #000000; stroke-width: 0.8"/>
      </g>
     </g>
     <g id="text_6">
      <!-- 2 -->
      <g transform="translate(24.0775 200.724019) scale(0.1 -0.1)">
       <defs>
        <path id="DejaVuSans-32" d="M 1228 531 
L 3431 531 
L 3431 0 
L 469 0 
L 469 531 
Q 828 903 1448 1529 
Q 2069 2156 2228 2338 
Q 2531 2678 2651 2914 
Q 2772 3150 2772 3378 
Q 2772 3750 2511 3984 
Q 2250 4219 1831 4219 
Q 1534 4219 1204 4116 
Q 875 4013 500 3803 
L 500 4441 
Q 881 4594 1212 4672 
Q 1544 4750 1819 4750 
Q 2544 4750 2975 4387 
Q 3406 4025 3406 3419 
Q 3406 3131 3298 2873 
Q 3191 2616 2906 2266 
Q 2828 2175 2409 1742 
Q 1991 1309 1228 531 
z
" transform="scale(0.015625)"/>
       </defs>
       <use xlink:href="#DejaVuSans-32"/>
      </g>
     </g>
    </g>
    <g id="ytick_3">
     <g id="line2d_13">
      <path d="M 37.44 169.9488 
L 458.64 169.9488 
" clip-path="url(#pa9e9feedf7)" style="fill: none; stroke: #b0b0b0; stroke-width: 0.8; stroke-linecap: square"/>
     </g>
     <g id="line2d_14">
      <g>
       <use xlink:href="#mf5ba5d5ecf" x="37.44" y="169.9488" style="stroke: #000000; stroke-width: 0.8"/>
      </g>
     </g>
     <g id="text_7">
      <!-- 4 -->
      <g transform="translate(24.0775 173.748019) scale(0.1 -0.1)">
       <defs>
        <path id="DejaVuSans-34" d="M 2419 4116 
L 825 1625 
L 2419 1625 
L 2419 4116 
z
M 2253 4666 
L 3047 4666 
L 3047 1625 
L 3713 1625 
L 3713 1100 
L 3047 1100 
L 3047 0 
L 2419 0 
L 2419 1100 
L 313 1100 
L 313 1709 
L 2253 4666 
z
" transform="scale(0.015625)"/>
       </defs>
       <use xlink:href="#DejaVuSans-34"/>
      </g>
     </g>
    </g>
    <g id="ytick_4">
     <g id="line2d_15">
      <path d="M 37.44 142.9728 
L 458.64 142.9728 
" clip-path="url(#pa9e9feedf7)" style="fill: none; stroke: #b0b0b0; stroke-width: 0.8; stroke-linecap: square"/>
     </g>
     <g id="line2d_16">
      <g>
       <use xlink:href="#mf5ba5d5ecf" x="37.44" y="142.9728" style="stroke: #000000; stroke-width: 0.8"/>
      </g>
     </g>
     <g id="text_8">
      <!-- 6 -->
      <g transform="translate(24.0775 146.772019) scale(0.1 -0.1)">
       <defs>
        <path id="DejaVuSans-36" d="M 2113 2584 
Q 1688 2584 1439 2293 
Q 1191 2003 1191 1497 
Q 1191 994 1439 701 
Q 1688 409 2113 409 
Q 2538 409 2786 701 
Q 3034 994 3034 1497 
Q 3034 2003 2786 2293 
Q 2538 2584 2113 2584 
z
M 3366 4563 
L 3366 3988 
Q 3128 4100 2886 4159 
Q 2644 4219 2406 4219 
Q 1781 4219 1451 3797 
Q 1122 3375 1075 2522 
Q 1259 2794 1537 2939 
Q 1816 3084 2150 3084 
Q 2853 3084 3261 2657 
Q 3669 2231 3669 1497 
Q 3669 778 3244 343 
Q 2819 -91 2113 -91 
Q 1303 -91 875 529 
Q 447 1150 447 2328 
Q 447 3434 972 4092 
Q 1497 4750 2381 4750 
Q 2619 4750 2861 4703 
Q 3103 4656 3366 4563 
z
" transform="scale(0.015625)"/>
       </defs>
       <use xlink:href="#DejaVuSans-36"/>
      </g>
     </g>
    </g>
    <g id="ytick_5">
     <g id="line2d_17">
      <path d="M 37.44 115.9968 
L 458.64 115.9968 
" clip-path="url(#pa9e9feedf7)" style="fill: none; stroke: #b0b0b0; stroke-width: 0.8; stroke-linecap: square"/>
     </g>
     <g id="line2d_18">
      <g>
       <use xlink:href="#mf5ba5d5ecf" x="37.44" y="115.9968" style="stroke: #000000; stroke-width: 0.8"/>
      </g>
     </g>
     <g id="text_9">
      <!-- 8 -->
      <g transform="translate(24.0775 119.796019) scale(0.1 -0.1)">
       <defs>
        <path id="DejaVuSans-38" d="M 2034 2216 
Q 1584 2216 1326 1975 
Q 1069 1734 1069 1313 
Q 1069 891 1326 650 
Q 1584 409 2034 409 
Q 2484 409 2743 651 
Q 3003 894 3003 1313 
Q 3003 1734 2745 1975 
Q 2488 2216 2034 2216 
z
M 1403 2484 
Q 997 2584 770 2862 
Q 544 3141 544 3541 
Q 544 4100 942 4425 
Q 1341 4750 2034 4750 
Q 2731 4750 3128 4425 
Q 3525 4100 3525 3541 
Q 3525 3141 3298 2862 
Q 3072 2584 2669 2484 
Q 3125 2378 3379 2068 
Q 3634 1759 3634 1313 
Q 3634 634 3220 271 
Q 2806 -91 2034 -91 
Q 1263 -91 848 271 
Q 434 634 434 1313 
Q 434 1759 690 2068 
Q 947 2378 1403 2484 
z
M 1172 3481 
Q 1172 3119 1398 2916 
Q 1625 2713 2034 2713 
Q 2441 2713 2670 2916 
Q 2900 3119 2900 3481 
Q 2900 3844 2670 4047 
Q 2441 4250 2034 4250 
Q 1625 4250 1398 4047 
Q 1172 3844 1172 3481 
z
" transform="scale(0.015625)"/>
       </defs>
       <use xlink:href="#DejaVuSans-38"/>
      </g>
     </g>
    </g>
    <g id="ytick_6">
     <g id="line2d_19">
      <path d="M 37.44 89.0208 
L 458.64 89.0208 
" clip-path="url(#pa9e9feedf7)" style="fill: none; stroke: #b0b0b0; stroke-width: 0.8; stroke-linecap: square"/>
     </g>
     <g id="line2d_20">
      <g>
       <use xlink:href="#mf5ba5d5ecf" x="37.44" y="89.0208" style="stroke: #000000; stroke-width: 0.8"/>
      </g>
     </g>
     <g id="text_10">
      <!-- 10 -->
      <g transform="translate(17.715 92.820019) scale(0.1 -0.1)">
       <defs>
        <path id="DejaVuSans-31" d="M 794 531 
L 1825 531 
L 1825 4091 
L 703 3866 
L 703 4441 
L 1819 4666 
L 2450 4666 
L 2450 531 
L 3481 531 
L 3481 0 
L 794 0 
L 794 531 
z
" transform="scale(0.015625)"/>
       </defs>
       <use xlink:href="#DejaVuSans-31"/>
       <use xlink:href="#DejaVuSans-30" x="63.623047"/>
      </g>
     </g>
    </g>
    <g id="ytick_7">
     <g id="line2d_21">
      <path d="M 37.44 62.0448 
L 458.64 62.0448 
" clip-path="url(#pa9e9feedf7)" style="fill: none; stroke: #b0b0b0; stroke-width: 0.8; stroke-linecap: square"/>
     </g>
     <g id="line2d_22">
      <g>
       <use xlink:href="#mf5ba5d5ecf" x="37.44" y="62.0448" style="stroke: #000000; stroke-width: 0.8"/>
      </g>
     </g>
     <g id="text_11">
      <!-- 12 -->
      <g transform="translate(17.715 65.844019) scale(0.1 -0.1)">
       <use xlink:href="#DejaVuSans-31"/>
       <use xlink:href="#DejaVuSans-32" x="63.623047"/>
      </g>
     </g>
    </g>
    <g id="ytick_8">
     <g id="line2d_23">
      <path d="M 37.44 35.0688 
L 458.64 35.0688 
" clip-path="url(#pa9e9feedf7)" style="fill: none; stroke: #b0b0b0; stroke-width: 0.8; stroke-linecap: square"/>
     </g>
     <g id="line2d_24">
      <g>
       <use xlink:href="#mf5ba5d5ecf" x="37.44" y="35.0688" style="stroke: #000000; stroke-width: 0.8"/>
      </g>
     </g>
     <g id="text_12">
      <!-- 14 -->
      <g transform="translate(17.715 38.868019) scale(0.1 -0.1)">
       <use xlink:href="#DejaVuSans-31"/>
       <use xlink:href="#DejaVuSans-34" x="63.623047"/>
      </g>
     </g>
    </g>
    <g id="ytick_9">
     <g id="line2d_25">
      <path d="M 37.44 8.0928 
L 458.64 8.0928 
" clip-path="url(#pa9e9feedf7)" style="fill: none; stroke: #b0b0b0; stroke-width: 0.8; stroke-linecap: square"/>
     </g>
     <g id="line2d_26">
      <g>
       <use xlink:href="#mf5ba5d5ecf" x="37.44" y="8.0928" style="stroke: #000000; stroke-width: 0.8"/>
      </g>
     </g>
     <g id="text_13">
      <!-- 16 -->
      <g transform="translate(17.715 11.892019) scale(0.1 -0.1)">
       <use xlink:href="#DejaVuSans-31"/>
       <use xlink:href="#DejaVuSans-36" x="63.623047"/>
      </g>
     </g>
    </g>
    <g id="text_14">
     <!-- $\chi_{S_z S_z}(\mathbf{q})$ -->
     <g transform="translate(10.915 133.7968) rotate(-90) scale(0.1 -0.1)">
      <defs>
       <path id="DejaVuSans-Oblique-3c7" d="M 1922 -781 
L 1691 416 
L 394 -1334 
L -284 -1334 
L 1553 1141 
L 1269 2613 
Q 1194 3006 713 3006 
L 559 3006 
L 653 3500 
L 872 3494 
Q 1675 3472 1775 2950 
L 2006 1753 
L 3303 3503 
L 3981 3503 
L 2144 1028 
L 2428 -444 
Q 2503 -838 2984 -838 
L 3138 -838 
L 3044 -1331 
L 2825 -1325 
Q 2022 -1303 1922 -781 
z
" transform="scale(0.015625)"/>
       <path id="DejaVuSans-Oblique-53" d="M 3859 4513 
L 3738 3897 
Q 3422 4066 3111 4152 
Q 2800 4238 2509 4238 
Q 1944 4238 1609 3991 
Q 1275 3744 1275 3334 
Q 1275 3109 1398 2989 
Q 1522 2869 2034 2731 
L 2413 2638 
Q 3053 2472 3303 2217 
Q 3553 1963 3553 1503 
Q 3553 797 2998 353 
Q 2444 -91 1538 -91 
Q 1166 -91 791 -17 
Q 416 56 38 206 
L 166 856 
Q 513 641 861 531 
Q 1209 422 1556 422 
Q 2147 422 2503 684 
Q 2859 947 2859 1369 
Q 2859 1650 2717 1795 
Q 2575 1941 2106 2059 
L 1728 2156 
Q 1081 2325 845 2545 
Q 609 2766 609 3163 
Q 609 3859 1145 4304 
Q 1681 4750 2541 4750 
Q 2875 4750 3203 4690 
Q 3531 4631 3859 4513 
z
" transform="scale(0.015625)"/>
       <path id="DejaVuSans-Oblique-7a" d="M 744 3500 
L 3475 3500 
L 3372 2975 
L 738 459 
L 2913 459 
L 2822 0 
L -19 0 
L 84 525 
L 2719 3041 
L 653 3041 
L 744 3500 
z
" transform="scale(0.015625)"/>
       <path id="DejaVuSans-28" d="M 1984 4856 
Q 1566 4138 1362 3434 
Q 1159 2731 1159 2009 
Q 1159 1288 1364 580 
Q 1569 -128 1984 -844 
L 1484 -844 
Q 1016 -109 783 600 
Q 550 1309 550 2009 
Q 550 2706 781 3412 
Q 1013 4119 1484 4856 
L 1984 4856 
z
" transform="scale(0.015625)"/>
       <path id="DejaVuSans-Bold-71" d="M 2181 2772 
Q 1825 2772 1636 2509 
Q 1447 2247 1447 1747 
Q 1447 1247 1636 984 
Q 1825 722 2181 722 
Q 2541 722 2730 984 
Q 2919 1247 2919 1747 
Q 2919 2247 2730 2509 
Q 2541 2772 2181 2772 
z
M 2919 506 
Q 2688 197 2409 53 
Q 2131 -91 1766 -91 
Q 1119 -91 703 423 
Q 288 938 288 1747 
Q 288 2556 703 3067 
Q 1119 3578 1766 3578 
Q 2131 3578 2409 3434 
Q 2688 3291 2919 2981 
L 2919 3500 
L 4044 3500 
L 4044 -1331 
L 2919 -1331 
L 2919 506 
z
" transform="scale(0.015625)"/>
       <path id="DejaVuSans-29" d="M 513 4856 
L 1013 4856 
Q 1481 4119 1714 3412 
Q 1947 2706 1947 2009 
Q 1947 1309 1714 600 
Q 1481 -109 1013 -844 
L 513 -844 
Q 928 -128 1133 580 
Q 1338 1288 1338 2009 
Q 1338 2731 1133 3434 
Q 928 4138 513 4856 
z
" transform="scale(0.015625)"/>
      </defs>
      <use xlink:href="#DejaVuSans-Oblique-3c7" transform="translate(0 0.125)"/>
      <use xlink:href="#DejaVuSans-Oblique-53" transform="translate(59.179688 -16.28125) scale(0.7)"/>
      <use xlink:href="#DejaVuSans-Oblique-7a" transform="translate(103.613281 -27.765625) scale(0.49)"/>
      <use xlink:href="#DejaVuSans-Oblique-53" transform="translate(131.247559 -16.28125) scale(0.7)"/>
      <use xlink:href="#DejaVuSans-Oblique-7a" transform="translate(175.681152 -27.765625) scale(0.49)"/>
      <use xlink:href="#DejaVuSans-28" transform="translate(206.049805 0.125)"/>
      <use xlink:href="#DejaVuSans-Bold-71" transform="translate(245.063477 0.125)"/>
      <use xlink:href="#DejaVuSans-29" transform="translate(316.645508 0.125)"/>
     </g>
    </g>
   </g>
   <g id="line2d_27"/>
   <g id="line2d_28"/>
   <g id="line2d_29">
    <path d="M 37.44 144.730069 
L 45.553515 144.098499 
L 52.79461 142.57451 
L 60.018256 140.05839 
L 67.25935 136.451313 
L 74.482996 131.653184 
L 81.72409 125.476918 
L 88.965185 117.724303 
L 96.223727 108.112908 
L 103.534615 96.300587 
L 111.019988 81.866056 
L 122.867465 55.987044 
L 125.223001 51.045329 
L 132.097679 39.366024 
L 139.26898 36.463302 
L 146.597316 47.691857 
L 154.379311 72.460536 
L 162.161307 100.874638 
L 168.791706 122.609371 
L 175.963007 140.819946 
L 183.204101 153.872024 
L 190.480093 162.636814 
L 197.756084 168.106039 
L 205.049523 171.05375 
L 212.252214 171.902838 
L 222.332275 169.885706 
L 228.414858 165.991897 
L 232.62208 163.087597 
L 238.063092 156.298095 
L 242.88721 149.959291 
L 248.056788 140.604313 
L 252.695837 132.658726 
L 255.533553 128.157911 
L 257.618658 125.301298 
L 259.605059 122.947182 
L 261.492757 121.044928 
L 263.29409 119.536413 
L 263.614875 119.430508 
L 265.16945 119.088725 
L 266.699349 118.977701 
L 268.229248 119.089822 
L 269.771485 119.42831 
L 271.338398 120.003642 
L 272.942325 120.833733 
L 274.274818 121.75278 
L 276.693045 123.750968 
L 279.209976 126.124436 
L 281.82561 128.901509 
L 285.267883 132.595476 
L 289.203672 136.486825 
L 293.423232 140.976695 
L 294.595333 142.104582 
L 299.394774 145.741747 
L 305.279951 150.221969 
L 310.165758 152.671532 
L 315.471053 155.336972 
L 320.184129 156.613717 
L 325.896575 158.181221 
L 330.547962 158.52543 
L 336.161705 158.963739 
L 340.82543 158.121613 
L 345.550844 157.04216 
L 347.031391 156.212111 
L 351.991226 153.260679 
L 356.001042 150.647276 
L 364.946017 141.902719 
L 366.85839 139.853701 
L 371.275357 134.762298 
L 375.383877 130.359399 
L 378.073538 127.747845 
L 380.578131 125.638711 
L 382.984021 123.897775 
L 385.315883 122.480511 
L 386.981499 121.689077 
L 389.140631 121.193213 
L 391.275087 120.930079 
L 393.397205 120.891353 
L 395.531661 121.075666 
L 397.456373 121.455116 
L 400.207724 122.31963 
L 403.033102 123.443159 
L 405.932508 124.837385 
L 415.395674 129.90575 
L 419.035353 131.961665 
L 424.254283 134.698928 
L 429.041387 137.192798 
L 436.888289 140.528395 
L 438.763649 141.231364 
L 449.337226 143.887957 
L 458.64 144.730069 
L 458.64 144.730069 
" clip-path="url(#pa9e9feedf7)" style="fill: none; stroke: #1f77b4; stroke-opacity: 0.75; stroke-width: 1.5; stroke-linecap: square"/>
   </g>
   <g id="line2d_30">
    <defs>
     <path id="m6fc12b9066" d="M 0 2 
C 0.530406 2 1.03916 1.789267 1.414214 1.414214 
C 1.789267 1.03916 2 0.530406 2 0 
C 2 -0.530406 1.789267 -1.03916 1.414214 -1.414214 
C 1.03916 -1.789267 0.530406 -2 0 -2 
C -0.530406 -2 -1.03916 -1.789267 -1.414214 -1.414214 
C -1.789267 -1.03916 -2 -0.530406 -2 0 
C -2 0.530406 -1.789267 1.03916 -1.414214 1.414214 
C -1.03916 1.789267 -0.530406 2 0 2 
z
" style="stroke: #1f77b4; stroke-opacity: 0.75"/>
    </defs>
    <g clip-path="url(#pa9e9feedf7)">
     <use xlink:href="#m6fc12b9066" x="211.906752" y="171.968113" style="fill: #1f77b4; fill-opacity: 0.75; stroke: #1f77b4; stroke-opacity: 0.75"/>
    </g>
   </g>
   <g id="line2d_31">
    <path d="M 37.44 147.232298 
L 45.553515 146.598973 
L 52.79461 145.06947 
L 60.018256 142.540137 
L 67.241902 138.916497 
L 74.465547 134.068078 
L 81.689193 127.817682 
L 88.930288 119.909012 
L 96.18883 110.03526 
L 103.48227 97.826834 
L 110.915297 82.811329 
L 120.058269 61.514088 
L 125.327692 49.137522 
L 132.115127 36.049664 
L 139.26898 31.686079 
L 146.579868 42.271314 
L 154.326966 67.446657 
L 162.178755 97.187994 
L 168.791706 119.718943 
L 175.963007 138.609009 
L 183.204101 152.109717 
L 190.462644 161.139488 
L 197.756084 166.786254 
L 205.032075 169.816252 
L 212.239876 170.694026 
L 222.319937 168.625579 
L 228.316154 164.678207 
L 232.609742 161.637809 
L 238.001403 154.70906 
L 242.874872 148.121892 
L 247.921071 138.718018 
L 252.461417 130.715303 
L 255.26212 126.146837 
L 257.322548 123.243163 
L 259.271936 120.870183 
L 261.134958 118.945099 
L 262.899277 117.433197 
L 263.565524 117.058293 
L 265.083085 116.794794 
L 266.588308 116.758769 
L 268.093532 116.946663 
L 269.611093 117.362275 
L 271.15333 118.016799 
L 272.744918 118.937086 
L 274.163777 120.001698 
L 276.619018 122.214299 
L 279.172962 124.81931 
L 281.837948 127.859268 
L 285.144504 131.659034 
L 289.203672 135.900894 
L 293.595963 140.818227 
L 294.582995 141.79125 
L 299.542829 145.727129 
L 305.193585 150.220786 
L 310.190433 152.823186 
L 315.434039 155.554103 
L 320.221143 156.900364 
L 325.847224 158.499654 
L 330.572638 158.865459 
L 336.124691 159.316098 
L 340.850105 158.461424 
L 345.563182 157.386337 
L 350.535354 154.505261 
L 355.828311 151.178061 
L 356.765991 150.28141 
L 366.266171 141.008069 
L 370.547421 136.101391 
L 374.5449 131.852826 
L 377.555346 128.939867 
L 380.022926 126.896419 
L 382.40414 125.209889 
L 384.698988 123.853069 
L 386.759417 122.87729 
L 388.893873 122.467958 
L 391.015991 122.285838 
L 393.138109 122.326836 
L 395.260227 122.589878 
L 397.283642 123.058422 
L 400.059669 124.031239 
L 402.922061 125.272509 
L 405.870818 126.796289 
L 416.567774 132.894115 
L 418.541837 134.026096 
L 423.834795 136.85102 
L 429.090739 139.647419 
L 437.184399 143.1353 
L 438.751311 143.710353 
L 449.300213 146.383623 
L 458.64 147.232298 
L 458.64 147.232298 
" clip-path="url(#pa9e9feedf7)" style="fill: none; stroke: #ff7f0e; stroke-opacity: 0.75; stroke-width: 1.5; stroke-linecap: square"/>
   </g>
   <g id="line2d_32">
    <defs>
     <path id="m8b99c057e5" d="M 0 2 
C 0.530406 2 1.03916 1.789267 1.414214 1.414214 
C 1.789267 1.03916 2 0.530406 2 0 
C 2 -0.530406 1.789267 -1.03916 1.414214 -1.414214 
C 1.03916 -1.789267 0.530406 -2 0 -2 
C -0.530406 -2 -1.03916 -1.789267 -1.414214 -1.414214 
C -1.789267 -1.03916 -2 -0.530406 -2 0 
C -2 0.530406 -1.789267 1.03916 -1.414214 1.414214 
C -1.03916 1.789267 -0.530406 2 0 2 
z
" style="stroke: #ff7f0e; stroke-opacity: 0.75"/>
    </defs>
    <g clip-path="url(#pa9e9feedf7)">
     <use xlink:href="#m8b99c057e5" x="211.906752" y="170.758736" style="fill: #ff7f0e; fill-opacity: 0.75; stroke: #ff7f0e; stroke-opacity: 0.75"/>
    </g>
   </g>
   <g id="line2d_33">
    <path d="M 37.44 148.750069 
L 45.553515 148.121334 
L 52.79461 146.602189 
L 60.018256 144.087642 
L 67.241902 140.48006 
L 74.465547 135.643652 
L 81.689193 129.392719 
L 88.912839 121.480858 
L 96.171382 111.538117 
L 103.447373 99.212735 
L 110.862952 83.942588 
L 119.360332 63.549512 
L 125.414934 48.636259 
L 132.132576 34.696515 
L 139.216634 29.15009 
L 139.26898 29.219582 
L 146.579868 39.109674 
L 154.274621 64.146388 
L 162.2311 94.833543 
L 168.791706 117.699847 
L 175.963007 137.039612 
L 183.204101 150.851943 
L 190.462644 160.080978 
L 197.738635 165.839638 
L 205.032075 168.939635 
L 212.227538 169.837626 
L 222.319937 167.725013 
L 228.266803 163.7299 
L 232.609742 160.591645 
L 237.976727 153.546031 
L 242.874872 146.782394 
L 247.859382 137.295611 
L 252.350376 129.214495 
L 255.101727 124.636714 
L 257.13748 121.708891 
L 259.07453 119.304191 
L 260.912876 117.368399 
L 262.664857 115.839717 
L 263.516172 115.307479 
L 265.009058 115.09069 
L 266.489605 115.098609 
L 267.970153 115.327946 
L 269.475376 115.787503 
L 271.017613 116.494492 
L 272.609202 117.474023 
L 274.065073 118.620763 
L 276.54499 120.974274 
L 279.135949 123.743972 
L 281.850286 126.97698 
L 285.070477 130.834729 
L 289.240686 135.343191 
L 293.781031 140.585883 
L 294.570657 141.35667 
L 299.678546 145.523175 
L 305.144234 149.979582 
L 310.239785 152.693412 
L 315.409363 155.440655 
L 320.270494 156.837741 
L 325.822548 158.445344 
L 330.597314 158.825083 
L 336.112353 159.279636 
L 340.899457 158.414915 
L 345.57552 157.350485 
L 350.646395 154.422495 
L 355.852987 151.164299 
L 366.266171 141.123641 
L 370.424042 136.438466 
L 374.31048 132.387827 
L 377.345602 129.511673 
L 379.776168 127.556992 
L 382.120368 125.951403 
L 384.390541 124.661256 
L 386.599024 123.658908 
L 387.265271 123.512922 
L 389.399727 123.238584 
L 391.521845 123.188983 
L 393.656301 123.36232 
L 395.803095 123.761238 
L 397.76482 124.342328 
L 400.602536 125.456995 
L 403.526618 126.847149 
L 406.549402 128.533328 
L 409.041657 129.896497 
L 413.051474 132.182249 
L 417.308048 134.868325 
L 418.406121 135.460733 
L 423.822457 138.373481 
L 429.053725 141.173491 
L 437.381805 144.761571 
L 438.751311 145.247482 
L 449.287875 147.906071 
L 458.64 148.750069 
L 458.64 148.750069 
" clip-path="url(#pa9e9feedf7)" style="fill: none; stroke: #2ca02c; stroke-opacity: 0.75; stroke-width: 1.5; stroke-linecap: square"/>
   </g>
   <g id="line2d_34">
    <defs>
     <path id="mafe3584f1f" d="M 0 2 
C 0.530406 2 1.03916 1.789267 1.414214 1.414214 
C 1.789267 1.03916 2 0.530406 2 0 
C 2 -0.530406 1.789267 -1.03916 1.414214 -1.414214 
C 1.03916 -1.789267 0.530406 -2 0 -2 
C -0.530406 -2 -1.03916 -1.789267 -1.414214 -1.414214 
C -1.789267 -1.03916 -2 -0.530406 -2 0 
C -2 0.530406 -1.789267 1.03916 -1.414214 1.414214 
C -1.03916 1.789267 -0.530406 2 0 2 
z
" style="stroke: #2ca02c; stroke-opacity: 0.75"/>
    </defs>
    <g clip-path="url(#pa9e9feedf7)">
     <use xlink:href="#mafe3584f1f" x="211.906752" y="169.901199" style="fill: #2ca02c; fill-opacity: 0.75; stroke: #2ca02c; stroke-opacity: 0.75"/>
    </g>
   </g>
   <g id="line2d_35">
    <path d="M 37.44 149.217551 
L 45.553515 148.590319 
L 52.79461 147.074604 
L 60.018256 144.565081 
L 67.241902 140.963258 
L 74.465547 136.131865 
L 81.689193 129.882806 
L 88.912839 121.965853 
L 96.153934 112.033876 
L 103.447373 99.637286 
L 110.845503 84.323594 
L 119.203297 64.099562 
L 125.449831 48.507544 
L 132.132576 34.335049 
L 139.216634 28.436072 
L 139.26898 28.503879 
L 146.562419 38.105669 
L 154.257172 63.132059 
L 162.265997 94.178366 
L 168.791706 117.078086 
L 175.963007 136.557382 
L 183.204101 150.467071 
L 190.462644 159.758574 
L 197.738635 165.554742 
L 205.032075 168.674367 
L 212.227538 169.577961 
L 222.319937 167.451942 
L 228.242127 163.447936 
L 232.609742 160.271632 
L 237.964389 153.194217 
L 242.874872 146.366648 
L 247.847044 136.838005 
L 252.3257 128.724079 
L 255.052375 124.156889 
L 257.07579 121.225559 
L 259.000502 118.817559 
L 260.826511 116.878372 
L 262.566154 115.345846 
L 263.503834 114.741993 
L 264.99672 114.538636 
L 266.477267 114.56145 
L 267.957815 114.80722 
L 269.463038 115.285023 
L 271.005275 116.012283 
L 272.596864 117.014367 
L 274.065073 118.193565 
L 276.557328 120.600154 
L 279.160624 123.427375 
L 281.8873 126.722396 
L 285.033463 130.540462 
L 289.240686 135.136135 
L 293.830383 140.485827 
L 294.570657 141.204134 
L 299.727897 145.447446 
L 305.131896 149.886882 
L 310.264461 152.639978 
L 315.397026 155.385801 
L 320.282832 156.799417 
L 325.81021 158.410235 
L 330.609651 158.795208 
L 336.100015 159.251796 
L 340.911795 158.383475 
L 345.57552 157.324233 
L 350.671071 154.386507 
L 355.865325 151.139932 
L 366.315523 141.091038 
L 370.424042 136.491687 
L 374.285804 132.496774 
L 377.308588 129.656868 
L 379.739154 127.725207 
L 382.083354 126.142685 
L 384.353527 124.875637 
L 386.549673 123.901205 
L 387.252933 123.746374 
L 389.387389 123.49625 
L 391.509507 123.4702 
L 393.643963 123.666655 
L 395.790757 124.088203 
L 397.777158 124.696511 
L 400.627212 125.841583 
L 403.563632 127.263058 
L 406.598754 128.981318 
L 408.942954 130.274273 
L 412.977446 132.585772 
L 417.258696 135.298405 
L 418.406121 135.925801 
L 423.859471 138.867061 
L 429.029049 141.639503 
L 437.431156 145.258263 
L 438.751311 145.721763 
L 449.287875 148.375552 
L 458.64 149.217551 
L 458.64 149.217551 
" clip-path="url(#pa9e9feedf7)" style="fill: none; stroke: #d62728; stroke-opacity: 0.75; stroke-width: 1.5; stroke-linecap: square"/>
   </g>
   <g id="line2d_36">
    <defs>
     <path id="m158a3c3305" d="M 0 2 
C 0.530406 2 1.03916 1.789267 1.414214 1.414214 
C 1.789267 1.03916 2 0.530406 2 0 
C 2 -0.530406 1.789267 -1.03916 1.414214 -1.414214 
C 1.03916 -1.789267 0.530406 -2 0 -2 
C -0.530406 -2 -1.03916 -1.789267 -1.414214 -1.414214 
C -1.789267 -1.03916 -2 -0.530406 -2 0 
C -2 0.530406 -1.789267 1.03916 -1.414214 1.414214 
C -1.03916 1.789267 -0.530406 2 0 2 
z
" style="stroke: #d62728; stroke-opacity: 0.75"/>
    </defs>
    <g clip-path="url(#pa9e9feedf7)">
     <use xlink:href="#m158a3c3305" x="211.906752" y="169.64193" style="fill: #d62728; fill-opacity: 0.75; stroke: #d62728; stroke-opacity: 0.75"/>
    </g>
   </g>
   <g id="line2d_37">
    <path d="M 37.44 198.807989 
L 47.525187 198.50197 
L 54.661591 197.971782 
L 61.728201 197.153025 
L 68.759914 196.022344 
L 75.791627 194.54079 
L 82.805892 192.667034 
L 89.855054 190.324916 
L 96.956561 187.426836 
L 104.180207 183.848395 
L 111.717924 179.41054 
L 126.583978 169.846524 
L 132.254715 166.996619 
L 139.391119 166.157496 
L 146.719455 169.545843 
L 154.623589 177.102975 
L 162.527724 185.706164 
L 168.983639 192.002773 
L 176.172388 197.430922 
L 183.518173 201.347736 
L 190.9512 203.971543 
L 198.436572 205.590413 
L 205.921944 206.424535 
L 213.041839 206.599592 
L 222.94917 205.923447 
L 232.597404 204.005684 
L 240.974836 200.830691 
L 243.442415 199.748053 
L 250.21592 196.125389 
L 255.410174 193.577384 
L 258.395945 192.38133 
L 261.320027 191.446869 
L 263.627213 190.917905 
L 266.415578 190.790662 
L 269.203942 190.88607 
L 272.004645 191.205314 
L 274.595603 191.716382 
L 278.593081 192.779355 
L 282.689263 194.099656 
L 285.786075 195.066676 
L 292.140091 197.023972 
L 295.360282 197.955067 
L 303.626673 199.91189 
L 305.514371 200.267909 
L 314.249601 201.643236 
L 315.890541 201.809075 
L 324.539407 202.577418 
L 326.27905 202.64222 
L 334.853888 202.894952 
L 336.531842 202.854877 
L 345.069666 202.333171 
L 346.735282 202.099039 
L 355.371809 200.52268 
L 357.049763 200.082642 
L 367.240865 197.027074 
L 373.755274 194.844258 
L 378.678095 193.405116 
L 382.663235 192.491282 
L 386.574348 191.82128 
L 388.301654 191.687461 
L 392.175753 191.561018 
L 396.062191 191.656725 
L 399.640181 191.958302 
L 404.674042 192.597077 
L 414.544359 194.178137 
L 423.328941 195.629857 
L 431.31156 196.819152 
L 440.947457 197.927056 
L 450.620367 198.589126 
L 458.64 198.807989 
L 458.64 198.807989 
" clip-path="url(#pa9e9feedf7)" style="fill: none; stroke-dasharray: 5.55,2.4; stroke-dashoffset: 0; stroke: #1f77b4; stroke-opacity: 0.75; stroke-width: 1.5"/>
   </g>
   <g id="line2d_38">
    <defs>
     <path id="mc9a4cc4937" d="M -2 2 
L 2 2 
L 2 -2 
L -2 -2 
z
" style="stroke: #1f77b4; stroke-opacity: 0.75; stroke-linejoin: miter"/>
    </defs>
    <g clip-path="url(#pa9e9feedf7)">
     <use xlink:href="#mc9a4cc4937" x="211.906752" y="206.664174" style="fill: #1f77b4; fill-opacity: 0.75; stroke: #1f77b4; stroke-opacity: 0.75; stroke-linejoin: miter"/>
    </g>
   </g>
   <g id="line2d_39">
    <path d="M 37.44 186.160265 
L 46.460833 185.768276 
L 53.632134 184.97942 
L 60.785986 183.712144 
L 67.904941 181.931337 
L 75.023897 179.569442 
L 82.160301 176.534009 
L 89.296705 172.720745 
L 96.468005 167.966322 
L 103.709099 162.075067 
L 111.159575 154.772483 
L 120.721309 143.997538 
L 125.449831 138.68172 
L 132.167473 132.478443 
L 139.321325 130.451701 
L 146.632213 135.643596 
L 154.414208 147.912389 
L 162.283446 162.303842 
L 168.844052 173.080862 
L 176.032801 182.198577 
L 183.308792 188.715906 
L 190.654577 193.083473 
L 198.035259 195.793313 
L 205.433389 197.223768 
L 212.597675 197.587176 
L 222.603708 196.536017 
L 230.944126 193.8501 
L 232.881176 193.088414 
L 239.630005 188.86878 
L 243.146306 186.478974 
L 248.883427 181.346997 
L 253.978978 177.079719 
L 256.471233 175.255229 
L 258.877123 173.765038 
L 261.221323 172.571774 
L 263.368117 171.718005 
L 265.527249 171.542131 
L 267.686381 171.589346 
L 269.845513 171.858955 
L 272.02932 172.357153 
L 274.089749 173.049842 
L 277.297602 174.460388 
L 280.59182 176.153655 
L 288.006896 180.112665 
L 293.43557 183.012485 
L 294.829753 183.662247 
L 301.479879 186.244558 
L 305.255275 187.652858 
L 312.213848 189.434563 
L 315.557418 190.228197 
L 322.404951 191.194671 
L 325.945927 191.637929 
L 332.744108 191.928709 
L 336.211056 192.023102 
L 342.984561 191.394152 
L 346.143063 190.939588 
L 353.039947 188.955623 
L 356.445206 187.807354 
L 366.660984 182.946706 
L 371.916928 180.076845 
L 376.704032 177.709319 
L 379.911885 176.387488 
L 383.058048 175.329816 
L 386.142522 174.526168 
L 387.647745 174.304816 
L 390.695206 174.1198 
L 393.742666 174.157353 
L 396.802464 174.417432 
L 399.615505 174.870736 
L 403.612983 175.713643 
L 409.831283 177.312577 
L 415.296971 178.843659 
L 420.022385 180.147287 
L 427.597853 182.178519 
L 429.20178 182.515601 
L 440.552644 184.688309 
L 449.830742 185.773067 
L 458.64 186.160265 
L 458.64 186.160265 
" clip-path="url(#pa9e9feedf7)" style="fill: none; stroke-dasharray: 5.55,2.4; stroke-dashoffset: 0; stroke: #ff7f0e; stroke-opacity: 0.75; stroke-width: 1.5"/>
   </g>
   <g id="line2d_40">
    <defs>
     <path id="m002a17722d" d="M -2 2 
L 2 2 
L 2 -2 
L -2 -2 
z
" style="stroke: #ff7f0e; stroke-opacity: 0.75; stroke-linejoin: miter"/>
    </defs>
    <g clip-path="url(#pa9e9feedf7)">
     <use xlink:href="#m002a17722d" x="211.906752" y="197.652019" style="fill: #ff7f0e; fill-opacity: 0.75; stroke: #ff7f0e; stroke-opacity: 0.75; stroke-linejoin: miter"/>
    </g>
   </g>
   <g id="line2d_41">
    <path d="M 37.44 173.139443 
L 45.972277 172.661052 
L 53.178475 171.606532 
L 60.367224 169.884929 
L 67.538525 167.437811 
L 74.709825 164.170618 
L 81.881126 159.959833 
L 89.069875 154.626321 
L 96.276073 147.952804 
L 103.552064 139.623655 
L 110.950194 129.339196 
L 119.517368 115.470956 
L 125.484728 105.58666 
L 132.150024 96.278419 
L 139.286428 92.600238 
L 146.597316 99.264677 
L 154.292069 116.114839 
L 162.283446 136.846459 
L 168.809155 152.147792 
L 175.980456 165.162723 
L 183.238998 174.475263 
L 190.532438 180.70191 
L 197.860774 184.581455 
L 205.206559 186.651263 
L 212.38793 187.218729 
L 222.455654 185.760284 
L 229.525268 182.54387 
L 232.733121 180.917003 
L 238.704663 175.625994 
L 242.998251 171.576974 
L 248.229519 164.900365 
L 252.954933 159.222335 
L 255.43485 156.509672 
L 257.618658 154.457491 
L 259.7161 152.786547 
L 261.727177 151.462777 
L 263.405131 150.598992 
L 265.218802 150.428936 
L 267.020135 150.482042 
L 268.833805 150.758335 
L 270.672152 151.265829 
L 272.535174 152.012993 
L 274.237804 152.924501 
L 277.07552 154.77067 
L 280.011939 156.949993 
L 283.0594 159.492032 
L 284.70034 160.78968 
L 289.351727 164.168994 
L 295.335606 168.544498 
L 301.331824 171.887895 
L 305.082544 173.923357 
L 311.128113 176.106832 
L 315.458715 177.631557 
L 321.331554 178.788765 
L 325.834886 179.647011 
L 331.646035 179.978056 
L 336.124691 180.20713 
L 341.93584 179.478804 
L 345.859291 178.80035 
L 351.855509 176.435584 
L 356.149097 174.542813 
L 366.512929 167.767783 
L 371.090289 164.32036 
L 375.383877 161.360992 
L 378.135228 159.688002 
L 380.886578 158.286354 
L 383.563902 157.16866 
L 386.191874 156.310883 
L 387.400988 156.0855 
L 389.991946 155.895057 
L 392.582904 155.927776 
L 395.1862 156.18391 
L 397.653779 156.644374 
L 401.059039 157.560044 
L 404.563001 158.734726 
L 413.384597 162.100103 
L 421.10812 165.136269 
L 430.645314 168.480262 
L 439.701329 170.946464 
L 449.509957 172.583828 
L 458.64 173.139443 
L 458.64 173.139443 
" clip-path="url(#pa9e9feedf7)" style="fill: none; stroke-dasharray: 5.55,2.4; stroke-dashoffset: 0; stroke: #2ca02c; stroke-opacity: 0.75; stroke-width: 1.5"/>
   </g>
   <g id="line2d_42">
    <defs>
     <path id="ma15bea83ef" d="M -2 2 
L 2 2 
L 2 -2 
L -2 -2 
z
" style="stroke: #2ca02c; stroke-opacity: 0.75; stroke-linejoin: miter"/>
    </defs>
    <g clip-path="url(#pa9e9feedf7)">
     <use xlink:href="#ma15bea83ef" x="211.906752" y="187.283043" style="fill: #2ca02c; fill-opacity: 0.75; stroke: #2ca02c; stroke-opacity: 0.75; stroke-linejoin: miter"/>
    </g>
   </g>
   <g id="line2d_43">
    <path d="M 37.44 162.859336 
L 45.745448 162.314816 
L 52.969094 161.055694 
L 60.175291 158.984203 
L 67.36404 156.028528 
L 74.570238 152.059982 
L 81.758987 146.946463 
L 88.982633 140.436672 
L 96.206279 132.292205 
L 103.48227 122.128992 
L 110.8804 109.540002 
L 119.238193 92.905617 
L 125.484728 80.077631 
L 132.150024 68.423418 
L 139.286428 63.555603 
L 146.579868 71.326303 
L 154.257172 91.687444 
L 162.300894 117.174172 
L 168.809155 135.860033 
L 175.963007 151.784792 
L 183.22155 163.212444 
L 190.497541 170.843075 
L 197.790981 175.598225 
L 205.101869 178.149613 
L 212.301565 178.871714 
L 222.381626 177.107857 
L 228.834346 173.519502 
L 232.671432 171.191077 
L 238.30985 165.074718 
L 242.924223 159.788249 
L 247.970423 151.881601 
L 252.535445 145.133559 
L 255.163416 141.563836 
L 257.248521 139.12341 
L 259.24726 137.119868 
L 261.147296 135.522342 
L 262.973305 134.271135 
L 263.5902 134.02293 
L 265.23114 133.872418 
L 266.859742 133.945591 
L 268.500682 134.242884 
L 270.166298 134.77345 
L 271.868928 135.553322 
L 273.608571 136.598455 
L 276.248881 138.662718 
L 278.987894 141.090116 
L 281.850286 143.92891 
L 285.119828 147.186192 
L 289.573809 151.202805 
L 295.175214 156.280204 
L 300.788956 160.115746 
L 305.045531 162.984108 
L 310.62226 165.447743 
L 315.421701 167.544145 
L 320.801024 168.834109 
L 325.81021 170.023327 
L 331.115505 170.383562 
L 336.100015 170.714628 
L 341.405311 169.918809 
L 345.711236 169.071949 
L 351.26329 166.431876 
L 356.01338 163.949146 
L 366.475916 155.688433 
L 370.744828 151.803474 
L 374.754644 148.449444 
L 377.641712 146.284894 
L 380.207994 144.672332 
L 382.700249 143.36665 
L 385.118477 142.347899 
L 386.969161 141.7788 
L 389.325699 141.554634 
L 391.6699 141.55414 
L 394.026438 141.775891 
L 396.407652 142.22485 
L 398.591459 142.854105 
L 401.749961 143.987131 
L 404.994827 145.38911 
L 415.210605 150.296566 
L 419.072367 152.198235 
L 425.130274 154.931505 
L 428.893332 156.577278 
L 439.911074 160.236007 
L 449.324888 162.169995 
L 458.64 162.859336 
L 458.64 162.859336 
" clip-path="url(#pa9e9feedf7)" style="fill: none; stroke-dasharray: 5.55,2.4; stroke-dashoffset: 0; stroke: #d62728; stroke-opacity: 0.75; stroke-width: 1.5"/>
   </g>
   <g id="line2d_44">
    <defs>
     <path id="m899a35cdd8" d="M -2 2 
L 2 2 
L 2 -2 
L -2 -2 
z
" style="stroke: #d62728; stroke-opacity: 0.75; stroke-linejoin: miter"/>
    </defs>
    <g clip-path="url(#pa9e9feedf7)">
     <use xlink:href="#m899a35cdd8" x="211.906752" y="178.936406" style="fill: #d62728; fill-opacity: 0.75; stroke: #d62728; stroke-opacity: 0.75; stroke-linejoin: miter"/>
    </g>
   </g>
   <g id="patch_3">
    <path d="M 37.44 223.9008 
L 37.44 8.0928 
" style="fill: none; stroke: #000000; stroke-width: 0.8; stroke-linejoin: miter; stroke-linecap: square"/>
   </g>
   <g id="patch_4">
    <path d="M 458.64 223.9008 
L 458.64 8.0928 
" style="fill: none; stroke: #000000; stroke-width: 0.8; stroke-linejoin: miter; stroke-linecap: square"/>
   </g>
   <g id="patch_5">
    <path d="M 37.44 223.9008 
L 458.64 223.9008 
" style="fill: none; stroke: #000000; stroke-width: 0.8; stroke-linejoin: miter; stroke-linecap: square"/>
   </g>
   <g id="patch_6">
    <path d="M 37.44 8.0928 
L 458.64 8.0928 
" style="fill: none; stroke: #000000; stroke-width: 0.8; stroke-linejoin: miter; stroke-linecap: square"/>
   </g>
   <g id="legend_1">
    <g id="patch_7">
     <path d="M 386.928281 75.340925 
L 453.74 75.340925 
Q 455.14 75.340925 455.14 73.940925 
L 455.14 12.9928 
Q 455.14 11.5928 453.74 11.5928 
L 386.928281 11.5928 
Q 385.528281 11.5928 385.528281 12.9928 
L 385.528281 73.940925 
Q 385.528281 75.340925 386.928281 75.340925 
z
" style="fill: #ffffff; opacity: 0.8; stroke: #cccccc; stroke-linejoin: miter"/>
    </g>
    <g id="line2d_45">
     <path d="M 388.328281 17.261706 
L 395.328281 17.261706 
L 402.328281 17.261706 
" style="fill: none; stroke: #808080; stroke-opacity: 0.75; stroke-width: 1.5; stroke-linecap: square"/>
     <defs>
      <path id="ma71a141990" d="M 0 2 
C 0.530406 2 1.03916 1.789267 1.414214 1.414214 
C 1.789267 1.03916 2 0.530406 2 0 
C 2 -0.530406 1.789267 -1.03916 1.414214 -1.414214 
C 1.03916 -1.789267 0.530406 -2 0 -2 
C -0.530406 -2 -1.03916 -1.789267 -1.414214 -1.414214 
C -1.789267 -1.03916 -2 -0.530406 -2 0 
C -2 0.530406 -1.789267 1.03916 -1.414214 1.414214 
C -1.03916 1.789267 -0.530406 2 0 2 
z
" style="stroke: #808080; stroke-opacity: 0.75"/>
     </defs>
     <g>
      <use xlink:href="#ma71a141990" x="395.328281" y="17.261706" style="fill: #808080; fill-opacity: 0.75; stroke: #808080; stroke-opacity: 0.75"/>
     </g>
    </g>
    <g id="text_15">
     <!-- DMFT+DBSE -->
     <g transform="translate(407.928281 19.711706) scale(0.07 -0.07)">
      <defs>
       <path id="DejaVuSans-44" d="M 1259 4147 
L 1259 519 
L 2022 519 
Q 2988 519 3436 956 
Q 3884 1394 3884 2338 
Q 3884 3275 3436 3711 
Q 2988 4147 2022 4147 
L 1259 4147 
z
M 628 4666 
L 1925 4666 
Q 3281 4666 3915 4102 
Q 4550 3538 4550 2338 
Q 4550 1131 3912 565 
Q 3275 0 1925 0 
L 628 0 
L 628 4666 
z
" transform="scale(0.015625)"/>
       <path id="DejaVuSans-4d" d="M 628 4666 
L 1569 4666 
L 2759 1491 
L 3956 4666 
L 4897 4666 
L 4897 0 
L 4281 0 
L 4281 4097 
L 3078 897 
L 2444 897 
L 1241 4097 
L 1241 0 
L 628 0 
L 628 4666 
z
" transform="scale(0.015625)"/>
       <path id="DejaVuSans-46" d="M 628 4666 
L 3309 4666 
L 3309 4134 
L 1259 4134 
L 1259 2759 
L 3109 2759 
L 3109 2228 
L 1259 2228 
L 1259 0 
L 628 0 
L 628 4666 
z
" transform="scale(0.015625)"/>
       <path id="DejaVuSans-54" d="M -19 4666 
L 3928 4666 
L 3928 4134 
L 2272 4134 
L 2272 0 
L 1638 0 
L 1638 4134 
L -19 4134 
L -19 4666 
z
" transform="scale(0.015625)"/>
       <path id="DejaVuSans-2b" d="M 2944 4013 
L 2944 2272 
L 4684 2272 
L 4684 1741 
L 2944 1741 
L 2944 0 
L 2419 0 
L 2419 1741 
L 678 1741 
L 678 2272 
L 2419 2272 
L 2419 4013 
L 2944 4013 
z
" transform="scale(0.015625)"/>
       <path id="DejaVuSans-42" d="M 1259 2228 
L 1259 519 
L 2272 519 
Q 2781 519 3026 730 
Q 3272 941 3272 1375 
Q 3272 1813 3026 2020 
Q 2781 2228 2272 2228 
L 1259 2228 
z
M 1259 4147 
L 1259 2741 
L 2194 2741 
Q 2656 2741 2882 2914 
Q 3109 3088 3109 3444 
Q 3109 3797 2882 3972 
Q 2656 4147 2194 4147 
L 1259 4147 
z
M 628 4666 
L 2241 4666 
Q 2963 4666 3353 4366 
Q 3744 4066 3744 3513 
Q 3744 3084 3544 2831 
Q 3344 2578 2956 2516 
Q 3422 2416 3680 2098 
Q 3938 1781 3938 1306 
Q 3938 681 3513 340 
Q 3088 0 2303 0 
L 628 0 
L 628 4666 
z
" transform="scale(0.015625)"/>
       <path id="DejaVuSans-53" d="M 3425 4513 
L 3425 3897 
Q 3066 4069 2747 4153 
Q 2428 4238 2131 4238 
Q 1616 4238 1336 4038 
Q 1056 3838 1056 3469 
Q 1056 3159 1242 3001 
Q 1428 2844 1947 2747 
L 2328 2669 
Q 3034 2534 3370 2195 
Q 3706 1856 3706 1288 
Q 3706 609 3251 259 
Q 2797 -91 1919 -91 
Q 1588 -91 1214 -16 
Q 841 59 441 206 
L 441 856 
Q 825 641 1194 531 
Q 1563 422 1919 422 
Q 2459 422 2753 634 
Q 3047 847 3047 1241 
Q 3047 1584 2836 1778 
Q 2625 1972 2144 2069 
L 1759 2144 
Q 1053 2284 737 2584 
Q 422 2884 422 3419 
Q 422 4038 858 4394 
Q 1294 4750 2059 4750 
Q 2388 4750 2728 4690 
Q 3069 4631 3425 4513 
z
" transform="scale(0.015625)"/>
       <path id="DejaVuSans-45" d="M 628 4666 
L 3578 4666 
L 3578 4134 
L 1259 4134 
L 1259 2753 
L 3481 2753 
L 3481 2222 
L 1259 2222 
L 1259 531 
L 3634 531 
L 3634 0 
L 628 0 
L 628 4666 
z
" transform="scale(0.015625)"/>
      </defs>
      <use xlink:href="#DejaVuSans-44"/>
      <use xlink:href="#DejaVuSans-4d" x="77.001953"/>
      <use xlink:href="#DejaVuSans-46" x="163.28125"/>
      <use xlink:href="#DejaVuSans-54" x="219.050781"/>
      <use xlink:href="#DejaVuSans-2b" x="280.134766"/>
      <use xlink:href="#DejaVuSans-44" x="363.923828"/>
      <use xlink:href="#DejaVuSans-42" x="440.925781"/>
      <use xlink:href="#DejaVuSans-53" x="507.779297"/>
      <use xlink:href="#DejaVuSans-45" x="571.255859"/>
     </g>
    </g>
    <g id="line2d_46">
     <path d="M 388.328281 27.536394 
L 395.328281 27.536394 
L 402.328281 27.536394 
" style="fill: none; stroke-dasharray: 5.55,2.4; stroke-dashoffset: 0; stroke: #808080; stroke-opacity: 0.75; stroke-width: 1.5"/>
     <defs>
      <path id="m9ff26fb6fd" d="M -2 2 
L 2 2 
L 2 -2 
L -2 -2 
z
" style="stroke: #808080; stroke-opacity: 0.75; stroke-linejoin: miter"/>
     </defs>
     <g>
      <use xlink:href="#m9ff26fb6fd" x="395.328281" y="27.536394" style="fill: #808080; fill-opacity: 0.75; stroke: #808080; stroke-opacity: 0.75; stroke-linejoin: miter"/>
     </g>
    </g>
    <g id="text_16">
     <!-- DMFT+BSE -->
     <g transform="translate(407.928281 29.986394) scale(0.07 -0.07)">
      <use xlink:href="#DejaVuSans-44"/>
      <use xlink:href="#DejaVuSans-4d" x="77.001953"/>
      <use xlink:href="#DejaVuSans-46" x="163.28125"/>
      <use xlink:href="#DejaVuSans-54" x="219.050781"/>
      <use xlink:href="#DejaVuSans-2b" x="280.134766"/>
      <use xlink:href="#DejaVuSans-42" x="363.923828"/>
      <use xlink:href="#DejaVuSans-53" x="430.777344"/>
      <use xlink:href="#DejaVuSans-45" x="494.253906"/>
     </g>
    </g>
    <g id="line2d_47">
     <path d="M 388.328281 37.811081 
L 395.328281 37.811081 
L 402.328281 37.811081 
" style="fill: none; stroke: #1f77b4; stroke-opacity: 0.75; stroke-width: 1.5; stroke-linecap: square"/>
    </g>
    <g id="text_17">
     <!-- $N_\nu = 5$ -->
     <g transform="translate(407.928281 40.261081) scale(0.07 -0.07)">
      <defs>
       <path id="DejaVuSans-Oblique-4e" d="M 1081 4666 
L 1931 4666 
L 3219 666 
L 4000 4666 
L 4616 4666 
L 3706 0 
L 2853 0 
L 1569 4025 
L 788 0 
L 172 0 
L 1081 4666 
z
" transform="scale(0.015625)"/>
       <path id="DejaVuSans-Oblique-3bd" d="M 959 0 
L 572 3500 
L 1191 3500 
L 1522 563 
Q 1972 950 2391 1488 
Q 2706 1891 2788 2241 
Q 2825 2406 2809 2719 
Q 2794 3091 2544 3500 
L 3125 3500 
L 3125 3500 
Q 3288 3222 3353 2834 
Q 3416 2478 3369 2234 
Q 3250 1622 2719 1075 
Q 2025 363 1572 0 
L 959 0 
z
" transform="scale(0.015625)"/>
       <path id="DejaVuSans-3d" d="M 678 2906 
L 4684 2906 
L 4684 2381 
L 678 2381 
L 678 2906 
z
M 678 1631 
L 4684 1631 
L 4684 1100 
L 678 1100 
L 678 1631 
z
" transform="scale(0.015625)"/>
       <path id="DejaVuSans-35" d="M 691 4666 
L 3169 4666 
L 3169 4134 
L 1269 4134 
L 1269 2991 
Q 1406 3038 1543 3061 
Q 1681 3084 1819 3084 
Q 2600 3084 3056 2656 
Q 3513 2228 3513 1497 
Q 3513 744 3044 326 
Q 2575 -91 1722 -91 
Q 1428 -91 1123 -41 
Q 819 9 494 109 
L 494 744 
Q 775 591 1075 516 
Q 1375 441 1709 441 
Q 2250 441 2565 725 
Q 2881 1009 2881 1497 
Q 2881 1984 2565 2268 
Q 2250 2553 1709 2553 
Q 1456 2553 1204 2497 
Q 953 2441 691 2322 
L 691 4666 
z
" transform="scale(0.015625)"/>
      </defs>
      <use xlink:href="#DejaVuSans-Oblique-4e" transform="translate(0 0.09375)"/>
      <use xlink:href="#DejaVuSans-Oblique-3bd" transform="translate(74.804688 -16.3125) scale(0.7)"/>
      <use xlink:href="#DejaVuSans-3d" transform="translate(136.123047 0.09375)"/>
      <use xlink:href="#DejaVuSans-35" transform="translate(239.394531 0.09375)"/>
     </g>
    </g>
    <g id="line2d_48">
     <path d="M 388.328281 48.085769 
L 395.328281 48.085769 
L 402.328281 48.085769 
" style="fill: none; stroke: #ff7f0e; stroke-opacity: 0.75; stroke-width: 1.5; stroke-linecap: square"/>
    </g>
    <g id="text_18">
     <!-- $N_\nu = 10$ -->
     <g transform="translate(407.928281 50.535769) scale(0.07 -0.07)">
      <use xlink:href="#DejaVuSans-Oblique-4e" transform="translate(0 0.78125)"/>
      <use xlink:href="#DejaVuSans-Oblique-3bd" transform="translate(74.804688 -15.625) scale(0.7)"/>
      <use xlink:href="#DejaVuSans-3d" transform="translate(136.123047 0.78125)"/>
      <use xlink:href="#DejaVuSans-31" transform="translate(239.394531 0.78125)"/>
      <use xlink:href="#DejaVuSans-30" transform="translate(303.017578 0.78125)"/>
     </g>
    </g>
    <g id="line2d_49">
     <path d="M 388.328281 58.360456 
L 395.328281 58.360456 
L 402.328281 58.360456 
" style="fill: none; stroke: #2ca02c; stroke-opacity: 0.75; stroke-width: 1.5; stroke-linecap: square"/>
    </g>
    <g id="text_19">
     <!-- $N_\nu = 20$ -->
     <g transform="translate(407.928281 60.810456) scale(0.07 -0.07)">
      <use xlink:href="#DejaVuSans-Oblique-4e" transform="translate(0 0.78125)"/>
      <use xlink:href="#DejaVuSans-Oblique-3bd" transform="translate(74.804688 -15.625) scale(0.7)"/>
      <use xlink:href="#DejaVuSans-3d" transform="translate(136.123047 0.78125)"/>
      <use xlink:href="#DejaVuSans-32" transform="translate(239.394531 0.78125)"/>
      <use xlink:href="#DejaVuSans-30" transform="translate(303.017578 0.78125)"/>
     </g>
    </g>
    <g id="line2d_50">
     <path d="M 388.328281 68.635144 
L 395.328281 68.635144 
L 402.328281 68.635144 
" style="fill: none; stroke: #d62728; stroke-opacity: 0.75; stroke-width: 1.5; stroke-linecap: square"/>
    </g>
    <g id="text_20">
     <!-- $N_\nu = 40$ -->
     <g transform="translate(407.928281 71.085144) scale(0.07 -0.07)">
      <use xlink:href="#DejaVuSans-Oblique-4e" transform="translate(0 0.78125)"/>
      <use xlink:href="#DejaVuSans-Oblique-3bd" transform="translate(74.804688 -15.625) scale(0.7)"/>
      <use xlink:href="#DejaVuSans-3d" transform="translate(136.123047 0.78125)"/>
      <use xlink:href="#DejaVuSans-34" transform="translate(239.394531 0.78125)"/>
      <use xlink:href="#DejaVuSans-30" transform="translate(303.017578 0.78125)"/>
     </g>
    </g>
   </g>
  </g>
  <g id="axes_2">
   <g id="patch_8">
    <path d="M 37.44 364.176 
L 458.64 364.176 
L 458.64 256.272 
L 37.44 256.272 
z
" style="fill: #ffffff"/>
   </g>
   <g id="matplotlib.axis_3">
    <g id="xtick_5">
     <g id="line2d_51">
      <path d="M 43.372394 364.176 
L 43.372394 256.272 
" clip-path="url(#p1ee4014a00)" style="fill: none; stroke: #b0b0b0; stroke-width: 0.8; stroke-linecap: square"/>
     </g>
     <g id="line2d_52">
      <g>
       <use xlink:href="#m4d3b356e7c" x="43.372394" y="364.176" style="stroke: #000000; stroke-width: 0.8"/>
      </g>
     </g>
     <g id="text_21">
      <!-- 0.00 -->
      <g transform="translate(32.239582 378.774437) scale(0.1 -0.1)">
       <defs>
        <path id="DejaVuSans-2e" d="M 684 794 
L 1344 794 
L 1344 0 
L 684 0 
L 684 794 
z
" transform="scale(0.015625)"/>
       </defs>
       <use xlink:href="#DejaVuSans-30"/>
       <use xlink:href="#DejaVuSans-2e" x="63.623047"/>
       <use xlink:href="#DejaVuSans-30" x="95.410156"/>
       <use xlink:href="#DejaVuSans-30" x="159.033203"/>
      </g>
     </g>
    </g>
    <g id="xtick_6">
     <g id="line2d_53">
      <path d="M 102.696338 364.176 
L 102.696338 256.272 
" clip-path="url(#p1ee4014a00)" style="fill: none; stroke: #b0b0b0; stroke-width: 0.8; stroke-linecap: square"/>
     </g>
     <g id="line2d_54">
      <g>
       <use xlink:href="#m4d3b356e7c" x="102.696338" y="364.176" style="stroke: #000000; stroke-width: 0.8"/>
      </g>
     </g>
     <g id="text_22">
      <!-- 0.05 -->
      <g transform="translate(91.563526 378.774437) scale(0.1 -0.1)">
       <use xlink:href="#DejaVuSans-30"/>
       <use xlink:href="#DejaVuSans-2e" x="63.623047"/>
       <use xlink:href="#DejaVuSans-30" x="95.410156"/>
       <use xlink:href="#DejaVuSans-35" x="159.033203"/>
      </g>
     </g>
    </g>
    <g id="xtick_7">
     <g id="line2d_55">
      <path d="M 162.020282 364.176 
L 162.020282 256.272 
" clip-path="url(#p1ee4014a00)" style="fill: none; stroke: #b0b0b0; stroke-width: 0.8; stroke-linecap: square"/>
     </g>
     <g id="line2d_56">
      <g>
       <use xlink:href="#m4d3b356e7c" x="162.020282" y="364.176" style="stroke: #000000; stroke-width: 0.8"/>
      </g>
     </g>
     <g id="text_23">
      <!-- 0.10 -->
      <g transform="translate(150.887469 378.774437) scale(0.1 -0.1)">
       <use xlink:href="#DejaVuSans-30"/>
       <use xlink:href="#DejaVuSans-2e" x="63.623047"/>
       <use xlink:href="#DejaVuSans-31" x="95.410156"/>
       <use xlink:href="#DejaVuSans-30" x="159.033203"/>
      </g>
     </g>
    </g>
    <g id="xtick_8">
     <g id="line2d_57">
      <path d="M 221.344225 364.176 
L 221.344225 256.272 
" clip-path="url(#p1ee4014a00)" style="fill: none; stroke: #b0b0b0; stroke-width: 0.8; stroke-linecap: square"/>
     </g>
     <g id="line2d_58">
      <g>
       <use xlink:href="#m4d3b356e7c" x="221.344225" y="364.176" style="stroke: #000000; stroke-width: 0.8"/>
      </g>
     </g>
     <g id="text_24">
      <!-- 0.15 -->
      <g transform="translate(210.211413 378.774437) scale(0.1 -0.1)">
       <use xlink:href="#DejaVuSans-30"/>
       <use xlink:href="#DejaVuSans-2e" x="63.623047"/>
       <use xlink:href="#DejaVuSans-31" x="95.410156"/>
       <use xlink:href="#DejaVuSans-35" x="159.033203"/>
      </g>
     </g>
    </g>
    <g id="xtick_9">
     <g id="line2d_59">
      <path d="M 280.668169 364.176 
L 280.668169 256.272 
" clip-path="url(#p1ee4014a00)" style="fill: none; stroke: #b0b0b0; stroke-width: 0.8; stroke-linecap: square"/>
     </g>
     <g id="line2d_60">
      <g>
       <use xlink:href="#m4d3b356e7c" x="280.668169" y="364.176" style="stroke: #000000; stroke-width: 0.8"/>
      </g>
     </g>
     <g id="text_25">
      <!-- 0.20 -->
      <g transform="translate(269.535357 378.774437) scale(0.1 -0.1)">
       <use xlink:href="#DejaVuSans-30"/>
       <use xlink:href="#DejaVuSans-2e" x="63.623047"/>
       <use xlink:href="#DejaVuSans-32" x="95.410156"/>
       <use xlink:href="#DejaVuSans-30" x="159.033203"/>
      </g>
     </g>
    </g>
    <g id="xtick_10">
     <g id="line2d_61">
      <path d="M 339.992113 364.176 
L 339.992113 256.272 
" clip-path="url(#p1ee4014a00)" style="fill: none; stroke: #b0b0b0; stroke-width: 0.8; stroke-linecap: square"/>
     </g>
     <g id="line2d_62">
      <g>
       <use xlink:href="#m4d3b356e7c" x="339.992113" y="364.176" style="stroke: #000000; stroke-width: 0.8"/>
      </g>
     </g>
     <g id="text_26">
      <!-- 0.25 -->
      <g transform="translate(328.8593 378.774437) scale(0.1 -0.1)">
       <use xlink:href="#DejaVuSans-30"/>
       <use xlink:href="#DejaVuSans-2e" x="63.623047"/>
       <use xlink:href="#DejaVuSans-32" x="95.410156"/>
       <use xlink:href="#DejaVuSans-35" x="159.033203"/>
      </g>
     </g>
    </g>
    <g id="xtick_11">
     <g id="line2d_63">
      <path d="M 399.316056 364.176 
L 399.316056 256.272 
" clip-path="url(#p1ee4014a00)" style="fill: none; stroke: #b0b0b0; stroke-width: 0.8; stroke-linecap: square"/>
     </g>
     <g id="line2d_64">
      <g>
       <use xlink:href="#m4d3b356e7c" x="399.316056" y="364.176" style="stroke: #000000; stroke-width: 0.8"/>
      </g>
     </g>
     <g id="text_27">
      <!-- 0.30 -->
      <g transform="translate(388.183244 378.774437) scale(0.1 -0.1)">
       <defs>
        <path id="DejaVuSans-33" d="M 2597 2516 
Q 3050 2419 3304 2112 
Q 3559 1806 3559 1356 
Q 3559 666 3084 287 
Q 2609 -91 1734 -91 
Q 1441 -91 1130 -33 
Q 819 25 488 141 
L 488 750 
Q 750 597 1062 519 
Q 1375 441 1716 441 
Q 2309 441 2620 675 
Q 2931 909 2931 1356 
Q 2931 1769 2642 2001 
Q 2353 2234 1838 2234 
L 1294 2234 
L 1294 2753 
L 1863 2753 
Q 2328 2753 2575 2939 
Q 2822 3125 2822 3475 
Q 2822 3834 2567 4026 
Q 2313 4219 1838 4219 
Q 1578 4219 1281 4162 
Q 984 4106 628 3988 
L 628 4550 
Q 988 4650 1302 4700 
Q 1616 4750 1894 4750 
Q 2613 4750 3031 4423 
Q 3450 4097 3450 3541 
Q 3450 3153 3228 2886 
Q 3006 2619 2597 2516 
z
" transform="scale(0.015625)"/>
       </defs>
       <use xlink:href="#DejaVuSans-30"/>
       <use xlink:href="#DejaVuSans-2e" x="63.623047"/>
       <use xlink:href="#DejaVuSans-33" x="95.410156"/>
       <use xlink:href="#DejaVuSans-30" x="159.033203"/>
      </g>
     </g>
    </g>
    <g id="xtick_12">
     <g id="line2d_65">
      <path d="M 458.64 364.176 
L 458.64 256.272 
" clip-path="url(#p1ee4014a00)" style="fill: none; stroke: #b0b0b0; stroke-width: 0.8; stroke-linecap: square"/>
     </g>
     <g id="line2d_66">
      <g>
       <use xlink:href="#m4d3b356e7c" x="458.64" y="364.176" style="stroke: #000000; stroke-width: 0.8"/>
      </g>
     </g>
     <g id="text_28">
      <!-- 0.35 -->
      <g transform="translate(447.507188 378.774437) scale(0.1 -0.1)">
       <use xlink:href="#DejaVuSans-30"/>
       <use xlink:href="#DejaVuSans-2e" x="63.623047"/>
       <use xlink:href="#DejaVuSans-33" x="95.410156"/>
       <use xlink:href="#DejaVuSans-35" x="159.033203"/>
      </g>
     </g>
    </g>
    <g id="text_29">
     <!-- $N_\nu^{-1}$ -->
     <g transform="translate(238.64 393.854125) scale(0.1 -0.1)">
      <defs>
       <path id="DejaVuSans-2212" d="M 678 2272 
L 4684 2272 
L 4684 1741 
L 678 1741 
L 678 2272 
z
" transform="scale(0.015625)"/>
      </defs>
      <use xlink:href="#DejaVuSans-Oblique-4e" transform="translate(0 0.684375)"/>
      <use xlink:href="#DejaVuSans-2212" transform="translate(81.821458 38.965625) scale(0.7)"/>
      <use xlink:href="#DejaVuSans-31" transform="translate(140.473802 38.965625) scale(0.7)"/>
      <use xlink:href="#DejaVuSans-Oblique-3bd" transform="translate(74.804688 -26.659375) scale(0.7)"/>
     </g>
    </g>
   </g>
   <g id="matplotlib.axis_4">
    <g id="ytick_10">
     <g id="line2d_67">
      <g>
       <use xlink:href="#mf5ba5d5ecf" x="37.44" y="364.176" style="stroke: #000000; stroke-width: 0.8"/>
      </g>
     </g>
     <g id="text_30">
      <!-- 0 -->
      <g transform="translate(24.0775 367.975219) scale(0.1 -0.1)">
       <use xlink:href="#DejaVuSans-30"/>
      </g>
     </g>
    </g>
    <g id="ytick_11">
     <g id="line2d_68">
      <g>
       <use xlink:href="#mf5ba5d5ecf" x="37.44" y="340.197333" style="stroke: #000000; stroke-width: 0.8"/>
      </g>
     </g>
     <g id="text_31">
      <!-- 1 -->
      <g transform="translate(24.0775 343.996552) scale(0.1 -0.1)">
       <use xlink:href="#DejaVuSans-31"/>
      </g>
     </g>
    </g>
    <g id="ytick_12">
     <g id="line2d_69">
      <g>
       <use xlink:href="#mf5ba5d5ecf" x="37.44" y="316.218667" style="stroke: #000000; stroke-width: 0.8"/>
      </g>
     </g>
     <g id="text_32">
      <!-- 2 -->
      <g transform="translate(24.0775 320.017885) scale(0.1 -0.1)">
       <use xlink:href="#DejaVuSans-32"/>
      </g>
     </g>
    </g>
    <g id="ytick_13">
     <g id="line2d_70">
      <g>
       <use xlink:href="#mf5ba5d5ecf" x="37.44" y="292.24" style="stroke: #000000; stroke-width: 0.8"/>
      </g>
     </g>
     <g id="text_33">
      <!-- 3 -->
      <g transform="translate(24.0775 296.039219) scale(0.1 -0.1)">
       <use xlink:href="#DejaVuSans-33"/>
      </g>
     </g>
    </g>
    <g id="ytick_14">
     <g id="line2d_71">
      <g>
       <use xlink:href="#mf5ba5d5ecf" x="37.44" y="268.261333" style="stroke: #000000; stroke-width: 0.8"/>
      </g>
     </g>
     <g id="text_34">
      <!-- 4 -->
      <g transform="translate(24.0775 272.060552) scale(0.1 -0.1)">
       <use xlink:href="#DejaVuSans-34"/>
      </g>
     </g>
    </g>
    <g id="text_35">
     <!-- $\chi_{S_z S_z}(\mathbf{q}_X)$ -->
     <g transform="translate(17.2775 330.624) rotate(-90) scale(0.1 -0.1)">
      <use xlink:href="#DejaVuSans-Oblique-3c7" transform="translate(0 0.125)"/>
      <use xlink:href="#DejaVuSans-Oblique-53" transform="translate(59.179688 -16.28125) scale(0.7)"/>
      <use xlink:href="#DejaVuSans-Oblique-7a" transform="translate(103.613281 -27.765625) scale(0.49)"/>
      <use xlink:href="#DejaVuSans-Oblique-53" transform="translate(131.247559 -16.28125) scale(0.7)"/>
      <use xlink:href="#DejaVuSans-Oblique-7a" transform="translate(175.681152 -27.765625) scale(0.49)"/>
      <use xlink:href="#DejaVuSans-28" transform="translate(206.049805 0.125)"/>
      <use xlink:href="#DejaVuSans-Bold-71" transform="translate(245.063477 0.125)"/>
      <use xlink:href="#DejaVuSans-Oblique-58" transform="translate(317.602539 -16.28125) scale(0.7)"/>
      <use xlink:href="#DejaVuSans-29" transform="translate(368.291016 0.125)"/>
     </g>
    </g>
   </g>
   <g id="line2d_72">
    <path d="M 43.372394 267.633804 
L 76.591721 267.751072 
L 93.873944 268.045828 
L 108.357951 268.511731 
L 121.292233 269.147199 
L 122.470986 269.216926 
L 122.470986 269.216926 
" clip-path="url(#p1ee4014a00)" style="fill: none; stroke: #808080; stroke-opacity: 0.75; stroke-linecap: square"/>
   </g>
   <g id="line2d_73">
    <g clip-path="url(#p1ee4014a00)">
     <use xlink:href="#ma71a141990" x="438.865352" y="272.09638" style="fill: #808080; fill-opacity: 0.75; stroke: #808080; stroke-opacity: 0.75"/>
    </g>
   </g>
   <g id="line2d_74">
    <g clip-path="url(#p1ee4014a00)">
     <use xlink:href="#ma71a141990" x="339.992113" y="272.208786" style="fill: #808080; fill-opacity: 0.75; stroke: #808080; stroke-opacity: 0.75"/>
    </g>
   </g>
   <g id="line2d_75">
    <g clip-path="url(#p1ee4014a00)">
     <use xlink:href="#ma71a141990" x="241.118873" y="271.366705" style="fill: #808080; fill-opacity: 0.75; stroke: #808080; stroke-opacity: 0.75"/>
    </g>
   </g>
   <g id="line2d_76">
    <g clip-path="url(#p1ee4014a00)">
     <use xlink:href="#ma71a141990" x="212.869376" y="270.881" style="fill: #808080; fill-opacity: 0.75; stroke: #808080; stroke-opacity: 0.75"/>
    </g>
   </g>
   <g id="line2d_77">
    <g clip-path="url(#p1ee4014a00)">
     <use xlink:href="#ma71a141990" x="191.682254" y="270.420262" style="fill: #808080; fill-opacity: 0.75; stroke: #808080; stroke-opacity: 0.75"/>
    </g>
   </g>
   <g id="line2d_78">
    <g clip-path="url(#p1ee4014a00)">
     <use xlink:href="#ma71a141990" x="175.20338" y="270.030601" style="fill: #808080; fill-opacity: 0.75; stroke: #808080; stroke-opacity: 0.75"/>
    </g>
   </g>
   <g id="line2d_79">
    <g clip-path="url(#p1ee4014a00)">
     <use xlink:href="#ma71a141990" x="151.23411" y="269.410424" style="fill: #808080; fill-opacity: 0.75; stroke: #808080; stroke-opacity: 0.75"/>
    </g>
   </g>
   <g id="line2d_80">
    <g clip-path="url(#p1ee4014a00)">
     <use xlink:href="#ma71a141990" x="142.245634" y="269.160713" style="fill: #808080; fill-opacity: 0.75; stroke: #808080; stroke-opacity: 0.75"/>
    </g>
   </g>
   <g id="line2d_81">
    <g clip-path="url(#p1ee4014a00)">
     <use xlink:href="#ma71a141990" x="122.470986" y="268.636714" style="fill: #808080; fill-opacity: 0.75; stroke: #808080; stroke-opacity: 0.75"/>
    </g>
   </g>
   <g id="line2d_82">
    <g clip-path="url(#p1ee4014a00)">
     <use xlink:href="#ma71a141990" x="113.165269" y="268.40635" style="fill: #808080; fill-opacity: 0.75; stroke: #808080; stroke-opacity: 0.75"/>
    </g>
   </g>
   <g id="line2d_83">
    <g clip-path="url(#p1ee4014a00)">
     <use xlink:href="#ma71a141990" x="97.303252" y="268.06625" style="fill: #808080; fill-opacity: 0.75; stroke: #808080; stroke-opacity: 0.75"/>
    </g>
   </g>
   <g id="line2d_84">
    <g clip-path="url(#p1ee4014a00)">
     <use xlink:href="#ma71a141990" x="90.831549" y="267.94655" style="fill: #808080; fill-opacity: 0.75; stroke: #808080; stroke-opacity: 0.75"/>
    </g>
   </g>
   <g id="line2d_85">
    <g clip-path="url(#p1ee4014a00)">
     <use xlink:href="#ma71a141990" x="82.92169" y="267.830851" style="fill: #808080; fill-opacity: 0.75; stroke: #808080; stroke-opacity: 0.75"/>
    </g>
   </g>
   <g id="line2d_86">
    <g clip-path="url(#p1ee4014a00)">
     <use xlink:href="#ma71a141990" x="77.271791" y="267.760768" style="fill: #808080; fill-opacity: 0.75; stroke: #808080; stroke-opacity: 0.75"/>
    </g>
   </g>
   <g id="line2d_87"/>
   <g id="line2d_88">
    <path d="M 43.372394 266.862022 
L 122.470986 313.226163 
L 122.470986 313.226163 
" clip-path="url(#p1ee4014a00)" style="fill: none; stroke-dasharray: 3.7,1.6; stroke-dashoffset: 0; stroke: #808080; stroke-opacity: 0.75"/>
   </g>
   <g id="line2d_89">
    <path d="M 43.372394 266.249008 
L 51.290171 271.490671 
L 59.207948 276.466185 
L 67.046547 281.129772 
L 74.805969 285.489338 
L 82.56539 289.593294 
L 90.245634 293.403662 
L 97.8467 296.928187 
L 105.447766 300.207428 
L 112.969654 303.211046 
L 120.491542 305.974464 
L 122.470986 306.661757 
L 122.470986 306.661757 
" clip-path="url(#p1ee4014a00)" style="fill: none; stroke-dasharray: 1,1.65; stroke-dashoffset: 0; stroke: #808080; stroke-opacity: 0.75"/>
   </g>
   <g id="line2d_90">
    <g clip-path="url(#p1ee4014a00)">
     <use xlink:href="#m9ff26fb6fd" x="438.865352" y="341.01355" style="fill: #808080; fill-opacity: 0.75; stroke: #808080; stroke-opacity: 0.75; stroke-linejoin: miter"/>
    </g>
   </g>
   <g id="line2d_91">
    <g clip-path="url(#p1ee4014a00)">
     <use xlink:href="#m9ff26fb6fd" x="339.992113" y="337.297377" style="fill: #808080; fill-opacity: 0.75; stroke: #808080; stroke-opacity: 0.75; stroke-linejoin: miter"/>
    </g>
   </g>
   <g id="line2d_92">
    <g clip-path="url(#p1ee4014a00)">
     <use xlink:href="#m9ff26fb6fd" x="241.118873" y="329.922705" style="fill: #808080; fill-opacity: 0.75; stroke: #808080; stroke-opacity: 0.75; stroke-linejoin: miter"/>
    </g>
   </g>
   <g id="line2d_93">
    <g clip-path="url(#p1ee4014a00)">
     <use xlink:href="#m9ff26fb6fd" x="212.869376" y="326.460078" style="fill: #808080; fill-opacity: 0.75; stroke: #808080; stroke-opacity: 0.75; stroke-linejoin: miter"/>
    </g>
   </g>
   <g id="line2d_94">
    <g clip-path="url(#p1ee4014a00)">
     <use xlink:href="#m9ff26fb6fd" x="191.682254" y="323.21994" style="fill: #808080; fill-opacity: 0.75; stroke: #808080; stroke-opacity: 0.75; stroke-linejoin: miter"/>
    </g>
   </g>
   <g id="line2d_95">
    <g clip-path="url(#p1ee4014a00)">
     <use xlink:href="#m9ff26fb6fd" x="175.20338" y="320.280063" style="fill: #808080; fill-opacity: 0.75; stroke: #808080; stroke-opacity: 0.75; stroke-linejoin: miter"/>
    </g>
   </g>
   <g id="line2d_96">
    <g clip-path="url(#p1ee4014a00)">
     <use xlink:href="#m9ff26fb6fd" x="151.23411" y="314.927189" style="fill: #808080; fill-opacity: 0.75; stroke: #808080; stroke-opacity: 0.75; stroke-linejoin: miter"/>
    </g>
   </g>
   <g id="line2d_97">
    <g clip-path="url(#p1ee4014a00)">
     <use xlink:href="#m9ff26fb6fd" x="142.245634" y="312.549679" style="fill: #808080; fill-opacity: 0.75; stroke: #808080; stroke-opacity: 0.75; stroke-linejoin: miter"/>
    </g>
   </g>
   <g id="line2d_98">
    <g clip-path="url(#p1ee4014a00)">
     <use xlink:href="#m9ff26fb6fd" x="122.470986" y="306.428662" style="fill: #808080; fill-opacity: 0.75; stroke: #808080; stroke-opacity: 0.75; stroke-linejoin: miter"/>
    </g>
   </g>
   <g id="line2d_99">
    <g clip-path="url(#p1ee4014a00)">
     <use xlink:href="#m9ff26fb6fd" x="113.165269" y="303.108797" style="fill: #808080; fill-opacity: 0.75; stroke: #808080; stroke-opacity: 0.75; stroke-linejoin: miter"/>
    </g>
   </g>
   <g id="line2d_100">
    <g clip-path="url(#p1ee4014a00)">
     <use xlink:href="#m9ff26fb6fd" x="97.303252" y="296.852723" style="fill: #808080; fill-opacity: 0.75; stroke: #808080; stroke-opacity: 0.75; stroke-linejoin: miter"/>
    </g>
   </g>
   <g id="line2d_101">
    <g clip-path="url(#p1ee4014a00)">
     <use xlink:href="#m9ff26fb6fd" x="90.831549" y="293.894729" style="fill: #808080; fill-opacity: 0.75; stroke: #808080; stroke-opacity: 0.75; stroke-linejoin: miter"/>
    </g>
   </g>
   <g id="line2d_102">
    <g clip-path="url(#p1ee4014a00)">
     <use xlink:href="#m9ff26fb6fd" x="82.92169" y="290.037136" style="fill: #808080; fill-opacity: 0.75; stroke: #808080; stroke-opacity: 0.75; stroke-linejoin: miter"/>
    </g>
   </g>
   <g id="line2d_103">
    <g clip-path="url(#p1ee4014a00)">
     <use xlink:href="#m9ff26fb6fd" x="77.271791" y="286.748601" style="fill: #808080; fill-opacity: 0.75; stroke: #808080; stroke-opacity: 0.75; stroke-linejoin: miter"/>
    </g>
   </g>
   <g id="line2d_104"/>
   <g id="patch_9">
    <path d="M 37.44 364.176 
L 37.44 256.272 
" style="fill: none; stroke: #000000; stroke-width: 0.8; stroke-linejoin: miter; stroke-linecap: square"/>
   </g>
   <g id="patch_10">
    <path d="M 458.64 364.176 
L 458.64 256.272 
" style="fill: none; stroke: #000000; stroke-width: 0.8; stroke-linejoin: miter; stroke-linecap: square"/>
   </g>
   <g id="patch_11">
    <path d="M 37.44 364.176 
L 458.64 364.176 
" style="fill: none; stroke: #000000; stroke-width: 0.8; stroke-linejoin: miter; stroke-linecap: square"/>
   </g>
   <g id="patch_12">
    <path d="M 37.44 256.272 
L 458.64 256.272 
" style="fill: none; stroke: #000000; stroke-width: 0.8; stroke-linejoin: miter; stroke-linecap: square"/>
   </g>
   <g id="line2d_105">
    <g clip-path="url(#p1ee4014a00)">
     <use xlink:href="#m6fc12b9066" x="280.668169" y="271.851222" style="fill: #1f77b4; fill-opacity: 0.75; stroke: #1f77b4; stroke-opacity: 0.75"/>
    </g>
   </g>
   <g id="line2d_106">
    <g clip-path="url(#p1ee4014a00)">
     <use xlink:href="#m8b99c057e5" x="162.020282" y="269.701219" style="fill: #ff7f0e; fill-opacity: 0.75; stroke: #ff7f0e; stroke-opacity: 0.75"/>
    </g>
   </g>
   <g id="line2d_107">
    <g clip-path="url(#p1ee4014a00)">
     <use xlink:href="#mafe3584f1f" x="102.696338" y="268.176709" style="fill: #2ca02c; fill-opacity: 0.75; stroke: #2ca02c; stroke-opacity: 0.75"/>
    </g>
   </g>
   <g id="line2d_108">
    <g clip-path="url(#p1ee4014a00)">
     <use xlink:href="#m158a3c3305" x="73.034366" y="267.715787" style="fill: #d62728; fill-opacity: 0.75; stroke: #d62728; stroke-opacity: 0.75"/>
    </g>
   </g>
   <g id="line2d_109">
    <g clip-path="url(#p1ee4014a00)">
     <use xlink:href="#mc9a4cc4937" x="280.668169" y="333.533109" style="fill: #1f77b4; fill-opacity: 0.75; stroke: #1f77b4; stroke-opacity: 0.75; stroke-linejoin: miter"/>
    </g>
   </g>
   <g id="line2d_110">
    <g clip-path="url(#p1ee4014a00)">
     <use xlink:href="#m002a17722d" x="162.020282" y="317.5115" style="fill: #ff7f0e; fill-opacity: 0.75; stroke: #ff7f0e; stroke-opacity: 0.75; stroke-linejoin: miter"/>
    </g>
   </g>
   <g id="line2d_111">
    <g clip-path="url(#p1ee4014a00)">
     <use xlink:href="#ma15bea83ef" x="102.696338" y="299.077766" style="fill: #2ca02c; fill-opacity: 0.75; stroke: #2ca02c; stroke-opacity: 0.75; stroke-linejoin: miter"/>
    </g>
   </g>
   <g id="line2d_112">
    <g clip-path="url(#p1ee4014a00)">
     <use xlink:href="#m899a35cdd8" x="73.034366" y="284.239299" style="fill: #d62728; fill-opacity: 0.75; stroke: #d62728; stroke-opacity: 0.75; stroke-linejoin: miter"/>
    </g>
   </g>
  </g>
 </g>
 <defs>
  <clipPath id="pa9e9feedf7">
   <rect x="37.44" y="8.0928" width="421.2" height="215.808"/>
  </clipPath>
  <clipPath id="p1ee4014a00">
   <rect x="37.44" y="256.272" width="421.2" height="107.904"/>
  </clipPath>
 </defs>
</svg>
