<?xml version="1.0" encoding="utf-8" standalone="no"?>
<!DOCTYPE svg PUBLIC "-//W3C//DTD SVG 1.1//EN"
  "http://www.w3.org/Graphics/SVG/1.1/DTD/svg11.dtd">
<svg xmlns:xlink="http://www.w3.org/1999/xlink" width="468pt" height="216pt" viewBox="0 0 468 216" xmlns="http://www.w3.org/2000/svg" version="1.1">
 <metadata>
  <rdf:RDF xmlns:dc="http://purl.org/dc/elements/1.1/" xmlns:cc="http://creativecommons.org/ns#" xmlns:rdf="http://www.w3.org/1999/02/22-rdf-syntax-ns#">
   <cc:Work>
    <dc:type rdf:resource="http://purl.org/dc/dcmitype/StillImage"/>
    <dc:date>2026-07-14T13:10:54.178481</dc:date>
    <dc:format>image/svg+xml</dc:format>
    <dc:creator>
     <cc:Agent>
      <dc:title>Matplotlib v3.9.1, https://matplotlib.org/</dc:title>
     </cc:Agent>
    </dc:creator>
   </cc:Work>
  </rdf:RDF>
 </metadata>
 <defs>
  <style type="text/css">*{stroke-linejoin: round; stroke-linecap: butt}</style>
 </defs>
 <g id="figure_1">
  <g id="patch_1">
   <path d="M 0 216 
L 468 216 
L 468 0 
L 0 0 
z
" style="fill: #ffffff"/>
  </g>
  <g id="axes_1">
   <g id="patch_2">
    <path d="M 56.9 172.312 
L 225.405 172.312 
L 225.405 32.562 
L 56.9 32.562 
z
" style="fill: #ffffff"/>
   </g>
   <g id="matplotlib.axis_1">
    <g id="xtick_1">
     <g id="line2d_1">
      <path d="M 64.559318 172.312 
L 64.559318 32.562 
" clip-path="url(#pea3d4ec1dd)" style="fill: none; stroke: #b0b0b0; stroke-width: 0.8; stroke-linecap: square"/>
     </g>
     <g id="line2d_2">
      <defs>
       <path id="mce45857f47" d="M 0 0 
L 0 3.5 
" style="stroke: #000000; stroke-width: 0.8"/>
      </defs>
      <g>
       <use xlink:href="#mce45857f47" x="64.559318" y="172.312" style="stroke: #000000; stroke-width: 0.8"/>
      </g>
     </g>
     <g id="text_1">
      <!-- $\Gamma$ -->
      <g transform="translate(61.759318 186.910438) scale(0.1 -0.1)">
       <defs>
        <path id="DejaVuSans-393" d="M 628 0 
L 628 4666 
L 3531 4666 
L 3531 4134 
L 1259 4134 
L 1259 0 
L 628 0 
z
" transform="scale(0.015625)"/>
       </defs>
       <use xlink:href="#DejaVuSans-393" transform="translate(0 0.09375)"/>
      </g>
     </g>
    </g>
    <g id="xtick_2">
     <g id="line2d_3">
      <path d="M 128.011188 172.312 
L 128.011188 32.562 
" clip-path="url(#pea3d4ec1dd)" style="fill: none; stroke: #b0b0b0; stroke-width: 0.8; stroke-linecap: square"/>
     </g>
     <g id="line2d_4">
      <g>
       <use xlink:href="#mce45857f47" x="128.011188" y="172.312" style="stroke: #000000; stroke-width: 0.8"/>
      </g>
     </g>
     <g id="text_2">
      <!-- $M$ -->
      <g transform="translate(123.661188 186.910438) scale(0.1 -0.1)">
       <defs>
        <path id="DejaVuSans-Oblique-4d" d="M 1081 4666 
L 2028 4666 
L 2572 1522 
L 4378 4666 
L 5350 4666 
L 4441 0 
L 3828 0 
L 4622 4091 
L 2791 897 
L 2175 897 
L 1581 4103 
L 788 0 
L 172 0 
L 1081 4666 
z
" transform="scale(0.015625)"/>
       </defs>
       <use xlink:href="#DejaVuSans-Oblique-4d" transform="translate(0 0.09375)"/>
      </g>
     </g>
    </g>
    <g id="xtick_3">
     <g id="line2d_5">
      <path d="M 172.878435 172.312 
L 172.878435 32.562 
" clip-path="url(#pea3d4ec1dd)" style="fill: none; stroke: #b0b0b0; stroke-width: 0.8; stroke-linecap: square"/>
     </g>
     <g id="line2d_6">
      <g>
       <use xlink:href="#mce45857f47" x="172.878435" y="172.312" style="stroke: #000000; stroke-width: 0.8"/>
      </g>
     </g>
     <g id="text_3">
      <!-- $X$ -->
      <g transform="translate(169.428435 186.910438) scale(0.1 -0.1)">
       <defs>
        <path id="DejaVuSans-Oblique-58" d="M 878 4666 
L 1516 4666 
L 2316 2981 
L 3763 4666 
L 4500 4666 
L 2578 2438 
L 3738 0 
L 3103 0 
L 2163 1966 
L 459 0 
L -275 0 
L 1906 2509 
L 878 4666 
z
" transform="scale(0.015625)"/>
       </defs>
       <use xlink:href="#DejaVuSans-Oblique-58" transform="translate(0 0.09375)"/>
      </g>
     </g>
    </g>
    <g id="xtick_4">
     <g id="line2d_7">
      <path d="M 217.745682 172.312 
L 217.745682 32.562 
" clip-path="url(#pea3d4ec1dd)" style="fill: none; stroke: #b0b0b0; stroke-width: 0.8; stroke-linecap: square"/>
     </g>
     <g id="line2d_8">
      <g>
       <use xlink:href="#mce45857f47" x="217.745682" y="172.312" style="stroke: #000000; stroke-width: 0.8"/>
      </g>
     </g>
     <g id="text_4">
      <!-- $\Gamma$ -->
      <g transform="translate(214.945682 186.910438) scale(0.1 -0.1)">
       <use xlink:href="#DejaVuSans-393" transform="translate(0 0.09375)"/>
      </g>
     </g>
    </g>
   </g>
   <g id="matplotlib.axis_2">
    <g id="ytick_1">
     <g id="line2d_9">
      <path d="M 56.9 160.22221 
L 225.405 160.22221 
" clip-path="url(#pea3d4ec1dd)" style="fill: none; stroke: #b0b0b0; stroke-width: 0.8; stroke-linecap: square"/>
     </g>
     <g id="line2d_10">
      <defs>
       <path id="m3839ddbbde" d="M 0 0 
L -3.5 0 
" style="stroke: #000000; stroke-width: 0.8"/>
      </defs>
      <g>
       <use xlink:href="#m3839ddbbde" x="56.9" y="160.22221" style="stroke: #000000; stroke-width: 0.8"/>
      </g>
     </g>
     <g id="text_5">
      <!-- 0.15 -->
      <g transform="translate(27.634375 164.021428) scale(0.1 -0.1)">
       <defs>
        <path id="DejaVuSans-30" d="M 2034 4250 
Q 1547 4250 1301 3770 
Q 1056 3291 1056 2328 
Q 1056 1369 1301 889 
Q 1547 409 2034 409 
Q 2525 409 2770 889 
Q 3016 1369 3016 2328 
Q 3016 3291 2770 3770 
Q 2525 4250 2034 4250 
z
M 2034 4750 
Q 2819 4750 3233 4129 
Q 3647 3509 3647 2328 
Q 3647 1150 3233 529 
Q 2819 -91 2034 -91 
Q 1250 -91 836 529 
Q 422 1150 422 2328 
Q 422 3509 836 4129 
Q 1250 4750 2034 4750 
z
" transform="scale(0.015625)"/>
        <path id="DejaVuSans-2e" d="M 684 794 
L 1344 794 
L 1344 0 
L 684 0 
L 684 794 
z
" transform="scale(0.015625)"/>
        <path id="DejaVuSans-31" d="M 794 531 
L 1825 531 
L 1825 4091 
L 703 3866 
L 703 4441 
L 1819 4666 
L 2450 4666 
L 2450 531 
L 3481 531 
L 3481 0 
L 794 0 
L 794 531 
z
" transform="scale(0.015625)"/>
        <path id="DejaVuSans-35" d="M 691 4666 
L 3169 4666 
L 3169 4134 
L 1269 4134 
L 1269 2991 
Q 1406 3038 1543 3061 
Q 1681 3084 1819 3084 
Q 2600 3084 3056 2656 
Q 3513 2228 3513 1497 
Q 3513 744 3044 326 
Q 2575 -91 1722 -91 
Q 1428 -91 1123 -41 
Q 819 9 494 109 
L 494 744 
Q 775 591 1075 516 
Q 1375 441 1709 441 
Q 2250 441 2565 725 
Q 2881 1009 2881 1497 
Q 2881 1984 2565 2268 
Q 2250 2553 1709 2553 
Q 1456 2553 1204 2497 
Q 953 2441 691 2322 
L 691 4666 
z
" transform="scale(0.015625)"/>
       </defs>
       <use xlink:href="#DejaVuSans-30"/>
       <use xlink:href="#DejaVuSans-2e" x="63.623047"/>
       <use xlink:href="#DejaVuSans-31" x="95.410156"/>
       <use xlink:href="#DejaVuSans-35" x="159.033203"/>
      </g>
     </g>
    </g>
    <g id="ytick_2">
     <g id="line2d_11">
      <path d="M 56.9 134.33443 
L 225.405 134.33443 
" clip-path="url(#pea3d4ec1dd)" style="fill: none; stroke: #b0b0b0; stroke-width: 0.8; stroke-linecap: square"/>
     </g>
     <g id="line2d_12">
      <g>
       <use xlink:href="#m3839ddbbde" x="56.9" y="134.33443" style="stroke: #000000; stroke-width: 0.8"/>
      </g>
     </g>
     <g id="text_6">
      <!-- 0.20 -->
      <g transform="translate(27.634375 138.133649) scale(0.1 -0.1)">
       <defs>
        <path id="DejaVuSans-32" d="M 1228 531 
L 3431 531 
L 3431 0 
L 469 0 
L 469 531 
Q 828 903 1448 1529 
Q 2069 2156 2228 2338 
Q 2531 2678 2651 2914 
Q 2772 3150 2772 3378 
Q 2772 3750 2511 3984 
Q 2250 4219 1831 4219 
Q 1534 4219 1204 4116 
Q 875 4013 500 3803 
L 500 4441 
Q 881 4594 1212 4672 
Q 1544 4750 1819 4750 
Q 2544 4750 2975 4387 
Q 3406 4025 3406 3419 
Q 3406 3131 3298 2873 
Q 3191 2616 2906 2266 
Q 2828 2175 2409 1742 
Q 1991 1309 1228 531 
z
" transform="scale(0.015625)"/>
       </defs>
       <use xlink:href="#DejaVuSans-30"/>
       <use xlink:href="#DejaVuSans-2e" x="63.623047"/>
       <use xlink:href="#DejaVuSans-32" x="95.410156"/>
       <use xlink:href="#DejaVuSans-30" x="159.033203"/>
      </g>
     </g>
    </g>
    <g id="ytick_3">
     <g id="line2d_13">
      <path d="M 56.9 108.446651 
L 225.405 108.446651 
" clip-path="url(#pea3d4ec1dd)" style="fill: none; stroke: #b0b0b0; stroke-width: 0.8; stroke-linecap: square"/>
     </g>
     <g id="line2d_14">
      <g>
       <use xlink:href="#m3839ddbbde" x="56.9" y="108.446651" style="stroke: #000000; stroke-width: 0.8"/>
      </g>
     </g>
     <g id="text_7">
      <!-- 0.25 -->
      <g transform="translate(27.634375 112.24587) scale(0.1 -0.1)">
       <use xlink:href="#DejaVuSans-30"/>
       <use xlink:href="#DejaVuSans-2e" x="63.623047"/>
       <use xlink:href="#DejaVuSans-32" x="95.410156"/>
       <use xlink:href="#DejaVuSans-35" x="159.033203"/>
      </g>
     </g>
    </g>
    <g id="ytick_4">
     <g id="line2d_15">
      <path d="M 56.9 82.558872 
L 225.405 82.558872 
" clip-path="url(#pea3d4ec1dd)" style="fill: none; stroke: #b0b0b0; stroke-width: 0.8; stroke-linecap: square"/>
     </g>
     <g id="line2d_16">
      <g>
       <use xlink:href="#m3839ddbbde" x="56.9" y="82.558872" style="stroke: #000000; stroke-width: 0.8"/>
      </g>
     </g>
     <g id="text_8">
      <!-- 0.30 -->
      <g transform="translate(27.634375 86.358091) scale(0.1 -0.1)">
       <defs>
        <path id="DejaVuSans-33" d="M 2597 2516 
Q 3050 2419 3304 2112 
Q 3559 1806 3559 1356 
Q 3559 666 3084 287 
Q 2609 -91 1734 -91 
Q 1441 -91 1130 -33 
Q 819 25 488 141 
L 488 750 
Q 750 597 1062 519 
Q 1375 441 1716 441 
Q 2309 441 2620 675 
Q 2931 909 2931 1356 
Q 2931 1769 2642 2001 
Q 2353 2234 1838 2234 
L 1294 2234 
L 1294 2753 
L 1863 2753 
Q 2328 2753 2575 2939 
Q 2822 3125 2822 3475 
Q 2822 3834 2567 4026 
Q 2313 4219 1838 4219 
Q 1578 4219 1281 4162 
Q 984 4106 628 3988 
L 628 4550 
Q 988 4650 1302 4700 
Q 1616 4750 1894 4750 
Q 2613 4750 3031 4423 
Q 3450 4097 3450 3541 
Q 3450 3153 3228 2886 
Q 3006 2619 2597 2516 
z
" transform="scale(0.015625)"/>
       </defs>
       <use xlink:href="#DejaVuSans-30"/>
       <use xlink:href="#DejaVuSans-2e" x="63.623047"/>
       <use xlink:href="#DejaVuSans-33" x="95.410156"/>
       <use xlink:href="#DejaVuSans-30" x="159.033203"/>
      </g>
     </g>
    </g>
    <g id="ytick_5">
     <g id="line2d_17">
      <path d="M 56.9 56.671093 
L 225.405 56.671093 
" clip-path="url(#pea3d4ec1dd)" style="fill: none; stroke: #b0b0b0; stroke-width: 0.8; stroke-linecap: square"/>
     </g>
     <g id="line2d_18">
      <g>
       <use xlink:href="#m3839ddbbde" x="56.9" y="56.671093" style="stroke: #000000; stroke-width: 0.8"/>
      </g>
     </g>
     <g id="text_9">
      <!-- 0.35 -->
      <g transform="translate(27.634375 60.470312) scale(0.1 -0.1)">
       <use xlink:href="#DejaVuSans-30"/>
       <use xlink:href="#DejaVuSans-2e" x="63.623047"/>
       <use xlink:href="#DejaVuSans-33" x="95.410156"/>
       <use xlink:href="#DejaVuSans-35" x="159.033203"/>
      </g>
     </g>
    </g>
    <g id="text_10">
     <!-- $\chi(\mathbf{Q})$ -->
     <g transform="translate(21.534375 113.587) rotate(-90) scale(0.1 -0.1)">
      <defs>
       <path id="DejaVuSans-Oblique-3c7" d="M 1922 -781 
L 1691 416 
L 394 -1334 
L -284 -1334 
L 1553 1141 
L 1269 2613 
Q 1194 3006 713 3006 
L 559 3006 
L 653 3500 
L 872 3494 
Q 1675 3472 1775 2950 
L 2006 1753 
L 3303 3503 
L 3981 3503 
L 2144 1028 
L 2428 -444 
Q 2503 -838 2984 -838 
L 3138 -838 
L 3044 -1331 
L 2825 -1325 
Q 2022 -1303 1922 -781 
z
" transform="scale(0.015625)"/>
       <path id="DejaVuSans-28" d="M 1984 4856 
Q 1566 4138 1362 3434 
Q 1159 2731 1159 2009 
Q 1159 1288 1364 580 
Q 1569 -128 1984 -844 
L 1484 -844 
Q 1016 -109 783 600 
Q 550 1309 550 2009 
Q 550 2706 781 3412 
Q 1013 4119 1484 4856 
L 1984 4856 
z
" transform="scale(0.015625)"/>
       <path id="DejaVuSans-Bold-51" d="M 2847 -84 
L 2753 -84 
Q 1600 -84 959 553 
Q 319 1191 319 2328 
Q 319 3463 958 4106 
Q 1597 4750 2719 4750 
Q 3853 4750 4486 4112 
Q 5119 3475 5119 2328 
Q 5119 1541 4783 972 
Q 4447 403 3816 116 
L 4756 -934 
L 3609 -934 
L 2847 -84 
z
M 2719 3878 
Q 2169 3878 1866 3472 
Q 1563 3066 1563 2328 
Q 1563 1578 1859 1179 
Q 2156 781 2719 781 
Q 3272 781 3575 1187 
Q 3878 1594 3878 2328 
Q 3878 3066 3575 3472 
Q 3272 3878 2719 3878 
z
" transform="scale(0.015625)"/>
       <path id="DejaVuSans-29" d="M 513 4856 
L 1013 4856 
Q 1481 4119 1714 3412 
Q 1947 2706 1947 2009 
Q 1947 1309 1714 600 
Q 1481 -109 1013 -844 
L 513 -844 
Q 928 -128 1133 580 
Q 1338 1288 1338 2009 
Q 1338 2731 1133 3434 
Q 928 4138 513 4856 
z
" transform="scale(0.015625)"/>
      </defs>
      <use xlink:href="#DejaVuSans-Oblique-3c7" transform="translate(0 0.125)"/>
      <use xlink:href="#DejaVuSans-28" transform="translate(59.179688 0.125)"/>
      <use xlink:href="#DejaVuSans-Bold-51" transform="translate(98.193359 0.125)"/>
      <use xlink:href="#DejaVuSans-29" transform="translate(183.203125 0.125)"/>
     </g>
    </g>
   </g>
   <g id="line2d_19">
    <path d="M 64.559318 138.795931 
L 68.404886 137.530216 
L 72.250454 135.989294 
L 76.096022 134.173165 
L 79.94159 132.081828 
L 80.582518 131.451165 
L 82.505301 127.522999 
L 84.428085 124.094374 
L 86.350869 121.165291 
L 88.273653 118.735748 
L 89.555509 117.393576 
L 90.837365 116.273423 
L 92.119221 115.375287 
L 93.401077 114.69917 
L 94.682933 114.245072 
L 95.964789 114.012991 
L 96.605717 113.591727 
L 97.887573 112.332811 
L 99.169429 111.606412 
L 99.810357 111.442906 
L 100.451285 111.412529 
L 101.092213 111.515281 
L 101.733141 111.751162 
L 102.374069 112.120172 
L 103.655925 113.25758 
L 104.937781 114.927504 
L 106.219636 117.129945 
L 107.501492 119.864902 
L 108.783348 123.132376 
L 110.065204 126.932366 
L 111.34706 131.264872 
L 111.987988 133.630819 
L 113.269844 136.837114 
L 117.115412 145.324865 
L 120.320052 151.917794 
L 123.524692 158.07418 
L 126.729332 163.794022 
L 128.011188 165.959727 
L 128.011188 165.959727 
L 138.888096 153.175039 
L 139.3413 152.242116 
L 150.671413 99.279413 
L 161.548322 66.189367 
L 162.001526 65.599123 
L 172.878435 57.741344 
L 172.878435 57.741344 
L 188.287388 101.698579 
L 195.538661 121.666146 
L 206.415569 136.316593 
L 206.868773 136.539709 
L 217.745682 138.795931 
L 217.745682 138.795931 
" clip-path="url(#pea3d4ec1dd)" style="fill: none; stroke: #1f77b4; stroke-width: 1.5; stroke-linecap: square"/>
   </g>
   <g id="line2d_20">
    <path d="M 64.559318 137.966852 
L 68.404886 136.689076 
L 72.250454 135.133543 
L 76.096022 133.300251 
L 79.94159 131.189202 
L 80.582518 130.552623 
L 82.505301 126.587661 
L 84.428085 123.126805 
L 86.350869 120.170053 
L 88.273653 117.717406 
L 89.555509 116.362365 
L 90.837365 115.231372 
L 92.119221 114.324425 
L 93.401077 113.641524 
L 94.682933 113.18267 
L 95.964789 112.947862 
L 96.605717 112.522376 
L 97.887573 111.25112 
L 98.528501 110.817041 
L 99.169429 110.517327 
L 99.810357 110.351978 
L 100.451285 110.320995 
L 101.092213 110.424377 
L 101.733141 110.662125 
L 102.374069 111.034238 
L 103.655925 112.181561 
L 104.937781 113.866346 
L 106.219636 116.088592 
L 107.501492 118.8483 
L 108.783348 122.145471 
L 110.065204 125.980102 
L 111.34706 130.352196 
L 111.987988 132.739791 
L 113.269844 135.97571 
L 117.115412 144.542038 
L 120.320052 151.195983 
L 123.524692 157.409326 
L 126.729332 163.182069 
L 128.011188 165.367797 
L 128.011188 165.367797 
L 138.888096 152.464915 
L 139.3413 151.523364 
L 150.671413 98.070862 
L 161.548322 64.680067 
L 162.001526 64.084493 
L 172.878435 56.15638 
L 172.878435 56.15638 
L 188.287388 100.52278 
L 195.538661 120.676316 
L 206.415569 135.463841 
L 206.868773 135.689059 
L 217.745682 137.966852 
L 217.745682 137.966852 
" clip-path="url(#pea3d4ec1dd)" style="fill: none; stroke: #ff7f0e; stroke-width: 1.5; stroke-linecap: square"/>
   </g>
   <g id="line2d_21">
    <path d="M 64.559318 137.250492 
L 67.763958 136.196566 
L 71.609526 134.675289 
L 75.455094 132.874121 
L 79.300662 130.793061 
L 79.94159 130.419007 
L 80.582518 129.777461 
L 82.505301 125.781712 
L 84.428085 122.293814 
L 86.350869 119.313767 
L 88.273653 116.84157 
L 89.555509 115.475578 
L 90.837365 114.335298 
L 92.119221 113.420729 
L 93.401077 112.731872 
L 94.682933 112.268726 
L 95.964789 112.031291 
L 96.605717 111.602098 
L 97.887573 110.320177 
L 98.528501 109.882309 
L 99.169429 109.579836 
L 99.810357 109.412759 
L 100.451285 109.381077 
L 101.092213 109.48479 
L 101.733141 109.723898 
L 102.374069 110.098401 
L 103.655925 111.253593 
L 104.937781 112.950366 
L 106.219636 115.18872 
L 107.501492 117.968654 
L 108.783348 121.290169 
L 110.065204 125.153265 
L 111.34706 129.557941 
L 111.987988 131.963372 
L 113.269844 135.223901 
L 117.115412 143.855708 
L 120.320052 150.560603 
L 123.524692 156.821608 
L 126.729332 162.638724 
L 128.011188 164.841281 
L 128.011188 164.841281 
L 138.888096 151.839004 
L 139.3413 150.890237 
L 150.671413 97.029733 
L 161.548322 63.392922 
L 162.001526 62.792978 
L 172.878435 54.807028 
L 172.878435 54.807028 
L 188.287388 99.515607 
L 195.538661 119.824516 
L 206.415569 134.72732 
L 206.868773 134.954313 
L 217.745682 137.250492 
L 217.745682 137.250492 
" clip-path="url(#pea3d4ec1dd)" style="fill: none; stroke: #2ca02c; stroke-width: 1.5; stroke-linecap: square"/>
   </g>
   <g id="line2d_22">
    <path d="M 64.559318 136.634011 
L 67.763958 135.573254 
L 71.609526 134.042125 
L 75.455094 132.229303 
L 79.300662 130.134787 
L 79.94159 129.758314 
L 80.582518 129.112588 
L 82.505301 125.090664 
L 84.428085 121.579955 
L 86.350869 118.580461 
L 88.273653 116.092181 
L 89.555509 114.717336 
L 90.837365 113.569698 
L 92.119221 112.649266 
L 93.401077 111.956041 
L 94.682933 111.490022 
L 95.964789 111.25121 
L 96.605717 110.81931 
L 97.887573 109.529225 
L 98.528501 109.088605 
L 99.169429 108.784267 
L 99.810357 108.616211 
L 100.451285 108.584436 
L 101.092213 108.688943 
L 101.733141 108.929732 
L 102.374069 109.306803 
L 103.655925 110.469789 
L 104.937781 112.177903 
L 106.219636 114.431144 
L 107.501492 117.229511 
L 108.783348 120.573006 
L 110.065204 124.461627 
L 111.34706 128.895376 
L 111.987988 131.316673 
L 113.269844 134.598536 
L 117.115412 143.286639 
L 120.320052 150.035163 
L 123.524692 156.336812 
L 126.729332 162.191587 
L 128.011188 164.408372 
L 128.011188 164.408372 
L 138.888096 151.322162 
L 139.3413 150.367236 
L 150.671413 96.155574 
L 161.548322 62.295236 
L 162.001526 61.691342 
L 172.878435 53.653529 
L 172.878435 53.653529 
L 188.287388 98.653172 
L 195.538661 119.094882 
L 206.415569 134.094472 
L 206.868773 134.322938 
L 217.745682 136.634011 
L 217.745682 136.634011 
" clip-path="url(#pea3d4ec1dd)" style="fill: none; stroke: #d62728; stroke-width: 1.5; stroke-linecap: square"/>
   </g>
   <g id="line2d_23">
    <path d="M 64.559318 136.122695 
L 67.763958 135.055743 
L 71.609526 133.515706 
L 75.455094 131.692366 
L 79.300662 129.585723 
L 79.94159 129.207073 
L 80.582518 128.55765 
L 82.505301 124.512818 
L 84.428085 120.98199 
L 86.350869 117.965165 
L 88.273653 115.462343 
L 89.555509 114.079353 
L 90.837365 112.924808 
L 92.119221 111.998709 
L 93.401077 111.301057 
L 94.682933 110.83185 
L 95.964789 110.591089 
L 96.605717 110.156411 
L 97.887573 108.858302 
L 98.528501 108.414819 
L 99.169429 108.108383 
L 99.810357 107.938995 
L 100.451285 107.906655 
L 101.092213 108.011362 
L 101.733141 108.253117 
L 102.374069 108.63192 
L 103.655925 109.800667 
L 104.937781 111.517606 
L 106.219636 113.782734 
L 107.501492 116.596054 
L 108.783348 119.957563 
L 110.065204 123.867263 
L 111.34706 128.325154 
L 111.987988 130.75967 
L 113.269844 134.059822 
L 117.115412 142.796573 
L 120.320052 149.582897 
L 123.524692 155.919857 
L 126.729332 161.807453 
L 128.011188 164.036669 
L 128.011188 164.036669 
L 138.888096 150.877067 
L 139.3413 149.91679 
L 150.671413 95.401739 
L 161.548322 61.3591 
L 162.001526 60.751963 
L 172.878435 52.671154 
L 172.878435 52.671154 
L 188.287388 97.925843 
L 195.538661 118.48308 
L 206.415569 133.568313 
L 206.868773 133.798095 
L 217.745682 136.122695 
L 217.745682 136.122695 
" clip-path="url(#pea3d4ec1dd)" style="fill: none; stroke: #9467bd; stroke-width: 1.5; stroke-linecap: square"/>
   </g>
   <g id="line2d_24">
    <path d="M 64.559318 135.683729 
L 67.763958 134.611436 
L 70.968598 133.34145 
L 74.814166 131.556512 
L 78.659734 129.486896 
L 79.94159 128.733763 
L 80.582518 128.081118 
L 82.505301 124.01614 
L 84.428085 120.467713 
L 86.350869 117.435837 
L 88.273653 114.920512 
L 89.555509 113.530601 
L 90.837365 112.370269 
L 92.119221 111.439515 
L 93.401077 110.738339 
L 94.682933 110.266742 
L 95.964789 110.024722 
L 96.605717 109.587871 
L 97.887573 108.283309 
L 98.528501 107.837614 
L 99.169429 107.529644 
L 99.810357 107.359398 
L 100.451285 107.326877 
L 101.092213 107.432081 
L 101.733141 107.675008 
L 102.374069 108.05566 
L 103.655925 109.230138 
L 104.937781 110.955513 
L 106.219636 113.231786 
L 107.501492 116.058956 
L 108.783348 119.437024 
L 110.065204 123.36599 
L 111.34706 127.845854 
L 111.987988 130.292372 
L 113.269844 133.608729 
L 117.115412 142.388317 
L 120.320052 149.207888 
L 123.524692 155.575864 
L 126.729332 161.492248 
L 128.011188 163.732355 
L 128.011188 163.732355 
L 138.888096 150.508477 
L 139.3413 149.543501 
L 150.671413 94.761181 
L 161.548322 60.549836 
L 162.001526 59.939726 
L 172.878435 51.819994 
L 172.878435 51.819994 
L 188.287388 97.29756 
L 195.538661 117.95667 
L 206.415569 133.116533 
L 206.868773 133.347457 
L 217.745682 135.683729 
L 217.745682 135.683729 
" clip-path="url(#pea3d4ec1dd)" style="fill: none; stroke: #8c564b; stroke-width: 1.5; stroke-linecap: square"/>
   </g>
   <g id="line2d_25">
    <defs>
     <path id="me75929fe31" d="M -3 3 
L 3 -3 
M -3 -3 
L 3 3 
" style="stroke: #ff0000"/>
    </defs>
    <g clip-path="url(#pea3d4ec1dd)">
     <use xlink:href="#me75929fe31" x="128.011188" y="159.241883" style="fill: #ff0000; stroke: #ff0000"/>
    </g>
   </g>
   <g id="line2d_26">
    <path d="M 64.559318 128.546076 
L 67.763958 127.400963 
L 70.968598 126.044486 
L 74.173238 124.476644 
L 77.377878 122.697437 
L 79.94159 121.12189 
L 80.582518 120.424468 
L 82.505301 116.080341 
L 84.428085 112.288649 
L 86.350869 109.049392 
L 88.273653 106.36257 
L 89.555509 104.878264 
L 90.837365 103.639485 
L 92.119221 102.646232 
L 93.401077 101.898506 
L 94.682933 101.396307 
L 95.964789 101.139635 
L 96.605717 100.673715 
L 97.887573 99.281325 
L 98.528501 98.805973 
L 99.169429 98.47785 
L 99.810357 98.296956 
L 100.451285 98.263291 
L 101.092213 98.376855 
L 101.733141 98.637648 
L 102.374069 99.04567 
L 103.014997 99.600921 
L 104.296853 101.15311 
L 105.578708 103.294215 
L 106.860564 106.024235 
L 108.14242 109.343171 
L 109.424276 113.251023 
L 110.706132 117.74779 
L 112.628916 124.747345 
L 116.474484 134.250257 
L 119.679124 141.638212 
L 122.883764 148.543314 
L 126.088404 154.965562 
L 128.011188 158.587142 
L 128.011188 158.587142 
L 138.888096 144.448478 
L 139.3413 143.416757 
L 150.671413 84.845388 
L 161.548322 48.254292 
L 162.001526 47.601654 
L 172.878435 38.914273 
L 172.878435 38.914273 
L 188.287388 87.522717 
L 195.085456 108.56505 
L 195.538661 109.603976 
L 206.415569 125.804728 
L 206.868773 126.051443 
L 217.745682 128.546076 
L 217.745682 128.546076 
" clip-path="url(#pea3d4ec1dd)" style="fill: none; stroke: #000000; stroke-width: 1.5; stroke-linecap: square"/>
   </g>
   <g id="line2d_27">
    <path d="M 64.559318 128.556162 
L 67.763958 127.410536 
L 70.968598 126.053554 
L 74.173238 124.485215 
L 77.377878 122.705519 
L 79.94159 121.129585 
L 80.582518 120.432028 
L 82.505301 116.08711 
L 84.428085 112.294591 
L 86.350869 109.05447 
L 88.273653 106.366746 
L 89.555509 104.881818 
L 90.837365 103.6424 
L 92.119221 102.648492 
L 93.401077 101.900095 
L 94.682933 101.397208 
L 95.964789 101.13983 
L 96.605717 100.673536 
L 97.887573 99.280381 
L 98.528501 98.804657 
L 99.169429 98.47617 
L 99.810357 98.294919 
L 100.451285 98.260904 
L 101.092213 98.374125 
L 101.733141 98.634581 
L 102.374069 99.042274 
L 103.014997 99.597204 
L 104.296853 101.14877 
L 105.578708 103.28928 
L 106.860564 106.018735 
L 108.14242 109.337134 
L 109.424276 113.244477 
L 110.706132 117.740765 
L 112.628916 124.739807 
L 116.474484 134.24266 
L 119.679124 141.630557 
L 122.883764 148.535595 
L 126.088404 154.957772 
L 128.011188 158.579305 
L 128.011188 158.579305 
L 138.888096 144.440832 
L 139.3413 143.409122 
L 150.671413 84.838399 
L 161.548322 48.251641 
L 162.001526 47.59913 
L 172.878435 38.914349 
L 172.878435 38.914349 
L 188.287388 87.526362 
L 195.085456 108.570905 
L 195.538661 109.609964 
L 206.415569 125.813507 
L 206.868773 126.060289 
L 217.745682 128.556162 
L 217.745682 128.556162 
" clip-path="url(#pea3d4ec1dd)" style="fill: none; stroke: #000000; stroke-width: 1.5; stroke-linecap: square"/>
   </g>
   <g id="line2d_28">
    <path d="M 64.559318 128.563333 
L 67.763958 127.417344 
L 70.968598 126.060003 
L 74.173238 124.49131 
L 77.377878 122.711266 
L 79.94159 121.135057 
L 80.582518 120.437403 
L 82.505301 116.091922 
L 84.428085 112.298814 
L 86.350869 109.058077 
L 88.273653 106.369712 
L 89.555509 104.884341 
L 90.837365 103.644469 
L 92.119221 102.650096 
L 93.401077 101.901221 
L 94.682933 101.397845 
L 95.964789 101.139967 
L 96.605717 100.673406 
L 97.887573 99.279706 
L 98.528501 98.803717 
L 99.169429 98.474969 
L 99.810357 98.293462 
L 100.451285 98.259197 
L 101.092213 98.372172 
L 101.733141 98.632388 
L 102.374069 99.039846 
L 103.014997 99.594544 
L 104.296853 101.145664 
L 105.578708 103.285747 
L 106.860564 106.014795 
L 108.14242 109.332807 
L 109.424276 113.239783 
L 110.706132 117.735723 
L 112.628916 124.734392 
L 116.474484 134.237194 
L 119.679124 141.625045 
L 122.883764 148.530031 
L 126.088404 154.952153 
L 128.011188 158.573651 
L 128.011188 158.573651 
L 138.888096 144.435321 
L 139.3413 143.40362 
L 150.671413 84.833401 
L 161.548322 48.249755 
L 162.001526 47.597334 
L 172.878435 38.914395 
L 172.878435 38.914395 
L 188.287388 87.528946 
L 195.085456 108.575064 
L 195.538661 109.614217 
L 206.415569 125.819749 
L 206.868773 126.06658 
L 217.745682 128.563333 
L 217.745682 128.563333 
" clip-path="url(#pea3d4ec1dd)" style="fill: none; stroke: #000000; stroke-width: 1.5; stroke-linecap: square"/>
   </g>
   <g id="line2d_29">
    <path d="M 64.559318 128.568665 
L 67.763958 127.422403 
L 70.968598 126.064792 
L 74.173238 124.495834 
L 77.377878 122.715529 
L 79.94159 121.139114 
L 80.582518 120.441387 
L 82.505301 116.095489 
L 84.428085 112.301943 
L 86.350869 109.060749 
L 88.273653 106.371908 
L 89.555509 104.88621 
L 90.837365 103.646001 
L 92.119221 102.651283 
L 93.401077 101.902055 
L 94.682933 101.398316 
L 95.964789 101.140068 
L 96.605717 100.673311 
L 97.887573 99.279212 
L 98.528501 98.80303 
L 99.169429 98.474092 
L 99.810357 98.2924 
L 100.451285 98.257952 
L 101.092213 98.370749 
L 101.733141 98.630791 
L 102.374069 99.038077 
L 103.014997 99.592609 
L 104.296853 101.143406 
L 105.578708 103.283182 
L 106.860564 106.011937 
L 108.14242 109.329672 
L 109.424276 113.236386 
L 110.706132 117.732078 
L 112.628916 124.730484 
L 116.474484 134.233255 
L 119.679124 141.621076 
L 122.883764 148.526028 
L 126.088404 154.948112 
L 128.011188 158.569585 
L 128.011188 158.569585 
L 138.888096 144.431358 
L 139.3413 143.399663 
L 150.671413 84.829775 
L 161.548322 48.248363 
L 162.001526 47.596007 
L 172.878435 38.914424 
L 172.878435 38.914424 
L 188.287388 87.530856 
L 195.085456 108.578143 
L 195.538661 109.617365 
L 206.415569 125.824385 
L 206.868773 126.071252 
L 217.745682 128.568665 
L 217.745682 128.568665 
" clip-path="url(#pea3d4ec1dd)" style="fill: none; stroke: #000000; stroke-width: 1.5; stroke-linecap: square"/>
   </g>
   <g id="line2d_30">
    <path d="M 64.559318 128.572606 
L 67.763958 127.426143 
L 70.968598 126.068335 
L 74.173238 124.499183 
L 77.377878 122.718686 
L 79.94159 121.14212 
L 80.582518 120.44434 
L 82.505301 116.098132 
L 84.428085 112.304262 
L 86.350869 109.062731 
L 88.273653 106.373537 
L 89.555509 104.887595 
L 90.837365 103.647137 
L 92.119221 102.652163 
L 93.401077 101.902672 
L 94.682933 101.398665 
L 95.964789 101.140141 
L 96.605717 100.673238 
L 97.887573 99.278839 
L 98.528501 98.80251 
L 99.169429 98.47343 
L 99.810357 98.291596 
L 100.451285 98.257011 
L 101.092213 98.369672 
L 101.733141 98.629582 
L 102.374069 99.036738 
L 103.014997 99.591143 
L 104.296853 101.141694 
L 105.578708 103.281235 
L 106.860564 106.009766 
L 108.14242 109.327287 
L 109.424276 113.233799 
L 110.706132 117.7293 
L 112.628916 124.7275 
L 116.474484 134.230244 
L 119.679124 141.618039 
L 122.883764 148.522963 
L 126.088404 154.945016 
L 128.011188 158.566469 
L 128.011188 158.566469 
L 138.888096 144.428323 
L 139.3413 143.396633 
L 150.671413 84.827019 
L 161.548322 48.247319 
L 162.001526 47.595013 
L 172.878435 38.914442 
L 172.878435 38.914442 
L 188.287388 87.532273 
L 195.085456 108.580426 
L 195.538661 109.619701 
L 206.415569 125.827814 
L 206.868773 126.074708 
L 217.745682 128.572606 
L 217.745682 128.572606 
" clip-path="url(#pea3d4ec1dd)" style="fill: none; stroke: #000000; stroke-width: 1.5; stroke-linecap: square"/>
   </g>
   <g id="line2d_31">
    <path d="M 64.559318 128.575555 
L 67.763958 127.428941 
L 70.968598 126.070986 
L 74.173238 124.501688 
L 77.377878 122.721047 
L 79.94159 121.144369 
L 80.582518 120.446549 
L 82.505301 116.10011 
L 84.428085 112.305999 
L 86.350869 109.064214 
L 88.273653 106.374756 
L 89.555509 104.888633 
L 90.837365 103.647988 
L 92.119221 102.652822 
L 93.401077 101.903135 
L 94.682933 101.398926 
L 95.964789 101.140196 
L 96.605717 100.673183 
L 97.887573 99.278561 
L 98.528501 98.802125 
L 99.169429 98.472938 
L 99.810357 98.291 
L 100.451285 98.256313 
L 101.092213 98.368874 
L 101.733141 98.628686 
L 102.374069 99.035747 
L 103.014997 99.590058 
L 104.296853 101.140429 
L 105.578708 103.279798 
L 106.860564 106.008165 
L 108.14242 109.325532 
L 109.424276 113.231896 
L 110.706132 117.72726 
L 112.628916 124.725313 
L 116.474484 134.228042 
L 119.679124 141.615823 
L 122.883764 148.52073 
L 126.088404 154.942763 
L 128.011188 158.564204 
L 128.011188 158.564204 
L 138.888096 144.42611 
L 139.3413 143.394423 
L 150.671413 84.824982 
L 161.548322 48.246534 
L 162.001526 47.594265 
L 172.878435 38.914455 
L 172.878435 38.914455 
L 188.287388 87.533335 
L 195.085456 108.582136 
L 195.538661 109.621449 
L 206.415569 125.83038 
L 206.868773 126.077293 
L 217.745682 128.575555 
L 217.745682 128.575555 
" clip-path="url(#pea3d4ec1dd)" style="fill: none; stroke: #000000; stroke-width: 1.5; stroke-linecap: square"/>
   </g>
   <g id="line2d_32">
    <g clip-path="url(#pea3d4ec1dd)">
     <use xlink:href="#me75929fe31" x="128.011188" y="158.517327" style="fill: #ff0000; stroke: #ff0000"/>
    </g>
   </g>
   <g id="patch_3">
    <path d="M 56.9 172.312 
L 56.9 32.562 
" style="fill: none; stroke: #000000; stroke-width: 0.8; stroke-linejoin: miter; stroke-linecap: square"/>
   </g>
   <g id="patch_4">
    <path d="M 225.405 172.312 
L 225.405 32.562 
" style="fill: none; stroke: #000000; stroke-width: 0.8; stroke-linejoin: miter; stroke-linecap: square"/>
   </g>
   <g id="patch_5">
    <path d="M 56.9 172.312 
L 225.405 172.312 
" style="fill: none; stroke: #000000; stroke-width: 0.8; stroke-linejoin: miter; stroke-linecap: square"/>
   </g>
   <g id="patch_6">
    <path d="M 56.9 32.562 
L 225.405 32.562 
" style="fill: none; stroke: #000000; stroke-width: 0.8; stroke-linejoin: miter; stroke-linecap: square"/>
   </g>
   <g id="text_11">
    <!-- (0, 1, 1, 0), w=0 -->
    <g transform="translate(92.193438 26.562) scale(0.12 -0.12)">
     <defs>
      <path id="DejaVuSans-2c" d="M 750 794 
L 1409 794 
L 1409 256 
L 897 -744 
L 494 -744 
L 750 256 
L 750 794 
z
" transform="scale(0.015625)"/>
      <path id="DejaVuSans-20" transform="scale(0.015625)"/>
      <path id="DejaVuSans-77" d="M 269 3500 
L 844 3500 
L 1563 769 
L 2278 3500 
L 2956 3500 
L 3675 769 
L 4391 3500 
L 4966 3500 
L 4050 0 
L 3372 0 
L 2619 2869 
L 1863 0 
L 1184 0 
L 269 3500 
z
" transform="scale(0.015625)"/>
      <path id="DejaVuSans-3d" d="M 678 2906 
L 4684 2906 
L 4684 2381 
L 678 2381 
L 678 2906 
z
M 678 1631 
L 4684 1631 
L 4684 1100 
L 678 1100 
L 678 1631 
z
" transform="scale(0.015625)"/>
     </defs>
     <use xlink:href="#DejaVuSans-28"/>
     <use xlink:href="#DejaVuSans-30" x="39.013672"/>
     <use xlink:href="#DejaVuSans-2c" x="102.636719"/>
     <use xlink:href="#DejaVuSans-20" x="134.423828"/>
     <use xlink:href="#DejaVuSans-31" x="166.210938"/>
     <use xlink:href="#DejaVuSans-2c" x="229.833984"/>
     <use xlink:href="#DejaVuSans-20" x="261.621094"/>
     <use xlink:href="#DejaVuSans-31" x="293.408203"/>
     <use xlink:href="#DejaVuSans-2c" x="357.03125"/>
     <use xlink:href="#DejaVuSans-20" x="388.818359"/>
     <use xlink:href="#DejaVuSans-30" x="420.605469"/>
     <use xlink:href="#DejaVuSans-29" x="484.228516"/>
     <use xlink:href="#DejaVuSans-2c" x="523.242188"/>
     <use xlink:href="#DejaVuSans-20" x="555.029297"/>
     <use xlink:href="#DejaVuSans-77" x="586.816406"/>
     <use xlink:href="#DejaVuSans-3d" x="668.603516"/>
     <use xlink:href="#DejaVuSans-30" x="752.392578"/>
    </g>
   </g>
   <g id="legend_1">
    <g id="patch_7">
     <path d="M 62.5 109.417 
L 117.46 109.417 
Q 119.06 109.417 119.06 107.817 
L 119.06 38.162 
Q 119.06 36.562 117.46 36.562 
L 62.5 36.562 
Q 60.9 36.562 60.9 38.162 
L 60.9 107.817 
Q 60.9 109.417 62.5 109.417 
z
" style="fill: #ffffff; opacity: 0.8; stroke: #cccccc; stroke-linejoin: miter"/>
    </g>
    <g id="line2d_33">
     <path d="M 64.1 43.04075 
L 72.1 43.04075 
L 80.1 43.04075 
" style="fill: none; stroke: #1f77b4; stroke-width: 1.5; stroke-linecap: square"/>
    </g>
    <g id="text_12">
     <!-- $N_{\nu} = $$20$ -->
     <g transform="translate(86.5 45.84075) scale(0.08 -0.08)">
      <defs>
       <path id="DejaVuSans-Oblique-4e" d="M 1081 4666 
L 1931 4666 
L 3219 666 
L 4000 4666 
L 4616 4666 
L 3706 0 
L 2853 0 
L 1569 4025 
L 788 0 
L 172 0 
L 1081 4666 
z
" transform="scale(0.015625)"/>
       <path id="DejaVuSans-Oblique-3bd" d="M 959 0 
L 572 3500 
L 1191 3500 
L 1522 563 
Q 1972 950 2391 1488 
Q 2706 1891 2788 2241 
Q 2825 2406 2809 2719 
Q 2794 3091 2544 3500 
L 3125 3500 
L 3125 3500 
Q 3288 3222 3353 2834 
Q 3416 2478 3369 2234 
Q 3250 1622 2719 1075 
Q 2025 363 1572 0 
L 959 0 
z
" transform="scale(0.015625)"/>
      </defs>
      <use xlink:href="#DejaVuSans-Oblique-4e" transform="translate(0 0.78125)"/>
      <use xlink:href="#DejaVuSans-Oblique-3bd" transform="translate(74.804688 -15.625) scale(0.7)"/>
      <use xlink:href="#DejaVuSans-3d" transform="translate(136.123047 0.78125)"/>
      <use xlink:href="#DejaVuSans-32" transform="translate(239.394531 0.78125)"/>
      <use xlink:href="#DejaVuSans-30" transform="translate(303.017578 0.78125)"/>
     </g>
    </g>
    <g id="line2d_34">
     <path d="M 64.1 54.78325 
L 72.1 54.78325 
L 80.1 54.78325 
" style="fill: none; stroke: #ff7f0e; stroke-width: 1.5; stroke-linecap: square"/>
    </g>
    <g id="text_13">
     <!-- $N_{\nu} = $$22$ -->
     <g transform="translate(86.5 57.58325) scale(0.08 -0.08)">
      <use xlink:href="#DejaVuSans-Oblique-4e" transform="translate(0 0.78125)"/>
      <use xlink:href="#DejaVuSans-Oblique-3bd" transform="translate(74.804688 -15.625) scale(0.7)"/>
      <use xlink:href="#DejaVuSans-3d" transform="translate(136.123047 0.78125)"/>
      <use xlink:href="#DejaVuSans-32" transform="translate(239.394531 0.78125)"/>
      <use xlink:href="#DejaVuSans-32" transform="translate(303.017578 0.78125)"/>
     </g>
    </g>
    <g id="line2d_35">
     <path d="M 64.1 66.52575 
L 72.1 66.52575 
L 80.1 66.52575 
" style="fill: none; stroke: #2ca02c; stroke-width: 1.5; stroke-linecap: square"/>
    </g>
    <g id="text_14">
     <!-- $N_{\nu} = $$24$ -->
     <g transform="translate(86.5 69.32575) scale(0.08 -0.08)">
      <defs>
       <path id="DejaVuSans-34" d="M 2419 4116 
L 825 1625 
L 2419 1625 
L 2419 4116 
z
M 2253 4666 
L 3047 4666 
L 3047 1625 
L 3713 1625 
L 3713 1100 
L 3047 1100 
L 3047 0 
L 2419 0 
L 2419 1100 
L 313 1100 
L 313 1709 
L 2253 4666 
z
" transform="scale(0.015625)"/>
      </defs>
      <use xlink:href="#DejaVuSans-Oblique-4e" transform="translate(0 0.78125)"/>
      <use xlink:href="#DejaVuSans-Oblique-3bd" transform="translate(74.804688 -15.625) scale(0.7)"/>
      <use xlink:href="#DejaVuSans-3d" transform="translate(136.123047 0.78125)"/>
      <use xlink:href="#DejaVuSans-32" transform="translate(239.394531 0.78125)"/>
      <use xlink:href="#DejaVuSans-34" transform="translate(303.017578 0.78125)"/>
     </g>
    </g>
    <g id="line2d_36">
     <path d="M 64.1 78.26825 
L 72.1 78.26825 
L 80.1 78.26825 
" style="fill: none; stroke: #d62728; stroke-width: 1.5; stroke-linecap: square"/>
    </g>
    <g id="text_15">
     <!-- $N_{\nu} = $$26$ -->
     <g transform="translate(86.5 81.06825) scale(0.08 -0.08)">
      <defs>
       <path id="DejaVuSans-36" d="M 2113 2584 
Q 1688 2584 1439 2293 
Q 1191 2003 1191 1497 
Q 1191 994 1439 701 
Q 1688 409 2113 409 
Q 2538 409 2786 701 
Q 3034 994 3034 1497 
Q 3034 2003 2786 2293 
Q 2538 2584 2113 2584 
z
M 3366 4563 
L 3366 3988 
Q 3128 4100 2886 4159 
Q 2644 4219 2406 4219 
Q 1781 4219 1451 3797 
Q 1122 3375 1075 2522 
Q 1259 2794 1537 2939 
Q 1816 3084 2150 3084 
Q 2853 3084 3261 2657 
Q 3669 2231 3669 1497 
Q 3669 778 3244 343 
Q 2819 -91 2113 -91 
Q 1303 -91 875 529 
Q 447 1150 447 2328 
Q 447 3434 972 4092 
Q 1497 4750 2381 4750 
Q 2619 4750 2861 4703 
Q 3103 4656 3366 4563 
z
" transform="scale(0.015625)"/>
      </defs>
      <use xlink:href="#DejaVuSans-Oblique-4e" transform="translate(0 0.78125)"/>
      <use xlink:href="#DejaVuSans-Oblique-3bd" transform="translate(74.804688 -15.625) scale(0.7)"/>
      <use xlink:href="#DejaVuSans-3d" transform="translate(136.123047 0.78125)"/>
      <use xlink:href="#DejaVuSans-32" transform="translate(239.394531 0.78125)"/>
      <use xlink:href="#DejaVuSans-36" transform="translate(303.017578 0.78125)"/>
     </g>
    </g>
    <g id="line2d_37">
     <path d="M 64.1 90.01075 
L 72.1 90.01075 
L 80.1 90.01075 
" style="fill: none; stroke: #9467bd; stroke-width: 1.5; stroke-linecap: square"/>
    </g>
    <g id="text_16">
     <!-- $N_{\nu} = $$28$ -->
     <g transform="translate(86.5 92.81075) scale(0.08 -0.08)">
      <defs>
       <path id="DejaVuSans-38" d="M 2034 2216 
Q 1584 2216 1326 1975 
Q 1069 1734 1069 1313 
Q 1069 891 1326 650 
Q 1584 409 2034 409 
Q 2484 409 2743 651 
Q 3003 894 3003 1313 
Q 3003 1734 2745 1975 
Q 2488 2216 2034 2216 
z
M 1403 2484 
Q 997 2584 770 2862 
Q 544 3141 544 3541 
Q 544 4100 942 4425 
Q 1341 4750 2034 4750 
Q 2731 4750 3128 4425 
Q 3525 4100 3525 3541 
Q 3525 3141 3298 2862 
Q 3072 2584 2669 2484 
Q 3125 2378 3379 2068 
Q 3634 1759 3634 1313 
Q 3634 634 3220 271 
Q 2806 -91 2034 -91 
Q 1263 -91 848 271 
Q 434 634 434 1313 
Q 434 1759 690 2068 
Q 947 2378 1403 2484 
z
M 1172 3481 
Q 1172 3119 1398 2916 
Q 1625 2713 2034 2713 
Q 2441 2713 2670 2916 
Q 2900 3119 2900 3481 
Q 2900 3844 2670 4047 
Q 2441 4250 2034 4250 
Q 1625 4250 1398 4047 
Q 1172 3844 1172 3481 
z
" transform="scale(0.015625)"/>
      </defs>
      <use xlink:href="#DejaVuSans-Oblique-4e" transform="translate(0 0.78125)"/>
      <use xlink:href="#DejaVuSans-Oblique-3bd" transform="translate(74.804688 -15.625) scale(0.7)"/>
      <use xlink:href="#DejaVuSans-3d" transform="translate(136.123047 0.78125)"/>
      <use xlink:href="#DejaVuSans-32" transform="translate(239.394531 0.78125)"/>
      <use xlink:href="#DejaVuSans-38" transform="translate(303.017578 0.78125)"/>
     </g>
    </g>
    <g id="line2d_38">
     <path d="M 64.1 101.75325 
L 72.1 101.75325 
L 80.1 101.75325 
" style="fill: none; stroke: #8c564b; stroke-width: 1.5; stroke-linecap: square"/>
    </g>
    <g id="text_17">
     <!-- $N_{\nu} = $$30$ -->
     <g transform="translate(86.5 104.55325) scale(0.08 -0.08)">
      <use xlink:href="#DejaVuSans-Oblique-4e" transform="translate(0 0.78125)"/>
      <use xlink:href="#DejaVuSans-Oblique-3bd" transform="translate(74.804688 -15.625) scale(0.7)"/>
      <use xlink:href="#DejaVuSans-3d" transform="translate(136.123047 0.78125)"/>
      <use xlink:href="#DejaVuSans-33" transform="translate(239.394531 0.78125)"/>
      <use xlink:href="#DejaVuSans-30" transform="translate(303.017578 0.78125)"/>
     </g>
    </g>
   </g>
  </g>
  <g id="axes_2">
   <g id="patch_8">
    <path d="M 288.695 172.312 
L 457.2 172.312 
L 457.2 32.562 
L 288.695 32.562 
z
" style="fill: #ffffff"/>
   </g>
   <g id="line2d_39">
    <path d="M 296.354318 51.27359 
L 299.480571 53.614123 
L 302.606823 55.954657 
L 305.733075 58.29519 
L 308.859327 60.635723 
L 311.98558 62.976257 
L 315.111832 65.31679 
L 318.238084 67.657324 
L 321.364337 69.997857 
L 324.490589 72.33839 
L 327.616841 74.678924 
L 330.743094 77.019457 
L 333.869346 79.359991 
L 336.995598 81.700524 
L 340.121851 84.041058 
L 343.248103 86.381591 
L 346.374355 88.722124 
L 349.500608 91.062658 
L 352.62686 93.403191 
L 355.753112 95.743725 
L 358.879365 98.084258 
L 362.005617 100.424792 
L 365.131869 102.765325 
L 368.258122 105.105858 
L 371.384374 107.446392 
L 374.510626 109.786925 
L 377.636878 112.127459 
L 380.763131 114.467992 
L 383.889383 116.808525 
L 387.015635 119.149059 
L 390.141888 121.489592 
L 393.26814 123.830126 
L 396.394392 126.170659 
L 399.520645 128.511193 
L 402.646897 130.851726 
L 405.773149 133.192259 
L 408.899402 135.532793 
L 412.025654 137.873326 
L 415.151906 140.21386 
L 418.278159 142.554393 
L 421.404411 144.894926 
L 424.530663 147.23546 
L 427.656916 149.575993 
L 430.783168 151.916527 
L 433.90942 154.25706 
L 437.035673 156.597594 
L 440.161925 158.938127 
L 443.288177 161.27866 
L 446.414429 163.619194 
L 449.540682 165.959727 
" clip-path="url(#p313818ad61)" style="fill: none; stroke-dasharray: 3.7,1.6; stroke-dashoffset: 0; stroke: #000000"/>
   </g>
   <g id="line2d_40">
    <path d="M 296.354318 38.914273 
L 299.480571 38.938208 
L 302.606823 38.962143 
L 305.733075 38.986078 
L 308.859327 39.010013 
L 311.98558 39.033948 
L 315.111832 39.057883 
L 318.238084 39.081818 
L 321.364337 39.105754 
L 324.490589 39.129689 
L 327.616841 39.153624 
L 330.743094 39.177559 
L 333.869346 39.201494 
L 336.995598 39.225429 
L 340.121851 39.249364 
L 343.248103 39.273299 
L 346.374355 39.297234 
L 349.500608 39.32117 
L 352.62686 39.345105 
L 355.753112 39.36904 
L 358.879365 39.392975 
L 362.005617 39.41691 
L 365.131869 39.440845 
L 368.258122 39.46478 
L 371.384374 39.488715 
L 374.510626 39.51265 
L 377.636878 39.536586 
L 380.763131 39.560521 
L 383.889383 39.584456 
L 387.015635 39.608391 
L 390.141888 39.632326 
L 393.26814 39.656261 
L 396.394392 39.680196 
L 399.520645 39.704131 
L 402.646897 39.728066 
L 405.773149 39.752001 
L 408.899402 39.775937 
L 412.025654 39.799872 
L 415.151906 39.823807 
L 418.278159 39.847742 
L 421.404411 39.871677 
L 424.530663 39.895612 
L 427.656916 39.919547 
L 430.783168 39.943482 
L 433.90942 39.967417 
L 437.035673 39.991353 
L 440.161925 40.015288 
L 443.288177 40.039223 
L 446.414429 40.063158 
L 449.540682 40.087093 
" clip-path="url(#p313818ad61)" style="fill: none; stroke-dasharray: 3.7,1.6; stroke-dashoffset: 0; stroke: #000000"/>
   </g>
   <g id="matplotlib.axis_3">
    <g id="xtick_5">
     <g id="line2d_41">
      <path d="M 296.354318 172.312 
L 296.354318 32.562 
" clip-path="url(#p313818ad61)" style="fill: none; stroke: #b0b0b0; stroke-width: 0.8; stroke-linecap: square"/>
     </g>
     <g id="line2d_42">
      <g>
       <use xlink:href="#mce45857f47" x="296.354318" y="172.312" style="stroke: #000000; stroke-width: 0.8"/>
      </g>
     </g>
     <g id="text_18">
      <!-- 0.00 -->
      <g transform="translate(285.221506 186.910438) scale(0.1 -0.1)">
       <use xlink:href="#DejaVuSans-30"/>
       <use xlink:href="#DejaVuSans-2e" x="63.623047"/>
       <use xlink:href="#DejaVuSans-30" x="95.410156"/>
       <use xlink:href="#DejaVuSans-30" x="159.033203"/>
      </g>
     </g>
    </g>
    <g id="xtick_6">
     <g id="line2d_43">
      <path d="M 357.628864 172.312 
L 357.628864 32.562 
" clip-path="url(#p313818ad61)" style="fill: none; stroke: #b0b0b0; stroke-width: 0.8; stroke-linecap: square"/>
     </g>
     <g id="line2d_44">
      <g>
       <use xlink:href="#mce45857f47" x="357.628864" y="172.312" style="stroke: #000000; stroke-width: 0.8"/>
      </g>
     </g>
     <g id="text_19">
      <!-- 0.02 -->
      <g transform="translate(346.496051 186.910438) scale(0.1 -0.1)">
       <use xlink:href="#DejaVuSans-30"/>
       <use xlink:href="#DejaVuSans-2e" x="63.623047"/>
       <use xlink:href="#DejaVuSans-30" x="95.410156"/>
       <use xlink:href="#DejaVuSans-32" x="159.033203"/>
      </g>
     </g>
    </g>
    <g id="xtick_7">
     <g id="line2d_45">
      <path d="M 418.903409 172.312 
L 418.903409 32.562 
" clip-path="url(#p313818ad61)" style="fill: none; stroke: #b0b0b0; stroke-width: 0.8; stroke-linecap: square"/>
     </g>
     <g id="line2d_46">
      <g>
       <use xlink:href="#mce45857f47" x="418.903409" y="172.312" style="stroke: #000000; stroke-width: 0.8"/>
      </g>
     </g>
     <g id="text_20">
      <!-- 0.04 -->
      <g transform="translate(407.770597 186.910438) scale(0.1 -0.1)">
       <use xlink:href="#DejaVuSans-30"/>
       <use xlink:href="#DejaVuSans-2e" x="63.623047"/>
       <use xlink:href="#DejaVuSans-30" x="95.410156"/>
       <use xlink:href="#DejaVuSans-34" x="159.033203"/>
      </g>
     </g>
    </g>
    <g id="text_21">
     <!-- $1/N_\nu$ -->
     <g transform="translate(362.2475 200.588562) scale(0.1 -0.1)">
      <defs>
       <path id="DejaVuSans-2f" d="M 1625 4666 
L 2156 4666 
L 531 -594 
L 0 -594 
L 1625 4666 
z
" transform="scale(0.015625)"/>
      </defs>
      <use xlink:href="#DejaVuSans-31" transform="translate(0 0.09375)"/>
      <use xlink:href="#DejaVuSans-2f" transform="translate(63.623047 0.09375)"/>
      <use xlink:href="#DejaVuSans-Oblique-4e" transform="translate(97.314453 0.09375)"/>
      <use xlink:href="#DejaVuSans-Oblique-3bd" transform="translate(172.119141 -16.3125) scale(0.7)"/>
     </g>
    </g>
   </g>
   <g id="matplotlib.axis_4">
    <g id="ytick_6">
     <g id="line2d_47">
      <path d="M 288.695 156.313435 
L 457.2 156.313435 
" clip-path="url(#p313818ad61)" style="fill: none; stroke: #b0b0b0; stroke-width: 0.8; stroke-linecap: square"/>
     </g>
     <g id="line2d_48">
      <g>
       <use xlink:href="#m3839ddbbde" x="288.695" y="156.313435" style="stroke: #000000; stroke-width: 0.8"/>
      </g>
     </g>
     <g id="text_22">
      <!-- 0.140 -->
      <g transform="translate(253.066875 160.112653) scale(0.1 -0.1)">
       <use xlink:href="#DejaVuSans-30"/>
       <use xlink:href="#DejaVuSans-2e" x="63.623047"/>
       <use xlink:href="#DejaVuSans-31" x="95.410156"/>
       <use xlink:href="#DejaVuSans-34" x="159.033203"/>
       <use xlink:href="#DejaVuSans-30" x="222.65625"/>
      </g>
     </g>
    </g>
    <g id="ytick_7">
     <g id="line2d_49">
      <path d="M 288.695 112.154616 
L 457.2 112.154616 
" clip-path="url(#p313818ad61)" style="fill: none; stroke: #b0b0b0; stroke-width: 0.8; stroke-linecap: square"/>
     </g>
     <g id="line2d_50">
      <g>
       <use xlink:href="#m3839ddbbde" x="288.695" y="112.154616" style="stroke: #000000; stroke-width: 0.8"/>
      </g>
     </g>
     <g id="text_23">
      <!-- 0.145 -->
      <g transform="translate(253.066875 115.953835) scale(0.1 -0.1)">
       <use xlink:href="#DejaVuSans-30"/>
       <use xlink:href="#DejaVuSans-2e" x="63.623047"/>
       <use xlink:href="#DejaVuSans-31" x="95.410156"/>
       <use xlink:href="#DejaVuSans-34" x="159.033203"/>
       <use xlink:href="#DejaVuSans-35" x="222.65625"/>
      </g>
     </g>
    </g>
    <g id="ytick_8">
     <g id="line2d_51">
      <path d="M 288.695 67.995797 
L 457.2 67.995797 
" clip-path="url(#p313818ad61)" style="fill: none; stroke: #b0b0b0; stroke-width: 0.8; stroke-linecap: square"/>
     </g>
     <g id="line2d_52">
      <g>
       <use xlink:href="#m3839ddbbde" x="288.695" y="67.995797" style="stroke: #000000; stroke-width: 0.8"/>
      </g>
     </g>
     <g id="text_24">
      <!-- 0.150 -->
      <g transform="translate(253.066875 71.795016) scale(0.1 -0.1)">
       <use xlink:href="#DejaVuSans-30"/>
       <use xlink:href="#DejaVuSans-2e" x="63.623047"/>
       <use xlink:href="#DejaVuSans-31" x="95.410156"/>
       <use xlink:href="#DejaVuSans-35" x="159.033203"/>
       <use xlink:href="#DejaVuSans-30" x="222.65625"/>
      </g>
     </g>
    </g>
    <g id="text_25">
     <!-- $\chi(\mathbf{M})$ -->
     <g transform="translate(246.966875 114.287) rotate(-90) scale(0.1 -0.1)">
      <defs>
       <path id="DejaVuSans-Bold-4d" d="M 588 4666 
L 2119 4666 
L 3181 2169 
L 4250 4666 
L 5778 4666 
L 5778 0 
L 4641 0 
L 4641 3413 
L 3566 897 
L 2803 897 
L 1728 3413 
L 1728 0 
L 588 0 
L 588 4666 
z
" transform="scale(0.015625)"/>
      </defs>
      <use xlink:href="#DejaVuSans-Oblique-3c7" transform="translate(0 0.125)"/>
      <use xlink:href="#DejaVuSans-28" transform="translate(59.179688 0.125)"/>
      <use xlink:href="#DejaVuSans-Bold-4d" transform="translate(98.193359 0.125)"/>
      <use xlink:href="#DejaVuSans-29" transform="translate(197.705078 0.125)"/>
     </g>
    </g>
   </g>
   <g id="line2d_53">
    <defs>
     <path id="md132353af8" d="M 0 3 
C 0.795609 3 1.55874 2.683901 2.12132 2.12132 
C 2.683901 1.55874 3 0.795609 3 0 
C 3 -0.795609 2.683901 -1.55874 2.12132 -2.12132 
C 1.55874 -2.683901 0.795609 -3 0 -3 
C -0.795609 -3 -1.55874 -2.683901 -2.12132 -2.12132 
C -2.683901 -1.55874 -3 -0.795609 -3 0 
C -3 0.795609 -2.683901 1.55874 -2.12132 2.12132 
C -1.55874 2.683901 -0.795609 3 0 3 
z
" style="stroke: #1f77b4"/>
    </defs>
    <g clip-path="url(#p313818ad61)">
     <use xlink:href="#md132353af8" x="449.540682" y="165.865143" style="fill: #1f77b4; stroke: #1f77b4"/>
    </g>
   </g>
   <g id="line2d_54">
    <defs>
     <path id="m3e4d3a1b8a" d="M 0 3 
C 0.795609 3 1.55874 2.683901 2.12132 2.12132 
C 2.683901 1.55874 3 0.795609 3 0 
C 3 -0.795609 2.683901 -1.55874 2.12132 -2.12132 
C 1.55874 -2.683901 0.795609 -3 0 -3 
C -0.795609 -3 -1.55874 -2.683901 -2.12132 -2.12132 
C -2.683901 -1.55874 -3 -0.795609 -3 0 
C -3 0.795609 -2.683901 1.55874 -2.12132 2.12132 
C -1.55874 2.683901 -0.795609 3 0 3 
z
" style="stroke: #ff7f0e"/>
    </defs>
    <g clip-path="url(#p313818ad61)">
     <use xlink:href="#m3e4d3a1b8a" x="435.614649" y="155.768132" style="fill: #ff7f0e; stroke: #ff7f0e"/>
    </g>
   </g>
   <g id="line2d_55">
    <defs>
     <path id="m5c30372bf7" d="M 0 3 
C 0.795609 3 1.55874 2.683901 2.12132 2.12132 
C 2.683901 1.55874 3 0.795609 3 0 
C 3 -0.795609 2.683901 -1.55874 2.12132 -2.12132 
C 1.55874 -2.683901 0.795609 -3 0 -3 
C -0.795609 -3 -1.55874 -2.683901 -2.12132 -2.12132 
C -2.683901 -1.55874 -3 -0.795609 -3 0 
C -3 0.795609 -2.683901 1.55874 -2.12132 2.12132 
C -1.55874 2.683901 -0.795609 3 0 3 
z
" style="stroke: #2ca02c"/>
    </defs>
    <g clip-path="url(#p313818ad61)">
     <use xlink:href="#m5c30372bf7" x="424.009621" y="146.786929" style="fill: #2ca02c; stroke: #2ca02c"/>
    </g>
   </g>
   <g id="line2d_56">
    <defs>
     <path id="m4f57ef0bc6" d="M 0 3 
C 0.795609 3 1.55874 2.683901 2.12132 2.12132 
C 2.683901 1.55874 3 0.795609 3 0 
C 3 -0.795609 2.683901 -1.55874 2.12132 -2.12132 
C 1.55874 -2.683901 0.795609 -3 0 -3 
C -0.795609 -3 -1.55874 -2.683901 -2.12132 -2.12132 
C -2.683901 -1.55874 -3 -0.795609 -3 0 
C -3 0.795609 -2.683901 1.55874 -2.12132 2.12132 
C -1.55874 2.683901 -0.795609 3 0 3 
z
" style="stroke: #d62728"/>
    </defs>
    <g clip-path="url(#p313818ad61)">
     <use xlink:href="#m4f57ef0bc6" x="414.189983" y="139.402455" style="fill: #d62728; stroke: #d62728"/>
    </g>
   </g>
   <g id="line2d_57">
    <defs>
     <path id="m9b38847b06" d="M 0 3 
C 0.795609 3 1.55874 2.683901 2.12132 2.12132 
C 2.683901 1.55874 3 0.795609 3 0 
C 3 -0.795609 2.683901 -1.55874 2.12132 -2.12132 
C 1.55874 -2.683901 0.795609 -3 0 -3 
C -0.795609 -3 -1.55874 -2.683901 -2.12132 -2.12132 
C -2.683901 -1.55874 -3 -0.795609 -3 0 
C -3 0.795609 -2.683901 1.55874 -2.12132 2.12132 
C -1.55874 2.683901 -0.795609 3 0 3 
z
" style="stroke: #9467bd"/>
    </defs>
    <g clip-path="url(#p313818ad61)">
     <use xlink:href="#m9b38847b06" x="405.773149" y="133.062023" style="fill: #9467bd; stroke: #9467bd"/>
    </g>
   </g>
   <g id="line2d_58">
    <defs>
     <path id="m178926bee3" d="M 0 3 
C 0.795609 3 1.55874 2.683901 2.12132 2.12132 
C 2.683901 1.55874 3 0.795609 3 0 
C 3 -0.795609 2.683901 -1.55874 2.12132 -2.12132 
C 1.55874 -2.683901 0.795609 -3 0 -3 
C -0.795609 -3 -1.55874 -2.683901 -2.12132 -2.12132 
C -2.683901 -1.55874 -3 -0.795609 -3 0 
C -3 0.795609 -2.683901 1.55874 -2.12132 2.12132 
C -1.55874 2.683901 -0.795609 3 0 3 
z
" style="stroke: #8c564b"/>
    </defs>
    <g clip-path="url(#p313818ad61)">
     <use xlink:href="#m178926bee3" x="398.478561" y="127.871102" style="fill: #8c564b; stroke: #8c564b"/>
    </g>
   </g>
   <g id="line2d_59">
    <g clip-path="url(#p313818ad61)">
     <use xlink:href="#me75929fe31" x="296.354318" y="51.27359" style="fill: #ff0000; stroke: #ff0000"/>
    </g>
   </g>
   <g id="line2d_60">
    <defs>
     <path id="mff992a2db7" d="M 0 3 
C 0.795609 3 1.55874 2.683901 2.12132 2.12132 
C 2.683901 1.55874 3 0.795609 3 0 
C 3 -0.795609 2.683901 -1.55874 2.12132 -2.12132 
C 1.55874 -2.683901 0.795609 -3 0 -3 
C -0.795609 -3 -1.55874 -2.683901 -2.12132 -2.12132 
C -2.683901 -1.55874 -3 -0.795609 -3 0 
C -3 0.795609 -2.683901 1.55874 -2.12132 2.12132 
C -1.55874 2.683901 -0.795609 3 0 3 
z
" style="stroke: #000000"/>
    </defs>
    <g clip-path="url(#p313818ad61)">
     <use xlink:href="#mff992a2db7" x="449.540682" y="40.105162" style="stroke: #000000"/>
    </g>
   </g>
   <g id="line2d_61">
    <g clip-path="url(#p313818ad61)">
     <use xlink:href="#mff992a2db7" x="435.614649" y="39.971483" style="stroke: #000000"/>
    </g>
   </g>
   <g id="line2d_62">
    <g clip-path="url(#p313818ad61)">
     <use xlink:href="#mff992a2db7" x="424.009621" y="39.875033" style="stroke: #000000"/>
    </g>
   </g>
   <g id="line2d_63">
    <g clip-path="url(#p313818ad61)">
     <use xlink:href="#mff992a2db7" x="414.189983" y="39.80568" style="stroke: #000000"/>
    </g>
   </g>
   <g id="line2d_64">
    <g clip-path="url(#p313818ad61)">
     <use xlink:href="#mff992a2db7" x="405.773149" y="39.75253" style="stroke: #000000"/>
    </g>
   </g>
   <g id="line2d_65">
    <g clip-path="url(#p313818ad61)">
     <use xlink:href="#mff992a2db7" x="398.478561" y="39.713898" style="stroke: #000000"/>
    </g>
   </g>
   <g id="line2d_66">
    <g clip-path="url(#p313818ad61)">
     <use xlink:href="#me75929fe31" x="296.354318" y="38.914273" style="fill: #ff0000; stroke: #ff0000"/>
    </g>
   </g>
   <g id="patch_9">
    <path d="M 288.695 172.312 
L 288.695 32.562 
" style="fill: none; stroke: #000000; stroke-width: 0.8; stroke-linejoin: miter; stroke-linecap: square"/>
   </g>
   <g id="patch_10">
    <path d="M 457.2 172.312 
L 457.2 32.562 
" style="fill: none; stroke: #000000; stroke-width: 0.8; stroke-linejoin: miter; stroke-linecap: square"/>
   </g>
   <g id="patch_11">
    <path d="M 288.695 172.312 
L 457.2 172.312 
" style="fill: none; stroke: #000000; stroke-width: 0.8; stroke-linejoin: miter; stroke-linecap: square"/>
   </g>
   <g id="patch_12">
    <path d="M 288.695 32.562 
L 457.2 32.562 
" style="fill: none; stroke: #000000; stroke-width: 0.8; stroke-linejoin: miter; stroke-linecap: square"/>
   </g>
   <g id="text_26">
    <!-- $\lim_{n_\nu \rightarrow \infty} \, \chi(\mathbf{M}) \approx $$0.1519$ -->
    <g transform="translate(315.6475 24.162) scale(0.12 -0.12)">
     <defs>
      <path id="DejaVuSans-6c" d="M 603 4863 
L 1178 4863 
L 1178 0 
L 603 0 
L 603 4863 
z
" transform="scale(0.015625)"/>
      <path id="DejaVuSans-69" d="M 603 3500 
L 1178 3500 
L 1178 0 
L 603 0 
L 603 3500 
z
M 603 4863 
L 1178 4863 
L 1178 4134 
L 603 4134 
L 603 4863 
z
" transform="scale(0.015625)"/>
      <path id="DejaVuSans-6d" d="M 3328 2828 
Q 3544 3216 3844 3400 
Q 4144 3584 4550 3584 
Q 5097 3584 5394 3201 
Q 5691 2819 5691 2113 
L 5691 0 
L 5113 0 
L 5113 2094 
Q 5113 2597 4934 2840 
Q 4756 3084 4391 3084 
Q 3944 3084 3684 2787 
Q 3425 2491 3425 1978 
L 3425 0 
L 2847 0 
L 2847 2094 
Q 2847 2600 2669 2842 
Q 2491 3084 2119 3084 
Q 1678 3084 1418 2786 
Q 1159 2488 1159 1978 
L 1159 0 
L 581 0 
L 581 3500 
L 1159 3500 
L 1159 2956 
Q 1356 3278 1631 3431 
Q 1906 3584 2284 3584 
Q 2666 3584 2933 3390 
Q 3200 3197 3328 2828 
z
" transform="scale(0.015625)"/>
      <path id="DejaVuSans-Oblique-6e" d="M 3566 2113 
L 3156 0 
L 2578 0 
L 2988 2091 
Q 3016 2238 3031 2350 
Q 3047 2463 3047 2528 
Q 3047 2791 2881 2937 
Q 2716 3084 2419 3084 
Q 1956 3084 1622 2776 
Q 1288 2469 1184 1941 
L 800 0 
L 225 0 
L 903 3500 
L 1478 3500 
L 1363 2950 
Q 1603 3253 1940 3418 
Q 2278 3584 2650 3584 
Q 3113 3584 3367 3334 
Q 3622 3084 3622 2631 
Q 3622 2519 3608 2391 
Q 3594 2263 3566 2113 
z
" transform="scale(0.015625)"/>
      <path id="DejaVuSans-2192" d="M 5050 2147 
L 5050 1866 
L 3822 638 
L 3447 1013 
L 4175 1741 
L 366 1741 
L 366 2272 
L 4175 2272 
L 3447 3000 
L 3822 3375 
L 5050 2147 
z
" transform="scale(0.015625)"/>
      <path id="DejaVuSans-221e" d="M 2916 1091 
Q 2819 1203 2666 1466 
Q 2456 1091 2272 925 
Q 2041 725 1681 725 
Q 1259 725 981 1041 
Q 688 1372 688 1919 
Q 688 2444 981 2800 
Q 1244 3116 1688 3116 
Q 1916 3116 2084 3022 
Q 2281 2919 2416 2741 
Q 2541 2581 2666 2366 
Q 2875 2741 3059 2906 
Q 3291 3106 3650 3106 
Q 4072 3106 4350 2791 
Q 4644 2459 4644 1913 
Q 4644 1388 4350 1031 
Q 4088 716 3644 716 
Q 3416 716 3247 809 
Q 3078 894 2916 1091 
z
M 1647 1134 
Q 2163 1134 2472 1884 
Q 2075 2703 1647 2703 
Q 1334 2703 1175 2478 
Q 1003 2238 1003 1919 
Q 1003 1569 1175 1353 
Q 1350 1134 1647 1134 
z
M 3684 2697 
Q 3219 2697 2859 1947 
Q 3253 1128 3684 1128 
Q 3997 1128 4156 1353 
Q 4328 1594 4328 1913 
Q 4328 2263 4156 2478 
Q 3981 2697 3684 2697 
z
" transform="scale(0.015625)"/>
      <path id="DejaVuSans-2248" d="M 4684 1947 
L 4684 1388 
Q 4356 1144 4076 1036 
Q 3797 928 3494 928 
Q 3150 928 2694 1113 
Q 2663 1125 2641 1134 
Q 2622 1141 2575 1159 
Q 2091 1350 1797 1350 
Q 1522 1350 1253 1231 
Q 984 1113 678 850 
L 678 1409 
Q 1006 1653 1286 1761 
Q 1566 1869 1869 1869 
Q 2213 1869 2672 1684 
Q 2706 1669 2722 1663 
Q 2741 1656 2788 1638 
Q 3272 1447 3566 1447 
Q 3834 1447 4098 1564 
Q 4363 1681 4684 1947 
z
M 4684 3163 
L 4684 2606 
Q 4356 2359 4076 2251 
Q 3797 2144 3494 2144 
Q 3150 2144 2694 2328 
Q 2663 2341 2641 2350 
Q 2622 2356 2575 2375 
Q 2091 2566 1797 2566 
Q 1522 2566 1253 2447 
Q 984 2328 678 2069 
L 678 2625 
Q 1006 2869 1286 2976 
Q 1566 3084 1869 3084 
Q 2213 3084 2672 2900 
Q 2703 2888 2719 2881 
Q 2741 2872 2788 2853 
Q 3272 2663 3566 2663 
Q 3834 2663 4098 2780 
Q 4363 2897 4684 3163 
z
" transform="scale(0.015625)"/>
      <path id="DejaVuSans-39" d="M 703 97 
L 703 672 
Q 941 559 1184 500 
Q 1428 441 1663 441 
Q 2288 441 2617 861 
Q 2947 1281 2994 2138 
Q 2813 1869 2534 1725 
Q 2256 1581 1919 1581 
Q 1219 1581 811 2004 
Q 403 2428 403 3163 
Q 403 3881 828 4315 
Q 1253 4750 1959 4750 
Q 2769 4750 3195 4129 
Q 3622 3509 3622 2328 
Q 3622 1225 3098 567 
Q 2575 -91 1691 -91 
Q 1453 -91 1209 -44 
Q 966 3 703 97 
z
M 1959 2075 
Q 2384 2075 2632 2365 
Q 2881 2656 2881 3163 
Q 2881 3666 2632 3958 
Q 2384 4250 1959 4250 
Q 1534 4250 1286 3958 
Q 1038 3666 1038 3163 
Q 1038 2656 1286 2365 
Q 1534 2075 1959 2075 
z
" transform="scale(0.015625)"/>
     </defs>
     <use xlink:href="#DejaVuSans-6c" transform="translate(38 0.015625)"/>
     <use xlink:href="#DejaVuSans-69" transform="translate(65.783203 0.015625)"/>
     <use xlink:href="#DejaVuSans-6d" transform="translate(93.566406 0.015625)"/>
     <use xlink:href="#DejaVuSans-Oblique-6e" transform="translate(0 -57.934375) scale(0.7)"/>
     <use xlink:href="#DejaVuSans-Oblique-3bd" transform="translate(44.365234 -69.41875) scale(0.49)"/>
     <use xlink:href="#DejaVuSans-2192" transform="translate(98.653059 -57.934375) scale(0.7)"/>
     <use xlink:href="#DejaVuSans-221e" transform="translate(170.943098 -57.934375) scale(0.7)"/>
     <use xlink:href="#DejaVuSans-Oblique-3c7" transform="translate(245.489322 0.015625)"/>
     <use xlink:href="#DejaVuSans-28" transform="translate(304.669009 0.015625)"/>
     <use xlink:href="#DejaVuSans-Bold-4d" transform="translate(343.682681 0.015625)"/>
     <use xlink:href="#DejaVuSans-29" transform="translate(443.1944 0.015625)"/>
     <use xlink:href="#DejaVuSans-2248" transform="translate(501.690493 0.015625)"/>
     <use xlink:href="#DejaVuSans-30" transform="translate(604.961978 0.015625)"/>
     <use xlink:href="#DejaVuSans-2e" transform="translate(668.585025 0.015625)"/>
     <use xlink:href="#DejaVuSans-31" transform="translate(700.372134 0.015625)"/>
     <use xlink:href="#DejaVuSans-35" transform="translate(763.995181 0.015625)"/>
     <use xlink:href="#DejaVuSans-31" transform="translate(827.618228 0.015625)"/>
     <use xlink:href="#DejaVuSans-39" transform="translate(891.241275 0.015625)"/>
    </g>
   </g>
   <g id="legend_2">
    <g id="patch_13">
     <path d="M 294.295 168.312 
L 335.3775 168.312 
Q 336.9775 168.312 336.9775 166.712 
L 336.9775 155.7695 
Q 336.9775 154.1695 335.3775 154.1695 
L 294.295 154.1695 
Q 292.695 154.1695 292.695 155.7695 
L 292.695 166.712 
Q 292.695 168.312 294.295 168.312 
z
" style="fill: #ffffff; opacity: 0.8; stroke: #cccccc; stroke-linejoin: miter"/>
    </g>
    <g id="line2d_67">
     <g>
      <use xlink:href="#me75929fe31" x="303.895" y="160.64825" style="fill: #ff0000; stroke: #ff0000"/>
     </g>
    </g>
    <g id="text_27">
     <!-- BSE -->
     <g transform="translate(318.295 163.44825) scale(0.08 -0.08)">
      <defs>
       <path id="DejaVuSans-42" d="M 1259 2228 
L 1259 519 
L 2272 519 
Q 2781 519 3026 730 
Q 3272 941 3272 1375 
Q 3272 1813 3026 2020 
Q 2781 2228 2272 2228 
L 1259 2228 
z
M 1259 4147 
L 1259 2741 
L 2194 2741 
Q 2656 2741 2882 2914 
Q 3109 3088 3109 3444 
Q 3109 3797 2882 3972 
Q 2656 4147 2194 4147 
L 1259 4147 
z
M 628 4666 
L 2241 4666 
Q 2963 4666 3353 4366 
Q 3744 4066 3744 3513 
Q 3744 3084 3544 2831 
Q 3344 2578 2956 2516 
Q 3422 2416 3680 2098 
Q 3938 1781 3938 1306 
Q 3938 681 3513 340 
Q 3088 0 2303 0 
L 628 0 
L 628 4666 
z
" transform="scale(0.015625)"/>
       <path id="DejaVuSans-53" d="M 3425 4513 
L 3425 3897 
Q 3066 4069 2747 4153 
Q 2428 4238 2131 4238 
Q 1616 4238 1336 4038 
Q 1056 3838 1056 3469 
Q 1056 3159 1242 3001 
Q 1428 2844 1947 2747 
L 2328 2669 
Q 3034 2534 3370 2195 
Q 3706 1856 3706 1288 
Q 3706 609 3251 259 
Q 2797 -91 1919 -91 
Q 1588 -91 1214 -16 
Q 841 59 441 206 
L 441 856 
Q 825 641 1194 531 
Q 1563 422 1919 422 
Q 2459 422 2753 634 
Q 3047 847 3047 1241 
Q 3047 1584 2836 1778 
Q 2625 1972 2144 2069 
L 1759 2144 
Q 1053 2284 737 2584 
Q 422 2884 422 3419 
Q 422 4038 858 4394 
Q 1294 4750 2059 4750 
Q 2388 4750 2728 4690 
Q 3069 4631 3425 4513 
z
" transform="scale(0.015625)"/>
       <path id="DejaVuSans-45" d="M 628 4666 
L 3578 4666 
L 3578 4134 
L 1259 4134 
L 1259 2753 
L 3481 2753 
L 3481 2222 
L 1259 2222 
L 1259 531 
L 3634 531 
L 3634 0 
L 628 0 
L 628 4666 
z
" transform="scale(0.015625)"/>
      </defs>
      <use xlink:href="#DejaVuSans-42"/>
      <use xlink:href="#DejaVuSans-53" x="66.853516"/>
      <use xlink:href="#DejaVuSans-45" x="130.330078"/>
     </g>
    </g>
   </g>
  </g>
 </g>
 <defs>
  <clipPath id="pea3d4ec1dd">
   <rect x="56.9" y="32.562" width="168.505" height="139.75"/>
  </clipPath>
  <clipPath id="p313818ad61">
   <rect x="288.695" y="32.562" width="168.505" height="139.75"/>
  </clipPath>
 </defs>
</svg>
