<?xml version="1.0" encoding="utf-8" standalone="no"?>
<!DOCTYPE svg PUBLIC "-//W3C//DTD SVG 1.1//EN"
  "http://www.w3.org/Graphics/SVG/1.1/DTD/svg11.dtd">
<svg xmlns:xlink="http://www.w3.org/1999/xlink" width="468pt" height="216pt" viewBox="0 0 468 216" xmlns="http://www.w3.org/2000/svg" version="1.1">
 <metadata>
  <rdf:RDF xmlns:dc="http://purl.org/dc/elements/1.1/" xmlns:cc="http://creativecommons.org/ns#" xmlns:rdf="http://www.w3.org/1999/02/22-rdf-syntax-ns#">
   <cc:Work>
    <dc:type rdf:resource="http://purl.org/dc/dcmitype/StillImage"/>
    <dc:date>2026-07-14T13:11:43.411690</dc:date>
    <dc:format>image/svg+xml</dc:format>
    <dc:creator>
     <cc:Agent>
      <dc:title>Matplotlib v3.9.1, https://matplotlib.org/</dc:title>
     </cc:Agent>
    </dc:creator>
   </cc:Work>
  </rdf:RDF>
 </metadata>
 <defs>
  <style type="text/css">*{stroke-linejoin: round; stroke-linecap: butt}</style>
 </defs>
 <g id="figure_1">
  <g id="patch_1">
   <path d="M 0 216 
L 468 216 
L 468 0 
L 0 0 
z
" style="fill: #ffffff"/>
  </g>
  <g id="axes_1">
   <g id="patch_2">
    <path d="M 63.2 172.312 
L 225.45 172.312 
L 225.45 32.562 
L 63.2 32.562 
z
" style="fill: #ffffff"/>
   </g>
   <g id="matplotlib.axis_1">
    <g id="xtick_1">
     <g id="line2d_1">
      <path d="M 70.575 172.312 
L 70.575 32.562 
" clip-path="url(#pe13ca31b0c)" style="fill: none; stroke: #b0b0b0; stroke-width: 0.8; stroke-linecap: square"/>
     </g>
     <g id="line2d_2">
      <defs>
       <path id="m7f09c199b9" d="M 0 0 
L 0 3.5 
" style="stroke: #000000; stroke-width: 0.8"/>
      </defs>
      <g>
       <use xlink:href="#m7f09c199b9" x="70.575" y="172.312" style="stroke: #000000; stroke-width: 0.8"/>
      </g>
     </g>
     <g id="text_1">
      <!-- $\Gamma$ -->
      <g transform="translate(67.775 186.910438) scale(0.1 -0.1)">
       <defs>
        <path id="DejaVuSans-393" d="M 628 0 
L 628 4666 
L 3531 4666 
L 3531 4134 
L 1259 4134 
L 1259 0 
L 628 0 
z
" transform="scale(0.015625)"/>
       </defs>
       <use xlink:href="#DejaVuSans-393" transform="translate(0 0.09375)"/>
      </g>
     </g>
    </g>
    <g id="xtick_2">
     <g id="line2d_3">
      <path d="M 131.6715 172.312 
L 131.6715 32.562 
" clip-path="url(#pe13ca31b0c)" style="fill: none; stroke: #b0b0b0; stroke-width: 0.8; stroke-linecap: square"/>
     </g>
     <g id="line2d_4">
      <g>
       <use xlink:href="#m7f09c199b9" x="131.6715" y="172.312" style="stroke: #000000; stroke-width: 0.8"/>
      </g>
     </g>
     <g id="text_2">
      <!-- $M$ -->
      <g transform="translate(127.3215 186.910438) scale(0.1 -0.1)">
       <defs>
        <path id="DejaVuSans-Oblique-4d" d="M 1081 4666 
L 2028 4666 
L 2572 1522 
L 4378 4666 
L 5350 4666 
L 4441 0 
L 3828 0 
L 4622 4091 
L 2791 897 
L 2175 897 
L 1581 4103 
L 788 0 
L 172 0 
L 1081 4666 
z
" transform="scale(0.015625)"/>
       </defs>
       <use xlink:href="#DejaVuSans-Oblique-4d" transform="translate(0 0.09375)"/>
      </g>
     </g>
    </g>
    <g id="xtick_3">
     <g id="line2d_5">
      <path d="M 174.87325 172.312 
L 174.87325 32.562 
" clip-path="url(#pe13ca31b0c)" style="fill: none; stroke: #b0b0b0; stroke-width: 0.8; stroke-linecap: square"/>
     </g>
     <g id="line2d_6">
      <g>
       <use xlink:href="#m7f09c199b9" x="174.87325" y="172.312" style="stroke: #000000; stroke-width: 0.8"/>
      </g>
     </g>
     <g id="text_3">
      <!-- $X$ -->
      <g transform="translate(171.42325 186.910438) scale(0.1 -0.1)">
       <defs>
        <path id="DejaVuSans-Oblique-58" d="M 878 4666 
L 1516 4666 
L 2316 2981 
L 3763 4666 
L 4500 4666 
L 2578 2438 
L 3738 0 
L 3103 0 
L 2163 1966 
L 459 0 
L -275 0 
L 1906 2509 
L 878 4666 
z
" transform="scale(0.015625)"/>
       </defs>
       <use xlink:href="#DejaVuSans-Oblique-58" transform="translate(0 0.09375)"/>
      </g>
     </g>
    </g>
    <g id="xtick_4">
     <g id="line2d_7">
      <path d="M 218.075 172.312 
L 218.075 32.562 
" clip-path="url(#pe13ca31b0c)" style="fill: none; stroke: #b0b0b0; stroke-width: 0.8; stroke-linecap: square"/>
     </g>
     <g id="line2d_8">
      <g>
       <use xlink:href="#m7f09c199b9" x="218.075" y="172.312" style="stroke: #000000; stroke-width: 0.8"/>
      </g>
     </g>
     <g id="text_4">
      <!-- $\Gamma$ -->
      <g transform="translate(215.275 186.910438) scale(0.1 -0.1)">
       <use xlink:href="#DejaVuSans-393" transform="translate(0 0.09375)"/>
      </g>
     </g>
    </g>
   </g>
   <g id="matplotlib.axis_2">
    <g id="ytick_1">
     <g id="line2d_9">
      <path d="M 63.2 152.583282 
L 225.45 152.583282 
" clip-path="url(#pe13ca31b0c)" style="fill: none; stroke: #b0b0b0; stroke-width: 0.8; stroke-linecap: square"/>
     </g>
     <g id="line2d_10">
      <defs>
       <path id="m858e4e0814" d="M 0 0 
L -3.5 0 
" style="stroke: #000000; stroke-width: 0.8"/>
      </defs>
      <g>
       <use xlink:href="#m858e4e0814" x="63.2" y="152.583282" style="stroke: #000000; stroke-width: 0.8"/>
      </g>
     </g>
     <g id="text_5">
      <!-- 0.015 -->
      <g transform="translate(27.571875 156.382501) scale(0.1 -0.1)">
       <defs>
        <path id="DejaVuSans-30" d="M 2034 4250 
Q 1547 4250 1301 3770 
Q 1056 3291 1056 2328 
Q 1056 1369 1301 889 
Q 1547 409 2034 409 
Q 2525 409 2770 889 
Q 3016 1369 3016 2328 
Q 3016 3291 2770 3770 
Q 2525 4250 2034 4250 
z
M 2034 4750 
Q 2819 4750 3233 4129 
Q 3647 3509 3647 2328 
Q 3647 1150 3233 529 
Q 2819 -91 2034 -91 
Q 1250 -91 836 529 
Q 422 1150 422 2328 
Q 422 3509 836 4129 
Q 1250 4750 2034 4750 
z
" transform="scale(0.015625)"/>
        <path id="DejaVuSans-2e" d="M 684 794 
L 1344 794 
L 1344 0 
L 684 0 
L 684 794 
z
" transform="scale(0.015625)"/>
        <path id="DejaVuSans-31" d="M 794 531 
L 1825 531 
L 1825 4091 
L 703 3866 
L 703 4441 
L 1819 4666 
L 2450 4666 
L 2450 531 
L 3481 531 
L 3481 0 
L 794 0 
L 794 531 
z
" transform="scale(0.015625)"/>
        <path id="DejaVuSans-35" d="M 691 4666 
L 3169 4666 
L 3169 4134 
L 1269 4134 
L 1269 2991 
Q 1406 3038 1543 3061 
Q 1681 3084 1819 3084 
Q 2600 3084 3056 2656 
Q 3513 2228 3513 1497 
Q 3513 744 3044 326 
Q 2575 -91 1722 -91 
Q 1428 -91 1123 -41 
Q 819 9 494 109 
L 494 744 
Q 775 591 1075 516 
Q 1375 441 1709 441 
Q 2250 441 2565 725 
Q 2881 1009 2881 1497 
Q 2881 1984 2565 2268 
Q 2250 2553 1709 2553 
Q 1456 2553 1204 2497 
Q 953 2441 691 2322 
L 691 4666 
z
" transform="scale(0.015625)"/>
       </defs>
       <use xlink:href="#DejaVuSans-30"/>
       <use xlink:href="#DejaVuSans-2e" x="63.623047"/>
       <use xlink:href="#DejaVuSans-30" x="95.410156"/>
       <use xlink:href="#DejaVuSans-31" x="159.033203"/>
       <use xlink:href="#DejaVuSans-35" x="222.65625"/>
      </g>
     </g>
    </g>
    <g id="ytick_2">
     <g id="line2d_11">
      <path d="M 63.2 119.177716 
L 225.45 119.177716 
" clip-path="url(#pe13ca31b0c)" style="fill: none; stroke: #b0b0b0; stroke-width: 0.8; stroke-linecap: square"/>
     </g>
     <g id="line2d_12">
      <g>
       <use xlink:href="#m858e4e0814" x="63.2" y="119.177716" style="stroke: #000000; stroke-width: 0.8"/>
      </g>
     </g>
     <g id="text_6">
      <!-- 0.020 -->
      <g transform="translate(27.571875 122.976935) scale(0.1 -0.1)">
       <defs>
        <path id="DejaVuSans-32" d="M 1228 531 
L 3431 531 
L 3431 0 
L 469 0 
L 469 531 
Q 828 903 1448 1529 
Q 2069 2156 2228 2338 
Q 2531 2678 2651 2914 
Q 2772 3150 2772 3378 
Q 2772 3750 2511 3984 
Q 2250 4219 1831 4219 
Q 1534 4219 1204 4116 
Q 875 4013 500 3803 
L 500 4441 
Q 881 4594 1212 4672 
Q 1544 4750 1819 4750 
Q 2544 4750 2975 4387 
Q 3406 4025 3406 3419 
Q 3406 3131 3298 2873 
Q 3191 2616 2906 2266 
Q 2828 2175 2409 1742 
Q 1991 1309 1228 531 
z
" transform="scale(0.015625)"/>
       </defs>
       <use xlink:href="#DejaVuSans-30"/>
       <use xlink:href="#DejaVuSans-2e" x="63.623047"/>
       <use xlink:href="#DejaVuSans-30" x="95.410156"/>
       <use xlink:href="#DejaVuSans-32" x="159.033203"/>
       <use xlink:href="#DejaVuSans-30" x="222.65625"/>
      </g>
     </g>
    </g>
    <g id="ytick_3">
     <g id="line2d_13">
      <path d="M 63.2 85.77215 
L 225.45 85.77215 
" clip-path="url(#pe13ca31b0c)" style="fill: none; stroke: #b0b0b0; stroke-width: 0.8; stroke-linecap: square"/>
     </g>
     <g id="line2d_14">
      <g>
       <use xlink:href="#m858e4e0814" x="63.2" y="85.77215" style="stroke: #000000; stroke-width: 0.8"/>
      </g>
     </g>
     <g id="text_7">
      <!-- 0.025 -->
      <g transform="translate(27.571875 89.571369) scale(0.1 -0.1)">
       <use xlink:href="#DejaVuSans-30"/>
       <use xlink:href="#DejaVuSans-2e" x="63.623047"/>
       <use xlink:href="#DejaVuSans-30" x="95.410156"/>
       <use xlink:href="#DejaVuSans-32" x="159.033203"/>
       <use xlink:href="#DejaVuSans-35" x="222.65625"/>
      </g>
     </g>
    </g>
    <g id="ytick_4">
     <g id="line2d_15">
      <path d="M 63.2 52.366584 
L 225.45 52.366584 
" clip-path="url(#pe13ca31b0c)" style="fill: none; stroke: #b0b0b0; stroke-width: 0.8; stroke-linecap: square"/>
     </g>
     <g id="line2d_16">
      <g>
       <use xlink:href="#m858e4e0814" x="63.2" y="52.366584" style="stroke: #000000; stroke-width: 0.8"/>
      </g>
     </g>
     <g id="text_8">
      <!-- 0.030 -->
      <g transform="translate(27.571875 56.165803) scale(0.1 -0.1)">
       <defs>
        <path id="DejaVuSans-33" d="M 2597 2516 
Q 3050 2419 3304 2112 
Q 3559 1806 3559 1356 
Q 3559 666 3084 287 
Q 2609 -91 1734 -91 
Q 1441 -91 1130 -33 
Q 819 25 488 141 
L 488 750 
Q 750 597 1062 519 
Q 1375 441 1716 441 
Q 2309 441 2620 675 
Q 2931 909 2931 1356 
Q 2931 1769 2642 2001 
Q 2353 2234 1838 2234 
L 1294 2234 
L 1294 2753 
L 1863 2753 
Q 2328 2753 2575 2939 
Q 2822 3125 2822 3475 
Q 2822 3834 2567 4026 
Q 2313 4219 1838 4219 
Q 1578 4219 1281 4162 
Q 984 4106 628 3988 
L 628 4550 
Q 988 4650 1302 4700 
Q 1616 4750 1894 4750 
Q 2613 4750 3031 4423 
Q 3450 4097 3450 3541 
Q 3450 3153 3228 2886 
Q 3006 2619 2597 2516 
z
" transform="scale(0.015625)"/>
       </defs>
       <use xlink:href="#DejaVuSans-30"/>
       <use xlink:href="#DejaVuSans-2e" x="63.623047"/>
       <use xlink:href="#DejaVuSans-30" x="95.410156"/>
       <use xlink:href="#DejaVuSans-33" x="159.033203"/>
       <use xlink:href="#DejaVuSans-30" x="222.65625"/>
      </g>
     </g>
    </g>
    <g id="text_9">
     <!-- $\chi(\mathbf{Q})$ -->
     <g transform="translate(21.471875 113.587) rotate(-90) scale(0.1 -0.1)">
      <defs>
       <path id="DejaVuSans-Oblique-3c7" d="M 1922 -781 
L 1691 416 
L 394 -1334 
L -284 -1334 
L 1553 1141 
L 1269 2613 
Q 1194 3006 713 3006 
L 559 3006 
L 653 3500 
L 872 3494 
Q 1675 3472 1775 2950 
L 2006 1753 
L 3303 3503 
L 3981 3503 
L 2144 1028 
L 2428 -444 
Q 2503 -838 2984 -838 
L 3138 -838 
L 3044 -1331 
L 2825 -1325 
Q 2022 -1303 1922 -781 
z
" transform="scale(0.015625)"/>
       <path id="DejaVuSans-28" d="M 1984 4856 
Q 1566 4138 1362 3434 
Q 1159 2731 1159 2009 
Q 1159 1288 1364 580 
Q 1569 -128 1984 -844 
L 1484 -844 
Q 1016 -109 783 600 
Q 550 1309 550 2009 
Q 550 2706 781 3412 
Q 1013 4119 1484 4856 
L 1984 4856 
z
" transform="scale(0.015625)"/>
       <path id="DejaVuSans-Bold-51" d="M 2847 -84 
L 2753 -84 
Q 1600 -84 959 553 
Q 319 1191 319 2328 
Q 319 3463 958 4106 
Q 1597 4750 2719 4750 
Q 3853 4750 4486 4112 
Q 5119 3475 5119 2328 
Q 5119 1541 4783 972 
Q 4447 403 3816 116 
L 4756 -934 
L 3609 -934 
L 2847 -84 
z
M 2719 3878 
Q 2169 3878 1866 3472 
Q 1563 3066 1563 2328 
Q 1563 1578 1859 1179 
Q 2156 781 2719 781 
Q 3272 781 3575 1187 
Q 3878 1594 3878 2328 
Q 3878 3066 3575 3472 
Q 3272 3878 2719 3878 
z
" transform="scale(0.015625)"/>
       <path id="DejaVuSans-29" d="M 513 4856 
L 1013 4856 
Q 1481 4119 1714 3412 
Q 1947 2706 1947 2009 
Q 1947 1309 1714 600 
Q 1481 -109 1013 -844 
L 513 -844 
Q 928 -128 1133 580 
Q 1338 1288 1338 2009 
Q 1338 2731 1133 3434 
Q 928 4138 513 4856 
z
" transform="scale(0.015625)"/>
      </defs>
      <use xlink:href="#DejaVuSans-Oblique-3c7" transform="translate(0 0.125)"/>
      <use xlink:href="#DejaVuSans-28" transform="translate(59.179688 0.125)"/>
      <use xlink:href="#DejaVuSans-Bold-51" transform="translate(98.193359 0.125)"/>
      <use xlink:href="#DejaVuSans-29" transform="translate(183.203125 0.125)"/>
     </g>
    </g>
   </g>
   <g id="line2d_17">
    <path d="M 70.575 165.959727 
L 81.066318 155.306447 
L 85.386273 150.832012 
L 86.003409 149.951734 
L 100.197546 113.026731 
L 105.751773 98.717619 
L 116.243091 72.250279 
L 116.860228 71.404401 
L 130.437228 58.026811 
L 131.6715 56.825682 
L 131.6715 56.825682 
L 142.581033 64.438217 
L 155.672473 87.232479 
L 163.963717 102.230153 
L 164.83648 103.013685 
L 185.346402 118.803599 
L 185.782783 119.257921 
L 200.183366 145.645933 
L 207.165467 158.119796 
L 208.03823 158.855258 
L 218.075 165.959727 
L 218.075 165.959727 
" clip-path="url(#pe13ca31b0c)" style="fill: none; stroke: #1f77b4; stroke-width: 1.5; stroke-linecap: square"/>
   </g>
   <g id="line2d_18">
    <path d="M 70.575 165.819413 
L 81.066318 155.068256 
L 85.386273 150.552272 
L 86.003409 149.663727 
L 99.580409 114.016652 
L 106.368909 96.338471 
L 116.243091 71.189531 
L 116.860228 70.334777 
L 130.437228 56.814921 
L 131.6715 55.600924 
L 131.6715 55.600924 
L 142.581033 63.29504 
L 155.672473 86.329455 
L 163.963717 101.482853 
L 164.83648 102.274449 
L 185.346402 118.221599 
L 185.782783 118.680285 
L 200.183366 145.318126 
L 207.165467 157.907982 
L 208.03823 158.650183 
L 218.075 165.819413 
L 218.075 165.819413 
" clip-path="url(#pe13ca31b0c)" style="fill: none; stroke: #ff7f0e; stroke-width: 1.5; stroke-linecap: square"/>
   </g>
   <g id="line2d_19">
    <path d="M 70.575 165.497419 
L 81.066318 154.66449 
L 85.386273 150.113789 
L 86.003409 149.218355 
L 99.580409 113.288803 
L 106.368909 95.4666 
L 116.243091 70.109346 
L 116.860228 69.247421 
L 130.437228 55.613158 
L 131.6715 54.388828 
L 131.6715 54.388828 
L 142.581033 62.148452 
L 155.672473 85.377258 
L 163.963717 100.657653 
L 164.83648 101.455857 
L 185.346402 117.532399 
L 185.782783 117.994692 
L 200.183366 144.839811 
L 207.165467 157.526263 
L 208.03823 158.27409 
L 218.075 165.497419 
L 218.075 165.497419 
" clip-path="url(#pe13ca31b0c)" style="fill: none; stroke: #2ca02c; stroke-width: 1.5; stroke-linecap: square"/>
   </g>
   <g id="line2d_20">
    <path d="M 70.575 165.067266 
L 81.066318 154.166772 
L 85.386273 149.587355 
L 86.003409 148.686213 
L 99.580409 112.522392 
L 106.368909 94.581136 
L 116.243091 69.052889 
L 116.860228 68.185126 
L 130.437228 54.458514 
L 131.6715 53.225888 
L 131.6715 53.225888 
L 142.581033 61.038096 
L 155.672473 84.42496 
L 163.963717 99.809646 
L 164.83648 100.613304 
L 185.346402 116.797409 
L 185.782783 117.262713 
L 199.746985 143.48238 
L 207.165467 157.046797 
L 208.03823 157.799273 
L 218.075 165.067266 
L 218.075 165.067266 
" clip-path="url(#pe13ca31b0c)" style="fill: none; stroke: #d62728; stroke-width: 1.5; stroke-linecap: square"/>
   </g>
   <g id="line2d_21">
    <path d="M 70.575 164.67594 
L 81.066318 153.72416 
L 85.386273 149.122499 
L 86.003409 148.216865 
L 99.580409 111.862303 
L 106.368909 93.820808 
L 116.243091 68.145994 
L 116.860228 67.273168 
L 130.437228 53.465808 
L 131.6715 52.225879 
L 131.6715 52.225879 
L 142.581033 60.084398 
L 155.672473 83.60978 
L 163.963717 99.085733 
L 164.83648 99.894169 
L 185.346402 116.168804 
L 185.782783 116.636521 
L 199.746985 142.988499 
L 207.165467 156.618583 
L 208.03823 157.374565 
L 218.075 164.67594 
L 218.075 164.67594 
" clip-path="url(#pe13ca31b0c)" style="fill: none; stroke: #9467bd; stroke-width: 1.5; stroke-linecap: square"/>
   </g>
   <g id="line2d_22">
    <path d="M 70.575 165.039812 
L 81.066318 154.037261 
L 85.386273 149.413974 
L 86.003409 148.504049 
L 99.580409 111.973693 
L 106.368909 93.843271 
L 116.243091 68.040472 
L 116.860228 67.163261 
L 130.437228 53.286165 
L 131.6715 52.039941 
L 131.6715 52.039941 
L 142.581033 59.938374 
L 155.672473 83.582978 
L 163.963717 99.137472 
L 164.83648 99.950026 
L 185.346402 116.305067 
L 185.782783 116.775016 
L 199.746985 143.251699 
L 207.165467 156.945461 
L 208.03823 157.704929 
L 218.075 165.039812 
L 218.075 165.039812 
" clip-path="url(#pe13ca31b0c)" style="fill: none; stroke: #8c564b; stroke-width: 1.5; stroke-linecap: square"/>
   </g>
   <g id="line2d_23">
    <defs>
     <path id="mcab0db10bc" d="M -3 3 
L 3 -3 
M -3 -3 
L 3 3 
" style="stroke: #ff0000"/>
    </defs>
    <g clip-path="url(#pe13ca31b0c)">
     <use xlink:href="#mcab0db10bc" x="131.6715" y="41.605246" style="fill: #ff0000; stroke: #ff0000"/>
    </g>
   </g>
   <g id="line2d_24">
    <path d="M 70.575 159.915191 
L 81.066318 148.183955 
L 85.386273 143.254377 
L 86.003409 142.284154 
L 99.580409 103.335156 
L 106.368909 84.009355 
L 116.243091 56.513921 
L 116.860228 55.5795 
L 130.437228 40.802419 
L 131.6715 39.475642 
L 131.6715 39.475642 
L 142.581033 47.884559 
L 155.672473 73.070549 
L 163.963717 89.645559 
L 164.83648 90.511585 
L 185.346402 107.948466 
L 185.782783 108.449617 
L 199.746985 136.683272 
L 207.165467 151.284869 
L 208.03823 152.09464 
L 218.075 159.915191 
L 218.075 159.915191 
" clip-path="url(#pe13ca31b0c)" style="fill: none; stroke: #000000; stroke-width: 1.5; stroke-linecap: square"/>
   </g>
   <g id="line2d_25">
    <path d="M 70.575 159.973116 
L 81.066318 148.230913 
L 85.386273 143.296771 
L 86.003409 142.325647 
L 99.580409 103.339595 
L 106.368909 83.993755 
L 116.243091 56.467936 
L 116.860228 55.532412 
L 130.437228 40.736942 
L 131.6715 39.408477 
L 131.6715 39.408477 
L 142.581033 47.828096 
L 155.672473 73.043464 
L 163.963717 89.636354 
L 164.83648 90.503273 
L 185.346402 107.957496 
L 185.782783 108.45913 
L 199.746985 136.719459 
L 207.165467 151.334671 
L 208.03823 152.145203 
L 218.075 159.973116 
L 218.075 159.973116 
" clip-path="url(#pe13ca31b0c)" style="fill: none; stroke: #000000; stroke-width: 1.5; stroke-linecap: square"/>
   </g>
   <g id="line2d_26">
    <path d="M 70.575 160.01264 
L 81.066318 148.262946 
L 85.386273 143.325687 
L 86.003409 142.353948 
L 99.580409 103.342609 
L 106.368909 83.983121 
L 116.243091 56.436645 
L 116.860228 55.500371 
L 130.437228 40.692439 
L 131.6715 39.36283 
L 131.6715 39.36283 
L 142.581033 47.789698 
L 155.672473 73.025003 
L 163.963717 89.630047 
L 164.83648 90.497574 
L 185.346402 107.963618 
L 185.782783 108.465582 
L 199.746985 136.744133 
L 207.165467 151.368646 
L 208.03823 152.179697 
L 218.075 160.01264 
L 218.075 160.01264 
" clip-path="url(#pe13ca31b0c)" style="fill: none; stroke: #000000; stroke-width: 1.5; stroke-linecap: square"/>
   </g>
   <g id="line2d_27">
    <path d="M 70.575 160.03998 
L 81.066318 148.285098 
L 85.386273 143.34568 
L 86.003409 142.373516 
L 99.580409 103.344685 
L 106.368909 83.975769 
L 116.243091 56.415038 
L 116.860228 55.478247 
L 130.437228 40.661731 
L 131.6715 39.331335 
L 131.6715 39.331335 
L 142.581033 47.763193 
L 155.672473 73.012241 
L 163.963717 89.625671 
L 164.83648 90.493618 
L 185.346402 107.967833 
L 185.782783 108.470025 
L 199.746985 136.761188 
L 207.165467 151.392142 
L 208.03823 152.203553 
L 218.075 160.03998 
L 218.075 160.03998 
" clip-path="url(#pe13ca31b0c)" style="fill: none; stroke: #000000; stroke-width: 1.5; stroke-linecap: square"/>
   </g>
   <g id="line2d_28">
    <path d="M 70.575 160.060082 
L 81.066318 148.301373 
L 85.386273 143.360365 
L 86.003409 142.387888 
L 99.580409 103.346205 
L 106.368909 83.970373 
L 116.243091 56.399188 
L 116.860228 55.462019 
L 130.437228 40.639208 
L 131.6715 39.308235 
L 131.6715 39.308235 
L 142.581033 47.743752 
L 155.672473 73.002875 
L 163.963717 89.622453 
L 164.83648 90.490706 
L 185.346402 107.970913 
L 185.782783 108.473273 
L 199.746985 136.773709 
L 207.165467 151.409407 
L 208.03823 152.221083 
L 218.075 160.060082 
L 218.075 160.060082 
" clip-path="url(#pe13ca31b0c)" style="fill: none; stroke: #000000; stroke-width: 1.5; stroke-linecap: square"/>
   </g>
   <g id="line2d_29">
    <path d="M 70.575 160.07476 
L 81.066318 148.313277 
L 85.386273 143.371114 
L 86.003409 142.398408 
L 99.580409 103.347318 
L 106.368909 83.966398 
L 116.243091 56.387514 
L 116.860228 55.450065 
L 130.437228 40.622611 
L 131.6715 39.291212 
L 131.6715 39.291212 
L 142.581033 47.729429 
L 155.672473 72.995976 
L 163.963717 89.620078 
L 164.83648 90.488558 
L 185.346402 107.973173 
L 185.782783 108.475655 
L 199.746985 136.782878 
L 207.165467 151.422031 
L 208.03823 152.2339 
L 218.075 160.07476 
L 218.075 160.07476 
" clip-path="url(#pe13ca31b0c)" style="fill: none; stroke: #000000; stroke-width: 1.5; stroke-linecap: square"/>
   </g>
   <g id="line2d_30">
    <g clip-path="url(#pe13ca31b0c)">
     <use xlink:href="#mcab0db10bc" x="131.6715" y="38.914273" style="fill: #ff0000; stroke: #ff0000"/>
    </g>
   </g>
   <g id="patch_3">
    <path d="M 63.2 172.312 
L 63.2 32.562 
" style="fill: none; stroke: #000000; stroke-width: 0.8; stroke-linejoin: miter; stroke-linecap: square"/>
   </g>
   <g id="patch_4">
    <path d="M 225.45 172.312 
L 225.45 32.562 
" style="fill: none; stroke: #000000; stroke-width: 0.8; stroke-linejoin: miter; stroke-linecap: square"/>
   </g>
   <g id="patch_5">
    <path d="M 63.2 172.312 
L 225.45 172.312 
" style="fill: none; stroke: #000000; stroke-width: 0.8; stroke-linejoin: miter; stroke-linecap: square"/>
   </g>
   <g id="patch_6">
    <path d="M 63.2 32.562 
L 225.45 32.562 
" style="fill: none; stroke: #000000; stroke-width: 0.8; stroke-linejoin: miter; stroke-linecap: square"/>
   </g>
   <g id="text_10">
    <!-- (1, 0, 0, 1), w=6 -->
    <g transform="translate(95.365937 26.562) scale(0.12 -0.12)">
     <defs>
      <path id="DejaVuSans-2c" d="M 750 794 
L 1409 794 
L 1409 256 
L 897 -744 
L 494 -744 
L 750 256 
L 750 794 
z
" transform="scale(0.015625)"/>
      <path id="DejaVuSans-20" transform="scale(0.015625)"/>
      <path id="DejaVuSans-77" d="M 269 3500 
L 844 3500 
L 1563 769 
L 2278 3500 
L 2956 3500 
L 3675 769 
L 4391 3500 
L 4966 3500 
L 4050 0 
L 3372 0 
L 2619 2869 
L 1863 0 
L 1184 0 
L 269 3500 
z
" transform="scale(0.015625)"/>
      <path id="DejaVuSans-3d" d="M 678 2906 
L 4684 2906 
L 4684 2381 
L 678 2381 
L 678 2906 
z
M 678 1631 
L 4684 1631 
L 4684 1100 
L 678 1100 
L 678 1631 
z
" transform="scale(0.015625)"/>
      <path id="DejaVuSans-36" d="M 2113 2584 
Q 1688 2584 1439 2293 
Q 1191 2003 1191 1497 
Q 1191 994 1439 701 
Q 1688 409 2113 409 
Q 2538 409 2786 701 
Q 3034 994 3034 1497 
Q 3034 2003 2786 2293 
Q 2538 2584 2113 2584 
z
M 3366 4563 
L 3366 3988 
Q 3128 4100 2886 4159 
Q 2644 4219 2406 4219 
Q 1781 4219 1451 3797 
Q 1122 3375 1075 2522 
Q 1259 2794 1537 2939 
Q 1816 3084 2150 3084 
Q 2853 3084 3261 2657 
Q 3669 2231 3669 1497 
Q 3669 778 3244 343 
Q 2819 -91 2113 -91 
Q 1303 -91 875 529 
Q 447 1150 447 2328 
Q 447 3434 972 4092 
Q 1497 4750 2381 4750 
Q 2619 4750 2861 4703 
Q 3103 4656 3366 4563 
z
" transform="scale(0.015625)"/>
     </defs>
     <use xlink:href="#DejaVuSans-28"/>
     <use xlink:href="#DejaVuSans-31" x="39.013672"/>
     <use xlink:href="#DejaVuSans-2c" x="102.636719"/>
     <use xlink:href="#DejaVuSans-20" x="134.423828"/>
     <use xlink:href="#DejaVuSans-30" x="166.210938"/>
     <use xlink:href="#DejaVuSans-2c" x="229.833984"/>
     <use xlink:href="#DejaVuSans-20" x="261.621094"/>
     <use xlink:href="#DejaVuSans-30" x="293.408203"/>
     <use xlink:href="#DejaVuSans-2c" x="357.03125"/>
     <use xlink:href="#DejaVuSans-20" x="388.818359"/>
     <use xlink:href="#DejaVuSans-31" x="420.605469"/>
     <use xlink:href="#DejaVuSans-29" x="484.228516"/>
     <use xlink:href="#DejaVuSans-2c" x="523.242188"/>
     <use xlink:href="#DejaVuSans-20" x="555.029297"/>
     <use xlink:href="#DejaVuSans-77" x="586.816406"/>
     <use xlink:href="#DejaVuSans-3d" x="668.603516"/>
     <use xlink:href="#DejaVuSans-36" x="752.392578"/>
    </g>
   </g>
   <g id="legend_1">
    <g id="patch_7">
     <path d="M 116.845 168.312 
L 171.805 168.312 
Q 173.405 168.312 173.405 166.712 
L 173.405 97.057 
Q 173.405 95.457 171.805 95.457 
L 116.845 95.457 
Q 115.245 95.457 115.245 97.057 
L 115.245 166.712 
Q 115.245 168.312 116.845 168.312 
z
" style="fill: #ffffff; opacity: 0.8; stroke: #cccccc; stroke-linejoin: miter"/>
    </g>
    <g id="line2d_31">
     <path d="M 118.445 101.93575 
L 126.445 101.93575 
L 134.445 101.93575 
" style="fill: none; stroke: #1f77b4; stroke-width: 1.5; stroke-linecap: square"/>
    </g>
    <g id="text_11">
     <!-- $N_{\nu} = $$20$ -->
     <g transform="translate(140.845 104.73575) scale(0.08 -0.08)">
      <defs>
       <path id="DejaVuSans-Oblique-4e" d="M 1081 4666 
L 1931 4666 
L 3219 666 
L 4000 4666 
L 4616 4666 
L 3706 0 
L 2853 0 
L 1569 4025 
L 788 0 
L 172 0 
L 1081 4666 
z
" transform="scale(0.015625)"/>
       <path id="DejaVuSans-Oblique-3bd" d="M 959 0 
L 572 3500 
L 1191 3500 
L 1522 563 
Q 1972 950 2391 1488 
Q 2706 1891 2788 2241 
Q 2825 2406 2809 2719 
Q 2794 3091 2544 3500 
L 3125 3500 
L 3125 3500 
Q 3288 3222 3353 2834 
Q 3416 2478 3369 2234 
Q 3250 1622 2719 1075 
Q 2025 363 1572 0 
L 959 0 
z
" transform="scale(0.015625)"/>
      </defs>
      <use xlink:href="#DejaVuSans-Oblique-4e" transform="translate(0 0.78125)"/>
      <use xlink:href="#DejaVuSans-Oblique-3bd" transform="translate(74.804688 -15.625) scale(0.7)"/>
      <use xlink:href="#DejaVuSans-3d" transform="translate(136.123047 0.78125)"/>
      <use xlink:href="#DejaVuSans-32" transform="translate(239.394531 0.78125)"/>
      <use xlink:href="#DejaVuSans-30" transform="translate(303.017578 0.78125)"/>
     </g>
    </g>
    <g id="line2d_32">
     <path d="M 118.445 113.67825 
L 126.445 113.67825 
L 134.445 113.67825 
" style="fill: none; stroke: #ff7f0e; stroke-width: 1.5; stroke-linecap: square"/>
    </g>
    <g id="text_12">
     <!-- $N_{\nu} = $$22$ -->
     <g transform="translate(140.845 116.47825) scale(0.08 -0.08)">
      <use xlink:href="#DejaVuSans-Oblique-4e" transform="translate(0 0.78125)"/>
      <use xlink:href="#DejaVuSans-Oblique-3bd" transform="translate(74.804688 -15.625) scale(0.7)"/>
      <use xlink:href="#DejaVuSans-3d" transform="translate(136.123047 0.78125)"/>
      <use xlink:href="#DejaVuSans-32" transform="translate(239.394531 0.78125)"/>
      <use xlink:href="#DejaVuSans-32" transform="translate(303.017578 0.78125)"/>
     </g>
    </g>
    <g id="line2d_33">
     <path d="M 118.445 125.42075 
L 126.445 125.42075 
L 134.445 125.42075 
" style="fill: none; stroke: #2ca02c; stroke-width: 1.5; stroke-linecap: square"/>
    </g>
    <g id="text_13">
     <!-- $N_{\nu} = $$24$ -->
     <g transform="translate(140.845 128.22075) scale(0.08 -0.08)">
      <defs>
       <path id="DejaVuSans-34" d="M 2419 4116 
L 825 1625 
L 2419 1625 
L 2419 4116 
z
M 2253 4666 
L 3047 4666 
L 3047 1625 
L 3713 1625 
L 3713 1100 
L 3047 1100 
L 3047 0 
L 2419 0 
L 2419 1100 
L 313 1100 
L 313 1709 
L 2253 4666 
z
" transform="scale(0.015625)"/>
      </defs>
      <use xlink:href="#DejaVuSans-Oblique-4e" transform="translate(0 0.78125)"/>
      <use xlink:href="#DejaVuSans-Oblique-3bd" transform="translate(74.804688 -15.625) scale(0.7)"/>
      <use xlink:href="#DejaVuSans-3d" transform="translate(136.123047 0.78125)"/>
      <use xlink:href="#DejaVuSans-32" transform="translate(239.394531 0.78125)"/>
      <use xlink:href="#DejaVuSans-34" transform="translate(303.017578 0.78125)"/>
     </g>
    </g>
    <g id="line2d_34">
     <path d="M 118.445 137.16325 
L 126.445 137.16325 
L 134.445 137.16325 
" style="fill: none; stroke: #d62728; stroke-width: 1.5; stroke-linecap: square"/>
    </g>
    <g id="text_14">
     <!-- $N_{\nu} = $$26$ -->
     <g transform="translate(140.845 139.96325) scale(0.08 -0.08)">
      <use xlink:href="#DejaVuSans-Oblique-4e" transform="translate(0 0.78125)"/>
      <use xlink:href="#DejaVuSans-Oblique-3bd" transform="translate(74.804688 -15.625) scale(0.7)"/>
      <use xlink:href="#DejaVuSans-3d" transform="translate(136.123047 0.78125)"/>
      <use xlink:href="#DejaVuSans-32" transform="translate(239.394531 0.78125)"/>
      <use xlink:href="#DejaVuSans-36" transform="translate(303.017578 0.78125)"/>
     </g>
    </g>
    <g id="line2d_35">
     <path d="M 118.445 148.90575 
L 126.445 148.90575 
L 134.445 148.90575 
" style="fill: none; stroke: #9467bd; stroke-width: 1.5; stroke-linecap: square"/>
    </g>
    <g id="text_15">
     <!-- $N_{\nu} = $$28$ -->
     <g transform="translate(140.845 151.70575) scale(0.08 -0.08)">
      <defs>
       <path id="DejaVuSans-38" d="M 2034 2216 
Q 1584 2216 1326 1975 
Q 1069 1734 1069 1313 
Q 1069 891 1326 650 
Q 1584 409 2034 409 
Q 2484 409 2743 651 
Q 3003 894 3003 1313 
Q 3003 1734 2745 1975 
Q 2488 2216 2034 2216 
z
M 1403 2484 
Q 997 2584 770 2862 
Q 544 3141 544 3541 
Q 544 4100 942 4425 
Q 1341 4750 2034 4750 
Q 2731 4750 3128 4425 
Q 3525 4100 3525 3541 
Q 3525 3141 3298 2862 
Q 3072 2584 2669 2484 
Q 3125 2378 3379 2068 
Q 3634 1759 3634 1313 
Q 3634 634 3220 271 
Q 2806 -91 2034 -91 
Q 1263 -91 848 271 
Q 434 634 434 1313 
Q 434 1759 690 2068 
Q 947 2378 1403 2484 
z
M 1172 3481 
Q 1172 3119 1398 2916 
Q 1625 2713 2034 2713 
Q 2441 2713 2670 2916 
Q 2900 3119 2900 3481 
Q 2900 3844 2670 4047 
Q 2441 4250 2034 4250 
Q 1625 4250 1398 4047 
Q 1172 3844 1172 3481 
z
" transform="scale(0.015625)"/>
      </defs>
      <use xlink:href="#DejaVuSans-Oblique-4e" transform="translate(0 0.78125)"/>
      <use xlink:href="#DejaVuSans-Oblique-3bd" transform="translate(74.804688 -15.625) scale(0.7)"/>
      <use xlink:href="#DejaVuSans-3d" transform="translate(136.123047 0.78125)"/>
      <use xlink:href="#DejaVuSans-32" transform="translate(239.394531 0.78125)"/>
      <use xlink:href="#DejaVuSans-38" transform="translate(303.017578 0.78125)"/>
     </g>
    </g>
    <g id="line2d_36">
     <path d="M 118.445 160.64825 
L 126.445 160.64825 
L 134.445 160.64825 
" style="fill: none; stroke: #8c564b; stroke-width: 1.5; stroke-linecap: square"/>
    </g>
    <g id="text_16">
     <!-- $N_{\nu} = $$30$ -->
     <g transform="translate(140.845 163.44825) scale(0.08 -0.08)">
      <use xlink:href="#DejaVuSans-Oblique-4e" transform="translate(0 0.78125)"/>
      <use xlink:href="#DejaVuSans-Oblique-3bd" transform="translate(74.804688 -15.625) scale(0.7)"/>
      <use xlink:href="#DejaVuSans-3d" transform="translate(136.123047 0.78125)"/>
      <use xlink:href="#DejaVuSans-33" transform="translate(239.394531 0.78125)"/>
      <use xlink:href="#DejaVuSans-30" transform="translate(303.017578 0.78125)"/>
     </g>
    </g>
   </g>
  </g>
  <g id="axes_2">
   <g id="patch_8">
    <path d="M 294.95 172.312 
L 457.2 172.312 
L 457.2 32.562 
L 294.95 32.562 
z
" style="fill: #ffffff"/>
   </g>
   <g id="line2d_37">
    <path d="M 302.325 57.956116 
L 305.335204 60.160272 
L 308.345408 62.364427 
L 311.355612 64.568582 
L 314.365816 66.772738 
L 317.37602 68.976893 
L 320.386224 71.181048 
L 323.396429 73.385204 
L 326.406633 75.589359 
L 329.416837 77.793514 
L 332.427041 79.99767 
L 335.437245 82.201825 
L 338.447449 84.40598 
L 341.457653 86.610136 
L 344.467857 88.814291 
L 347.478061 91.018446 
L 350.488265 93.222602 
L 353.498469 95.426757 
L 356.508673 97.630912 
L 359.518878 99.835068 
L 362.529082 102.039223 
L 365.539286 104.243378 
L 368.54949 106.447534 
L 371.559694 108.651689 
L 374.569898 110.855844 
L 377.580102 113.06 
L 380.590306 115.264155 
L 383.60051 117.46831 
L 386.610714 119.672466 
L 389.620918 121.876621 
L 392.631122 124.080776 
L 395.641327 126.284931 
L 398.651531 128.489087 
L 401.661735 130.693242 
L 404.671939 132.897397 
L 407.682143 135.101553 
L 410.692347 137.305708 
L 413.702551 139.509863 
L 416.712755 141.714019 
L 419.722959 143.918174 
L 422.733163 146.122329 
L 425.743367 148.326485 
L 428.753571 150.53064 
L 431.763776 152.734795 
L 434.77398 154.938951 
L 437.784184 157.143106 
L 440.794388 159.347261 
L 443.804592 161.551417 
L 446.814796 163.755572 
L 449.825 165.959727 
" clip-path="url(#p977cb3e4e6)" style="fill: none; stroke-dasharray: 3.7,1.6; stroke-dashoffset: 0; stroke: #000000"/>
   </g>
   <g id="line2d_38">
    <path d="M 302.325 38.914273 
L 305.335204 38.993734 
L 308.345408 39.073194 
L 311.355612 39.152655 
L 314.365816 39.232116 
L 317.37602 39.311577 
L 320.386224 39.391038 
L 323.396429 39.470499 
L 326.406633 39.54996 
L 329.416837 39.629421 
L 332.427041 39.708882 
L 335.437245 39.788342 
L 338.447449 39.867803 
L 341.457653 39.947264 
L 344.467857 40.026725 
L 347.478061 40.106186 
L 350.488265 40.185647 
L 353.498469 40.265108 
L 356.508673 40.344569 
L 359.518878 40.424029 
L 362.529082 40.50349 
L 365.539286 40.582951 
L 368.54949 40.662412 
L 371.559694 40.741873 
L 374.569898 40.821334 
L 377.580102 40.900795 
L 380.590306 40.980256 
L 383.60051 41.059716 
L 386.610714 41.139177 
L 389.620918 41.218638 
L 392.631122 41.298099 
L 395.641327 41.37756 
L 398.651531 41.457021 
L 401.661735 41.536482 
L 404.671939 41.615943 
L 407.682143 41.695403 
L 410.692347 41.774864 
L 413.702551 41.854325 
L 416.712755 41.933786 
L 419.722959 42.013247 
L 422.733163 42.092708 
L 425.743367 42.172169 
L 428.753571 42.25163 
L 431.763776 42.331091 
L 434.77398 42.410551 
L 437.784184 42.490012 
L 440.794388 42.569473 
L 443.804592 42.648934 
L 446.814796 42.728395 
L 449.825 42.807856 
" clip-path="url(#p977cb3e4e6)" style="fill: none; stroke-dasharray: 3.7,1.6; stroke-dashoffset: 0; stroke: #000000"/>
   </g>
   <g id="matplotlib.axis_3">
    <g id="xtick_5">
     <g id="line2d_39">
      <path d="M 302.325 172.312 
L 302.325 32.562 
" clip-path="url(#p977cb3e4e6)" style="fill: none; stroke: #b0b0b0; stroke-width: 0.8; stroke-linecap: square"/>
     </g>
     <g id="line2d_40">
      <g>
       <use xlink:href="#m7f09c199b9" x="302.325" y="172.312" style="stroke: #000000; stroke-width: 0.8"/>
      </g>
     </g>
     <g id="text_17">
      <!-- 0.00 -->
      <g transform="translate(291.192187 186.910438) scale(0.1 -0.1)">
       <use xlink:href="#DejaVuSans-30"/>
       <use xlink:href="#DejaVuSans-2e" x="63.623047"/>
       <use xlink:href="#DejaVuSans-30" x="95.410156"/>
       <use xlink:href="#DejaVuSans-30" x="159.033203"/>
      </g>
     </g>
    </g>
    <g id="xtick_6">
     <g id="line2d_41">
      <path d="M 361.325 172.312 
L 361.325 32.562 
" clip-path="url(#p977cb3e4e6)" style="fill: none; stroke: #b0b0b0; stroke-width: 0.8; stroke-linecap: square"/>
     </g>
     <g id="line2d_42">
      <g>
       <use xlink:href="#m7f09c199b9" x="361.325" y="172.312" style="stroke: #000000; stroke-width: 0.8"/>
      </g>
     </g>
     <g id="text_18">
      <!-- 0.02 -->
      <g transform="translate(350.192187 186.910438) scale(0.1 -0.1)">
       <use xlink:href="#DejaVuSans-30"/>
       <use xlink:href="#DejaVuSans-2e" x="63.623047"/>
       <use xlink:href="#DejaVuSans-30" x="95.410156"/>
       <use xlink:href="#DejaVuSans-32" x="159.033203"/>
      </g>
     </g>
    </g>
    <g id="xtick_7">
     <g id="line2d_43">
      <path d="M 420.325 172.312 
L 420.325 32.562 
" clip-path="url(#p977cb3e4e6)" style="fill: none; stroke: #b0b0b0; stroke-width: 0.8; stroke-linecap: square"/>
     </g>
     <g id="line2d_44">
      <g>
       <use xlink:href="#m7f09c199b9" x="420.325" y="172.312" style="stroke: #000000; stroke-width: 0.8"/>
      </g>
     </g>
     <g id="text_19">
      <!-- 0.04 -->
      <g transform="translate(409.192187 186.910438) scale(0.1 -0.1)">
       <use xlink:href="#DejaVuSans-30"/>
       <use xlink:href="#DejaVuSans-2e" x="63.623047"/>
       <use xlink:href="#DejaVuSans-30" x="95.410156"/>
       <use xlink:href="#DejaVuSans-34" x="159.033203"/>
      </g>
     </g>
    </g>
    <g id="text_20">
     <!-- $1/N_\nu$ -->
     <g transform="translate(365.375 200.588562) scale(0.1 -0.1)">
      <defs>
       <path id="DejaVuSans-2f" d="M 1625 4666 
L 2156 4666 
L 531 -594 
L 0 -594 
L 1625 4666 
z
" transform="scale(0.015625)"/>
      </defs>
      <use xlink:href="#DejaVuSans-31" transform="translate(0 0.09375)"/>
      <use xlink:href="#DejaVuSans-2f" transform="translate(63.623047 0.09375)"/>
      <use xlink:href="#DejaVuSans-Oblique-4e" transform="translate(97.314453 0.09375)"/>
      <use xlink:href="#DejaVuSans-Oblique-3bd" transform="translate(172.119141 -16.3125) scale(0.7)"/>
     </g>
    </g>
   </g>
   <g id="matplotlib.axis_4">
    <g id="ytick_5">
     <g id="line2d_45">
      <path d="M 294.95 157.743812 
L 457.2 157.743812 
" clip-path="url(#p977cb3e4e6)" style="fill: none; stroke: #b0b0b0; stroke-width: 0.8; stroke-linecap: square"/>
     </g>
     <g id="line2d_46">
      <g>
       <use xlink:href="#m858e4e0814" x="294.95" y="157.743812" style="stroke: #000000; stroke-width: 0.8"/>
      </g>
     </g>
     <g id="text_21">
      <!-- 0.0295 -->
      <g transform="translate(252.959375 161.543031) scale(0.1 -0.1)">
       <defs>
        <path id="DejaVuSans-39" d="M 703 97 
L 703 672 
Q 941 559 1184 500 
Q 1428 441 1663 441 
Q 2288 441 2617 861 
Q 2947 1281 2994 2138 
Q 2813 1869 2534 1725 
Q 2256 1581 1919 1581 
Q 1219 1581 811 2004 
Q 403 2428 403 3163 
Q 403 3881 828 4315 
Q 1253 4750 1959 4750 
Q 2769 4750 3195 4129 
Q 3622 3509 3622 2328 
Q 3622 1225 3098 567 
Q 2575 -91 1691 -91 
Q 1453 -91 1209 -44 
Q 966 3 703 97 
z
M 1959 2075 
Q 2384 2075 2632 2365 
Q 2881 2656 2881 3163 
Q 2881 3666 2632 3958 
Q 2384 4250 1959 4250 
Q 1534 4250 1286 3958 
Q 1038 3666 1038 3163 
Q 1038 2656 1286 2365 
Q 1534 2075 1959 2075 
z
" transform="scale(0.015625)"/>
       </defs>
       <use xlink:href="#DejaVuSans-30"/>
       <use xlink:href="#DejaVuSans-2e" x="63.623047"/>
       <use xlink:href="#DejaVuSans-30" x="95.410156"/>
       <use xlink:href="#DejaVuSans-32" x="159.033203"/>
       <use xlink:href="#DejaVuSans-39" x="222.65625"/>
       <use xlink:href="#DejaVuSans-35" x="286.279297"/>
      </g>
     </g>
    </g>
    <g id="ytick_6">
     <g id="line2d_47">
      <path d="M 294.95 134.105396 
L 457.2 134.105396 
" clip-path="url(#p977cb3e4e6)" style="fill: none; stroke: #b0b0b0; stroke-width: 0.8; stroke-linecap: square"/>
     </g>
     <g id="line2d_48">
      <g>
       <use xlink:href="#m858e4e0814" x="294.95" y="134.105396" style="stroke: #000000; stroke-width: 0.8"/>
      </g>
     </g>
     <g id="text_22">
      <!-- 0.0300 -->
      <g transform="translate(252.959375 137.904615) scale(0.1 -0.1)">
       <use xlink:href="#DejaVuSans-30"/>
       <use xlink:href="#DejaVuSans-2e" x="63.623047"/>
       <use xlink:href="#DejaVuSans-30" x="95.410156"/>
       <use xlink:href="#DejaVuSans-33" x="159.033203"/>
       <use xlink:href="#DejaVuSans-30" x="222.65625"/>
       <use xlink:href="#DejaVuSans-30" x="286.279297"/>
      </g>
     </g>
    </g>
    <g id="ytick_7">
     <g id="line2d_49">
      <path d="M 294.95 110.466979 
L 457.2 110.466979 
" clip-path="url(#p977cb3e4e6)" style="fill: none; stroke: #b0b0b0; stroke-width: 0.8; stroke-linecap: square"/>
     </g>
     <g id="line2d_50">
      <g>
       <use xlink:href="#m858e4e0814" x="294.95" y="110.466979" style="stroke: #000000; stroke-width: 0.8"/>
      </g>
     </g>
     <g id="text_23">
      <!-- 0.0305 -->
      <g transform="translate(252.959375 114.266198) scale(0.1 -0.1)">
       <use xlink:href="#DejaVuSans-30"/>
       <use xlink:href="#DejaVuSans-2e" x="63.623047"/>
       <use xlink:href="#DejaVuSans-30" x="95.410156"/>
       <use xlink:href="#DejaVuSans-33" x="159.033203"/>
       <use xlink:href="#DejaVuSans-30" x="222.65625"/>
       <use xlink:href="#DejaVuSans-35" x="286.279297"/>
      </g>
     </g>
    </g>
    <g id="ytick_8">
     <g id="line2d_51">
      <path d="M 294.95 86.828563 
L 457.2 86.828563 
" clip-path="url(#p977cb3e4e6)" style="fill: none; stroke: #b0b0b0; stroke-width: 0.8; stroke-linecap: square"/>
     </g>
     <g id="line2d_52">
      <g>
       <use xlink:href="#m858e4e0814" x="294.95" y="86.828563" style="stroke: #000000; stroke-width: 0.8"/>
      </g>
     </g>
     <g id="text_24">
      <!-- 0.0310 -->
      <g transform="translate(252.959375 90.627781) scale(0.1 -0.1)">
       <use xlink:href="#DejaVuSans-30"/>
       <use xlink:href="#DejaVuSans-2e" x="63.623047"/>
       <use xlink:href="#DejaVuSans-30" x="95.410156"/>
       <use xlink:href="#DejaVuSans-33" x="159.033203"/>
       <use xlink:href="#DejaVuSans-31" x="222.65625"/>
       <use xlink:href="#DejaVuSans-30" x="286.279297"/>
      </g>
     </g>
    </g>
    <g id="ytick_9">
     <g id="line2d_53">
      <path d="M 294.95 63.190146 
L 457.2 63.190146 
" clip-path="url(#p977cb3e4e6)" style="fill: none; stroke: #b0b0b0; stroke-width: 0.8; stroke-linecap: square"/>
     </g>
     <g id="line2d_54">
      <g>
       <use xlink:href="#m858e4e0814" x="294.95" y="63.190146" style="stroke: #000000; stroke-width: 0.8"/>
      </g>
     </g>
     <g id="text_25">
      <!-- 0.0315 -->
      <g transform="translate(252.959375 66.989365) scale(0.1 -0.1)">
       <use xlink:href="#DejaVuSans-30"/>
       <use xlink:href="#DejaVuSans-2e" x="63.623047"/>
       <use xlink:href="#DejaVuSans-30" x="95.410156"/>
       <use xlink:href="#DejaVuSans-33" x="159.033203"/>
       <use xlink:href="#DejaVuSans-31" x="222.65625"/>
       <use xlink:href="#DejaVuSans-35" x="286.279297"/>
      </g>
     </g>
    </g>
    <g id="ytick_10">
     <g id="line2d_55">
      <path d="M 294.95 39.55173 
L 457.2 39.55173 
" clip-path="url(#p977cb3e4e6)" style="fill: none; stroke: #b0b0b0; stroke-width: 0.8; stroke-linecap: square"/>
     </g>
     <g id="line2d_56">
      <g>
       <use xlink:href="#m858e4e0814" x="294.95" y="39.55173" style="stroke: #000000; stroke-width: 0.8"/>
      </g>
     </g>
     <g id="text_26">
      <!-- 0.0320 -->
      <g transform="translate(252.959375 43.350948) scale(0.1 -0.1)">
       <use xlink:href="#DejaVuSans-30"/>
       <use xlink:href="#DejaVuSans-2e" x="63.623047"/>
       <use xlink:href="#DejaVuSans-30" x="95.410156"/>
       <use xlink:href="#DejaVuSans-33" x="159.033203"/>
       <use xlink:href="#DejaVuSans-32" x="222.65625"/>
       <use xlink:href="#DejaVuSans-30" x="286.279297"/>
      </g>
     </g>
    </g>
    <g id="text_27">
     <!-- $\chi(\mathbf{M})$ -->
     <g transform="translate(246.859375 114.287) rotate(-90) scale(0.1 -0.1)">
      <defs>
       <path id="DejaVuSans-Bold-4d" d="M 588 4666 
L 2119 4666 
L 3181 2169 
L 4250 4666 
L 5778 4666 
L 5778 0 
L 4641 0 
L 4641 3413 
L 3566 897 
L 2803 897 
L 1728 3413 
L 1728 0 
L 588 0 
L 588 4666 
z
" transform="scale(0.015625)"/>
      </defs>
      <use xlink:href="#DejaVuSans-Oblique-3c7" transform="translate(0 0.125)"/>
      <use xlink:href="#DejaVuSans-28" transform="translate(59.179688 0.125)"/>
      <use xlink:href="#DejaVuSans-Bold-4d" transform="translate(98.193359 0.125)"/>
      <use xlink:href="#DejaVuSans-29" transform="translate(197.705078 0.125)"/>
     </g>
    </g>
   </g>
   <g id="line2d_57">
    <defs>
     <path id="m9546ec5b5a" d="M 0 3 
C 0.795609 3 1.55874 2.683901 2.12132 2.12132 
C 2.683901 1.55874 3 0.795609 3 0 
C 3 -0.795609 2.683901 -1.55874 2.12132 -2.12132 
C 1.55874 -2.683901 0.795609 -3 0 -3 
C -0.795609 -3 -1.55874 -2.683901 -2.12132 -2.12132 
C -2.683901 -1.55874 -3 -0.795609 -3 0 
C -3 0.795609 -2.683901 1.55874 -2.12132 2.12132 
C -1.55874 2.683901 -0.795609 3 0 3 
z
" style="stroke: #1f77b4"/>
    </defs>
    <g clip-path="url(#p977cb3e4e6)">
     <use xlink:href="#m9546ec5b5a" x="449.825" y="165.658826" style="fill: #1f77b4; stroke: #1f77b4"/>
    </g>
   </g>
   <g id="line2d_58">
    <defs>
     <path id="mdad6e84bd1" d="M 0 3 
C 0.795609 3 1.55874 2.683901 2.12132 2.12132 
C 2.683901 1.55874 3 0.795609 3 0 
C 3 -0.795609 2.683901 -1.55874 2.12132 -2.12132 
C 1.55874 -2.683901 0.795609 -3 0 -3 
C -0.795609 -3 -1.55874 -2.683901 -2.12132 -2.12132 
C -2.683901 -1.55874 -3 -0.795609 -3 0 
C -3 0.795609 -2.683901 1.55874 -2.12132 2.12132 
C -1.55874 2.683901 -0.795609 3 0 3 
z
" style="stroke: #ff7f0e"/>
    </defs>
    <g clip-path="url(#p977cb3e4e6)">
     <use xlink:href="#mdad6e84bd1" x="436.415909" y="156.992204" style="fill: #ff7f0e; stroke: #ff7f0e"/>
    </g>
   </g>
   <g id="line2d_59">
    <defs>
     <path id="m7d68ee41be" d="M 0 3 
C 0.795609 3 1.55874 2.683901 2.12132 2.12132 
C 2.683901 1.55874 3 0.795609 3 0 
C 3 -0.795609 2.683901 -1.55874 2.12132 -2.12132 
C 1.55874 -2.683901 0.795609 -3 0 -3 
C -0.795609 -3 -1.55874 -2.683901 -2.12132 -2.12132 
C -2.683901 -1.55874 -3 -0.795609 -3 0 
C -3 0.795609 -2.683901 1.55874 -2.12132 2.12132 
C -1.55874 2.683901 -0.795609 3 0 3 
z
" style="stroke: #2ca02c"/>
    </defs>
    <g clip-path="url(#p977cb3e4e6)">
     <use xlink:href="#m7d68ee41be" x="425.241667" y="148.415182" style="fill: #2ca02c; stroke: #2ca02c"/>
    </g>
   </g>
   <g id="line2d_60">
    <defs>
     <path id="m160eb22e9e" d="M 0 3 
C 0.795609 3 1.55874 2.683901 2.12132 2.12132 
C 2.683901 1.55874 3 0.795609 3 0 
C 3 -0.795609 2.683901 -1.55874 2.12132 -2.12132 
C 1.55874 -2.683901 0.795609 -3 0 -3 
C -0.795609 -3 -1.55874 -2.683901 -2.12132 -2.12132 
C -2.683901 -1.55874 -3 -0.795609 -3 0 
C -3 0.795609 -2.683901 1.55874 -2.12132 2.12132 
C -1.55874 2.683901 -0.795609 3 0 3 
z
" style="stroke: #d62728"/>
    </defs>
    <g clip-path="url(#p977cb3e4e6)">
     <use xlink:href="#m160eb22e9e" x="415.786538" y="140.185999" style="fill: #d62728; stroke: #d62728"/>
    </g>
   </g>
   <g id="line2d_61">
    <defs>
     <path id="m17626791ee" d="M 0 3 
C 0.795609 3 1.55874 2.683901 2.12132 2.12132 
C 2.683901 1.55874 3 0.795609 3 0 
C 3 -0.795609 2.683901 -1.55874 2.12132 -2.12132 
C 1.55874 -2.683901 0.795609 -3 0 -3 
C -0.795609 -3 -1.55874 -2.683901 -2.12132 -2.12132 
C -2.683901 -1.55874 -3 -0.795609 -3 0 
C -3 0.795609 -2.683901 1.55874 -2.12132 2.12132 
C -1.55874 2.683901 -0.795609 3 0 3 
z
" style="stroke: #9467bd"/>
    </defs>
    <g clip-path="url(#p977cb3e4e6)">
     <use xlink:href="#m17626791ee" x="407.682143" y="133.109742" style="fill: #9467bd; stroke: #9467bd"/>
    </g>
   </g>
   <g id="line2d_62">
    <defs>
     <path id="m79c64df9e3" d="M 0 3 
C 0.795609 3 1.55874 2.683901 2.12132 2.12132 
C 2.683901 1.55874 3 0.795609 3 0 
C 3 -0.795609 2.683901 -1.55874 2.12132 -2.12132 
C 1.55874 -2.683901 0.795609 -3 0 -3 
C -0.795609 -3 -1.55874 -2.683901 -2.12132 -2.12132 
C -2.683901 -1.55874 -3 -0.795609 -3 0 
C -3 0.795609 -2.683901 1.55874 -2.12132 2.12132 
C -1.55874 2.683901 -0.795609 3 0 3 
z
" style="stroke: #8c564b"/>
    </defs>
    <g clip-path="url(#p977cb3e4e6)">
     <use xlink:href="#m79c64df9e3" x="400.658333" y="131.79401" style="fill: #8c564b; stroke: #8c564b"/>
    </g>
   </g>
   <g id="line2d_63">
    <g clip-path="url(#p977cb3e4e6)">
     <use xlink:href="#mcab0db10bc" x="302.325" y="57.956116" style="fill: #ff0000; stroke: #ff0000"/>
    </g>
   </g>
   <g id="line2d_64">
    <defs>
     <path id="m0e5dc74b75" d="M 0 3 
C 0.795609 3 1.55874 2.683901 2.12132 2.12132 
C 2.683901 1.55874 3 0.795609 3 0 
C 3 -0.795609 2.683901 -1.55874 2.12132 -2.12132 
C 1.55874 -2.683901 0.795609 -3 0 -3 
C -0.795609 -3 -1.55874 -2.683901 -2.12132 -2.12132 
C -2.683901 -1.55874 -3 -0.795609 -3 0 
C -3 0.795609 -2.683901 1.55874 -2.12132 2.12132 
C -1.55874 2.683901 -0.795609 3 0 3 
z
" style="stroke: #000000"/>
    </defs>
    <g clip-path="url(#p977cb3e4e6)">
     <use xlink:href="#m0e5dc74b75" x="449.825" y="42.886627" style="stroke: #000000"/>
    </g>
   </g>
   <g id="line2d_65">
    <g clip-path="url(#p977cb3e4e6)">
     <use xlink:href="#m0e5dc74b75" x="436.415909" y="42.411357" style="stroke: #000000"/>
    </g>
   </g>
   <g id="line2d_66">
    <g clip-path="url(#p977cb3e4e6)">
     <use xlink:href="#m0e5dc74b75" x="425.241667" y="42.088348" style="stroke: #000000"/>
    </g>
   </g>
   <g id="line2d_67">
    <g clip-path="url(#p977cb3e4e6)">
     <use xlink:href="#m0e5dc74b75" x="415.786538" y="41.865486" style="stroke: #000000"/>
    </g>
   </g>
   <g id="line2d_68">
    <g clip-path="url(#p977cb3e4e6)">
     <use xlink:href="#m0e5dc74b75" x="407.682143" y="41.702024" style="stroke: #000000"/>
    </g>
   </g>
   <g id="line2d_69">
    <g clip-path="url(#p977cb3e4e6)">
     <use xlink:href="#m0e5dc74b75" x="400.658333" y="41.581568" style="stroke: #000000"/>
    </g>
   </g>
   <g id="line2d_70">
    <g clip-path="url(#p977cb3e4e6)">
     <use xlink:href="#mcab0db10bc" x="302.325" y="38.914273" style="fill: #ff0000; stroke: #ff0000"/>
    </g>
   </g>
   <g id="patch_9">
    <path d="M 294.95 172.312 
L 294.95 32.562 
" style="fill: none; stroke: #000000; stroke-width: 0.8; stroke-linejoin: miter; stroke-linecap: square"/>
   </g>
   <g id="patch_10">
    <path d="M 457.2 172.312 
L 457.2 32.562 
" style="fill: none; stroke: #000000; stroke-width: 0.8; stroke-linejoin: miter; stroke-linecap: square"/>
   </g>
   <g id="patch_11">
    <path d="M 294.95 172.312 
L 457.2 172.312 
" style="fill: none; stroke: #000000; stroke-width: 0.8; stroke-linejoin: miter; stroke-linecap: square"/>
   </g>
   <g id="patch_12">
    <path d="M 294.95 32.562 
L 457.2 32.562 
" style="fill: none; stroke: #000000; stroke-width: 0.8; stroke-linejoin: miter; stroke-linecap: square"/>
   </g>
   <g id="text_28">
    <!-- $\lim_{n_\nu \rightarrow \infty} \, \chi(\mathbf{M}) \approx $$0.0316$ -->
    <g transform="translate(318.775 24.162) scale(0.12 -0.12)">
     <defs>
      <path id="DejaVuSans-6c" d="M 603 4863 
L 1178 4863 
L 1178 0 
L 603 0 
L 603 4863 
z
" transform="scale(0.015625)"/>
      <path id="DejaVuSans-69" d="M 603 3500 
L 1178 3500 
L 1178 0 
L 603 0 
L 603 3500 
z
M 603 4863 
L 1178 4863 
L 1178 4134 
L 603 4134 
L 603 4863 
z
" transform="scale(0.015625)"/>
      <path id="DejaVuSans-6d" d="M 3328 2828 
Q 3544 3216 3844 3400 
Q 4144 3584 4550 3584 
Q 5097 3584 5394 3201 
Q 5691 2819 5691 2113 
L 5691 0 
L 5113 0 
L 5113 2094 
Q 5113 2597 4934 2840 
Q 4756 3084 4391 3084 
Q 3944 3084 3684 2787 
Q 3425 2491 3425 1978 
L 3425 0 
L 2847 0 
L 2847 2094 
Q 2847 2600 2669 2842 
Q 2491 3084 2119 3084 
Q 1678 3084 1418 2786 
Q 1159 2488 1159 1978 
L 1159 0 
L 581 0 
L 581 3500 
L 1159 3500 
L 1159 2956 
Q 1356 3278 1631 3431 
Q 1906 3584 2284 3584 
Q 2666 3584 2933 3390 
Q 3200 3197 3328 2828 
z
" transform="scale(0.015625)"/>
      <path id="DejaVuSans-Oblique-6e" d="M 3566 2113 
L 3156 0 
L 2578 0 
L 2988 2091 
Q 3016 2238 3031 2350 
Q 3047 2463 3047 2528 
Q 3047 2791 2881 2937 
Q 2716 3084 2419 3084 
Q 1956 3084 1622 2776 
Q 1288 2469 1184 1941 
L 800 0 
L 225 0 
L 903 3500 
L 1478 3500 
L 1363 2950 
Q 1603 3253 1940 3418 
Q 2278 3584 2650 3584 
Q 3113 3584 3367 3334 
Q 3622 3084 3622 2631 
Q 3622 2519 3608 2391 
Q 3594 2263 3566 2113 
z
" transform="scale(0.015625)"/>
      <path id="DejaVuSans-2192" d="M 5050 2147 
L 5050 1866 
L 3822 638 
L 3447 1013 
L 4175 1741 
L 366 1741 
L 366 2272 
L 4175 2272 
L 3447 3000 
L 3822 3375 
L 5050 2147 
z
" transform="scale(0.015625)"/>
      <path id="DejaVuSans-221e" d="M 2916 1091 
Q 2819 1203 2666 1466 
Q 2456 1091 2272 925 
Q 2041 725 1681 725 
Q 1259 725 981 1041 
Q 688 1372 688 1919 
Q 688 2444 981 2800 
Q 1244 3116 1688 3116 
Q 1916 3116 2084 3022 
Q 2281 2919 2416 2741 
Q 2541 2581 2666 2366 
Q 2875 2741 3059 2906 
Q 3291 3106 3650 3106 
Q 4072 3106 4350 2791 
Q 4644 2459 4644 1913 
Q 4644 1388 4350 1031 
Q 4088 716 3644 716 
Q 3416 716 3247 809 
Q 3078 894 2916 1091 
z
M 1647 1134 
Q 2163 1134 2472 1884 
Q 2075 2703 1647 2703 
Q 1334 2703 1175 2478 
Q 1003 2238 1003 1919 
Q 1003 1569 1175 1353 
Q 1350 1134 1647 1134 
z
M 3684 2697 
Q 3219 2697 2859 1947 
Q 3253 1128 3684 1128 
Q 3997 1128 4156 1353 
Q 4328 1594 4328 1913 
Q 4328 2263 4156 2478 
Q 3981 2697 3684 2697 
z
" transform="scale(0.015625)"/>
      <path id="DejaVuSans-2248" d="M 4684 1947 
L 4684 1388 
Q 4356 1144 4076 1036 
Q 3797 928 3494 928 
Q 3150 928 2694 1113 
Q 2663 1125 2641 1134 
Q 2622 1141 2575 1159 
Q 2091 1350 1797 1350 
Q 1522 1350 1253 1231 
Q 984 1113 678 850 
L 678 1409 
Q 1006 1653 1286 1761 
Q 1566 1869 1869 1869 
Q 2213 1869 2672 1684 
Q 2706 1669 2722 1663 
Q 2741 1656 2788 1638 
Q 3272 1447 3566 1447 
Q 3834 1447 4098 1564 
Q 4363 1681 4684 1947 
z
M 4684 3163 
L 4684 2606 
Q 4356 2359 4076 2251 
Q 3797 2144 3494 2144 
Q 3150 2144 2694 2328 
Q 2663 2341 2641 2350 
Q 2622 2356 2575 2375 
Q 2091 2566 1797 2566 
Q 1522 2566 1253 2447 
Q 984 2328 678 2069 
L 678 2625 
Q 1006 2869 1286 2976 
Q 1566 3084 1869 3084 
Q 2213 3084 2672 2900 
Q 2703 2888 2719 2881 
Q 2741 2872 2788 2853 
Q 3272 2663 3566 2663 
Q 3834 2663 4098 2780 
Q 4363 2897 4684 3163 
z
" transform="scale(0.015625)"/>
     </defs>
     <use xlink:href="#DejaVuSans-6c" transform="translate(38 0.015625)"/>
     <use xlink:href="#DejaVuSans-69" transform="translate(65.783203 0.015625)"/>
     <use xlink:href="#DejaVuSans-6d" transform="translate(93.566406 0.015625)"/>
     <use xlink:href="#DejaVuSans-Oblique-6e" transform="translate(0 -57.934375) scale(0.7)"/>
     <use xlink:href="#DejaVuSans-Oblique-3bd" transform="translate(44.365234 -69.41875) scale(0.49)"/>
     <use xlink:href="#DejaVuSans-2192" transform="translate(98.653059 -57.934375) scale(0.7)"/>
     <use xlink:href="#DejaVuSans-221e" transform="translate(170.943098 -57.934375) scale(0.7)"/>
     <use xlink:href="#DejaVuSans-Oblique-3c7" transform="translate(245.489322 0.015625)"/>
     <use xlink:href="#DejaVuSans-28" transform="translate(304.669009 0.015625)"/>
     <use xlink:href="#DejaVuSans-Bold-4d" transform="translate(343.682681 0.015625)"/>
     <use xlink:href="#DejaVuSans-29" transform="translate(443.1944 0.015625)"/>
     <use xlink:href="#DejaVuSans-2248" transform="translate(501.690493 0.015625)"/>
     <use xlink:href="#DejaVuSans-30" transform="translate(604.961978 0.015625)"/>
     <use xlink:href="#DejaVuSans-2e" transform="translate(668.585025 0.015625)"/>
     <use xlink:href="#DejaVuSans-30" transform="translate(700.372134 0.015625)"/>
     <use xlink:href="#DejaVuSans-33" transform="translate(763.995181 0.015625)"/>
     <use xlink:href="#DejaVuSans-31" transform="translate(827.618228 0.015625)"/>
     <use xlink:href="#DejaVuSans-36" transform="translate(891.241275 0.015625)"/>
    </g>
   </g>
   <g id="legend_2">
    <g id="patch_13">
     <path d="M 300.55 168.312 
L 341.6325 168.312 
Q 343.2325 168.312 343.2325 166.712 
L 343.2325 155.7695 
Q 343.2325 154.1695 341.6325 154.1695 
L 300.55 154.1695 
Q 298.95 154.1695 298.95 155.7695 
L 298.95 166.712 
Q 298.95 168.312 300.55 168.312 
z
" style="fill: #ffffff; opacity: 0.8; stroke: #cccccc; stroke-linejoin: miter"/>
    </g>
    <g id="line2d_71">
     <g>
      <use xlink:href="#mcab0db10bc" x="310.15" y="160.64825" style="fill: #ff0000; stroke: #ff0000"/>
     </g>
    </g>
    <g id="text_29">
     <!-- BSE -->
     <g transform="translate(324.55 163.44825) scale(0.08 -0.08)">
      <defs>
       <path id="DejaVuSans-42" d="M 1259 2228 
L 1259 519 
L 2272 519 
Q 2781 519 3026 730 
Q 3272 941 3272 1375 
Q 3272 1813 3026 2020 
Q 2781 2228 2272 2228 
L 1259 2228 
z
M 1259 4147 
L 1259 2741 
L 2194 2741 
Q 2656 2741 2882 2914 
Q 3109 3088 3109 3444 
Q 3109 3797 2882 3972 
Q 2656 4147 2194 4147 
L 1259 4147 
z
M 628 4666 
L 2241 4666 
Q 2963 4666 3353 4366 
Q 3744 4066 3744 3513 
Q 3744 3084 3544 2831 
Q 3344 2578 2956 2516 
Q 3422 2416 3680 2098 
Q 3938 1781 3938 1306 
Q 3938 681 3513 340 
Q 3088 0 2303 0 
L 628 0 
L 628 4666 
z
" transform="scale(0.015625)"/>
       <path id="DejaVuSans-53" d="M 3425 4513 
L 3425 3897 
Q 3066 4069 2747 4153 
Q 2428 4238 2131 4238 
Q 1616 4238 1336 4038 
Q 1056 3838 1056 3469 
Q 1056 3159 1242 3001 
Q 1428 2844 1947 2747 
L 2328 2669 
Q 3034 2534 3370 2195 
Q 3706 1856 3706 1288 
Q 3706 609 3251 259 
Q 2797 -91 1919 -91 
Q 1588 -91 1214 -16 
Q 841 59 441 206 
L 441 856 
Q 825 641 1194 531 
Q 1563 422 1919 422 
Q 2459 422 2753 634 
Q 3047 847 3047 1241 
Q 3047 1584 2836 1778 
Q 2625 1972 2144 2069 
L 1759 2144 
Q 1053 2284 737 2584 
Q 422 2884 422 3419 
Q 422 4038 858 4394 
Q 1294 4750 2059 4750 
Q 2388 4750 2728 4690 
Q 3069 4631 3425 4513 
z
" transform="scale(0.015625)"/>
       <path id="DejaVuSans-45" d="M 628 4666 
L 3578 4666 
L 3578 4134 
L 1259 4134 
L 1259 2753 
L 3481 2753 
L 3481 2222 
L 1259 2222 
L 1259 531 
L 3634 531 
L 3634 0 
L 628 0 
L 628 4666 
z
" transform="scale(0.015625)"/>
      </defs>
      <use xlink:href="#DejaVuSans-42"/>
      <use xlink:href="#DejaVuSans-53" x="66.853516"/>
      <use xlink:href="#DejaVuSans-45" x="130.330078"/>
     </g>
    </g>
   </g>
  </g>
 </g>
 <defs>
  <clipPath id="pe13ca31b0c">
   <rect x="63.2" y="32.562" width="162.25" height="139.75"/>
  </clipPath>
  <clipPath id="p977cb3e4e6">
   <rect x="294.95" y="32.562" width="162.25" height="139.75"/>
  </clipPath>
 </defs>
</svg>
