<?xml version="1.0" encoding="utf-8" standalone="no"?>
<!DOCTYPE svg PUBLIC "-//W3C//DTD SVG 1.1//EN"
  "http://www.w3.org/Graphics/SVG/1.1/DTD/svg11.dtd">
<svg xmlns:xlink="http://www.w3.org/1999/xlink" width="468pt" height="216pt" viewBox="0 0 468 216" xmlns="http://www.w3.org/2000/svg" version="1.1">
 <metadata>
  <rdf:RDF xmlns:dc="http://purl.org/dc/elements/1.1/" xmlns:cc="http://creativecommons.org/ns#" xmlns:rdf="http://www.w3.org/1999/02/22-rdf-syntax-ns#">
   <cc:Work>
    <dc:type rdf:resource="http://purl.org/dc/dcmitype/StillImage"/>
    <dc:date>2026-07-14T13:11:51.025214</dc:date>
    <dc:format>image/svg+xml</dc:format>
    <dc:creator>
     <cc:Agent>
      <dc:title>Matplotlib v3.9.1, https://matplotlib.org/</dc:title>
     </cc:Agent>
    </dc:creator>
   </cc:Work>
  </rdf:RDF>
 </metadata>
 <defs>
  <style type="text/css">*{stroke-linejoin: round; stroke-linecap: butt}</style>
 </defs>
 <g id="figure_1">
  <g id="patch_1">
   <path d="M 0 216 
L 468 216 
L 468 0 
L 0 0 
z
" style="fill: #ffffff"/>
  </g>
  <g id="axes_1">
   <g id="patch_2">
    <path d="M 63.2 172.312 
L 225.405 172.312 
L 225.405 32.562 
L 63.2 32.562 
z
" style="fill: #ffffff"/>
   </g>
   <g id="matplotlib.axis_1">
    <g id="xtick_1">
     <g id="line2d_1">
      <path d="M 70.572955 172.312 
L 70.572955 32.562 
" clip-path="url(#p616b875644)" style="fill: none; stroke: #b0b0b0; stroke-width: 0.8; stroke-linecap: square"/>
     </g>
     <g id="line2d_2">
      <defs>
       <path id="m0e516540ae" d="M 0 0 
L 0 3.5 
" style="stroke: #000000; stroke-width: 0.8"/>
      </defs>
      <g>
       <use xlink:href="#m0e516540ae" x="70.572955" y="172.312" style="stroke: #000000; stroke-width: 0.8"/>
      </g>
     </g>
     <g id="text_1">
      <!-- $\Gamma$ -->
      <g transform="translate(67.772955 186.910438) scale(0.1 -0.1)">
       <defs>
        <path id="DejaVuSans-393" d="M 628 0 
L 628 4666 
L 3531 4666 
L 3531 4134 
L 1259 4134 
L 1259 0 
L 628 0 
z
" transform="scale(0.015625)"/>
       </defs>
       <use xlink:href="#DejaVuSans-393" transform="translate(0 0.09375)"/>
      </g>
     </g>
    </g>
    <g id="xtick_2">
     <g id="line2d_3">
      <path d="M 131.65251 172.312 
L 131.65251 32.562 
" clip-path="url(#p616b875644)" style="fill: none; stroke: #b0b0b0; stroke-width: 0.8; stroke-linecap: square"/>
     </g>
     <g id="line2d_4">
      <g>
       <use xlink:href="#m0e516540ae" x="131.65251" y="172.312" style="stroke: #000000; stroke-width: 0.8"/>
      </g>
     </g>
     <g id="text_2">
      <!-- $M$ -->
      <g transform="translate(127.30251 186.910438) scale(0.1 -0.1)">
       <defs>
        <path id="DejaVuSans-Oblique-4d" d="M 1081 4666 
L 2028 4666 
L 2572 1522 
L 4378 4666 
L 5350 4666 
L 4441 0 
L 3828 0 
L 4622 4091 
L 2791 897 
L 2175 897 
L 1581 4103 
L 788 0 
L 172 0 
L 1081 4666 
z
" transform="scale(0.015625)"/>
       </defs>
       <use xlink:href="#DejaVuSans-Oblique-4d" transform="translate(0 0.09375)"/>
      </g>
     </g>
    </g>
    <g id="xtick_3">
     <g id="line2d_5">
      <path d="M 174.842278 172.312 
L 174.842278 32.562 
" clip-path="url(#p616b875644)" style="fill: none; stroke: #b0b0b0; stroke-width: 0.8; stroke-linecap: square"/>
     </g>
     <g id="line2d_6">
      <g>
       <use xlink:href="#m0e516540ae" x="174.842278" y="172.312" style="stroke: #000000; stroke-width: 0.8"/>
      </g>
     </g>
     <g id="text_3">
      <!-- $X$ -->
      <g transform="translate(171.392278 186.910438) scale(0.1 -0.1)">
       <defs>
        <path id="DejaVuSans-Oblique-58" d="M 878 4666 
L 1516 4666 
L 2316 2981 
L 3763 4666 
L 4500 4666 
L 2578 2438 
L 3738 0 
L 3103 0 
L 2163 1966 
L 459 0 
L -275 0 
L 1906 2509 
L 878 4666 
z
" transform="scale(0.015625)"/>
       </defs>
       <use xlink:href="#DejaVuSans-Oblique-58" transform="translate(0 0.09375)"/>
      </g>
     </g>
    </g>
    <g id="xtick_4">
     <g id="line2d_7">
      <path d="M 218.032045 172.312 
L 218.032045 32.562 
" clip-path="url(#p616b875644)" style="fill: none; stroke: #b0b0b0; stroke-width: 0.8; stroke-linecap: square"/>
     </g>
     <g id="line2d_8">
      <g>
       <use xlink:href="#m0e516540ae" x="218.032045" y="172.312" style="stroke: #000000; stroke-width: 0.8"/>
      </g>
     </g>
     <g id="text_4">
      <!-- $\Gamma$ -->
      <g transform="translate(215.232045 186.910438) scale(0.1 -0.1)">
       <use xlink:href="#DejaVuSans-393" transform="translate(0 0.09375)"/>
      </g>
     </g>
    </g>
   </g>
   <g id="matplotlib.axis_2">
    <g id="ytick_1">
     <g id="line2d_9">
      <path d="M 63.2 164.811071 
L 225.405 164.811071 
" clip-path="url(#p616b875644)" style="fill: none; stroke: #b0b0b0; stroke-width: 0.8; stroke-linecap: square"/>
     </g>
     <g id="line2d_10">
      <defs>
       <path id="mdf562aaccd" d="M 0 0 
L -3.5 0 
" style="stroke: #000000; stroke-width: 0.8"/>
      </defs>
      <g>
       <use xlink:href="#mdf562aaccd" x="63.2" y="164.811071" style="stroke: #000000; stroke-width: 0.8"/>
      </g>
     </g>
     <g id="text_5">
      <!-- 0.000 -->
      <g transform="translate(27.571875 168.610289) scale(0.1 -0.1)">
       <defs>
        <path id="DejaVuSans-30" d="M 2034 4250 
Q 1547 4250 1301 3770 
Q 1056 3291 1056 2328 
Q 1056 1369 1301 889 
Q 1547 409 2034 409 
Q 2525 409 2770 889 
Q 3016 1369 3016 2328 
Q 3016 3291 2770 3770 
Q 2525 4250 2034 4250 
z
M 2034 4750 
Q 2819 4750 3233 4129 
Q 3647 3509 3647 2328 
Q 3647 1150 3233 529 
Q 2819 -91 2034 -91 
Q 1250 -91 836 529 
Q 422 1150 422 2328 
Q 422 3509 836 4129 
Q 1250 4750 2034 4750 
z
" transform="scale(0.015625)"/>
        <path id="DejaVuSans-2e" d="M 684 794 
L 1344 794 
L 1344 0 
L 684 0 
L 684 794 
z
" transform="scale(0.015625)"/>
       </defs>
       <use xlink:href="#DejaVuSans-30"/>
       <use xlink:href="#DejaVuSans-2e" x="63.623047"/>
       <use xlink:href="#DejaVuSans-30" x="95.410156"/>
       <use xlink:href="#DejaVuSans-30" x="159.033203"/>
       <use xlink:href="#DejaVuSans-30" x="222.65625"/>
      </g>
     </g>
    </g>
    <g id="ytick_2">
     <g id="line2d_11">
      <path d="M 63.2 136.350245 
L 225.405 136.350245 
" clip-path="url(#p616b875644)" style="fill: none; stroke: #b0b0b0; stroke-width: 0.8; stroke-linecap: square"/>
     </g>
     <g id="line2d_12">
      <g>
       <use xlink:href="#mdf562aaccd" x="63.2" y="136.350245" style="stroke: #000000; stroke-width: 0.8"/>
      </g>
     </g>
     <g id="text_6">
      <!-- 0.002 -->
      <g transform="translate(27.571875 140.149463) scale(0.1 -0.1)">
       <defs>
        <path id="DejaVuSans-32" d="M 1228 531 
L 3431 531 
L 3431 0 
L 469 0 
L 469 531 
Q 828 903 1448 1529 
Q 2069 2156 2228 2338 
Q 2531 2678 2651 2914 
Q 2772 3150 2772 3378 
Q 2772 3750 2511 3984 
Q 2250 4219 1831 4219 
Q 1534 4219 1204 4116 
Q 875 4013 500 3803 
L 500 4441 
Q 881 4594 1212 4672 
Q 1544 4750 1819 4750 
Q 2544 4750 2975 4387 
Q 3406 4025 3406 3419 
Q 3406 3131 3298 2873 
Q 3191 2616 2906 2266 
Q 2828 2175 2409 1742 
Q 1991 1309 1228 531 
z
" transform="scale(0.015625)"/>
       </defs>
       <use xlink:href="#DejaVuSans-30"/>
       <use xlink:href="#DejaVuSans-2e" x="63.623047"/>
       <use xlink:href="#DejaVuSans-30" x="95.410156"/>
       <use xlink:href="#DejaVuSans-30" x="159.033203"/>
       <use xlink:href="#DejaVuSans-32" x="222.65625"/>
      </g>
     </g>
    </g>
    <g id="ytick_3">
     <g id="line2d_13">
      <path d="M 63.2 107.889418 
L 225.405 107.889418 
" clip-path="url(#p616b875644)" style="fill: none; stroke: #b0b0b0; stroke-width: 0.8; stroke-linecap: square"/>
     </g>
     <g id="line2d_14">
      <g>
       <use xlink:href="#mdf562aaccd" x="63.2" y="107.889418" style="stroke: #000000; stroke-width: 0.8"/>
      </g>
     </g>
     <g id="text_7">
      <!-- 0.004 -->
      <g transform="translate(27.571875 111.688637) scale(0.1 -0.1)">
       <defs>
        <path id="DejaVuSans-34" d="M 2419 4116 
L 825 1625 
L 2419 1625 
L 2419 4116 
z
M 2253 4666 
L 3047 4666 
L 3047 1625 
L 3713 1625 
L 3713 1100 
L 3047 1100 
L 3047 0 
L 2419 0 
L 2419 1100 
L 313 1100 
L 313 1709 
L 2253 4666 
z
" transform="scale(0.015625)"/>
       </defs>
       <use xlink:href="#DejaVuSans-30"/>
       <use xlink:href="#DejaVuSans-2e" x="63.623047"/>
       <use xlink:href="#DejaVuSans-30" x="95.410156"/>
       <use xlink:href="#DejaVuSans-30" x="159.033203"/>
       <use xlink:href="#DejaVuSans-34" x="222.65625"/>
      </g>
     </g>
    </g>
    <g id="ytick_4">
     <g id="line2d_15">
      <path d="M 63.2 79.428592 
L 225.405 79.428592 
" clip-path="url(#p616b875644)" style="fill: none; stroke: #b0b0b0; stroke-width: 0.8; stroke-linecap: square"/>
     </g>
     <g id="line2d_16">
      <g>
       <use xlink:href="#mdf562aaccd" x="63.2" y="79.428592" style="stroke: #000000; stroke-width: 0.8"/>
      </g>
     </g>
     <g id="text_8">
      <!-- 0.006 -->
      <g transform="translate(27.571875 83.227811) scale(0.1 -0.1)">
       <defs>
        <path id="DejaVuSans-36" d="M 2113 2584 
Q 1688 2584 1439 2293 
Q 1191 2003 1191 1497 
Q 1191 994 1439 701 
Q 1688 409 2113 409 
Q 2538 409 2786 701 
Q 3034 994 3034 1497 
Q 3034 2003 2786 2293 
Q 2538 2584 2113 2584 
z
M 3366 4563 
L 3366 3988 
Q 3128 4100 2886 4159 
Q 2644 4219 2406 4219 
Q 1781 4219 1451 3797 
Q 1122 3375 1075 2522 
Q 1259 2794 1537 2939 
Q 1816 3084 2150 3084 
Q 2853 3084 3261 2657 
Q 3669 2231 3669 1497 
Q 3669 778 3244 343 
Q 2819 -91 2113 -91 
Q 1303 -91 875 529 
Q 447 1150 447 2328 
Q 447 3434 972 4092 
Q 1497 4750 2381 4750 
Q 2619 4750 2861 4703 
Q 3103 4656 3366 4563 
z
" transform="scale(0.015625)"/>
       </defs>
       <use xlink:href="#DejaVuSans-30"/>
       <use xlink:href="#DejaVuSans-2e" x="63.623047"/>
       <use xlink:href="#DejaVuSans-30" x="95.410156"/>
       <use xlink:href="#DejaVuSans-30" x="159.033203"/>
       <use xlink:href="#DejaVuSans-36" x="222.65625"/>
      </g>
     </g>
    </g>
    <g id="ytick_5">
     <g id="line2d_17">
      <path d="M 63.2 50.967766 
L 225.405 50.967766 
" clip-path="url(#p616b875644)" style="fill: none; stroke: #b0b0b0; stroke-width: 0.8; stroke-linecap: square"/>
     </g>
     <g id="line2d_18">
      <g>
       <use xlink:href="#mdf562aaccd" x="63.2" y="50.967766" style="stroke: #000000; stroke-width: 0.8"/>
      </g>
     </g>
     <g id="text_9">
      <!-- 0.008 -->
      <g transform="translate(27.571875 54.766985) scale(0.1 -0.1)">
       <defs>
        <path id="DejaVuSans-38" d="M 2034 2216 
Q 1584 2216 1326 1975 
Q 1069 1734 1069 1313 
Q 1069 891 1326 650 
Q 1584 409 2034 409 
Q 2484 409 2743 651 
Q 3003 894 3003 1313 
Q 3003 1734 2745 1975 
Q 2488 2216 2034 2216 
z
M 1403 2484 
Q 997 2584 770 2862 
Q 544 3141 544 3541 
Q 544 4100 942 4425 
Q 1341 4750 2034 4750 
Q 2731 4750 3128 4425 
Q 3525 4100 3525 3541 
Q 3525 3141 3298 2862 
Q 3072 2584 2669 2484 
Q 3125 2378 3379 2068 
Q 3634 1759 3634 1313 
Q 3634 634 3220 271 
Q 2806 -91 2034 -91 
Q 1263 -91 848 271 
Q 434 634 434 1313 
Q 434 1759 690 2068 
Q 947 2378 1403 2484 
z
M 1172 3481 
Q 1172 3119 1398 2916 
Q 1625 2713 2034 2713 
Q 2441 2713 2670 2916 
Q 2900 3119 2900 3481 
Q 2900 3844 2670 4047 
Q 2441 4250 2034 4250 
Q 1625 4250 1398 4047 
Q 1172 3844 1172 3481 
z
" transform="scale(0.015625)"/>
       </defs>
       <use xlink:href="#DejaVuSans-30"/>
       <use xlink:href="#DejaVuSans-2e" x="63.623047"/>
       <use xlink:href="#DejaVuSans-30" x="95.410156"/>
       <use xlink:href="#DejaVuSans-30" x="159.033203"/>
       <use xlink:href="#DejaVuSans-38" x="222.65625"/>
      </g>
     </g>
    </g>
    <g id="text_10">
     <!-- $\chi(\mathbf{Q})$ -->
     <g transform="translate(21.471875 113.587) rotate(-90) scale(0.1 -0.1)">
      <defs>
       <path id="DejaVuSans-Oblique-3c7" d="M 1922 -781 
L 1691 416 
L 394 -1334 
L -284 -1334 
L 1553 1141 
L 1269 2613 
Q 1194 3006 713 3006 
L 559 3006 
L 653 3500 
L 872 3494 
Q 1675 3472 1775 2950 
L 2006 1753 
L 3303 3503 
L 3981 3503 
L 2144 1028 
L 2428 -444 
Q 2503 -838 2984 -838 
L 3138 -838 
L 3044 -1331 
L 2825 -1325 
Q 2022 -1303 1922 -781 
z
" transform="scale(0.015625)"/>
       <path id="DejaVuSans-28" d="M 1984 4856 
Q 1566 4138 1362 3434 
Q 1159 2731 1159 2009 
Q 1159 1288 1364 580 
Q 1569 -128 1984 -844 
L 1484 -844 
Q 1016 -109 783 600 
Q 550 1309 550 2009 
Q 550 2706 781 3412 
Q 1013 4119 1484 4856 
L 1984 4856 
z
" transform="scale(0.015625)"/>
       <path id="DejaVuSans-Bold-51" d="M 2847 -84 
L 2753 -84 
Q 1600 -84 959 553 
Q 319 1191 319 2328 
Q 319 3463 958 4106 
Q 1597 4750 2719 4750 
Q 3853 4750 4486 4112 
Q 5119 3475 5119 2328 
Q 5119 1541 4783 972 
Q 4447 403 3816 116 
L 4756 -934 
L 3609 -934 
L 2847 -84 
z
M 2719 3878 
Q 2169 3878 1866 3472 
Q 1563 3066 1563 2328 
Q 1563 1578 1859 1179 
Q 2156 781 2719 781 
Q 3272 781 3575 1187 
Q 3878 1594 3878 2328 
Q 3878 3066 3575 3472 
Q 3272 3878 2719 3878 
z
" transform="scale(0.015625)"/>
       <path id="DejaVuSans-29" d="M 513 4856 
L 1013 4856 
Q 1481 4119 1714 3412 
Q 1947 2706 1947 2009 
Q 1947 1309 1714 600 
Q 1481 -109 1013 -844 
L 513 -844 
Q 928 -128 1133 580 
Q 1338 1288 1338 2009 
Q 1338 2731 1133 3434 
Q 928 4138 513 4856 
z
" transform="scale(0.015625)"/>
      </defs>
      <use xlink:href="#DejaVuSans-Oblique-3c7" transform="translate(0 0.125)"/>
      <use xlink:href="#DejaVuSans-28" transform="translate(59.179688 0.125)"/>
      <use xlink:href="#DejaVuSans-Bold-51" transform="translate(98.193359 0.125)"/>
      <use xlink:href="#DejaVuSans-29" transform="translate(183.203125 0.125)"/>
     </g>
    </g>
   </g>
   <g id="line2d_19">
    <path d="M 70.572955 161.51432 
L 77.976537 146.647428 
L 84.763154 133.501813 
L 85.380119 132.329636 
L 85.997085 130.823819 
L 89.698876 116.170598 
L 93.400667 102.376086 
L 97.102458 89.440281 
L 100.80425 77.363185 
L 102.03818 74.136889 
L 105.123006 66.965933 
L 108.207832 60.345468 
L 111.292658 54.275493 
L 114.377484 48.75601 
L 116.22838 45.708555 
L 116.845345 45.236371 
L 122.398032 42.650245 
L 127.950719 40.322526 
L 131.65251 38.914273 
L 131.65251 38.914273 
L 142.559017 41.796061 
L 153.465524 51.452678 
L 163.935771 64.789098 
L 165.244552 65.714415 
L 174.842278 72.005589 
L 174.842278 72.005589 
L 185.312524 82.277816 
L 185.748785 82.892845 
L 197.091552 113.779309 
L 207.125538 145.554328 
L 207.998059 147.003772 
L 218.032045 161.51432 
L 218.032045 161.51432 
" clip-path="url(#p616b875644)" style="fill: none; stroke: #1f77b4; stroke-width: 1.5; stroke-linecap: square"/>
   </g>
   <g id="line2d_20">
    <path d="M 70.572955 161.390697 
L 77.976537 146.551259 
L 84.763154 133.427838 
L 85.380119 132.257537 
L 85.997085 130.753916 
L 89.698876 116.118821 
L 93.400667 102.340257 
L 97.102458 89.418223 
L 100.80425 77.352718 
L 102.03818 74.129093 
L 105.123006 66.964014 
L 108.207832 60.349225 
L 111.292658 54.284723 
L 114.377484 48.77051 
L 116.22838 45.726121 
L 116.845345 45.254522 
L 122.398032 42.672469 
L 127.950719 40.348984 
L 131.65251 38.943641 
L 131.65251 38.943641 
L 142.559017 41.819222 
L 153.465524 51.462861 
L 163.935771 64.788335 
L 165.244552 65.713039 
L 174.842278 72.000215 
L 174.842278 72.000215 
L 185.312524 82.265063 
L 185.748785 82.879566 
L 197.091552 113.73395 
L 207.125538 145.461279 
L 207.998059 146.90808 
L 218.032045 161.390697 
L 218.032045 161.390697 
" clip-path="url(#p616b875644)" style="fill: none; stroke: #ff7f0e; stroke-width: 1.5; stroke-linecap: square"/>
   </g>
   <g id="line2d_21">
    <path d="M 70.572955 161.447392 
L 77.976537 146.623495 
L 84.763154 133.512155 
L 85.380119 132.34285 
L 85.997085 130.840313 
L 89.698876 116.212827 
L 93.400667 102.440398 
L 97.102458 89.523028 
L 100.80425 77.460714 
L 102.03818 74.237303 
L 105.123006 67.072274 
L 108.207832 60.457535 
L 111.292658 54.393087 
L 114.377484 48.878929 
L 116.22838 45.834573 
L 116.845345 45.363006 
L 122.398032 42.781419 
L 127.950719 40.458613 
L 131.65251 39.053844 
L 131.65251 39.053844 
L 142.559017 41.928131 
L 153.465524 51.570501 
L 163.935771 64.896203 
L 165.244552 65.820937 
L 174.842278 72.108334 
L 174.842278 72.108334 
L 185.312524 82.373054 
L 185.748785 82.987467 
L 197.091552 113.831863 
L 207.125538 145.53553 
L 207.998059 146.98085 
L 218.032045 161.447392 
L 218.032045 161.447392 
" clip-path="url(#p616b875644)" style="fill: none; stroke: #2ca02c; stroke-width: 1.5; stroke-linecap: square"/>
   </g>
   <g id="line2d_22">
    <path d="M 70.572955 162.691934 
L 77.976537 147.880924 
L 84.763154 134.779676 
L 85.380119 133.611208 
L 85.997085 132.109592 
L 89.698876 117.48876 
L 93.400667 103.721798 
L 97.102458 90.808707 
L 100.80425 78.749486 
L 102.03818 75.526383 
L 105.123006 68.361655 
L 108.207832 61.747142 
L 111.292658 55.682845 
L 114.377484 50.168764 
L 116.22838 47.124418 
L 116.845345 46.652854 
L 122.398032 44.071368 
L 127.950719 41.74877 
L 131.65251 40.344198 
L 131.65251 40.344198 
L 142.559017 43.218026 
L 153.465524 52.860016 
L 163.935771 66.185659 
L 165.244552 67.110379 
L 174.842278 73.397671 
L 174.842278 73.397671 
L 185.312524 83.661651 
L 185.748785 84.275958 
L 197.091552 115.110914 
L 207.125538 146.794587 
L 207.998059 148.238679 
L 218.032045 162.691934 
L 218.032045 162.691934 
" clip-path="url(#p616b875644)" style="fill: none; stroke: #d62728; stroke-width: 1.5; stroke-linecap: square"/>
   </g>
   <g id="line2d_23">
    <path d="M 70.572955 162.634892 
L 77.976537 147.838375 
L 84.763154 134.748781 
L 85.380119 133.581294 
L 85.997085 132.080803 
L 89.698876 117.468909 
L 93.400667 103.709734 
L 97.102458 90.803279 
L 100.80425 78.749543 
L 102.03818 75.527572 
L 105.123006 68.365218 
L 108.207832 61.753005 
L 111.292658 55.690932 
L 114.377484 50.179 
L 116.22838 47.135908 
L 116.845345 46.664582 
L 122.398032 44.084771 
L 127.950719 41.763949 
L 131.65251 40.360618 
L 131.65251 40.360618 
L 142.559017 43.231785 
L 153.465524 52.868241 
L 163.935771 66.188953 
L 165.244552 67.113378 
L 174.842278 73.398715 
L 174.842278 73.398715 
L 185.312524 83.659797 
L 185.748785 84.273879 
L 197.091552 115.094144 
L 207.125538 146.753712 
L 207.998059 148.196417 
L 218.032045 162.634892 
L 218.032045 162.634892 
" clip-path="url(#p616b875644)" style="fill: none; stroke: #9467bd; stroke-width: 1.5; stroke-linecap: square"/>
   </g>
   <g id="line2d_24">
    <path d="M 70.572955 163.523327 
L 77.976537 148.731204 
L 84.763154 135.644445 
L 85.380119 134.477159 
L 85.997085 132.976781 
L 89.698876 118.363701 
L 93.400667 104.602537 
L 97.102458 91.693289 
L 100.80425 79.635958 
L 102.03818 76.41222 
L 105.123006 69.245117 
L 108.207832 62.628185 
L 111.292658 56.561422 
L 114.377484 51.04483 
L 116.22838 47.998956 
L 116.845345 47.527118 
L 122.398032 44.944029 
L 127.950719 42.620085 
L 131.65251 41.214759 
L 131.65251 41.214759 
L 142.559017 44.090075 
L 153.465524 53.737233 
L 163.935771 67.068527 
L 165.244552 67.99355 
L 174.842278 74.282794 
L 174.842278 74.282794 
L 185.312524 84.548883 
L 185.748785 85.163196 
L 197.091552 115.990556 
L 207.125538 147.647408 
L 207.998059 149.089714 
L 218.032045 163.523327 
L 218.032045 163.523327 
" clip-path="url(#p616b875644)" style="fill: none; stroke: #8c564b; stroke-width: 1.5; stroke-linecap: square"/>
   </g>
   <g id="line2d_25">
    <defs>
     <path id="m9f28759d24" d="M -3 3 
L 3 -3 
M -3 -3 
L 3 3 
" style="stroke: #ff0000"/>
    </defs>
    <g clip-path="url(#p616b875644)">
     <use xlink:href="#m9f28759d24" x="131.65251" y="45.573913" style="fill: #ff0000; stroke: #ff0000"/>
    </g>
   </g>
   <g id="line2d_26">
    <path d="M 70.572955 165.71267 
L 77.976537 151.018861 
L 85.997085 135.356514 
L 89.698876 120.797281 
L 93.400667 107.083201 
L 97.102458 94.214274 
L 100.80425 82.1905 
L 102.03818 78.973442 
L 105.123006 71.820827 
L 108.207832 65.219193 
L 111.292658 59.168541 
L 114.377484 53.668871 
L 116.22838 50.63354 
L 116.845345 50.16385 
L 122.398032 47.596533 
L 127.950719 45.289679 
L 131.65251 43.896476 
L 131.65251 43.896476 
L 142.559017 46.745646 
L 153.465524 56.338985 
L 163.935771 69.621603 
L 165.244552 70.543689 
L 174.842278 76.813492 
L 174.842278 76.813492 
L 185.312524 87.070541 
L 185.748785 87.683929 
L 197.091552 118.438675 
L 207.125538 149.946707 
L 207.998059 151.379735 
L 218.032045 165.71267 
L 218.032045 165.71267 
" clip-path="url(#p616b875644)" style="fill: none; stroke: #000000; stroke-width: 1.5; stroke-linecap: square"/>
   </g>
   <g id="line2d_27">
    <path d="M 70.572955 165.802704 
L 77.976537 151.09622 
L 85.997085 135.419751 
L 89.698876 120.845122 
L 93.400667 107.115606 
L 97.102458 94.231202 
L 100.80425 82.19191 
L 102.03818 78.969639 
L 105.123006 71.803944 
L 108.207832 65.189201 
L 111.292658 59.12541 
L 114.377484 53.612571 
L 116.22838 50.569325 
L 116.845345 50.098149 
L 122.398032 47.520932 
L 127.950719 45.204162 
L 131.65251 43.804342 
L 131.65251 43.804342 
L 142.559017 46.667499 
L 153.465524 56.293983 
L 163.935771 69.608198 
L 165.244552 70.532105 
L 174.842278 76.81384 
L 174.842278 76.81384 
L 185.312524 87.08373 
L 185.748785 87.697841 
L 197.091552 118.485966 
L 207.125538 150.023357 
L 207.998059 151.457628 
L 218.032045 165.802704 
L 218.032045 165.802704 
" clip-path="url(#p616b875644)" style="fill: none; stroke: #000000; stroke-width: 1.5; stroke-linecap: square"/>
   </g>
   <g id="line2d_28">
    <path d="M 70.572955 165.862457 
L 77.976537 151.14754 
L 85.997085 135.46168 
L 89.698876 120.876833 
L 93.400667 107.137076 
L 97.102458 94.242409 
L 100.80425 82.192834 
L 102.03818 78.967111 
L 105.123006 71.792759 
L 108.207832 65.169341 
L 111.292658 59.096857 
L 114.377484 53.575306 
L 116.22838 50.526824 
L 116.845345 50.054666 
L 122.398032 47.470899 
L 127.950719 45.14757 
L 131.65251 43.743372 
L 131.65251 43.743372 
L 142.559017 46.615782 
L 153.465524 56.264186 
L 163.935771 69.599298 
L 165.244552 70.524409 
L 174.842278 76.81404 
L 174.842278 76.81404 
L 185.312524 87.092441 
L 185.748785 87.707031 
L 197.091552 118.517301 
L 207.125538 150.074203 
L 207.998059 151.509301 
L 218.032045 165.862457 
L 218.032045 165.862457 
" clip-path="url(#p616b875644)" style="fill: none; stroke: #000000; stroke-width: 1.5; stroke-linecap: square"/>
   </g>
   <g id="line2d_29">
    <path d="M 70.572955 165.902254 
L 77.976537 151.181733 
L 85.997085 135.489629 
L 89.698876 120.897972 
L 93.400667 107.151389 
L 97.102458 94.24988 
L 100.80425 82.193444 
L 102.03818 78.965417 
L 105.123006 71.785285 
L 108.207832 65.156074 
L 111.292658 59.077784 
L 114.377484 53.550417 
L 116.22838 50.498438 
L 116.845345 50.025625 
L 122.398032 47.437486 
L 127.950719 45.109778 
L 131.65251 43.702657 
L 131.65251 43.702657 
L 142.559017 46.581243 
L 153.465524 56.24428 
L 163.935771 69.593341 
L 165.244552 70.519256 
L 174.842278 76.814155 
L 174.842278 76.814155 
L 185.312524 87.098241 
L 185.748785 87.71315 
L 197.091552 118.538193 
L 207.125538 150.108083 
L 207.998059 151.54373 
L 218.032045 165.902254 
L 218.032045 165.902254 
" clip-path="url(#p616b875644)" style="fill: none; stroke: #000000; stroke-width: 1.5; stroke-linecap: square"/>
   </g>
   <g id="line2d_30">
    <path d="M 70.572955 165.934193 
L 77.976537 151.209152 
L 85.997085 135.51202 
L 89.698876 120.914899 
L 93.400667 107.162844 
L 97.102458 94.255854 
L 100.80425 82.193929 
L 102.03818 78.964062 
L 105.123006 71.779318 
L 108.207832 65.145489 
L 111.292658 59.062574 
L 114.377484 53.530574 
L 116.22838 50.475812 
L 116.845345 50.002478 
L 122.398032 47.410863 
L 127.950719 45.079676 
L 131.65251 43.670234 
L 131.65251 43.670234 
L 142.559017 46.553726 
L 153.465524 56.2284 
L 163.935771 69.588575 
L 165.244552 70.515132 
L 174.842278 76.814235 
L 174.842278 76.814235 
L 185.312524 87.102866 
L 185.748785 87.718031 
L 197.091552 118.554913 
L 207.125538 150.135248 
L 207.998059 151.571338 
L 218.032045 165.934193 
L 218.032045 165.934193 
" clip-path="url(#p616b875644)" style="fill: none; stroke: #000000; stroke-width: 1.5; stroke-linecap: square"/>
   </g>
   <g id="line2d_31">
    <path d="M 70.572955 165.959727 
L 77.976537 151.231091 
L 85.997085 135.529952 
L 89.698876 120.928462 
L 93.400667 107.172025 
L 97.102458 94.260643 
L 100.80425 82.194315 
L 102.03818 78.962967 
L 105.123006 71.774507 
L 108.207832 65.136952 
L 111.292658 59.050303 
L 114.377484 53.514559 
L 116.22838 50.457547 
L 116.845345 49.98379 
L 122.398032 47.389356 
L 127.950719 45.055345 
L 131.65251 43.644019 
L 131.65251 43.644019 
L 142.559017 46.531494 
L 153.465524 56.215593 
L 163.935771 69.584733 
L 165.244552 70.511806 
L 174.842278 76.814292 
L 174.842278 76.814292 
L 185.312524 87.106575 
L 185.748785 87.721946 
L 197.091552 118.568314 
L 207.125538 150.156985 
L 207.998059 151.593428 
L 218.032045 165.959727 
L 218.032045 165.959727 
" clip-path="url(#p616b875644)" style="fill: none; stroke: #000000; stroke-width: 1.5; stroke-linecap: square"/>
   </g>
   <g id="line2d_32">
    <g clip-path="url(#p616b875644)">
     <use xlink:href="#m9f28759d24" x="131.65251" y="43.134177" style="fill: #ff0000; stroke: #ff0000"/>
    </g>
   </g>
   <g id="patch_3">
    <path d="M 63.2 172.312 
L 63.2 32.562 
" style="fill: none; stroke: #000000; stroke-width: 0.8; stroke-linejoin: miter; stroke-linecap: square"/>
   </g>
   <g id="patch_4">
    <path d="M 225.405 172.312 
L 225.405 32.562 
" style="fill: none; stroke: #000000; stroke-width: 0.8; stroke-linejoin: miter; stroke-linecap: square"/>
   </g>
   <g id="patch_5">
    <path d="M 63.2 172.312 
L 225.405 172.312 
" style="fill: none; stroke: #000000; stroke-width: 0.8; stroke-linejoin: miter; stroke-linecap: square"/>
   </g>
   <g id="patch_6">
    <path d="M 63.2 32.562 
L 225.405 32.562 
" style="fill: none; stroke: #000000; stroke-width: 0.8; stroke-linejoin: miter; stroke-linecap: square"/>
   </g>
   <g id="text_11">
    <!-- (1, 1, 1, 1), w=6 -->
    <g transform="translate(95.343437 26.562) scale(0.12 -0.12)">
     <defs>
      <path id="DejaVuSans-31" d="M 794 531 
L 1825 531 
L 1825 4091 
L 703 3866 
L 703 4441 
L 1819 4666 
L 2450 4666 
L 2450 531 
L 3481 531 
L 3481 0 
L 794 0 
L 794 531 
z
" transform="scale(0.015625)"/>
      <path id="DejaVuSans-2c" d="M 750 794 
L 1409 794 
L 1409 256 
L 897 -744 
L 494 -744 
L 750 256 
L 750 794 
z
" transform="scale(0.015625)"/>
      <path id="DejaVuSans-20" transform="scale(0.015625)"/>
      <path id="DejaVuSans-77" d="M 269 3500 
L 844 3500 
L 1563 769 
L 2278 3500 
L 2956 3500 
L 3675 769 
L 4391 3500 
L 4966 3500 
L 4050 0 
L 3372 0 
L 2619 2869 
L 1863 0 
L 1184 0 
L 269 3500 
z
" transform="scale(0.015625)"/>
      <path id="DejaVuSans-3d" d="M 678 2906 
L 4684 2906 
L 4684 2381 
L 678 2381 
L 678 2906 
z
M 678 1631 
L 4684 1631 
L 4684 1100 
L 678 1100 
L 678 1631 
z
" transform="scale(0.015625)"/>
     </defs>
     <use xlink:href="#DejaVuSans-28"/>
     <use xlink:href="#DejaVuSans-31" x="39.013672"/>
     <use xlink:href="#DejaVuSans-2c" x="102.636719"/>
     <use xlink:href="#DejaVuSans-20" x="134.423828"/>
     <use xlink:href="#DejaVuSans-31" x="166.210938"/>
     <use xlink:href="#DejaVuSans-2c" x="229.833984"/>
     <use xlink:href="#DejaVuSans-20" x="261.621094"/>
     <use xlink:href="#DejaVuSans-31" x="293.408203"/>
     <use xlink:href="#DejaVuSans-2c" x="357.03125"/>
     <use xlink:href="#DejaVuSans-20" x="388.818359"/>
     <use xlink:href="#DejaVuSans-31" x="420.605469"/>
     <use xlink:href="#DejaVuSans-29" x="484.228516"/>
     <use xlink:href="#DejaVuSans-2c" x="523.242188"/>
     <use xlink:href="#DejaVuSans-20" x="555.029297"/>
     <use xlink:href="#DejaVuSans-77" x="586.816406"/>
     <use xlink:href="#DejaVuSans-3d" x="668.603516"/>
     <use xlink:href="#DejaVuSans-36" x="752.392578"/>
    </g>
   </g>
   <g id="legend_1">
    <g id="patch_7">
     <path d="M 116.8225 168.312 
L 171.7825 168.312 
Q 173.3825 168.312 173.3825 166.712 
L 173.3825 97.057 
Q 173.3825 95.457 171.7825 95.457 
L 116.8225 95.457 
Q 115.2225 95.457 115.2225 97.057 
L 115.2225 166.712 
Q 115.2225 168.312 116.8225 168.312 
z
" style="fill: #ffffff; opacity: 0.8; stroke: #cccccc; stroke-linejoin: miter"/>
    </g>
    <g id="line2d_33">
     <path d="M 118.4225 101.93575 
L 126.4225 101.93575 
L 134.4225 101.93575 
" style="fill: none; stroke: #1f77b4; stroke-width: 1.5; stroke-linecap: square"/>
    </g>
    <g id="text_12">
     <!-- $N_{\nu} = $$20$ -->
     <g transform="translate(140.8225 104.73575) scale(0.08 -0.08)">
      <defs>
       <path id="DejaVuSans-Oblique-4e" d="M 1081 4666 
L 1931 4666 
L 3219 666 
L 4000 4666 
L 4616 4666 
L 3706 0 
L 2853 0 
L 1569 4025 
L 788 0 
L 172 0 
L 1081 4666 
z
" transform="scale(0.015625)"/>
       <path id="DejaVuSans-Oblique-3bd" d="M 959 0 
L 572 3500 
L 1191 3500 
L 1522 563 
Q 1972 950 2391 1488 
Q 2706 1891 2788 2241 
Q 2825 2406 2809 2719 
Q 2794 3091 2544 3500 
L 3125 3500 
L 3125 3500 
Q 3288 3222 3353 2834 
Q 3416 2478 3369 2234 
Q 3250 1622 2719 1075 
Q 2025 363 1572 0 
L 959 0 
z
" transform="scale(0.015625)"/>
      </defs>
      <use xlink:href="#DejaVuSans-Oblique-4e" transform="translate(0 0.78125)"/>
      <use xlink:href="#DejaVuSans-Oblique-3bd" transform="translate(74.804688 -15.625) scale(0.7)"/>
      <use xlink:href="#DejaVuSans-3d" transform="translate(136.123047 0.78125)"/>
      <use xlink:href="#DejaVuSans-32" transform="translate(239.394531 0.78125)"/>
      <use xlink:href="#DejaVuSans-30" transform="translate(303.017578 0.78125)"/>
     </g>
    </g>
    <g id="line2d_34">
     <path d="M 118.4225 113.67825 
L 126.4225 113.67825 
L 134.4225 113.67825 
" style="fill: none; stroke: #ff7f0e; stroke-width: 1.5; stroke-linecap: square"/>
    </g>
    <g id="text_13">
     <!-- $N_{\nu} = $$22$ -->
     <g transform="translate(140.8225 116.47825) scale(0.08 -0.08)">
      <use xlink:href="#DejaVuSans-Oblique-4e" transform="translate(0 0.78125)"/>
      <use xlink:href="#DejaVuSans-Oblique-3bd" transform="translate(74.804688 -15.625) scale(0.7)"/>
      <use xlink:href="#DejaVuSans-3d" transform="translate(136.123047 0.78125)"/>
      <use xlink:href="#DejaVuSans-32" transform="translate(239.394531 0.78125)"/>
      <use xlink:href="#DejaVuSans-32" transform="translate(303.017578 0.78125)"/>
     </g>
    </g>
    <g id="line2d_35">
     <path d="M 118.4225 125.42075 
L 126.4225 125.42075 
L 134.4225 125.42075 
" style="fill: none; stroke: #2ca02c; stroke-width: 1.5; stroke-linecap: square"/>
    </g>
    <g id="text_14">
     <!-- $N_{\nu} = $$24$ -->
     <g transform="translate(140.8225 128.22075) scale(0.08 -0.08)">
      <use xlink:href="#DejaVuSans-Oblique-4e" transform="translate(0 0.78125)"/>
      <use xlink:href="#DejaVuSans-Oblique-3bd" transform="translate(74.804688 -15.625) scale(0.7)"/>
      <use xlink:href="#DejaVuSans-3d" transform="translate(136.123047 0.78125)"/>
      <use xlink:href="#DejaVuSans-32" transform="translate(239.394531 0.78125)"/>
      <use xlink:href="#DejaVuSans-34" transform="translate(303.017578 0.78125)"/>
     </g>
    </g>
    <g id="line2d_36">
     <path d="M 118.4225 137.16325 
L 126.4225 137.16325 
L 134.4225 137.16325 
" style="fill: none; stroke: #d62728; stroke-width: 1.5; stroke-linecap: square"/>
    </g>
    <g id="text_15">
     <!-- $N_{\nu} = $$26$ -->
     <g transform="translate(140.8225 139.96325) scale(0.08 -0.08)">
      <use xlink:href="#DejaVuSans-Oblique-4e" transform="translate(0 0.78125)"/>
      <use xlink:href="#DejaVuSans-Oblique-3bd" transform="translate(74.804688 -15.625) scale(0.7)"/>
      <use xlink:href="#DejaVuSans-3d" transform="translate(136.123047 0.78125)"/>
      <use xlink:href="#DejaVuSans-32" transform="translate(239.394531 0.78125)"/>
      <use xlink:href="#DejaVuSans-36" transform="translate(303.017578 0.78125)"/>
     </g>
    </g>
    <g id="line2d_37">
     <path d="M 118.4225 148.90575 
L 126.4225 148.90575 
L 134.4225 148.90575 
" style="fill: none; stroke: #9467bd; stroke-width: 1.5; stroke-linecap: square"/>
    </g>
    <g id="text_16">
     <!-- $N_{\nu} = $$28$ -->
     <g transform="translate(140.8225 151.70575) scale(0.08 -0.08)">
      <use xlink:href="#DejaVuSans-Oblique-4e" transform="translate(0 0.78125)"/>
      <use xlink:href="#DejaVuSans-Oblique-3bd" transform="translate(74.804688 -15.625) scale(0.7)"/>
      <use xlink:href="#DejaVuSans-3d" transform="translate(136.123047 0.78125)"/>
      <use xlink:href="#DejaVuSans-32" transform="translate(239.394531 0.78125)"/>
      <use xlink:href="#DejaVuSans-38" transform="translate(303.017578 0.78125)"/>
     </g>
    </g>
    <g id="line2d_38">
     <path d="M 118.4225 160.64825 
L 126.4225 160.64825 
L 134.4225 160.64825 
" style="fill: none; stroke: #8c564b; stroke-width: 1.5; stroke-linecap: square"/>
    </g>
    <g id="text_17">
     <!-- $N_{\nu} = $$30$ -->
     <g transform="translate(140.8225 163.44825) scale(0.08 -0.08)">
      <defs>
       <path id="DejaVuSans-33" d="M 2597 2516 
Q 3050 2419 3304 2112 
Q 3559 1806 3559 1356 
Q 3559 666 3084 287 
Q 2609 -91 1734 -91 
Q 1441 -91 1130 -33 
Q 819 25 488 141 
L 488 750 
Q 750 597 1062 519 
Q 1375 441 1716 441 
Q 2309 441 2620 675 
Q 2931 909 2931 1356 
Q 2931 1769 2642 2001 
Q 2353 2234 1838 2234 
L 1294 2234 
L 1294 2753 
L 1863 2753 
Q 2328 2753 2575 2939 
Q 2822 3125 2822 3475 
Q 2822 3834 2567 4026 
Q 2313 4219 1838 4219 
Q 1578 4219 1281 4162 
Q 984 4106 628 3988 
L 628 4550 
Q 988 4650 1302 4700 
Q 1616 4750 1894 4750 
Q 2613 4750 3031 4423 
Q 3450 4097 3450 3541 
Q 3450 3153 3228 2886 
Q 3006 2619 2597 2516 
z
" transform="scale(0.015625)"/>
      </defs>
      <use xlink:href="#DejaVuSans-Oblique-4e" transform="translate(0 0.78125)"/>
      <use xlink:href="#DejaVuSans-Oblique-3bd" transform="translate(74.804688 -15.625) scale(0.7)"/>
      <use xlink:href="#DejaVuSans-3d" transform="translate(136.123047 0.78125)"/>
      <use xlink:href="#DejaVuSans-33" transform="translate(239.394531 0.78125)"/>
      <use xlink:href="#DejaVuSans-30" transform="translate(303.017578 0.78125)"/>
     </g>
    </g>
   </g>
  </g>
  <g id="axes_2">
   <g id="patch_8">
    <path d="M 294.995 172.312 
L 457.2 172.312 
L 457.2 32.562 
L 294.995 32.562 
z
" style="fill: #ffffff"/>
   </g>
   <g id="line2d_39">
    <path d="M 302.367955 165.959727 
L 305.377324 163.366963 
L 308.386693 160.774199 
L 311.396062 158.181434 
L 314.405431 155.58867 
L 317.414801 152.995905 
L 320.42417 150.403141 
L 323.433539 147.810377 
L 326.442908 145.217612 
L 329.452277 142.624848 
L 332.461647 140.032083 
L 335.471016 137.439319 
L 338.480385 134.846555 
L 341.489754 132.25379 
L 344.499123 129.661026 
L 347.508493 127.068262 
L 350.517862 124.475497 
L 353.527231 121.882733 
L 356.5366 119.289968 
L 359.545969 116.697204 
L 362.555339 114.10444 
L 365.564708 111.511675 
L 368.574077 108.918911 
L 371.583446 106.326147 
L 374.592815 103.733382 
L 377.602185 101.140618 
L 380.611554 98.547853 
L 383.620923 95.955089 
L 386.630292 93.362325 
L 389.639661 90.76956 
L 392.649031 88.176796 
L 395.6584 85.584032 
L 398.667769 82.991267 
L 401.677138 80.398503 
L 404.686507 77.805738 
L 407.695877 75.212974 
L 410.705246 72.62021 
L 413.714615 70.027445 
L 416.723984 67.434681 
L 419.733353 64.841917 
L 422.742723 62.249152 
L 425.752092 59.656388 
L 428.761461 57.063623 
L 431.77083 54.470859 
L 434.780199 51.878095 
L 437.789569 49.28533 
L 440.798938 46.692566 
L 443.808307 44.099801 
L 446.817676 41.507037 
L 449.827045 38.914273 
" clip-path="url(#pc52257b210)" style="fill: none; stroke-dasharray: 3.7,1.6; stroke-dashoffset: 0; stroke: #000000"/>
   </g>
   <g id="line2d_40">
    <path d="M 302.367955 122.145638 
L 305.377324 122.419508 
L 308.386693 122.693379 
L 311.396062 122.967249 
L 314.405431 123.24112 
L 317.414801 123.51499 
L 320.42417 123.788861 
L 323.433539 124.062731 
L 326.442908 124.336602 
L 329.452277 124.610472 
L 332.461647 124.884342 
L 335.471016 125.158213 
L 338.480385 125.432083 
L 341.489754 125.705954 
L 344.499123 125.979824 
L 347.508493 126.253695 
L 350.517862 126.527565 
L 353.527231 126.801436 
L 356.5366 127.075306 
L 359.545969 127.349177 
L 362.555339 127.623047 
L 365.564708 127.896918 
L 368.574077 128.170788 
L 371.583446 128.444658 
L 374.592815 128.718529 
L 377.602185 128.992399 
L 380.611554 129.26627 
L 383.620923 129.54014 
L 386.630292 129.814011 
L 389.639661 130.087881 
L 392.649031 130.361752 
L 395.6584 130.635622 
L 398.667769 130.909493 
L 401.677138 131.183363 
L 404.686507 131.457233 
L 407.695877 131.731104 
L 410.705246 132.004974 
L 413.714615 132.278845 
L 416.723984 132.552715 
L 419.733353 132.826586 
L 422.742723 133.100456 
L 425.752092 133.374327 
L 428.761461 133.648197 
L 431.77083 133.922068 
L 434.780199 134.195938 
L 437.789569 134.469809 
L 440.798938 134.743679 
L 443.808307 135.017549 
L 446.817676 135.29142 
L 449.827045 135.56529 
" clip-path="url(#pc52257b210)" style="fill: none; stroke-dasharray: 3.7,1.6; stroke-dashoffset: 0; stroke: #000000"/>
   </g>
   <g id="matplotlib.axis_3">
    <g id="xtick_5">
     <g id="line2d_41">
      <path d="M 302.367955 172.312 
L 302.367955 32.562 
" clip-path="url(#pc52257b210)" style="fill: none; stroke: #b0b0b0; stroke-width: 0.8; stroke-linecap: square"/>
     </g>
     <g id="line2d_42">
      <g>
       <use xlink:href="#m0e516540ae" x="302.367955" y="172.312" style="stroke: #000000; stroke-width: 0.8"/>
      </g>
     </g>
     <g id="text_18">
      <!-- 0.00 -->
      <g transform="translate(291.235142 186.910438) scale(0.1 -0.1)">
       <use xlink:href="#DejaVuSans-30"/>
       <use xlink:href="#DejaVuSans-2e" x="63.623047"/>
       <use xlink:href="#DejaVuSans-30" x="95.410156"/>
       <use xlink:href="#DejaVuSans-30" x="159.033203"/>
      </g>
     </g>
    </g>
    <g id="xtick_6">
     <g id="line2d_43">
      <path d="M 361.351591 172.312 
L 361.351591 32.562 
" clip-path="url(#pc52257b210)" style="fill: none; stroke: #b0b0b0; stroke-width: 0.8; stroke-linecap: square"/>
     </g>
     <g id="line2d_44">
      <g>
       <use xlink:href="#m0e516540ae" x="361.351591" y="172.312" style="stroke: #000000; stroke-width: 0.8"/>
      </g>
     </g>
     <g id="text_19">
      <!-- 0.02 -->
      <g transform="translate(350.218778 186.910438) scale(0.1 -0.1)">
       <use xlink:href="#DejaVuSans-30"/>
       <use xlink:href="#DejaVuSans-2e" x="63.623047"/>
       <use xlink:href="#DejaVuSans-30" x="95.410156"/>
       <use xlink:href="#DejaVuSans-32" x="159.033203"/>
      </g>
     </g>
    </g>
    <g id="xtick_7">
     <g id="line2d_45">
      <path d="M 420.335227 172.312 
L 420.335227 32.562 
" clip-path="url(#pc52257b210)" style="fill: none; stroke: #b0b0b0; stroke-width: 0.8; stroke-linecap: square"/>
     </g>
     <g id="line2d_46">
      <g>
       <use xlink:href="#m0e516540ae" x="420.335227" y="172.312" style="stroke: #000000; stroke-width: 0.8"/>
      </g>
     </g>
     <g id="text_20">
      <!-- 0.04 -->
      <g transform="translate(409.202415 186.910438) scale(0.1 -0.1)">
       <use xlink:href="#DejaVuSans-30"/>
       <use xlink:href="#DejaVuSans-2e" x="63.623047"/>
       <use xlink:href="#DejaVuSans-30" x="95.410156"/>
       <use xlink:href="#DejaVuSans-34" x="159.033203"/>
      </g>
     </g>
    </g>
    <g id="text_21">
     <!-- $1/N_\nu$ -->
     <g transform="translate(365.3975 200.588562) scale(0.1 -0.1)">
      <defs>
       <path id="DejaVuSans-2f" d="M 1625 4666 
L 2156 4666 
L 531 -594 
L 0 -594 
L 1625 4666 
z
" transform="scale(0.015625)"/>
      </defs>
      <use xlink:href="#DejaVuSans-31" transform="translate(0 0.09375)"/>
      <use xlink:href="#DejaVuSans-2f" transform="translate(63.623047 0.09375)"/>
      <use xlink:href="#DejaVuSans-Oblique-4e" transform="translate(97.314453 0.09375)"/>
      <use xlink:href="#DejaVuSans-Oblique-3bd" transform="translate(172.119141 -16.3125) scale(0.7)"/>
     </g>
    </g>
   </g>
   <g id="matplotlib.axis_4">
    <g id="ytick_6">
     <g id="line2d_47">
      <path d="M 294.995 160.602483 
L 457.2 160.602483 
" clip-path="url(#pc52257b210)" style="fill: none; stroke: #b0b0b0; stroke-width: 0.8; stroke-linecap: square"/>
     </g>
     <g id="line2d_48">
      <g>
       <use xlink:href="#mdf562aaccd" x="294.995" y="160.602483" style="stroke: #000000; stroke-width: 0.8"/>
      </g>
     </g>
     <g id="text_22">
      <!-- 0.0084 -->
      <g transform="translate(253.004375 164.401701) scale(0.1 -0.1)">
       <use xlink:href="#DejaVuSans-30"/>
       <use xlink:href="#DejaVuSans-2e" x="63.623047"/>
       <use xlink:href="#DejaVuSans-30" x="95.410156"/>
       <use xlink:href="#DejaVuSans-30" x="159.033203"/>
       <use xlink:href="#DejaVuSans-38" x="222.65625"/>
       <use xlink:href="#DejaVuSans-34" x="286.279297"/>
      </g>
     </g>
    </g>
    <g id="ytick_7">
     <g id="line2d_49">
      <path d="M 294.995 135.046741 
L 457.2 135.046741 
" clip-path="url(#pc52257b210)" style="fill: none; stroke: #b0b0b0; stroke-width: 0.8; stroke-linecap: square"/>
     </g>
     <g id="line2d_50">
      <g>
       <use xlink:href="#mdf562aaccd" x="294.995" y="135.046741" style="stroke: #000000; stroke-width: 0.8"/>
      </g>
     </g>
     <g id="text_23">
      <!-- 0.0085 -->
      <g transform="translate(253.004375 138.84596) scale(0.1 -0.1)">
       <defs>
        <path id="DejaVuSans-35" d="M 691 4666 
L 3169 4666 
L 3169 4134 
L 1269 4134 
L 1269 2991 
Q 1406 3038 1543 3061 
Q 1681 3084 1819 3084 
Q 2600 3084 3056 2656 
Q 3513 2228 3513 1497 
Q 3513 744 3044 326 
Q 2575 -91 1722 -91 
Q 1428 -91 1123 -41 
Q 819 9 494 109 
L 494 744 
Q 775 591 1075 516 
Q 1375 441 1709 441 
Q 2250 441 2565 725 
Q 2881 1009 2881 1497 
Q 2881 1984 2565 2268 
Q 2250 2553 1709 2553 
Q 1456 2553 1204 2497 
Q 953 2441 691 2322 
L 691 4666 
z
" transform="scale(0.015625)"/>
       </defs>
       <use xlink:href="#DejaVuSans-30"/>
       <use xlink:href="#DejaVuSans-2e" x="63.623047"/>
       <use xlink:href="#DejaVuSans-30" x="95.410156"/>
       <use xlink:href="#DejaVuSans-30" x="159.033203"/>
       <use xlink:href="#DejaVuSans-38" x="222.65625"/>
       <use xlink:href="#DejaVuSans-35" x="286.279297"/>
      </g>
     </g>
    </g>
    <g id="ytick_8">
     <g id="line2d_51">
      <path d="M 294.995 109.491 
L 457.2 109.491 
" clip-path="url(#pc52257b210)" style="fill: none; stroke: #b0b0b0; stroke-width: 0.8; stroke-linecap: square"/>
     </g>
     <g id="line2d_52">
      <g>
       <use xlink:href="#mdf562aaccd" x="294.995" y="109.491" style="stroke: #000000; stroke-width: 0.8"/>
      </g>
     </g>
     <g id="text_24">
      <!-- 0.0086 -->
      <g transform="translate(253.004375 113.290219) scale(0.1 -0.1)">
       <use xlink:href="#DejaVuSans-30"/>
       <use xlink:href="#DejaVuSans-2e" x="63.623047"/>
       <use xlink:href="#DejaVuSans-30" x="95.410156"/>
       <use xlink:href="#DejaVuSans-30" x="159.033203"/>
       <use xlink:href="#DejaVuSans-38" x="222.65625"/>
       <use xlink:href="#DejaVuSans-36" x="286.279297"/>
      </g>
     </g>
    </g>
    <g id="ytick_9">
     <g id="line2d_53">
      <path d="M 294.995 83.935259 
L 457.2 83.935259 
" clip-path="url(#pc52257b210)" style="fill: none; stroke: #b0b0b0; stroke-width: 0.8; stroke-linecap: square"/>
     </g>
     <g id="line2d_54">
      <g>
       <use xlink:href="#mdf562aaccd" x="294.995" y="83.935259" style="stroke: #000000; stroke-width: 0.8"/>
      </g>
     </g>
     <g id="text_25">
      <!-- 0.0087 -->
      <g transform="translate(253.004375 87.734478) scale(0.1 -0.1)">
       <defs>
        <path id="DejaVuSans-37" d="M 525 4666 
L 3525 4666 
L 3525 4397 
L 1831 0 
L 1172 0 
L 2766 4134 
L 525 4134 
L 525 4666 
z
" transform="scale(0.015625)"/>
       </defs>
       <use xlink:href="#DejaVuSans-30"/>
       <use xlink:href="#DejaVuSans-2e" x="63.623047"/>
       <use xlink:href="#DejaVuSans-30" x="95.410156"/>
       <use xlink:href="#DejaVuSans-30" x="159.033203"/>
       <use xlink:href="#DejaVuSans-38" x="222.65625"/>
       <use xlink:href="#DejaVuSans-37" x="286.279297"/>
      </g>
     </g>
    </g>
    <g id="ytick_10">
     <g id="line2d_55">
      <path d="M 294.995 58.379518 
L 457.2 58.379518 
" clip-path="url(#pc52257b210)" style="fill: none; stroke: #b0b0b0; stroke-width: 0.8; stroke-linecap: square"/>
     </g>
     <g id="line2d_56">
      <g>
       <use xlink:href="#mdf562aaccd" x="294.995" y="58.379518" style="stroke: #000000; stroke-width: 0.8"/>
      </g>
     </g>
     <g id="text_26">
      <!-- 0.0088 -->
      <g transform="translate(253.004375 62.178736) scale(0.1 -0.1)">
       <use xlink:href="#DejaVuSans-30"/>
       <use xlink:href="#DejaVuSans-2e" x="63.623047"/>
       <use xlink:href="#DejaVuSans-30" x="95.410156"/>
       <use xlink:href="#DejaVuSans-30" x="159.033203"/>
       <use xlink:href="#DejaVuSans-38" x="222.65625"/>
       <use xlink:href="#DejaVuSans-38" x="286.279297"/>
      </g>
     </g>
    </g>
    <g id="ytick_11">
     <g id="line2d_57">
      <path d="M 294.995 32.823776 
L 457.2 32.823776 
" clip-path="url(#pc52257b210)" style="fill: none; stroke: #b0b0b0; stroke-width: 0.8; stroke-linecap: square"/>
     </g>
     <g id="line2d_58">
      <g>
       <use xlink:href="#mdf562aaccd" x="294.995" y="32.823776" style="stroke: #000000; stroke-width: 0.8"/>
      </g>
     </g>
     <g id="text_27">
      <!-- 0.0089 -->
      <g transform="translate(253.004375 36.622995) scale(0.1 -0.1)">
       <defs>
        <path id="DejaVuSans-39" d="M 703 97 
L 703 672 
Q 941 559 1184 500 
Q 1428 441 1663 441 
Q 2288 441 2617 861 
Q 2947 1281 2994 2138 
Q 2813 1869 2534 1725 
Q 2256 1581 1919 1581 
Q 1219 1581 811 2004 
Q 403 2428 403 3163 
Q 403 3881 828 4315 
Q 1253 4750 1959 4750 
Q 2769 4750 3195 4129 
Q 3622 3509 3622 2328 
Q 3622 1225 3098 567 
Q 2575 -91 1691 -91 
Q 1453 -91 1209 -44 
Q 966 3 703 97 
z
M 1959 2075 
Q 2384 2075 2632 2365 
Q 2881 2656 2881 3163 
Q 2881 3666 2632 3958 
Q 2384 4250 1959 4250 
Q 1534 4250 1286 3958 
Q 1038 3666 1038 3163 
Q 1038 2656 1286 2365 
Q 1534 2075 1959 2075 
z
" transform="scale(0.015625)"/>
       </defs>
       <use xlink:href="#DejaVuSans-30"/>
       <use xlink:href="#DejaVuSans-2e" x="63.623047"/>
       <use xlink:href="#DejaVuSans-30" x="95.410156"/>
       <use xlink:href="#DejaVuSans-30" x="159.033203"/>
       <use xlink:href="#DejaVuSans-38" x="222.65625"/>
       <use xlink:href="#DejaVuSans-39" x="286.279297"/>
      </g>
     </g>
    </g>
    <g id="text_28">
     <!-- $\chi(\mathbf{M})$ -->
     <g transform="translate(246.904375 114.287) rotate(-90) scale(0.1 -0.1)">
      <defs>
       <path id="DejaVuSans-Bold-4d" d="M 588 4666 
L 2119 4666 
L 3181 2169 
L 4250 4666 
L 5778 4666 
L 5778 0 
L 4641 0 
L 4641 3413 
L 3566 897 
L 2803 897 
L 1728 3413 
L 1728 0 
L 588 0 
L 588 4666 
z
" transform="scale(0.015625)"/>
      </defs>
      <use xlink:href="#DejaVuSans-Oblique-3c7" transform="translate(0 0.125)"/>
      <use xlink:href="#DejaVuSans-28" transform="translate(59.179688 0.125)"/>
      <use xlink:href="#DejaVuSans-Bold-4d" transform="translate(98.193359 0.125)"/>
      <use xlink:href="#DejaVuSans-29" transform="translate(197.705078 0.125)"/>
     </g>
    </g>
   </g>
   <g id="line2d_59">
    <defs>
     <path id="m89c745f26b" d="M 0 3 
C 0.795609 3 1.55874 2.683901 2.12132 2.12132 
C 2.683901 1.55874 3 0.795609 3 0 
C 3 -0.795609 2.683901 -1.55874 2.12132 -2.12132 
C 1.55874 -2.683901 0.795609 -3 0 -3 
C -0.795609 -3 -1.55874 -2.683901 -2.12132 -2.12132 
C -2.683901 -1.55874 -3 -0.795609 -3 0 
C -3 0.795609 -2.683901 1.55874 -2.12132 2.12132 
C -1.55874 2.683901 -0.795609 3 0 3 
z
" style="stroke: #1f77b4"/>
    </defs>
    <g clip-path="url(#pc52257b210)">
     <use xlink:href="#m89c745f26b" x="449.827045" y="46.362325" style="fill: #1f77b4; stroke: #1f77b4"/>
    </g>
   </g>
   <g id="line2d_60">
    <defs>
     <path id="me92599df8f" d="M 0 3 
C 0.795609 3 1.55874 2.683901 2.12132 2.12132 
C 2.683901 1.55874 3 0.795609 3 0 
C 3 -0.795609 2.683901 -1.55874 2.12132 -2.12132 
C 1.55874 -2.683901 0.795609 -3 0 -3 
C -0.795609 -3 -1.55874 -2.683901 -2.12132 -2.12132 
C -2.683901 -1.55874 -3 -0.795609 -3 0 
C -3 0.795609 -2.683901 1.55874 -2.12132 2.12132 
C -1.55874 2.683901 -0.795609 3 0 3 
z
" style="stroke: #ff7f0e"/>
    </defs>
    <g clip-path="url(#pc52257b210)">
     <use xlink:href="#me92599df8f" x="436.421674" y="46.889741" style="fill: #ff7f0e; stroke: #ff7f0e"/>
    </g>
   </g>
   <g id="line2d_61">
    <defs>
     <path id="m5d33276096" d="M 0 3 
C 0.795609 3 1.55874 2.683901 2.12132 2.12132 
C 2.683901 1.55874 3 0.795609 3 0 
C 3 -0.795609 2.683901 -1.55874 2.12132 -2.12132 
C 1.55874 -2.683901 0.795609 -3 0 -3 
C -0.795609 -3 -1.55874 -2.683901 -2.12132 -2.12132 
C -2.683901 -1.55874 -3 -0.795609 -3 0 
C -3 0.795609 -2.683901 1.55874 -2.12132 2.12132 
C -1.55874 2.683901 -0.795609 3 0 3 
z
" style="stroke: #2ca02c"/>
    </defs>
    <g clip-path="url(#pc52257b210)">
     <use xlink:href="#m5d33276096" x="425.25053" y="48.868813" style="fill: #2ca02c; stroke: #2ca02c"/>
    </g>
   </g>
   <g id="line2d_62">
    <defs>
     <path id="m4e7242508c" d="M 0 3 
C 0.795609 3 1.55874 2.683901 2.12132 2.12132 
C 2.683901 1.55874 3 0.795609 3 0 
C 3 -0.795609 2.683901 -1.55874 2.12132 -2.12132 
C 1.55874 -2.683901 0.795609 -3 0 -3 
C -0.795609 -3 -1.55874 -2.683901 -2.12132 -2.12132 
C -2.683901 -1.55874 -3 -0.795609 -3 0 
C -3 0.795609 -2.683901 1.55874 -2.12132 2.12132 
C -1.55874 2.683901 -0.795609 3 0 3 
z
" style="stroke: #d62728"/>
    </defs>
    <g clip-path="url(#pc52257b210)">
     <use xlink:href="#m4e7242508c" x="415.798024" y="72.041692" style="fill: #d62728; stroke: #d62728"/>
    </g>
   </g>
   <g id="line2d_63">
    <defs>
     <path id="mfe7775b212" d="M 0 3 
C 0.795609 3 1.55874 2.683901 2.12132 2.12132 
C 2.683901 1.55874 3 0.795609 3 0 
C 3 -0.795609 2.683901 -1.55874 2.12132 -2.12132 
C 1.55874 -2.683901 0.795609 -3 0 -3 
C -0.795609 -3 -1.55874 -2.683901 -2.12132 -2.12132 
C -2.683901 -1.55874 -3 -0.795609 -3 0 
C -3 0.795609 -2.683901 1.55874 -2.12132 2.12132 
C -1.55874 2.683901 -0.795609 3 0 3 
z
" style="stroke: #9467bd"/>
    </defs>
    <g clip-path="url(#pc52257b210)">
     <use xlink:href="#mfe7775b212" x="407.695877" y="72.336564" style="fill: #9467bd; stroke: #9467bd"/>
    </g>
   </g>
   <g id="line2d_64">
    <defs>
     <path id="m5c2bbc589a" d="M 0 3 
C 0.795609 3 1.55874 2.683901 2.12132 2.12132 
C 2.683901 1.55874 3 0.795609 3 0 
C 3 -0.795609 2.683901 -1.55874 2.12132 -2.12132 
C 1.55874 -2.683901 0.795609 -3 0 -3 
C -0.795609 -3 -1.55874 -2.683901 -2.12132 -2.12132 
C -2.683901 -1.55874 -3 -0.795609 -3 0 
C -3 0.795609 -2.683901 1.55874 -2.12132 2.12132 
C -1.55874 2.683901 -0.795609 3 0 3 
z
" style="stroke: #8c564b"/>
    </defs>
    <g clip-path="url(#pc52257b210)">
     <use xlink:href="#m5c2bbc589a" x="400.674015" y="87.675698" style="fill: #8c564b; stroke: #8c564b"/>
    </g>
   </g>
   <g id="line2d_65">
    <g clip-path="url(#pc52257b210)">
     <use xlink:href="#m9f28759d24" x="302.367955" y="165.959727" style="fill: #ff0000; stroke: #ff0000"/>
    </g>
   </g>
   <g id="line2d_66">
    <defs>
     <path id="m301fd8cbc5" d="M 0 3 
C 0.795609 3 1.55874 2.683901 2.12132 2.12132 
C 2.683901 1.55874 3 0.795609 3 0 
C 3 -0.795609 2.683901 -1.55874 2.12132 -2.12132 
C 1.55874 -2.683901 0.795609 -3 0 -3 
C -0.795609 -3 -1.55874 -2.683901 -2.12132 -2.12132 
C -2.683901 -1.55874 -3 -0.795609 -3 0 
C -3 0.795609 -2.683901 1.55874 -2.12132 2.12132 
C -1.55874 2.683901 -0.795609 3 0 3 
z
" style="stroke: #000000"/>
    </defs>
    <g clip-path="url(#pc52257b210)">
     <use xlink:href="#m301fd8cbc5" x="449.827045" y="135.835419" style="stroke: #000000"/>
    </g>
   </g>
   <g id="line2d_67">
    <g clip-path="url(#pc52257b210)">
     <use xlink:href="#m301fd8cbc5" x="436.421674" y="134.180815" style="stroke: #000000"/>
    </g>
   </g>
   <g id="line2d_68">
    <g clip-path="url(#pc52257b210)">
     <use xlink:href="#m301fd8cbc5" x="425.25053" y="133.08589" style="stroke: #000000"/>
    </g>
   </g>
   <g id="line2d_69">
    <g clip-path="url(#pc52257b210)">
     <use xlink:href="#m301fd8cbc5" x="415.798024" y="132.354707" style="stroke: #000000"/>
    </g>
   </g>
   <g id="line2d_70">
    <g clip-path="url(#pc52257b210)">
     <use xlink:href="#m301fd8cbc5" x="407.695877" y="131.772439" style="stroke: #000000"/>
    </g>
   </g>
   <g id="line2d_71">
    <g clip-path="url(#pc52257b210)">
     <use xlink:href="#m301fd8cbc5" x="400.674015" y="131.301647" style="stroke: #000000"/>
    </g>
   </g>
   <g id="line2d_72">
    <g clip-path="url(#pc52257b210)">
     <use xlink:href="#m9f28759d24" x="302.367955" y="122.145638" style="fill: #ff0000; stroke: #ff0000"/>
    </g>
   </g>
   <g id="patch_9">
    <path d="M 294.995 172.312 
L 294.995 32.562 
" style="fill: none; stroke: #000000; stroke-width: 0.8; stroke-linejoin: miter; stroke-linecap: square"/>
   </g>
   <g id="patch_10">
    <path d="M 457.2 172.312 
L 457.2 32.562 
" style="fill: none; stroke: #000000; stroke-width: 0.8; stroke-linejoin: miter; stroke-linecap: square"/>
   </g>
   <g id="patch_11">
    <path d="M 294.995 172.312 
L 457.2 172.312 
" style="fill: none; stroke: #000000; stroke-width: 0.8; stroke-linejoin: miter; stroke-linecap: square"/>
   </g>
   <g id="patch_12">
    <path d="M 294.995 32.562 
L 457.2 32.562 
" style="fill: none; stroke: #000000; stroke-width: 0.8; stroke-linejoin: miter; stroke-linecap: square"/>
   </g>
   <g id="text_29">
    <!-- $\lim_{n_\nu \rightarrow \infty} \, \chi(\mathbf{M}) \approx $$0.0084$ -->
    <g transform="translate(318.7975 24.162) scale(0.12 -0.12)">
     <defs>
      <path id="DejaVuSans-6c" d="M 603 4863 
L 1178 4863 
L 1178 0 
L 603 0 
L 603 4863 
z
" transform="scale(0.015625)"/>
      <path id="DejaVuSans-69" d="M 603 3500 
L 1178 3500 
L 1178 0 
L 603 0 
L 603 3500 
z
M 603 4863 
L 1178 4863 
L 1178 4134 
L 603 4134 
L 603 4863 
z
" transform="scale(0.015625)"/>
      <path id="DejaVuSans-6d" d="M 3328 2828 
Q 3544 3216 3844 3400 
Q 4144 3584 4550 3584 
Q 5097 3584 5394 3201 
Q 5691 2819 5691 2113 
L 5691 0 
L 5113 0 
L 5113 2094 
Q 5113 2597 4934 2840 
Q 4756 3084 4391 3084 
Q 3944 3084 3684 2787 
Q 3425 2491 3425 1978 
L 3425 0 
L 2847 0 
L 2847 2094 
Q 2847 2600 2669 2842 
Q 2491 3084 2119 3084 
Q 1678 3084 1418 2786 
Q 1159 2488 1159 1978 
L 1159 0 
L 581 0 
L 581 3500 
L 1159 3500 
L 1159 2956 
Q 1356 3278 1631 3431 
Q 1906 3584 2284 3584 
Q 2666 3584 2933 3390 
Q 3200 3197 3328 2828 
z
" transform="scale(0.015625)"/>
      <path id="DejaVuSans-Oblique-6e" d="M 3566 2113 
L 3156 0 
L 2578 0 
L 2988 2091 
Q 3016 2238 3031 2350 
Q 3047 2463 3047 2528 
Q 3047 2791 2881 2937 
Q 2716 3084 2419 3084 
Q 1956 3084 1622 2776 
Q 1288 2469 1184 1941 
L 800 0 
L 225 0 
L 903 3500 
L 1478 3500 
L 1363 2950 
Q 1603 3253 1940 3418 
Q 2278 3584 2650 3584 
Q 3113 3584 3367 3334 
Q 3622 3084 3622 2631 
Q 3622 2519 3608 2391 
Q 3594 2263 3566 2113 
z
" transform="scale(0.015625)"/>
      <path id="DejaVuSans-2192" d="M 5050 2147 
L 5050 1866 
L 3822 638 
L 3447 1013 
L 4175 1741 
L 366 1741 
L 366 2272 
L 4175 2272 
L 3447 3000 
L 3822 3375 
L 5050 2147 
z
" transform="scale(0.015625)"/>
      <path id="DejaVuSans-221e" d="M 2916 1091 
Q 2819 1203 2666 1466 
Q 2456 1091 2272 925 
Q 2041 725 1681 725 
Q 1259 725 981 1041 
Q 688 1372 688 1919 
Q 688 2444 981 2800 
Q 1244 3116 1688 3116 
Q 1916 3116 2084 3022 
Q 2281 2919 2416 2741 
Q 2541 2581 2666 2366 
Q 2875 2741 3059 2906 
Q 3291 3106 3650 3106 
Q 4072 3106 4350 2791 
Q 4644 2459 4644 1913 
Q 4644 1388 4350 1031 
Q 4088 716 3644 716 
Q 3416 716 3247 809 
Q 3078 894 2916 1091 
z
M 1647 1134 
Q 2163 1134 2472 1884 
Q 2075 2703 1647 2703 
Q 1334 2703 1175 2478 
Q 1003 2238 1003 1919 
Q 1003 1569 1175 1353 
Q 1350 1134 1647 1134 
z
M 3684 2697 
Q 3219 2697 2859 1947 
Q 3253 1128 3684 1128 
Q 3997 1128 4156 1353 
Q 4328 1594 4328 1913 
Q 4328 2263 4156 2478 
Q 3981 2697 3684 2697 
z
" transform="scale(0.015625)"/>
      <path id="DejaVuSans-2248" d="M 4684 1947 
L 4684 1388 
Q 4356 1144 4076 1036 
Q 3797 928 3494 928 
Q 3150 928 2694 1113 
Q 2663 1125 2641 1134 
Q 2622 1141 2575 1159 
Q 2091 1350 1797 1350 
Q 1522 1350 1253 1231 
Q 984 1113 678 850 
L 678 1409 
Q 1006 1653 1286 1761 
Q 1566 1869 1869 1869 
Q 2213 1869 2672 1684 
Q 2706 1669 2722 1663 
Q 2741 1656 2788 1638 
Q 3272 1447 3566 1447 
Q 3834 1447 4098 1564 
Q 4363 1681 4684 1947 
z
M 4684 3163 
L 4684 2606 
Q 4356 2359 4076 2251 
Q 3797 2144 3494 2144 
Q 3150 2144 2694 2328 
Q 2663 2341 2641 2350 
Q 2622 2356 2575 2375 
Q 2091 2566 1797 2566 
Q 1522 2566 1253 2447 
Q 984 2328 678 2069 
L 678 2625 
Q 1006 2869 1286 2976 
Q 1566 3084 1869 3084 
Q 2213 3084 2672 2900 
Q 2703 2888 2719 2881 
Q 2741 2872 2788 2853 
Q 3272 2663 3566 2663 
Q 3834 2663 4098 2780 
Q 4363 2897 4684 3163 
z
" transform="scale(0.015625)"/>
     </defs>
     <use xlink:href="#DejaVuSans-6c" transform="translate(38 0.015625)"/>
     <use xlink:href="#DejaVuSans-69" transform="translate(65.783203 0.015625)"/>
     <use xlink:href="#DejaVuSans-6d" transform="translate(93.566406 0.015625)"/>
     <use xlink:href="#DejaVuSans-Oblique-6e" transform="translate(0 -57.934375) scale(0.7)"/>
     <use xlink:href="#DejaVuSans-Oblique-3bd" transform="translate(44.365234 -69.41875) scale(0.49)"/>
     <use xlink:href="#DejaVuSans-2192" transform="translate(98.653059 -57.934375) scale(0.7)"/>
     <use xlink:href="#DejaVuSans-221e" transform="translate(170.943098 -57.934375) scale(0.7)"/>
     <use xlink:href="#DejaVuSans-Oblique-3c7" transform="translate(245.489322 0.015625)"/>
     <use xlink:href="#DejaVuSans-28" transform="translate(304.669009 0.015625)"/>
     <use xlink:href="#DejaVuSans-Bold-4d" transform="translate(343.682681 0.015625)"/>
     <use xlink:href="#DejaVuSans-29" transform="translate(443.1944 0.015625)"/>
     <use xlink:href="#DejaVuSans-2248" transform="translate(501.690493 0.015625)"/>
     <use xlink:href="#DejaVuSans-30" transform="translate(604.961978 0.015625)"/>
     <use xlink:href="#DejaVuSans-2e" transform="translate(668.585025 0.015625)"/>
     <use xlink:href="#DejaVuSans-30" transform="translate(700.372134 0.015625)"/>
     <use xlink:href="#DejaVuSans-30" transform="translate(763.995181 0.015625)"/>
     <use xlink:href="#DejaVuSans-38" transform="translate(827.618228 0.015625)"/>
     <use xlink:href="#DejaVuSans-34" transform="translate(891.241275 0.015625)"/>
    </g>
   </g>
   <g id="legend_2">
    <g id="patch_13">
     <path d="M 300.595 50.7045 
L 341.6775 50.7045 
Q 343.2775 50.7045 343.2775 49.1045 
L 343.2775 38.162 
Q 343.2775 36.562 341.6775 36.562 
L 300.595 36.562 
Q 298.995 36.562 298.995 38.162 
L 298.995 49.1045 
Q 298.995 50.7045 300.595 50.7045 
z
" style="fill: #ffffff; opacity: 0.8; stroke: #cccccc; stroke-linejoin: miter"/>
    </g>
    <g id="line2d_73">
     <g>
      <use xlink:href="#m9f28759d24" x="310.195" y="43.04075" style="fill: #ff0000; stroke: #ff0000"/>
     </g>
    </g>
    <g id="text_30">
     <!-- BSE -->
     <g transform="translate(324.595 45.84075) scale(0.08 -0.08)">
      <defs>
       <path id="DejaVuSans-42" d="M 1259 2228 
L 1259 519 
L 2272 519 
Q 2781 519 3026 730 
Q 3272 941 3272 1375 
Q 3272 1813 3026 2020 
Q 2781 2228 2272 2228 
L 1259 2228 
z
M 1259 4147 
L 1259 2741 
L 2194 2741 
Q 2656 2741 2882 2914 
Q 3109 3088 3109 3444 
Q 3109 3797 2882 3972 
Q 2656 4147 2194 4147 
L 1259 4147 
z
M 628 4666 
L 2241 4666 
Q 2963 4666 3353 4366 
Q 3744 4066 3744 3513 
Q 3744 3084 3544 2831 
Q 3344 2578 2956 2516 
Q 3422 2416 3680 2098 
Q 3938 1781 3938 1306 
Q 3938 681 3513 340 
Q 3088 0 2303 0 
L 628 0 
L 628 4666 
z
" transform="scale(0.015625)"/>
       <path id="DejaVuSans-53" d="M 3425 4513 
L 3425 3897 
Q 3066 4069 2747 4153 
Q 2428 4238 2131 4238 
Q 1616 4238 1336 4038 
Q 1056 3838 1056 3469 
Q 1056 3159 1242 3001 
Q 1428 2844 1947 2747 
L 2328 2669 
Q 3034 2534 3370 2195 
Q 3706 1856 3706 1288 
Q 3706 609 3251 259 
Q 2797 -91 1919 -91 
Q 1588 -91 1214 -16 
Q 841 59 441 206 
L 441 856 
Q 825 641 1194 531 
Q 1563 422 1919 422 
Q 2459 422 2753 634 
Q 3047 847 3047 1241 
Q 3047 1584 2836 1778 
Q 2625 1972 2144 2069 
L 1759 2144 
Q 1053 2284 737 2584 
Q 422 2884 422 3419 
Q 422 4038 858 4394 
Q 1294 4750 2059 4750 
Q 2388 4750 2728 4690 
Q 3069 4631 3425 4513 
z
" transform="scale(0.015625)"/>
       <path id="DejaVuSans-45" d="M 628 4666 
L 3578 4666 
L 3578 4134 
L 1259 4134 
L 1259 2753 
L 3481 2753 
L 3481 2222 
L 1259 2222 
L 1259 531 
L 3634 531 
L 3634 0 
L 628 0 
L 628 4666 
z
" transform="scale(0.015625)"/>
      </defs>
      <use xlink:href="#DejaVuSans-42"/>
      <use xlink:href="#DejaVuSans-53" x="66.853516"/>
      <use xlink:href="#DejaVuSans-45" x="130.330078"/>
     </g>
    </g>
   </g>
  </g>
 </g>
 <defs>
  <clipPath id="p616b875644">
   <rect x="63.2" y="32.562" width="162.205" height="139.75"/>
  </clipPath>
  <clipPath id="pc52257b210">
   <rect x="294.995" y="32.562" width="162.205" height="139.75"/>
  </clipPath>
 </defs>
</svg>
